/* XPM */
static char *feather_4[] = {
  /* width height ncolors chars_per_pixel */
  "4 8 3 1 0 0",
  /* colors */
  "! c #000000",
  "# c None",
  "$ c #ffffff",
  /* pixels */
  "#!!#",
  "!$$!",
  "!$$!",
  "!$$!",
  "!$$!",
  "!$$!",
  "!$$!",
  "#!!#",
};
