/* XPM */
static char *feather_25[] = {
  /* width height ncolors chars_per_pixel */
  "16 8 4 1 0 0",
  /* colors */
  "! c #000000",
  "# c #c0c0c0",
  "$ c None",
  "% c #ffffff",
  /* pixels */
  "$$$$$$$$$$$$$$$$",
  "$$$$!!!!!!!$$$$$",
  "$!!!%%%%%%!!!!$$",
  "!!!####%%%%%%!!!",
  "!!%%%%%########!",
  "$$!!!%%%%%%%%!!$",
  "$$$$!!%%%%%!!$$$",
  "$$$$$$!!!!!$$$$$",
};
