/* XPM */
static char *xevil_icon[] = {
/* width height num_colors chars_per_pixel */
"    32    32        9            1",
/* colors */
". c #ffffff",
"# c #ffff00",
"a c #ff0000",
"b c #c0c0c0",
"c c #808080",
"d c #808000",
"e c #800000",
"f c None",
"g c #000000",
/* pixels */
"ffffffffffffffgggggggfffffffffff",
"fffffffffffffgbb.bb.bgggffffffff",
"ffffffffffffgb.beggebbecggffffff",
"ffffffffffgge..egccce.becbgfffff",
"fffffffffg.cebcgggggce.bc.bgffff",
"fffffffgg.bcebgeea#aeeb.bcbbgfff",
"fffffggbbbbecbgd#aae#gebbbbcgfff",
"ffffgb.b.ecebcee#de#dgebecbccgff",
"ffffgeegcbeebcaed##degcbecccegff",
"fffffgeegebebgeae#deagebeeceegff",
"ffffffgc#geebgee#d#eegebeeeeegff",
"ffffffggdgg.ege#deddegebeeegegff",
"ffffffggaeggeggdaad#egcebeggegff",
"fffffgcegg.cggggeagcgeecebegggff",
"ffffgbeceeg.cceegggeecgecb..bbgf",
"fffgc.ce.cgg.bb....bceeccb....cg",
"fffgeccebcgcg.ceccb.bb....b.bbcg",
"ffffgeeggbbcbbbceggggee..ccgcceg",
"fffffgggegggggggegeeegeeccgegegf",
"ffffffggc#bebbecbe.bcegecgegggff",
"ffffffggbb.b.#b.#b#begggbeggffff",
"ffffffgggb#b.#b.#bcgcggg.begffff",
"fffffggececc#bbcegceggcgbbbegfff",
"ffffgbge.bceecgccbegecee..bcegff",
"fffg.gec#b.b.#cbeggebeebb.bccgff",
"ffgebcgebc#b#beggebbebbb.bbcegff",
"fgcbebcgeebebegebcbcbccccbcegfff",
"fgbcbc.ccggggcbc.bcccceceeegffff",
"fgec.bc.bbbbb.cbcceeeggggggfffff",
"ffgec..cbceecbcceegggfffffffffff",
"fffggecbb...bcegggffffffffffffff",
"fffffggggggggggfffffffffffffffff"
};
