/* XPM */
static char *bomb_31[] = {
  /* width height ncolors chars_per_pixel */
  "28 26 3 1 0 0",
  /* colors */
  "! c #000000",
  "# c #808080",
  "$ c None",
  /* pixels */
  "$$$$$$$$$$$!!$$!!$$$$$$$$$$$",
  "$$$$$$$$$!!!!!!!!!!$$$$$$$$$",
  "$$$$$$$$!!!!!!!!!!!!$$$$$$$$",
  "$$$$$$$!!!##!!!!##!!!$$$$$$$",
  "$$$$$$!!!#!#!!!!#!#!!!$$$$$$",
  "$$$$$$!!#!!#!!!!#!!#!!$$$$$$",
  "$$$$$!!!#!!#!!!!#!!#!!!$$$$$",
  "$$$$$!!!####!!!!####!!!$$$$$",
  "$$$$$!!!!!!!!!!!!!!!!!!$$$$$",
  "$$$$$!!#####!!!!#####!!$$$$$",
  "$$$$$!!#!!!#!!!!#!!!#!!$$$$$",
  "$$$$$!!#!!!#!!!!#!!!#!!$$$$$",
  "$$$$$!!#!!!#!!!!#!!!#!!$$$$$",
  "$$$$$!!#!!!#!!!!#!!!#!!$$$$$",
  "$$$$$!!#!!!#!!!!#!!!#!!$$$$$",
  "$$$$$!!#!!!#!!!!#!!!#!!$$$$$",
  "$$$$$!!#####!!!!#####!!$$$$$",
  "$$$$$!!!!!!!!!!!!!!!!!!$$$$$",
  "$$$$$!!!####!!!!####!!!$$$$$",
  "$$$$$!!!#!!#!!!!#!!#!!!$$$$$",
  "$$$$$$!!#!!#!!!!#!!#!!$$$$$$",
  "$$$$$$!!!#!#!!!!#!#!!!$$$$$$",
  "$$$$$$$!!!##!!!!##!!!$$$$$$$",
  "$$$$$$$$!!!!!!!!!!!!$$$$$$$$",
  "$$$$$$$$$!!!!!!!!!!$$$$$$$$$",
  "$$$$$$$$$$$!!$$!!$$$$$$$$$$$",
};
