/* XPM */
static char *hero_39[] = {
  /* width height ncolors chars_per_pixel */
  "14 62 12 1 0 0",
  /* colors */
  "! c #000000",
  "# c #d49f00",
  "$ c #666600",
  "% c #333366",
  "& c #aa9f00",
  "' c #555555",
  "( c #aa5f55",
  ") c #a28d68",
  "* c #ffff00",
  "+ c None",
  ", c #ff9f55",
  "- c #699900",
  /* pixels */
  "++++!%!!!!!!!+",
  "+++!%!%%%%%%!+",
  "+++!'!'''''!++",
  "+++!!%!''!!+++",
  "+++!''%!!+++++",
  "+++!''%!++++++",
  "+++!''%!++++++",
  "+++'''%!++++++",
  "+++'''%!++++++",
  "+++'''%!++++++",
  "+++'''%!++++++",
  "+++!''%!++++++",
  "+++-!'%!++++++",
  "+++$$!%'++++++",
  "+++$&-!%'+++++",
  "+++$&--!%+++++",
  "+++$&---$+++++",
  "+++$&---$$++++",
  "+++$&&&-$$++++",
  "+++$&&&&-$++++",
  "++++&&&&&$++++",
  "+++$&&&&&$++++",
  "+++$&&&&&$++++",
  "+++$&&&&&$++++",
  "+++$&&&&&$++++",
  "+++$&&&&&$++++",
  "+++$&&&$&$$+++",
  "++$$$$$$$)$+++",
  "++$)))))))$+++",
  "++$)))))))$(++",
  "++$$$$$$$$-$++",
  "++$&&&-&&&&$++",
  "++$&&-&&&&&$++",
  "++$&--&&&&&$(+",
  "++$&---&&&&-$+",
  "++$&&&--&&&&$+",
  "++$&&&&---$&$+",
  "++$&&&((&$&&$+",
  "++$&&(((&&&&$+",
  "++$&(,,,((&&$+",
  "++$(,,,,,(&&$+",
  "++((,,,,,(&-$+",
  "+++(,,,,(($$++",
  "++#((,,,,(,$(+",
  "+#*(,,,,,(,$++",
  "+*#(,,,,,(,(++",
  "##*(,,,,,(((++",
  "#*#(,,,,,(((++",
  "*##(,,,,,(,(++",
  "##*,(,,,,(,+++",
  "**##(,,,(((+++",
  "*+#(,,,,(+++++",
  "++*(,,,,(+++++",
  "+++(,,,((+++++",
  "+++(,,,((+++++",
  "+++(,,,(++++++",
  "+++(,,((++++++",
  "+++(,,,((+++++",
  "+++(,,,,(+++++",
  "+++(,,,,(+++++",
  "+++(,,,(++++++",
  "++++(((+++++++",
};
