/* XPM */
static char *hero_20d[] = {
  /* width height ncolors chars_per_pixel */
  "30 66 18 1 0 0",
  /* colors */
  "! c #000000",
  "# c #d49f00",
  "$ c #663300",
  "% c #666600",
  "& c #660066",
  "' c #333366",
  "( c #aa9faa",
  ") c #aa9f00",
  "* c #555555",
  "+ c #aa5f55",
  ", c #a28d68",
  "- c #a0a0a4",
  ". c #808080",
  "/ c #ffff00",
  "0 c None",
  "1 c #ffbf55",
  "2 c #ff9f55",
  "3 c #699900",
  /* pixels */
  "000000000000000000000000000000",
  "000000000000000000000000000000",
  "00+0+0+00000000000000000000000",
  "0+2+++000000000000000000000000",
  "0+222+000000000000000000000000",
  "0+22++0000000000000000000+0000",
  "0+22+0000000000000000++++2+000",
  "0+22+0000000000000000+222++000",
  "+2+++0000000000000000+22+2+000",
  "+22+000000//#//###0000+22++000",
  "+22+0000000/##///#0000+222+000",
  "+222+0000/##/#/###00000+2++000",
  "+222+00000/#/#//#+00000+22++00",
  "+222+00000+#/##/##00000+222+00",
  "+222+00000+#/#//#+00000+22++00",
  "++22+00000##/##/#000000+112+00",
  "0+222++000+#/##/##00000+22++00",
  "0++22++000+#####/+00000+222+00",
  "00+222+000++#/##+%0000++222+00",
  "00+222++%%%%+)*+-%++++22222+00",
  "000+2223)))))).+))222+2222++00",
  "000+222))))))+*-))+222222++000",
  "0000+22)))))*.+))))22222+00000",
  "00000++))))+.*))))))222+000000",
  "000000%))))*++))))))2++0000000",
  "0000000%)))-**))))%0+000000000",
  "00000000%*.++)))))%00000000000",
  "00000000%**-)))3))%00000000000",
  "00000000%*+)))33))%00000000000",
  "00000000*%%%%))))%000000000000",
  "000%%%%0*,,,,%%%%%000000000000",
  "000%3)3%*%%%,,,,,%000000000000",
  "00%)))))))))%%%%%%%00000000000",
  "00%))))))))))))())%00000000000",
  "00%)))))))))))3)))%00000000000",
  "00%)))))))))))))))%00000000000",
  "00%3))))))))3*3))))%0000000000",
  "00!!!))))))3*3))))))%000000000",
  "00!!!**)%)3'%3))))))%000000000",
  "00!!!)*!0%%*0%3))))))%00000000",
  "00!!!**!000000*)))))))%0000000",
  "00!!***!0000000%))))))%0000000",
  "00!***!!00000000%))))))%000000",
  "00!!**!!00000000%3)))))%000000",
  "00!!**!0000000000%)))))!000000",
  "00!!**!00000000000%*3)!!000000",
  "00!!*!!00000000000'*'!!!000000",
  "00!!**!&000000000'*''!!!000000",
  "00!!**!!000000000'*''!!!000000",
  "000**!!!000000000'*''!!!000000",
  "00!!*!!!000000000!!!'!!!000000",
  "00!***'!00000000$'*''!!0000000",
  "00!!*!!!00000000!'*''!!0000000",
  "00!!!!!!00000000!!!!'!00000000",
  "0000000000000000!'**'!00000000",
  "0000000000000000!'*!!000000000",
  "0000000000000000!!!**000000000",
  "000000000000000!!!***000000000",
  "000000000000000!!!''0000000000",
  "00000000000000!!!!!!!000000000",
  "00000000000000!!!!!!!!00000000",
  "00000000000000!!!!!!!!00000000",
  "000000000000000000000000000000",
  "000000000000000000000000000000",
  "000000000000000000000000000000",
  "000000000000000000000000000000",
};
