/* XPM */
static char *hero_20f[] = {
  /* width height ncolors chars_per_pixel */
  "30 66 18 1 0 0",
  /* colors */
  "! c #000000",
  "# c #d49f00",
  "$ c #330066",
  "% c #666600",
  "& c #660066",
  "' c #333366",
  "( c #aa9faa",
  ") c #aa9f00",
  "* c #555555",
  "+ c #aa5f55",
  ", c #a28d68",
  "- c #a0a0a4",
  ". c #808080",
  "/ c #ffff00",
  "0 c None",
  "1 c #ffbf55",
  "2 c #ff9f55",
  "3 c #699900",
  /* pixels */
  "000000000000000000000000000000",
  "000000000000000000000000000000",
  "000000000000000000000000+0+0+0",
  "0000000000000000000000000+++2+",
  "000000000000000000000000+222++",
  "000000000000000000000000+2222+",
  "0000++++00000000000000000+22++",
  "000+222+00000000000000000+222+",
  "000+222+00000000000000000+22++",
  "000+22+00000//#//###00000+222+",
  "000+22+000000/##///#00000+222+",
  "00++2++0000/##/#/###00000+212+",
  "00+222+00000/#/#//#+0000+2222+",
  "00+22+000000+#/##/##0000+222+0",
  "00++1+000000+#/#//#+000+2222+0",
  "00+22+000000##/##/#000+2222+00",
  "00+22+000000+#/##/##0+222+2+00",
  "00+222+00000+#####/+0+2+22+000",
  "00+22+++0000++#/##+%++222+0000",
  "00+22222++%%%%+)*+-+2222+00000",
  "00+2222222+)))+).+))222+000000",
  "000+2222222))))+*-))+2+0000000",
  "000++2222)))))*.+))))+00000000",
  "0000++222))))).*)))))%00000000",
  "00000+++3))))*++)))))%00000000",
  "000000000+)))-**))))%000000000",
  "0000000000)*.++)))))%000000000",
  "00000000000**-)))3))%000000000",
  "00000000000*+)))33))%000000000",
  "0000000000*+)))))%%%%*00000000",
  "0000000000*.+%%%%,,,,*00000000",
  "0000000000*%%,,,,,%%%**%%%0000",
  "0000000000%,,,,%%%))-)))))%000",
  "00000000000%%%%))))))))))))%00",
  "0000000000%()))3))))))))))))%0",
  "0000000000%)))3)))))))))))))%0",
  "0000000000%)))%3))))))))))))%0",
  "0000000000%))))%3)))))))*))!%0",
  "0000000000)))))))%)))**!!)!!00",
  "000000000%))))))%0%%%0!!*!!!00",
  "000000000%)))))%000000!''!!000",
  "000000000%)))))%000000!!'!!000",
  "000000000%)))))%00000!!!!!!000",
  "00000000%)))))%000000'**!!0000",
  "00000000%)))))%00000!!!!!$0000",
  "00000000%))))%000000'!!!!!0000",
  "0000000%!!!!)%000000!'**!!0000",
  "0000000!!!'!%000000!'**!!00000",
  "0000000'**'!!000000!!!!!!00000",
  "000000!'*'!!!000000!***!!!0000",
  "000000!'*'!!!000000!!***!!0000",
  "000000!''*'!!000000!!'***!0000",
  "000000!''*'!!0000000!!!*!!0000",
  "000000!'**'!!00000000000000000",
  "000000&'**'!!00000000000000000",
  "000000!''*'!000000000000000000",
  "000000!'**'!000000000000000000",
  "0000000'**'!000000000000000000",
  "0000000'**'!000000000000000000",
  "000000!!!*'0000000000000000000",
  "0000***!'!00000000000000000000",
  "0000****!'00000000000000000000",
  "0000''''!'!0000000000000000000",
  "00000!!!!!!0000000000000000000",
  "000000000000000000000000000000",
  "000000000000000000000000000000",
};
