/* XPM */
static char *hero_20[] = {
  /* width height ncolors chars_per_pixel */
  "30 66 19 1 0 0",
  /* colors */
  "! c #000000",
  "# c #d49f00",
  "$ c #666666",
  "% c #d41faa",
  "& c #666600",
  "' c #333366",
  "( c #aa9faa",
  ") c #aa9f00",
  "* c #555555",
  "+ c #aa5f55",
  ", c #a28d68",
  "- c #a0a0a4",
  ". c #808080",
  "/ c #ffff00",
  "0 c None",
  "1 c #ffbf55",
  "2 c #ff9f55",
  "3 c #333300",
  "4 c #699900",
  /* pixels */
  "000000000000000000000000000000",
  "00000000000000000000000000+0+0",
  "000000000000000000000000++2+2+",
  "000000000000000000000000+2++2+",
  "000000000000000000000000+222++",
  "000000000000000000000000+22+2+",
  "0000000000000000000000000++22+",
  "000000000000000000000000+2222+",
  "000000000000000000000000*222++",
  "000000000000//#//###0000+2222+",
  "0000000000000/##///#0000$+222+",
  "00000000000/##/#/###0000++222+",
  "000+00000000/#/#//#+0000+1222+",
  "00+2+++00000+#/##/##0000++222+",
  "00+222+00000+#/#//#+000+222#2+",
  "00+222+00000##/##/#000+222222+",
  "00++2+000000+#/##/##0+222##2+0",
  "00+222+00000+#####/+0+2#22++00",
  "00+222+00000++#/##+&.222#+0000",
  "00+222%000&&&&+)*+-+)2222+0000",
  "00+22200+&+))))).+))))22+00000",
  "00+222+++4)))))+*-))))++000000",
  "00+22+222)))))*.+))))&00000000",
  "0+22+2222))))+.*)))))&00000000",
  "0+2222224))++*++)))))&00000000",
  "0+222222++*))-**))))&000000000",
  "00+2++++00)*.++)))4)&000000000",
  "000+0000000**-)))44)&000000000",
  "00000000000*+)))))))&000000000",
  "0000000000*&&&&)))))&000000000",
  "0000000000*,,,,&&&&&&000000000",
  "000000000**&&&,,,,,,&000000000",
  "000000&&&)))))&&&,,,&000000000",
  "00000&)44))))))))&&&&000000000",
  "0000&'44))))))))4))4(000000000",
  "000&))))))))))4))))4&000000000",
  "00&)))))))))))4*)))))&00000000",
  "00&4)))))))))4*4)))))&00000000",
  "00&4)4)4!*&)4'&)4)))))&0000000",
  "00&!!!!*)!0&&&0&)))))4&0000000",
  "000!!!*!!0000000&)))))&0000000",
  "0000!'*''!000000&')))4&0000000",
  "0000!!!*!!0000000&4))4)&000000",
  "00000!!!!!!000000&)))))&000000",
  "00000!!*'*'000000&&)))))&00000",
  "000000!!!3*'0000000&4))4&00000",
  "000000!!!!!'0000000'!!!)!00000",
  "000000!!**'!0000000!**'!!00000",
  "0000000!!**'!000000'**'!!00000",
  "0000000!!!!!!000000'**'!!00000",
  "000000!!!***!000000!'*'!!00000",
  "000000!!***!!000000'*''!!00000",
  "000000!***'!000000!'**'!000000",
  "000000!!*!00000000!!'*'!000000",
  "000000000000000000!'*''!000000",
  "000000000000000000!'**'!000000",
  "000000000000000000!'**'0000000",
  "0000000000000000000'*!!0000000",
  "000000000000000000!'!**0000000",
  "000000000000000000'!****000000",
  "000000000000000000'!''''!00000",
  "000000000000000000!!!!!!!00000",
  "000000000000000000000000000000",
  "000000000000000000000000000000",
  "000000000000000000000000000000",
  "000000000000000000000000000000",
};
