/* XPM */
static char *hero_18[] = {
  /* width height ncolors chars_per_pixel */
  "30 66 16 1 0 0",
  /* colors */
  "! c #000000",
  "# c #d49f00",
  "$ c #666600",
  "% c #333366",
  "& c #aa9f00",
  "' c #555555",
  "( c #aa5f55",
  ") c #aa3f55",
  "* c #a28d68",
  "+ c #a0a0a4",
  ", c #808080",
  "- c #ffff00",
  ". c None",
  "/ c #ff9f55",
  "0 c #333300",
  "1 c #699900",
  /* pixels */
  ".......................(.(.(..",
  ".......................((((/(.",
  "........................(//((.",
  ".......................(//(/(.",
  "........................((/((.",
  "........................(///(.",
  "........................((/((.",
  ".........................(///(",
  ".........................(///(",
  "............--#--###.....(///(",
  ".............-##---#....(////(",
  "...........-##-#-###....)////(",
  "............-#-#--#(....((///(",
  "............(#-##-##....((///(",
  "............(#-#--#(....((///(",
  "............##-##-#.....(///(.",
  "............(#-##-##...(////(.",
  "...(........(#####-(..(/////(.",
  "..(/(((.....((#-##($..(/////(.",
  "..(///(..$$$$$(&'(+$$((////(..",
  "..(///(..$(&&&(&,(&&&/////(...",
  "..(///((($&&&&&('+&&&////(....",
  "...(//(/(&&&&&',(&&&&///(.....",
  "...(//(//&&&&(,'&&&&&&/(......",
  "..(//(///&&&('((&&&&&$/(......",
  "..(//(///(&&&+''&&&&$.(.......",
  "..(/(///(&&',((&&1&&$.........",
  "..(//////$&''+&&&1&&$.........",
  "..(////(..$'(&&&&&&&$.........",
  "..(///(...'$$$$$&&1$..........",
  "..((((....'****$$$$$..........",
  "...(...$$''$$$*****$..........",
  "....$.$1&&&&&&$$$$$$$.........",
  "...$1$1&&&&&&&&&&&&&$.........",
  "..$&&&&&&&&&&&&&1&&1$.........",
  "..$&&&&&&&&&&&&&&&&&$.........",
  "..$11&&&&&&&&&1'1&&&&$........",
  "..$!!'1&&&&&&1'1&&&&&$........",
  "..!!!%!'!$$$1%$&&&&&&&$.......",
  "..!!!'''....$'.$&&&&&&$.......",
  "...!!%!'!.......'&&&&&$.......",
  "...!!%''.........$&&&&&$......",
  "...!!'''!........$&&&&&$......",
  "...!!'''!........$&&&&&$......",
  "....!%''0........$&&&&&&$.....",
  "....!'''!!.......$&&&&&&$.....",
  "....!'''!!........$&&&&&$.....",
  "....!'''%!........$&&&&&$.....",
  ".....''!!!........!11&%!!.....",
  "....!!'%!!........!!!%%!!.....",
  "...!%%'%!!.........%'%%!!.....",
  "...!!!!!!..........!'%%!!.....",
  "...................!!%%!!.....",
  "...................!'%%!!.....",
  "..................!!'%%!......",
  "..................!!!%%!......",
  "..................!!'%%!......",
  "..................!%'%%!......",
  "..................!%'!%!......",
  "..................!!!!%!......",
  "..................!!''%.......",
  "...................%'!!!......",
  "..................!%!'''......",
  "..................%!''''......",
  "..................%!%%%%!.....",
  "...................!!!!!!.....",
};
