/* XPM */
static char *crack_pipe_4[] = {
  /* width height ncolors chars_per_pixel */
  "20 10 4 1 0 0",
  /* colors */
  "! c #000000",
  "# c #c0c0c0",
  "$ c None",
  "% c #ffffff",
  /* pixels */
  "$#######$$$$$$$$$$$$",
  "$#!!!!!#$$$$$$$$$$$$",
  "$#!%%%!#$$$$$$$$$$$$",
  "$$#!%!#$$$$$$$$$$$$$",
  "$#!!%!!##$########$$",
  "#!!!%!!!!#!!!!!!!#$$",
  "#!%%%%%%!!!!%%%%!#$$",
  "#!%%%%%%!!!!%%%%!#$$",
  "$#!!!!!!!#!!!!!!!#$$",
  "$$#######$########$$",
};
