/* XPM */
static char *green_hugger_5[] = {
  /* width height ncolors chars_per_pixel */
  "20 18 5 1 0 0",
  /* colors */
  "! c #000000",
  "# c #008000",
  "$ c #808000",
  "% c #ff0000",
  "& c None",
  /* pixels */
  "&&##&&&&&&&&&&&&&&&&",
  "&&##&&&&&&&&&&##&&&&",
  "&&&!&&&&&&&&&&##&&&&",
  "&&&&!&&&&&&&&&!&&&&&",
  "&&&&&!$!!!!!$!&&&&&&",
  "&&&&$$!$!!!$!$&&&&&&",
  "&&&$$$$!$$$!$$$&&&&&",
  "&&&$$$$$$$$$$$$$&&&&",
  "&&$$$$$$$$$$$$$$$&&&",
  "&$$$$$$$$$$$$$&$$$&&",
  "&$$&&&$$$$$$$&&&$$&&",
  "$$&&&$$$&&&$$$&&&$$&",
  "$$&&$$$&&&&&&$$&&$$&",
  "$&&&$$&&&&&&&$$&&$$&",
  "$$&&$&&&&&&&&$$&&$$&",
  "&$&&$$&&&&&&$$&&$$&&",
  "&$$&%%&&&&&%%&&$$&&&",
  "&&%%&&&&&&&&&&&%&&&&",
};
