/* XPM */
static char *green_hugger_4b[] = {
  /* width height ncolors chars_per_pixel */
  "26 32 6 1 0 0",
  /* colors */
  "! c #000000",
  "# c #800000",
  "$ c #008000",
  "% c #808000",
  "& c #ff0000",
  "' c None",
  /* pixels */
  "'''''''''''''''''$$''''%&&",
  "''''''$$'''''''''$$'''%%%'",
  "''''''$$'''''''''!''%%%'''",
  "''''''''!'''''''!'''%%''''",
  "'''''''''!%%%%%%!%%%%%''''",
  "''''''''%!%%%%%!%%%%%'''''",
  "''''''%%%%!%%!%!%'''''''''",
  "'''%%%%%'%%!!!!%%''''''''&",
  "'%%%%''''%%%!!%%%'''''%%%&",
  "&&%''''''%%%!!%%%''%%%%%%'",
  "'''''''%%%%%!!%%%%%%%%''''",
  "'''''%%%%%%%!!%%%%%%''''''",
  "'''%%%'''%%%!!%%%'''''''''",
  "''%%%'''''%%!!%%''''''''''",
  "'%%'''''%%%%!!%%%'''''''''",
  "'%%'''''%%%%!!%%%%''''''''",
  "%%''''%%%%'%!!%'%%''''''''",
  "&'''''%%'''%%%%''%%'''''''",
  "&'''''%%'''%%%%'''%%''''''",
  "''''''%'''''%%'''''%''''''",
  "''''&#''''''%%'''''%&'''''",
  "''''&'''''''%%'''''&&'''''",
  "''''''''''''%%''''''''''''",
  "''''''''''''%%''''''''''''",
  "'''''''''''''%%'''''''''''",
  "'''''''''''''%%'''''''''''",
  "'''''''''''''%%'''''''''''",
  "'''''''''''''%%'''''''''''",
  "''''''''''''&!!&&'''''''''",
  "'''''''''''''&!&''''''''''",
  "'''''''''''''&&'''''''''''",
  "''''''''''''''&'''''''''''",
};
