/* XPM */
static char *alien_2[] = {
  /* width height ncolors chars_per_pixel */
  "52 56 14 1 0 0",
  /* colors */
  "! c #000000",
  "# c #800080",
  "$ c #330066",
  "% c #d400ff",
  "& c #d400aa",
  "' c #330000",
  "( c #660066",
  ") c #333366",
  "* c #550000",
  "+ c #663366",
  ", c #aa3faa",
  "- c #808080",
  ". c None",
  "/ c #333300",
  /* pixels */
  ".....................----...........................",
  ".................----!$'!---........................",
  ".............----'$''!(!!'!'--......................",
  "...........--!('$!---------!$'-..............-......",
  "..........-!$'!---.........---..............-!-.....",
  ".........-''!--..........................-.-'!-.....",
  ".......--'$--...........................-!-!$!'-....",
  "......-!'$!-............................-!-#!$!--...",
  ".....-'$!--.............................-''$('!!!-..",
  "...--!$'-...............................-$$'$'$'!-..",
  "..-!'$--................................-'('$''$-!-.",
  "..-'$'-......................----......-!($!$!(!''-.",
  ".-!(!-......................-!'!!--...-!((-!'$(($--.",
  ".-$'-......................-!(($$'!-.-!((!-!('$'!'!-",
  "-!$!-.....................-!(####($!-!$(!-!(($'$'!-.",
  "-'$-......................-!#(((#&('!$($-!($'-----..",
  "-'$'-.....................-($'$((#&$(('!'#(!-.......",
  "-''-...........--.........-$#'!'$$((($'$#(!-........",
  "-!(!-.........-!!---------'!'(!!'#(#')(&(!-.........",
  "-!($-..........-!'''''('$')$$(#&&#($+,($!-..........",
  ".-$'--..........---!$!!''''(&&&($(#(#$!--...........",
  ".-'('!-.........--------!!$(#($$'((!---.............",
  ".-'$$--........-'$''!!!!!!/'$'!'!'$+/-..............",
  "..-$''!-.......-!'$($($($'$$(''$--!'-...............",
  "..-'($!-........---!''$((!'+'($'!---................",
  "..-!$(!-.......-!------!'!'$$'$'-...................",
  "...-'($'--....-!$((!!---!!$('$$!-...................",
  "...-!$*$'!--...-!'$(((('($/'$(''-...................",
  "....-'$$$'!!--..--!'$((((')$'($!-...................",
  ".....-'(($$(!!------!''$$')'$('!-...................",
  "......-!'*($'$!!!!!-!-!'('/$''$!-...................",
  ".......--!$*($'$''$!$'$$$$!'!)!!-...................",
  ".........-!!((($($('($*(*#$$'/'!!-..................",
  "..........--!!'('($($($$$'(($$$$'!-.................",
  "............---!!'!!!!!''$((''#($$!-................",
  "...............--------$((&($((((*$!--..............",
  ".....................-!'$(&$'((((#('!!-.............",
  "......................-'((&($$$'$$(($'-.............",
  "......................-'$(%#''!'(#($!-..............",
  "......................-'((%($-!$(#'!-...............",
  ".....................--!(##('-'(&#$-................",
  "..............--...--!'$$&('--!(&('-................",
  ".............-!!---''$$((&'-.-$(&('-................",
  ".............-''-!'((##($(!---'&#$!-................",
  "............-!($'$#&#&('$(!!'!$#('-.................",
  "............-$((##&#((!-!!'!($(#$-..................",
  "...........-!'(##(($'!-.----$'(((!-.................",
  "...........-!(($('!---.....-!(($('-.................",
  "............-$(('!-.........-$(($!-.................",
  "............-!$($!-.........-((((!-.................",
  ".............-!(('!-.........-$(('-.................",
  "..............-!(($-..........-'($'-................",
  "...............-!((!-..........-'(#'-...............",
  "................-!$!-...........-!($-...............",
  ".................-!-.............-!!-...............",
  "..................-...............--................",
};
