/* XPM */
static char *alien_25[] = {
  /* width height ncolors chars_per_pixel */
  "60 22 15 1 0 0",
  /* colors */
  "! c #000000",
  "# c #008000",
  "$ c #800080",
  "% c #330066",
  "& c #d400ff",
  "' c #d400aa",
  "( c #330000",
  ") c #660066",
  "* c #333366",
  "+ c #550000",
  ", c #663366",
  "- c #808080",
  ". c #00ff00",
  "/ c None",
  "0 c #333300",
  /* pixels */
  "////////////////////////////////////////////////////////////",
  "////////////////////-------/////////////////////////////////",
  "//////////----------!!)%)!!-------//////////---------//--///",
  "/////////-!!!((%(%(%(%!!!(%((%(%(!-/////----!!!(((!(!--!!--/",
  "///////--(%))%!((!(-%(---(!----!!(%-///-!..))))%%()%)%))!!!-",
  "//////-!%%(-!----%)!)%--!)!-/-!----///-().')%))$)%())%#(%((-",
  "/////-(%((-/-//-))))$(--()%(-(!-/////-!..%)%(%(!!--!!(.#(!-/",
  "////-!)(--////-())))(!!(%%$$()!-/////-!.)))!-----//---...-//",
  "////-)%(-////-!%)())%))$))'$()%(-////-..%$(-////////////////",
  "///-(%!-/////-%)%.%))-$'..'$))$)-////-($%)%-////////////////",
  "//-()(-/////-()).)-'''))%)''%)$(-//./-('))!-////////////////",
  "/-!%%(-/////-().)$'$))()))'')(%%---.--%'$)(-///--///////////",
  "-!%)!-//////-%).))+%()-%))&)(%(!(!!.!!($)(!-//-0*-//////////",
  "-()(!-//////-(%.%()%---+)$')%!%(%(%.%(%)')!---!*,!-/////////",
  "-%)%!-//////-!(.))))-/-))')(....))().%()'))-(())(!-/////////",
  "-%+%(-//////-(%.#%%)-/-%$'%%.0%)%))).)(%'(%..%))%!-/////////",
  "-()%(-//////-)).#)(%-/-))$%(%!(,(*+%)%(%-%).))')(-//////////",
  "/-(%)--------%(%.(-----())($!((*,%%(,(%+-)).)''((-//////////",
  "/-!(%!(!(%((%%+%%)()(%$%).)))%!(!%(%*%(%%+$.$').!-//////////",
  "//-!!())())..)%)(%)%)))$%(.%()%($(!.(!%(*%).')%..-//////////",
  "//-%)%)%%)(%.##(%(%)%())($.##())$!!.%(!(!!!$)%(!.///////////",
  "///---..!!%!-.#...(!!%)%))).....)--).......%(!!.....###..../",
};
