/* XPM */
static char *altar_of_sin_4[] = {
  /* width height ncolors chars_per_pixel */
  "48 64 71 1 0 0",
  /* colors */
  "! c #000000",
  "# c #d49fff",
  "$ c #d49faa",
  "% c #d49f55",
  "& c #d49f00",
  "' c #ccffff",
  "( c #d45faa",
  ") c #a6caf0",
  "* c #663300",
  "+ c #d45f55",
  ", c #d45f00",
  "- c #330066",
  ". c #d43f55",
  "/ c #d43f00",
  "0 c #d400aa",
  "1 c #d40055",
  "2 c #330000",
  "3 c #d40000",
  "4 c #666600",
  "5 c #660066",
  "6 c #333366",
  "7 c #669966",
  "8 c #aabfaa",
  "9 c #550000",
  ": c #ccccff",
  "; c #aa9faa",
  "< c #aa9f55",
  "= c #aa9f00",
  "> c #990066",
  "? c #555555",
  "@ c #aa5faa",
  "A c #669999",
  "B c #aa5f55",
  "C c #aa5f00",
  "D c #aa3faa",
  "E c #aa3f55",
  "F c #a28d68",
  "G c #aa3f00",
  "H c #d5ccbb",
  "I c #a0a0a4",
  "J c #ffffaa",
  "K c #ffff55",
  "L c #ff0000",
  "M c #ffccff",
  "N c #ffff00",
  "O c None",
  "P c #ffbfaa",
  "Q c #ffbf55",
  "R c #aa0000",
  "S c #ffffff",
  "T c #ffbf00",
  "U c #ff9fff",
  "V c #ff9faa",
  "W c #ff9f55",
  "X c #ff9f00",
  "Y c #ff5fff",
  "Z c #ff5faa",
  "[ c #ff5f55",
  "] c #ff5f00",
  "^ c #ff3faa",
  "_ c #ff3f55",
  "` c #ff3f00",
  "a c #666699",
  "b c #ff0055",
  "c c #d4ffaa",
  "d c #333300",
  "e c #699900",
  "f c #d4bfaa",
  "g c #d4bf55",
  "h c #336666",
  "i c #d4bf00",
  /* pixels */
  "OOOOOOOOOOOOOOOOOOOT]OJKOT]OOOOOOOOOOOOOOOOOOOOO",
  "OOOOOOOOOOOOOOOOOOO]COKKO]COOOOOOOOOOOOOOOOOOOOO",
  "OOOOOOOOOOOJKOT]OOOOUMMMMUOOOJKOT]OJKOOOOOOOOOOO",
  "OOOOOOOOT]OKKO]COJKS$333EUJKOKKO]COKKOOOOOOOOOOO",
  "OOOOOJKO]CYUUUMOOKKS3333EMKKOOMJ$$$HST]OOOOOOOOO",
  "OOOOOKKMSH+BE.BMOOOS33R33SOOT]M33333S]COOOT]OOOO",
  "OOT]OMS+3333333ST]OMERRRRST]]CS33333SOOJKO]COOOO",
  "OO]CS$33333333RJ]COVBRRRES]COU+R33R3JOOKKS$SOJKO",
  "OOUS+333333RRRR$OOO#$RRREUOOOMBRRRR3:T]OU$3+SKKO",
  "JKSE33333RRRRBBJKOT]$9R9G:JKOSRRRRRRf]COS333$MOO",
  "KK$333R3RR+ST]OKKO]CHR99EMKKOH9RRRRR$OOUP3333ST]",
  "OOH33R3R$JKO]CMMHUOOS?99?POOMBR9EBRR$JKMB3R3EM]C",
  "T]S+R3EPSKKISJB9BPJKH?99?HT]S?99I$RRBKKSRR3RSUOO",
  "]COSRRR'!HSHE9999SKKH?22BH]C:999PS99IBH$RRRESJKO",
  "OOOS$RRBSIE999922H?!II22?I6If22BSS99BISERRRSUKKO",
  "OOJKSE9RR999?IS22IHT]H2!?JKS?22HIS?9BIH99RIMOOOO",
  "OOKKMP9999BHSHS?!6S]CS!!FKKS-!?SJKB9ESE9REST]OOO",
  "OOOOOSE*@J:I6JKH!!SI!S!!a$IH!!HIKKI2?S999$#]COOO",
  "OOOOT]HSHaT]6KKS?!IJKS6!?T]I!6S?!?H!?I22BS^OOOOO",
  "OOOO]COJK6]CISHI!!?KKH?!I]C?!IP!T]S!6229HJKOOOOO",
  "OOOOOOOKK?HSH?!!!6HI6ISHHIISHS?!]CS2!!!ISKKOOOOO",
  "OOOOOOO!HSI6!!!?HSH6T]6JK6T]6T]!66H?!!6SOOOOOOOO",
  "OOOOOOT]H6!!!ISSIT]6]4!gg!/4!]C6JK)?!!HT]OOOOOOO",
  "OOOOOO]CIS6ISSJK!]C6!555555?!!66KKIH??S]COOOOOOO",
  "OOOOOOO?6HHH?OKK!!!!?HHJHIHI555!!OT]III-OOOOOOOO",
  "OOOOOKO5JK2T]O!!!!!?$S$922EII9?550]C2JK2OTOOOOOO",
  "OOOOKT(9KK5]CO6!!>5RSS92???RHI*?I?26?KK6gTTOOOOO",
  "OOOOKTBGD@@?BO6!ESIR)B22222?9HI?;I5?B@BB%iWOOOOO",
  "OOOOK&++VSc$B0E5SHARf29R3T3R9IHI?IA5$cH$<TWOOOOO",
  "OOKOKTCPSSM??>HHHHRI;2=i`39i29IIII?5IM$@=TWOKOOO",
  "OKTQKTBSSSF>HSHSRB9$F9RiCGi429I9?F?h5F.Rg&WKTQOO",
  "OKTWKXBPPZ.5RR2I)RR)B3ReiiC92?I9???9-.3R<TWKTWOO",
  "OKTWKi,[[[_R?RR2R8R;2R3Rie9329I99?995.1R=TWKTWOO",
  "OKTWKTB_[[_>95AN29>f29Ri=i9929I99929-.1R<TWKTWOO",
  "OKTWKTBb[[_1?52C22H929iC94C929I99929-E1@g&WKTWOO",
  "OKTWKBC_ZV$IB52L99dR224334i92?9I92!95@$$=BWKTWOO",
  "OKTWB2?[PSSF?IR22Ha2222932?299?9I922-If$?2BKTWOO",
  "OKTWB9?PSSI?$R?R9*HI?9922299?29?I8II??B@?9BKTWOO",
  "OKBWBW?SSH5@S7>c@2-HI$HHHHI?99??IIHII?-9?%BKBWOO",
  "OB2BWTBPP(?9B?RI72??HAR??IHIIIHI$III??-9BTWB2BOO",
  "OB9BK&B[[[>?992-II?III?9222299$)??2??25R<TWB9BOO",
  "OBWBKTC_[[_R5229*22222292999299??22225>R<TWBWBOO",
  "OWTWKTBb[[_>?52BiIEII*?I9HI?929?222-?E>@i&WWTWOO",
  "OKTWKXB_ZV$$B52IIHIHiIHiIiI9!2!B22-E($$$<TWKTWOO",
  "OKTWKi,[PSSH?52dIgIHiIHiI?2?222II95@cSH$<TWKTWOO",
  "OKTWKTBPSSHB?29?9B?iII?92?92!?2AI?9-IS$@=TWKTWOO",
  "OKTWKTBSSSB?I29HI?9*?2??I229?99II7?25B.Rg&WKTWOO",
  "OKTWKXCPPD5H29?iIHIHi?I9229?99AII@h?-.3R<TWKTWOO",
  "OKTWKiB[E?9I?29I?iI&I9229AF57aBI7??9-.1R=TWKTWOO",
  "OKTWKTB.5?I9I?299I9I929A?B????????2-E_1R<TWKTWOO",
  "OKTWKXC15I?I?H??2222?A?I@h???269296E[_1@g&WKTWOO",
  "OKTWKTB.59?II?IIIAFAI?B??929-5--5-EZV$$$=TWKTWOO",
  "OKTWK&,[I59?II?@?99?B??29-5-6?!!!O[PSSH$<TWKTWOO",
  "OKTWKTBPPI659?I7III??2-5-!!???!!!OPSSS$@<TWKTWOO",
  "OKTWKTBSSS@E-5-555-5-566!!!???!!!OSSS$.Ri&WKTWOO",
  "OKTWKXCPPZ_39O6!!!6?6!!!???!!!???OPPZ_3R<TWKTWOO",
  "OKTWKi+[[[_1RO?!!!???!!!???!!!???O[[[_1R<TWKTWOO",
  "OKTWKTB_[[_1RO?!!!???!!!???!!!???O_[[_1RgiWKTWOO",
  "OKT&&&&&&&&&&&&&&,&,C,CCCCCCCCCCCCCCCCCCCCCCTWOO",
  "OKTCG*G*G**G*G******G*G*G*GCCG*G*G*G*GCG*GCCTWOO",
  "OKTW&22&2222&2222C2222C2222C2222C2222C222CCKTWOO",
  "OKTW&2*&22*2&22d9C22d9C2d9dC2d2*C2d2*C22*CCKTWOO",
  "OKTW&**&2***,d*9*C****C29**C2***C2***C2**CCKTWOO",
  "OKTW&**&9***C****Cd***Cd***Cd***C****C2**CCKTWOO",
};
