/* XPM */
static char *altar_of_sin_4c[] = {
  /* width height ncolors chars_per_pixel */
  "48 64 69 1 0 0",
  /* colors */
  "! c #000000",
  "# c #d49fff",
  "$ c #d49faa",
  "% c #d49f55",
  "& c #d49f00",
  "' c #ccffff",
  "( c #d45faa",
  ") c #a6caf0",
  "* c #663300",
  "+ c #d45f55",
  ", c #d45f00",
  "- c #330066",
  ". c #d43f55",
  "/ c #d400aa",
  "0 c #d40055",
  "1 c #330000",
  "2 c #d40000",
  "3 c #666600",
  "4 c #660066",
  "5 c #333366",
  "6 c #669966",
  "7 c #aabfaa",
  "8 c #550000",
  "9 c #ccccff",
  ": c #aa9faa",
  "; c #aa9f55",
  "< c #aa9f00",
  "= c #990066",
  "> c #555555",
  "? c #aa5faa",
  "@ c #669999",
  "A c #aa5f55",
  "B c #aa5f00",
  "C c #aa3f55",
  "D c #a28d68",
  "E c #aa3f00",
  "F c #d5ccbb",
  "G c #a0a0a4",
  "H c #ffffaa",
  "I c #ffff55",
  "J c #ff0000",
  "K c #ffccff",
  "L c #ffff00",
  "M c None",
  "N c #ffbfaa",
  "O c #ffbf55",
  "P c #aa0000",
  "Q c #ffffff",
  "R c #ffbf00",
  "S c #ff9fff",
  "T c #ff9faa",
  "U c #ff9f55",
  "V c #ff9f00",
  "W c #ff5fff",
  "X c #ff5faa",
  "Y c #ff5f55",
  "Z c #ff5f00",
  "[ c #ff3faa",
  "] c #ff3f55",
  "^ c #ff3f00",
  "_ c #666699",
  "` c #ff0055",
  "a c #d4ffaa",
  "b c #333300",
  "c c #699900",
  "d c #d4bfaa",
  "e c #d4bf55",
  "f c #336666",
  "g c #d4bf00",
  /* pixels */
  "MMMMMMMMMMMMMMMMMMMHIMRZMHIMMMMMMMMMMMMMMMMMMMMM",
  "MMMMMMMMMMMMMMMMMMMIIMZBMIIMMMMMMMMMMMMMMMMMMMMM",
  "MMMMMMMMMMMRZMHIMMMMSKKKKSMMMRZMHIMRZMMMMMMMMMMM",
  "MMMMMMMMHIMZBMIIMRZQ$222CSRZMZBMIIMZBMMMMMMMMMMM",
  "MMMMMRZMIIWSSSKMMZBQ2222CKZBMMKH$$$FQHIMMMMMMMMM",
  "MMMMMZBKQF+AC.AKMMMQ22P22QMMHIK22222QIIMMMHIMMMM",
  "MMHIMKQ+2222222QHIMKCPPPPQHIIIQ22222QMMRZMIIMMMM",
  "MMIIQ$22222222PHIIMTAPPPCQIIMS+P22P2HMMZBQ$QMRZM",
  "MMSQ+222222PPPP$MMM#$PPPCSMMMKAPPPP29HIMS$2+QZBM",
  "RZQC22222PPPPAARZMHI$8P8E9RZMQPPPPPPdIIMQ222$KMM",
  "ZB$222P2PP+QHIMZBMIIFP88CKZBMF8PPPPP$MMSN2222QHI",
  "MMF22P2P$RZMIIKKFSMMQ>88>NMMKAP8CAPP$RZKA2P2CKII",
  "HIQ+P2CNQZBGQHA8ANRZF>88>FHIQ>88G$PPAZBQPP2PQSMM",
  "IIMQPPP'!FQFC8888QZBF>11AFII9888NQ88GAF$PPPCQRZM",
  "MMMQ$PPAQGC888811F>!GG11>G5Gd11AQQ88AGQCPPPQSZBM",
  "MMRZQC8PP888>GQ11GFHIF1!>RZQ>11FGQ>8AGF88PGKMMMM",
  "MMZBKN8888AFQFQ>!5QIIQ!!DZBQ-!>QRZA8CQC8PCQHIMMM",
  "MMMMMQC*?H9G5RZF!!QG!Q!!_$GF!!FGZBG1>Q888$#IIMMM",
  "MMMMHIFQF_HI5ZBQ>!GRZQ5!>HIG!5Q>!>F!>G11AQ[MMMMM",
  "MMMMIIMRZ5IIGQFG!!>ZBF>!GII>!GN!HIQ!5118FRZMMMMM",
  "MMMMMMMZB>FQF>!!!5FG5GQFFGGQFQ>!IIQ1!!!GQZBMMMMM",
  "MMMMMMM!FQG5!!!>FQF5HI5RZ5HI5HI!55F>!!5QMMMMMMMM",
  "MMMMMMHIF5!!!GQQGHI5Ie!,*!ee!II5RZ)>!!FHIMMMMMMM",
  "MMMMMMIIGQ5GQQRZ!II5!444444>!!55ZBGF>>QIIMMMMMMM",
  "MMMMMMM>5FFF>MZB!!!!>FFHFGFG444!!MHIGGG-MMMMMMMM",
  "MMMMMIM>RZ5HIM!!!!!>$Q$811CGG8>44/II5RZ1MRMMMMMM",
  "MMMMIR(>ZB4IIM5!!=4PQQ81>>>PFG*>G>55>ZB1eRRMMMMM",
  "MMMMIRACCCE=8M5!CQGP)A11111>8FG>:G4>CE=8%gUMMMMM",
  "MMMMI&,.YY]=8/C4QF@Pd18P2R2P8GFG>G@4.]0P;RUMMMMM",
  "MMIMIRA`YY.=>=FFFFPG:1<g^28g18GGGG>4C.0?<RUMIMMM",
  "MIROIRB]XT?=FQFQPA8$D8PgBEg318G8>D>f4?$$e&UIROMM",
  "MIRUIVAYNQF4PP1G)PP)A2PcggB81>G8>>>8-FF$;RUIRUMM",
  "MIRUIg+NQQQA>PP1P7P:1P2Pgc8218G88>884F$?<RUIRUMM",
  "MIRUIRBQQQ$C84@L18=d18Pg<g8818G88818-A.P;RUIRUMM",
  "MIRUIRANNX]2841B11F818gB83B818G88818-.2Pe&UIRUMM",
  "MIRUIAAYYY]0841J88bP113223g81>8G81!84C0P<AUIRUMM",
  "MIRUA1>]YY.P>GP11F_1111821>188>8G811-=0P>1AIRUMM",
  "MIRUA8>`YYC>$P>P8*FG>8811188>18>G7GG>>=?>8AIRUMM",
  "MIAUAU>]X(4?Q6=a?1-FG$FFFFG>88>>GGFGG>-G>%AIAUMM",
  "MA1AURAYNF>8A>PG61>>F@P>>GFGGGFG$GGG>>-AARUA1AMM",
  "MA8AI&ANQQG>881-GG>GGG>8111188$)>>1>>14>%gUA8AMM",
  "MAUAIRBQQQ$C4118*11111181888188>>11114CP;RUAUAMM",
  "MURUIRANNX]P841AgGCGG*>G8FG>818>111->CPPe&UURUMM",
  "MIRUIVAYYY]0841GGFGFgGFgGgG8!1!A11-C.]0P<RUIRUMM",
  "MIRUIg,]YY]0841bGeGFgGFgG>1>111GG84C+]0P;RUIRUMM",
  "MIRUIRA`YY.=>18>8A>gGG>81>81!>1@G>8-C]0?;RUIRUMM",
  "MIRUIRA]XT?>G18FG>8*>1>>G118>88GG6>14?$$g&UIRUMM",
  "MIRUIVBYNG4F18>gGFGFg>G8118>88@GG?f>-FF$;RUIRUMM",
  "MIRUIgANG>8G>18G>gG&G8118@D46_AG6>>8-F$?;RUIRUMM",
  "MIRUIRBF4>G8G>188G8G818@>A>>>>>>>>1-G$.P<RUIRUMM",
  "MIRUIVA$4G>G>F>>1111>@>G?f>>>158185GX]2Pe&UIRUMM",
  "MIRUIRB+48>GG>GGG@D@G>A>>818-4--4-CYY]0P;RUIRUMM",
  "MIRUI&+]C48>GG>?>88>A>>18-4-5>!!!M]YY]0P<RUIRUMM",
  "MIRUIRA`YC548>G6GGG>>1-4-!!>>>!!!M`YY]0?;RUIRUMM",
  "MIRUIRB]XT?A-4-444-4-455!!!>>>!!!M]XT$$$e&UIRUMM",
  "MIRUIVAYNQQFAM5!!!5>5!!!>>>!!!>>>MYNQQF$<RUIRUMM",
  "MIRUIg+NQQQ$?M>!!!>>>!!!>>>!!!>>>MNQQQ$?;RUIRUMM",
  "MIRUIRBQQQ$.PM>!!!>>>!!!>>>!!!>>>MQQQ$.PegUIRUMM",
  "MIR&&&&&&&&&&&&&&,&,B,BBBBBBBBBBBBBBBBBBBBBBRUMM",
  "MIRBE*E*E**E*E******E*E*E*EBBE*E*E*E*EBE*EBBRUMM",
  "MIRU&11&1111&1111B1111B1111B1111B1111B111BBIRUMM",
  "MIRU&1*&11*1&11b8B11b8B1b8bB1b1*B1b1*B11*BBIRUMM",
  "MIRU&**&1***,b*8*B****B18**B1***B1***B1**BBIRUMM",
  "MIRU&**&8***B****Bb***Bb***Bb***B****B1**BBIRUMM",
};
