/* XPM */
static char *altar_of_sin_4b[] = {
  /* width height ncolors chars_per_pixel */
  "48 64 70 1 0 0",
  /* colors */
  "! c #000000",
  "# c #d49fff",
  "$ c #d49faa",
  "% c #d49f55",
  "& c #d49f00",
  "' c #ccffff",
  "( c #d45faa",
  ") c #a6caf0",
  "* c #663300",
  "+ c #d45f55",
  ", c #d45f00",
  "- c #330066",
  ". c #d43f55",
  "/ c #d400aa",
  "0 c #d40055",
  "1 c #330000",
  "2 c #d40000",
  "3 c #666600",
  "4 c #660066",
  "5 c #333366",
  "6 c #669966",
  "7 c #aabfaa",
  "8 c #550000",
  "9 c #aabf55",
  ": c #ccccff",
  "; c #aa9faa",
  "< c #aa9f55",
  "= c #aa9f00",
  "> c #990066",
  "? c #555555",
  "@ c #aa5faa",
  "A c #669999",
  "B c #aa5f55",
  "C c #aa5f00",
  "D c #aa3faa",
  "E c #aa3f55",
  "F c #a28d68",
  "G c #aa3f00",
  "H c #d5ccbb",
  "I c #a0a0a4",
  "J c #ffffaa",
  "K c #ffff55",
  "L c #ff0000",
  "M c #ffccff",
  "N c #ffff00",
  "O c None",
  "P c #ffbfaa",
  "Q c #ffbf55",
  "R c #aa0000",
  "S c #ffffff",
  "T c #ffbf00",
  "U c #ff9fff",
  "V c #ff9faa",
  "W c #ff9f55",
  "X c #ff9f00",
  "Y c #ff5fff",
  "Z c #ff5faa",
  "[ c #ff5f55",
  "] c #ff3faa",
  "^ c #ff3f55",
  "_ c #ff3f00",
  "` c #666699",
  "a c #ff0055",
  "b c #d4ffaa",
  "c c #333300",
  "d c #699900",
  "e c #d4bfaa",
  "f c #d4bf55",
  "g c #336666",
  "h c #d4bf00",
  /* pixels */
  "OOOOOOOOOOOOOOOOOOOJKOJKOJKOOOOOOOOOOOOOOOOOOOOO",
  "OOOOOOOOOOOOOOOOOOOKKOKKOKKOOOOOOOOOOOOOOOOOOOOO",
  "OOOOOOOOOOOJKOJKOOOOUMMMMUOOOJKOJKOJKOOOOOOOOOOO",
  "OOOOOOOOJKOKKOKKOJKS$222EUJKOKKOKKOKKOOOOOOOOOOO",
  "OOOOOJKOKKYUUUMOOKKS2222EMKKOOMJ$$$HSJKOOOOOOOOO",
  "OOOOOKKMSH+BE.BMOOOS22R22SOOJKM22222SKKOOOJKOOOO",
  "OOJKOMS+2222222SJKOMERRRRSJKKKS22222SOOJKOKKOOOO",
  "OOKKS$22222222RJKKOVBRRRESKKOU+R22R2JOOKKS$SOJKO",
  "OOUS+222222RRRR$OOO#$RRREUOOOMBRRRR2:JKOU$2+SKKO",
  "JKSE22222RRRRBBJKOJK$8R8G:JKOSRRRRRReKKOS222$MOO",
  "KK$222R2RR+SJKOKKOKKHR88EMKKOH8RRRRR$OOUP2222SJK",
  "OOH22R2R$JKOKKMMHUOOS?88?POOMBR8EBRR$JKMB2R2EMKK",
  "JKS+R2EPSKKISJB8BPJKH?88?HJKS?88I$RRBKKSRR2RSUOO",
  "KKOSRRR'!HSHE8888SKKH?11BHKK:888PS88IBH$RRRESJKO",
  "OOOS$RRBSIE888811H?!II11?I5Ie11BSS88BISERRRSUKKO",
  "OOJKSE8RR888?IS11IHJKH1!?JKS?11HIS?8BIH88RIMOOOO",
  "OOKKMP8888BHSHS?!5SKKS!!FKKS-!?SJKB8ESE8RESJKOOO",
  "OOOOOSE*@J:I5JKH!!SI!S!!`$IH!!HIKKI1?S888$#KKOOO",
  "OOOOJKHSH`JK5KKS?!IJKS5!?JKI!5S?!?H!?I11BS]OOOOO",
  "OOOOKKOJK5KKISHI!!?KKH?!IKK?!IP!JKS!5118HJKOOOOO",
  "OOOOOOOKK?HSH?!!!5HI5ISHHIISHS?!KKS1!!!ISKKOOOOO",
  "OOOOOOO!HSI5!!!?HSH5JK5JK5JK5JK!55H?!!5SOOOOOOOO",
  "OOOOOOJKH5!!!ISSIJK5Kf!ff!ff!KK5JK)?!!HJKOOOOOOO",
  "OOOOOOKKIS5ISSJK!KK5!444444?!!55KKIH??SKKOOOOOOO",
  "OOOOOOO?5HHH?OKK!!!!?HHJHIHI444!!OJKIII-OOOOOOOO",
  "OOOOOKO4JK5JKO!!!!!?$S$811EII8?44/KK5JK5OTOOOOOO",
  "OOOOKT+?KK?KKO5!!>4RSS81???RHI*?I?55?KK5fTTOOOOO",
  "OOOOKTBIIIBE8O5!ESIR)B11111?8HI?;I4?IBER<TWOOOOO",
  "OOOOK&+$PZ.R8/E4SHARe18R2T2R8IHI?IA4(.2R<TWOOOOO",
  "OOKOKTB[[[^>?>HHHHRI;1=h_28h18IIII?4E^0R=TWOKOOO",
  "OKTQKTC^[[.>HSHSRB8$F8RhCGh318I8?F?g4.0R9&WKTQOO",
  "OKTWKTBa[[.4RR1I)RR)B2RdhhC81?I8???8-.0@<TWKTWOO",
  "OKTWK&+^ZV$B?RR1R7R;1R2Rhd8218I88?884@$$&TWKTWOO",
  "OKTWKTC[PSSIB4AN18>e18Rh=h8818I88818-HH$<hWKTWOO",
  "OKTWKTBPSSS$?41C11H818hC83C818I88818-)$@9XWKTWOO",
  "OKTWKBBSSS$E841L88cR113223h81?8I81!84B.R=BWKTWOO",
  "OKTWB1?PPZ^R?IR11H`1111821?188?8I811-E2R?1BKTWOO",
  "OKTWB8?[[[G?$R?R8*HI?8811188?18?I7II??>R?8BKTWOO",
  "OKBWBW?^[.4@S6>b@1-HI$HHHHI?88??IIHII?-8?%BKBWOO",
  "OB1BWTBa[+?8B?RI61??HAR??IHIIIHI$III??-EBTWB1BOO",
  "OB8BK&B^ZV@?881-II?III?8111188$)??1??14I<TWB8BOO",
  "OBWBKTC[PSbI4118*11111181888188??11114I%<TWBWBOO",
  "OWTWKTBPSSSI?41BhIEII*?I8HI?818?111-?II@f&WWTWOO",
  "OKTWKXBSSS$.841IIHIHhIHhIhI8!1!B11-IH$.R=TWKTWOO",
  "OKTWKh,PPZ^2841cIfIHhIHhI?1?111II84B(^2R<TWKTWOO",
  "OKTWKTB[[[.>?18?8B?hII?81?81!?1AI?8-E^0R<TWKTWOO",
  "OKTWKTB^[[E?I18HI?8*?1??I118?88II6?14.0Rh&WKTWOO",
  "OKTWKXCa[E4H18?hIHIHh?I8118?88AII@g?-.0@<TWKTWOO",
  "OKTWKh+^D?8I?18I?hI&I8118AF46`BI6??8-@$$<TWKTWOO",
  "OKTWKTB+4?I8I?188I8I818A?B????????1-ISH$=TWKTWOO",
  "OKTWKXB$4I?I?H??1111?A?I@g???158185ISS$@f&WKTWOO",
  "OKTWKTCH48?II?IIIAFAI?B??818-4--4-ISS$.R<TWKTWOO",
  "OKTWK&BPI48?II?@?88?B??18-4-5?!!!OPPZ^2R=TWKTWOO",
  "OKTWKTB[[E548?I6III??1-4-!!???!!!O[[[^0R<TWKTWOO",
  "OKTWKTC^[[.>-4-444-4-455!!!???!!!O^[[^0Rf&WKTWOO",
  "OKTWKXBa[[^0?O5!!!5?5!!!???!!!???Oa[[^0@=TWKTWOO",
  "OKTWKh+^ZV$$$O?!!!???!!!???!!!???O^ZV$$$<TWKTWOO",
  "OKTWKTC[PSSH$O?!!!???!!!???!!!???O[PSSH$fhWKTWOO",
  "OKT&&&&&&&&&&&&&&,&,C,CCCCCCCCCCCCCCCCCCCCCCTWOO",
  "OKTCG*G*G**G*G******G*G*G*GCCG*G*G*G*GCG*GCCTWOO",
  "OKTW&11&1111&1111C1111C1111C1111C1111C111CCKTWOO",
  "OKTW&1*&11*1&11c8C11c8C1c8cC1c1*C1c1*C11*CCKTWOO",
  "OKTW&**&1***,c*8*C****C18**C1***C1***C1**CCKTWOO",
  "OKTW&**&8***C****Cc***Cc***Cc***C****C1**CCKTWOO",
};
