/* XPM */
static char *frog_shell_4b[] = {
  /* width height ncolors chars_per_pixel */
  "10 10 3 1 0 0",
  /* colors */
  "! c #66cc66",
  "# c #008000",
  "$ c None",
  /* pixels */
  "$$$$$$$$$$",
  "$!$$##$$!$",
  "$$!####!$$",
  "$$#!##!#$$",
  "$###!!###$",
  "$###!!###$",
  "$$#!##!#$$",
  "$$!####!$$",
  "$!$$##$$!$",
  "$$$$$$$$$$",
};
