/* XPM */
static char *rock_4[] = {
  /* width height ncolors chars_per_pixel */
  "26 26 3 1 0 0",
  /* colors */
  "! c #c0c0c0",
  "# c #808080",
  "$ c None",
  /* pixels */
  "$$$$$$$$$$$$$$$$$$$$$$$$$$",
  "$$$$$$$$#######$$$$$$$$$$$",
  "$$$$$$###########$$$$$$$$$",
  "$$$$$$#############$$$$$$$",
  "$$$$$######!!!!!#####$$$$$",
  "$$$$######!!!!!!!!####$$$$",
  "$$$$######!!!!!!!!!!###$$$",
  "$$####!###!!!!!!!!!!!###$$",
  "$$####!!##!!!!!!!!!!!!##$$",
  "$$###!!!!!#!!!!!!!!!!!##$$",
  "$$###!!!!!!!!!!!!!!!!!###$",
  "$#####!!!!!!!!!!!!!!!!###$",
  "$#######!!!!!!!!!!!!!!###$",
  "$########!!!!!!!!!!!!##!#$",
  "$##########!!!!!!!!!##!!#$",
  "$######!!###!!!!!!###!!##$",
  "$######!!!!!!!!!!##!!!!##$",
  "$########!!!!!!!!!!!!####$",
  "$####!!###############!!#$",
  "$$###!!!##############!!#$",
  "$$$####!!!###########!!##$",
  "$$$#####!!!#####!!!!!!!!#$",
  "$$$$#####!!!!!!!!!!!!!!##$",
  "$$$$######!!!!!!!#######$$",
  "$$$$$####!!!!!#########$$$",
  "$$$$$$$#############$$$$$$",
};
