/* XPM */
static char *dog_38[] = {
  /* width height ncolors chars_per_pixel */
  "18 24 9 1 0 0",
  /* colors */
  "! c #000000",
  "# c #550000",
  "$ c #555555",
  "% c #aa3f55",
  "& c #d5ccbb",
  "' c #a0a0a4",
  "( c None",
  ") c #ffffff",
  "* c #ff5faa",
  /* pixels */
  "((('$(((((((((((((",
  "((($&&)(((((((((((",
  "((()&)((((((((((((",
  "(&(&&))(((((&(((((",
  "()&$&#(((()&)(((((",
  ")&!'&))(((($)(((((",
  "&$)'&#%((()&)(((((",
  "&')'&')%%%#')(((((",
  "'&'$&&###*)&'(((((",
  "'&&&&)&'''')''((((",
  "(&')))))))))&&''((",
  "&&)&&&&))&)))))&'(",
  "&)(((&&&&)))))))&'",
  ")(((((&&))))&&'))&",
  "((((((&))))&&'$$$)",
  "((((((&)))&&'$'$$(",
  "((((((&)))&&((('$$",
  "((((((&)))&&'((('$",
  "(((((((&)))&'$((('",
  "(((((((&)))&&'$$((",
  "((((((()&&)))&'$'(",
  "((((((()&((())&$((",
  "(((((()&&((((()&((",
  "((((()&&((((((()((",
};
