/* XPM */
static char *soul_swapper_4[] = {
  /* width height ncolors chars_per_pixel */
  "30 14 8 1 0 0",
  /* colors */
  "! c #000080",
  "# c #008080",
  "$ c #c0c0c0",
  "% c #ff0000",
  "& c #ffff00",
  "' c #0000ff",
  "( c None",
  ") c #00ffff",
  /* pixels */
  "(((((((($$$(((((((((((((((((((",
  "((((((($!!!$((((((((((((((((((",
  "(((((($!!&!!$(((((((((((((((((",
  "(((((($!&!&!$($$$$$$$$$$$$($$$",
  "(((((($!!&!!$$############$!!$",
  "($$$$$($!!!$$$#)##)##)##)#$!!$",
  "$!!!!!!$!!!!!!#)##)##)##)#!!%$",
  "$!''''!!!!!!!!#)##)##)##)#!!%$",
  "$!'''''!'$$'$$#)##)##)##)#$!!$",
  "$!'''!!$!'''$$############$!!$",
  "$!!!!!$$!!$$$($$$$$$$$$$$$($$$",
  "$!!$$$($!!$(((((((((((((((((((",
  "($$$(($'!!$(((((((((((((((((((",
  "((((((($$$((((((((((((((((((((",
};
