/* XPM */
static char *grenade_4[] = {
  /* width height ncolors chars_per_pixel */
  "16 16 7 1 0 0",
  /* colors */
  "! c #000000",
  "# c #808000",
  "$ c #333366",
  "% c #808080",
  "& c #ff0000",
  "' c #ffff00",
  "( c None",
  /* pixels */
  "((((((((((((((((",
  "((((((((((((((((",
  "((((((((((((((((",
  "((((((((((((((((",
  "((((!!!!!!((((((",
  "(((!!##!!#!$((((",
  "((!!###!##$$((((",
  "(!#!!!!!!$$$%(((",
  "!!!!##!##$$%%%%(",
  "!##!#!!##$$%##!(",
  "!##!#!!##$$##'!(",
  "!!!!##!!!$$$!&&(",
  "(!#!!!!!##$$!(((",
  "((!!####!#!(((((",
  "(((!!###!!!(((((",
  "((((!!!!!!((((((",
};
