/* XPM */
static char *doppelganger_4b[] = {
  /* width height ncolors chars_per_pixel */
  "22 24 5 1 0 0",
  /* colors */
  "! c #008000",
  "# c #808000",
  "$ c #008080",
  "% c None",
  "& c #ff7faa",
  /* pixels */
  "%%%%%%%%%%%%%%%%%%%%%%",
  "%%%%%%%%%%%%%%%%%%%%%%",
  "%%%%%%%%%%%%%%%%%%%%%%",
  "%%%%%%%%%%%%%%%%%%%%%%",
  "%%%%%%%%%%%%%%%%%%%%%%",
  "%%%%%%%%%%%%%%%%%%%%%%",
  "%%%&&&&&%%%%%%%&&&%%%%",
  "%%&&$$$&&%%%%%&$$$&%%%",
  "%&&$!!!$&&%%%&$!!!$&%%",
  "%&$!&!!!$&%%&$!&&!!$&%",
  "%&$&!!&&$&&%&$&$$$!$&%",
  "%&$&!!!&$$&&&$&$#!!$&&",
  "&&$&!!!$&$$$$$&$#!!$$&",
  "&$!!!!!$!!!!!!&$#!!!$&",
  "&$!!!!!!!!!&&&&$#!!!$&",
  "&$!!!!!##&&&%&&$#!!!$&",
  "&$!!!!!#!&%%%&!$!!!!$&",
  "&$$#!!!!$&&&&&!!!!!$&&",
  "&&$#!!!!$$%%$$!!!!#$&%",
  "%&$##!!!$&&&&$!!!##$&%",
  "%&$!#!!!$&%%&$!###!$&%",
  "%&&$##!$&&%%&&$##!$&&%",
  "%%&&$$$&&%%%%&&$$$&&%%",
  "%%%&&&&&%%%%%%&&&&&%%%",
};
