/* XPM */
static char *doppelganger_4[] = {
  /* width height ncolors chars_per_pixel */
  "22 24 6 1 0 0",
  /* colors */
  "! c #008000",
  "# c #808000",
  "$ c #008080",
  "% c #ff0000",
  "& c None",
  "' c #ff5fff",
  /* pixels */
  "&&&&&&&&&&&&&&&&&&&&&&",
  "&&&&&&&&&&&&&&&&&&&&&&",
  "&&&&&&&&&&&&&&&&&&&&&&",
  "&&&&&&&&&&&&&&&&&&&&&&",
  "&&&&&&&&&&&&&&&&&&&&&&",
  "&&&&&&&&&&&&&&&&&&&&&&",
  "&&&'''''&&&&&&&'''&&&&",
  "&&''$$$''&&&&&'$$$'&&&",
  "&''$!!!$''&&&'$!!!$'&&",
  "&'$!'!!!$'&&'$!''!!$'&",
  "&'$'!!''$''&'$'$$$!$'&",
  "&'$'!!!%$$'''$'$#!!$''",
  "''$'!!!$%$$$$$'$#!!$$'",
  "'$!!!!!$!!!!!!%$#!!!$'",
  "'$!!!!!!!!!%%%'$#!!!$'",
  "'$!!!!!##'%%&''$#!!!$'",
  "'$!!!!!#!%&&&%!$!!!!$'",
  "'$$#!!!!$''%%%!!!!!$''",
  "''$#!!!!$$&&$$!!!!#$'&",
  "&'$##!!!$''''$!!!##$'&",
  "&'$!#!!!$'&&'$!###!$'&",
  "&''$##!$''&&''$##!$''&",
  "&&''$$$''&&&&''$$$''&&",
  "&&&'''''&&&&&&'''''&&&",
};
