/* XPM */
static char *auto_lancer_4[] = {
  /* width height ncolors chars_per_pixel */
  "40 12 9 1 0 0",
  /* colors */
  "! c #800000",
  "# c #008000",
  "$ c #000080",
  "% c #c0c0c0",
  "& c #333366",
  "' c #ff0000",
  "( c #0000ff",
  ") c None",
  "* c #00ffff",
  /* pixels */
  ")))))))%%%%%%%%%%%%%%)))))))))))))))))))",
  ")))))))%&&&&&&&&&&&&&%))))))))))))))))))",
  "))))))))%%&$$$$$$$$$$&%%%%))))))))))))))",
  ")))))))))%&'''''''''&(&&&%%)))))))%%%%%%",
  "%%%%%%%%%%%&&&&&&&&&&&'''&%%%%%%%%%&&&&%",
  "%&&&&&&&&&%&&(#*#*#*!!'!'!!&&&&&&&&&&&(%",
  "%&'&'&'&'&&'&&&&&&&&!!'!'!!$$$$$$$$&&&&%",
  "%&'&'&'&'&&&'''&&&&&&&'''&&&%%%%%%%%%%%%",
  "%&'&'&&&&%%&&&&&%%%%&&&&&&%%))))))))))))",
  "%&'&&%%%%%%&!&!&%)))%%%%%%%)))))))))))))",
  "%&&%%%))))%&&&&%%)))))))))))))))))))))))",
  "%%%%))))))%%%%%%))))))))))))))))))))))))",
};
