/* XPM */
static char *tick_3_0[] = {
  /* width height ncolors chars_per_pixel */
  "16 14 4 1 0 0",
  /* colors */
  "! c #000080",
  "# c #c0c0c0",
  "$ c #808080",
  "% c None",
  /* pixels */
  "!!%%%%%%%%%%%%%%",
  "%!!!%%%%%%%%%%%%",
  "%%!#!!!%%%%%%%%%",
  "%%!####!!%%%%%%%",
  "%%%!#####!!%%%%%",
  "%%%!#######!!!%%",
  "%%%%!!!!!!!!!!!!",
  "%%%%!!!!!!!!!!!!",
  "%%%!$$$$$$$!!!%%",
  "%%%!$$$$$!!%%%%%",
  "%%!$$$$!!%%%%%%%",
  "%%!$!!!%%%%%%%%%",
  "%!!!%%%%%%%%%%%%",
  "!!%%%%%%%%%%%%%%",
};
