/* XPM */
static char *tick_0_7[] = {
  /* width height ncolors chars_per_pixel */
  "16 16 4 1 0 0",
  /* colors */
  "! c #c0c0c0",
  "# c #808080",
  "$ c #ffff00",
  "% c None",
  /* pixels */
  "%%%%%%%%%%%%%$$$",
  "%%%%%%%%%%%$$!$$",
  "%%%%%%%%%$$!!$#$",
  "%%%%%%%$$!!!$#$%",
  "%%%%%$$!!!!$##$%",
  "%%%$$!!!!!$##$%%",
  "%$$!!!!!!$###$%%",
  "$$$$!!!!$###$%%%",
  "%%%$$$!$####$%%%",
  "%%%%%$$####$%%%%",
  "%%%%%%$$###$%%%%",
  "%%%%%%%$##$%%%%%",
  "%%%%%%%$$#$%%%%%",
  "%%%%%%%%$$%%%%%%",
  "%%%%%%%%$$%%%%%%",
  "%%%%%%%%$%%%%%%%",
};
