/* XPM */
static char *weight_4[] = {
  /* width height ncolors chars_per_pixel */
  "28 30 12 1 0 0",
  /* colors */
  "! c #008080",
  "# c #a6caf0",
  "$ c #333366",
  "% c #ccccff",
  "& c #aa9faa",
  "' c #669999",
  "( c #d5ccbb",
  ") c #a0a0a4",
  "* c None",
  "+ c #336699",
  ", c #666699",
  "- c #336666",
  /* pixels */
  "****************************",
  "**********+-$$$-************",
  "*********+-$$$$$-***********",
  "********+-$$**-$$-**********",
  "********-$$****$$-**********",
  "********-$$****$$-**********",
  "***,++++++++++++++++$$$$****",
  "***,++-+-+-+++++-++--$$$****",
  "***++-+-++$$+,---+-+-$$$****",
  "***+-+-+$$-&('+-+-+-+$$$****",
  "***++-+-+'+#('-+-+-+-$$$****",
  "**,++++++-$(%'+-+-+-+$$$$***",
  "**,+------$#('-+-+-+-$$$$***",
  "**-+-+-++-$(%'+-+-+-+$$$$***",
  "**++-+-++-$#('-+-+-+-$$$$***",
  "**+++-+--+$(%'+-+-+-+-$$$***",
  "**+--+-++-$#('-+-+-+-+$$$***",
  "**+++-+-+!$#%'+-+-+-+-$$$$**",
  "*,++-+-+$$+(('-+-+-+-+$$$$**",
  "*,+-+-+--'&&')'--+-+-+$$$$**",
  "*+-+-+-+-+---+-++-+-+-$$$$**",
  "*++-+----++-+----+++-+$$$$**",
  "*++++-+-+--+-+-++-+-+--$$$**",
  "*++#####$-##'$+'#$-&&+-$$$**",
  "*+-$$#$$$&&$'#$$#)$#$-+$$$**",
  ",+-+-&$--#$-+($-#')&$++$$$$*",
  ",-+-+#$++&'$'#$-#$#($+-$$$$*",
  "++-+##&$+-#(#$+##-$#&-+$$$$*",
  "+-++-+---+-+-+--+-+-+-+$$$$*",
  "+++-+-+-+-+-+--+--++--+-$$$*",
};
