/* XPM */
static char *laser_28[] = {
  /* width height ncolors chars_per_pixel */
  "2 60 3 1 0 0",
  /* colors */
  "! c #008000",
  "# c #00ff00",
  "$ c None",
  /* pixels */
  "$!",
  "$!",
  "$!",
  "!!",
  "!!",
  "!!",
  "!!",
  "!!",
  "!!",
  "!!",
  "!!",
  "!!",
  "!!",
  "!!",
  "!!",
  "!!",
  "!!",
  "!!",
  "!!",
  "!!",
  "!!",
  "!#",
  "!#",
  "##",
  "##",
  "##",
  "##",
  "##",
  "##",
  "##",
  "##",
  "##",
  "##",
  "##",
  "##",
  "##",
  "##",
  "#!",
  "#!",
  "!!",
  "!!",
  "!!",
  "!!",
  "!!",
  "!!",
  "!!",
  "!!",
  "!!",
  "!!",
  "!!",
  "!!",
  "!!",
  "!!",
  "!!",
  "!!",
  "!!",
  "!!",
  "!$",
  "!$",
  "!$",
};
