/* XPM */
static char *napalm_grenades_4[] = {
  /* width height ncolors chars_per_pixel */
  "28 12 6 1 0 0",
  /* colors */
  "! c #000000",
  "# c #800000",
  "$ c #c0c0c0",
  "% c #333366",
  "& c #808080",
  "' c None",
  /* pixels */
  "'''$$$$$''''$$$$$''''$$$$$''",
  "'''$!!!$$'''$!!!$$'''$!!!$$'",
  "''$$&#!!$$'$$&#!!$$'$$&#!!$$",
  "'$$%&!$$!$$$%&!$$!$$$%&!$$!$",
  "'$!&%%!!$%$!&%%!!$%$!&%%!!$%",
  "$!!!##!!!$!!!##!!!$!!!##!!!$",
  "$!#!!!!#!$!#!!!!#!$!#!!!!#!$",
  "$!#!##!#!$!#!##!#!$!#!##!#!$",
  "$$!!##!!$$$!!##!!$$$!!##!!$$",
  "'$!!##!!$'$!!##!!$'$!!!!!!$'",
  "'$$$!!$$$'$$$!!$$$'$$$!!$$$'",
  "'''$$$$'''''$$$$'''''$$$$'''",
};
