/* XPM */
static char *dragon_0[] = {
  /* width height ncolors chars_per_pixel */
  "56 58 5 1 0 0",
  /* colors */
  "! c #000000",
  "# c #800000",
  "$ c #808000",
  "% c #ff0000",
  "& c None",
  /* pixels */
  "&&&&&&&&&&&&&&&&&&&&&&&&&&&&&&&&&&&&&&&&&&&&&&&&&&&&&&&&",
  "&&&&&&&&&&&&&$&&&&&&&&&&&&&&&&&&&&&&&&&&&&$&&&&&&&&&&&&&",
  "&&&&&&&&&&&&&$&&&&&&&&&&&&&&&&&&&&&&&&&&&&$&&&&&&&&&&&&&",
  "&&&&&&&&&&&&&$&&&&&&&&&&&&&&&&&&&&&&&&&&&$$&&&&&&&&&&&&&",
  "&&&&&&&&&&&&&$$&&&&&&&&&&&&&&&&&&&&&&&&&&$$&&&&&&&&&&&&&",
  "&&&&&&&&&&&&&$$$$&&&&&&&&&&&&&&&&&&&&&&&$$&&&&&&$&&&&&&&",
  "&&&&&&&$&&&&&&$$$&&&&&!!!!!!!!!!!!&&&&&$$&&&&&&&$&&&&&&&",
  "&&&&&&&$&&&&&&&$$$&!!!############!!!$$$$&&&&&&$$&&&&&&&",
  "&&&&&&&$$&&&&&&&!!!##################!!!&&&&&&&$&&&&&&&&",
  "&&&&&&&$$&&&&&&!########################!&&&&&$$&&&&&&&&",
  "&&&&&&&&$$&&&!!#########%%%%#############!!&&&$$&&&$&&&&",
  "&&&&$&&&&$$$!#########%%%%%%%%%%%%#########!$$$&&&&&$&&&",
  "&&&$&&&&&$!!######%%%%%%%%%%%%%%%%%%########!!&&&&&&$$&&",
  "&&&$&&&&&!######%%%%%%%%%%%%%%%%%%%%%%%#######!&&&&&$&&&",
  "&&&$$$&&!######%%%%%%%%%%%%%%%%%%%%%%%%%%######!&&&$$&&&",
  "&&&&$$$!######%%%%%%%%%%%%%%%%%%%%%%%%%%%%######!&$$&&&&",
  "&&&&&&!######%%%%%%%%%%%%%%%%%%%%%%%%%%%%%%######!$&&&&&",
  "&&&&&!######%%%%%%%%%%%%%%%%%%%%%%%%%%%%%%%%######!&&&&&",
  "&&&&&!#####%%%%%%%%%%%%%%%%%%%%%%%%%%%%%%%%%%#####!&&&&&",
  "&&&&!#####%%%%%%%%%%%%%%%%%%%%%%%%%%%%%%%%%%%%#####!&&&&",
  "&&&!#####%%%%%%%%%%%%%%%%%%%%%%%%%%%%%%%%%%%%%%#####!&&&",
  "&&&!####%%%%%%%%%%%%%%%%%%%%%%%%%%%%%%%%%%%%%%%#####!&&&",
  "&&!#####%%%%%%%%%%%%%%%%%%%%%%%%%%%%%%%%%%%%%%%%#####!&&",
  "&&!####%%%%%%%%%%%%%%%%%%%%%%%%%%%%%%%%%%%%%%%%%#####!&&",
  "&!#####%%%%%%%%%%%%%%%%%%%%%%%%%%%%%%%%%%%%%%%%%%#####!&",
  "&!#####%%%%%%%%%%%%%%%%%%%%%%%%%%%%%%%%%%%%%%%%%%#####!&",
  "&!#####%%%%%%%%%%%%%%%%%%%%%%%%%%%%%%%%%%%%%%%%%%#####!&",
  "!#######%%%%%%%%%%%%%%%%%%%%%%%%%%%%%%%%%%%%%%%%%######!",
  "!#######%%%%%%%%%%%%%%%%%%%%%%%%%%%%%%%%%%%%%%%%#######!",
  "!########%%%%%%%%%%%%%%%%%%%%%%%%%%%%%%%%%%%%%%%#######!",
  "!########%%%%%%%%%%%%%%%%%%%%%%%%%%%%%%%%%%%%%%%#######!",
  "!#########%%%%%%%%%%%%%%%%%%%%%%%%%%%%%%%%%%%%%########!",
  "!##########%%%%%%%%%%%%%%%%%%%%%%%%%%%%%%%%%%%%########!",
  "!##########%%%%%%%%%%%%%%%%%%%%%%%%%%%%%%%%%%%#########!",
  "!###########%%%%%%%%%%%%%%%%%%%%%%%%%%%%%%%%%##########!",
  "!############%%%%%%%%%%%%%%%%%%%%%%%%%%%%%%%###########!",
  "!#############%%%%%%%%%%%%%%%%%%%%%%%%%%%%%############!",
  "&!#############%%%%%%%%%%%%%%%%%%%%%%%%%%%############!&",
  "&!##############%%%%%%%%%%%%%%%%%%%%%%%%%%############!&",
  "&!################%%%%%%%%%%%%%%%%%%%%%%%#############!&",
  "&&!################%%%%%%%%%%%%%%%%%%%%%#############!&&",
  "&&!##################%%%%%%%%%%%%%%%%%%##############!&&",
  "&&&!##################%%%%%%%%%%%%%%%%##############!&&&",
  "&&&!####################%%%%%%%%%%%%%###############!&&&",
  "&&&&!####################%%%%%%%%%%%###############!&&&&",
  "&&&&&!#####################%%%%%%%%###############!&&&&&",
  "&&&&&!######################%%%%%#################!&&&&&",
  "&&&&&&!##########################################!&&&&&&",
  "&&&&&&&!########################################!&&&&&&&",
  "&&&&&&&&!######################################!&&&&&&&&",
  "&&&&&&&&&!####################################!&&&&&&&&&",
  "&&&&&&&&&&!!################################!!&&&&&&&&&&",
  "&&&&&&&&&&&&!##############################!&&&&&&&&&&&&",
  "&&&&&&&&&&&&&!!##########################!!&&&&&&&&&&&&&",
  "&&&&&&&&&&&&&&&!########################!&&&&&&&&&&&&&&&",
  "&&&&&&&&&&&&&&&&!!!##################!!!&&&&&&&&&&&&&&&&",
  "&&&&&&&&&&&&&&&&&&&!!!############!!!&&&&&&&&&&&&&&&&&&&",
  "&&&&&&&&&&&&&&&&&&&&&&!!!!!!!!!!!!&&&&&&&&&&&&&&&&&&&&&&",
};
