/* XPM */
static char *dragon_26b[] = {
  /* width height ncolors chars_per_pixel */
  "56 58 9 1 0 0",
  /* colors */
  "! c #000000",
  "# c #800000",
  "$ c #008000",
  "% c #808000",
  "& c #ff0000",
  "' c #ffff00",
  "( c None",
  ") c #ffffff",
  "* c #ff7f55",
  /* pixels */
  "((((((((((((((((((((((((((((((((((((((((((((((((((((((((",
  "((((((((((((((((((((((((((((((((((((((((((((((((((((((((",
  "(((((((((((((((((((((!!!!(((((((!!!!((((((((((((((((((((",
  "(%%%%(((((((((((((((!!'!(((((((((!'!!(((((((((((((%%%%%%",
  "%%%%%%%((((((((((((!!'!(((((((((((!'!(((((((%%%%%%%%%((%",
  "%(((((%%(((((((((((!'!((((((((((((!'!((((((%%%%%%%((((((",
  "%%(((((%%((((((((((!'!((((((((((((!'!(((((%%%%((((((((((",
  "(((((((%%%%((((((((!'!((((((((((((!'!(((%%%%((((((((((((",
  "(((((((((%%%%%(((((!'!((((!!!!((((!'!(((%%((((((((((((((",
  "(((((%((((((%%%%(((!'!!((!####!((!!'!(%%%((((%%%%%%%((((",
  "(((%%%%%((((((%%%%(!!#!!!##&###!!##!!(%%(((((%%%(((%%%((",
  "((%%(((%%!!!!!!!!!!&&&&&&&&&&&&&&&&&&!!#!!!(%%(((((((%((",
  "(((((((((!!&&&&&&&&&&&&##########&&&&&#####!!!!(((((%%((",
  "(((((((!!!&&&&&&##&&&###&&&&&&&&&##&##&&&&&&&&!!!(((((((",
  "!(((((!!##&&&&&&&##&&#&&&#######&&#&&#&&&&&&&&##!!((((((",
  "!(((((!#########&&&&&&&##&&&&&&##&&&#############!!((((!",
  "!!!(((!!!!!!!!!##&&&&&&&&&####&&&&##!!!!!!!!!!!!!!!(((!!",
  "!%'!!!'''''''''!!!!&&&&&##&&&##&&&#!!%%%%%%%%'%%%%!!!!%!",
  "!%'''''''''''''''''!!!!!&&&&&&&&!!!''%%'%%%%%%%%%%''%%%!",
  "!%'%%''''''''''''''%%%%%!!!!!!!!%''''''''''''''''''%%%%!",
  "(!%!!!!!!!!!!!!!!''''%%%%%%%%%%%''''''''''''''''!!%%%'%!",
  "(!%%!!)))))))$$$$!!''''%%%%%%%''''''''''''''''!!!%%''%!(",
  "(!%%%!)))))))$$$)$$!!''''%%'''''''''''''''''!!!%%%'''!((",
  "(!%'%%!))))))$$$))$$)!'''''''''''''''''''!!!!%%%%'''%!((",
  "(!%''%%!)))))$$$$$$$)!%%'''%''''!!!!!!!!!!%%%%''''''%!((",
  "(!%'''%%!))))))$$$$))!%%''%%''''%%%%%%%%%%%''''''''%%!((",
  "((!%%''%%!!)))))))))!!%%''%%%'''''''''''''''''''''%%!(((",
  "(((!%'''%%%!!!!!!!!!%%%'''%%%%%%''''''''''''''''%%%!((((",
  "(((!!%%''%%%%%%%%%%%%%%%''''%%%%%%%%%%%%%%'''''%%%!!((((",
  "(((!#!!%''''''''%%%%%!!!%%'%%!!!%%%%%%%%%%%%%%%%%!#!((((",
  "(((!#&&!%%%%%%%%%!!%%!&!!%%%!!&&!!%!!!%%%%%%%%%%!&#!((((",
  "(((!#&&&!!!!!!!!!#!!!&&&!!%!!&&&&&!###!!!!!!!!!!&&#!((((",
  "(((!#!!!!#!!#!###!!!&&!&&!!!&&&!&&!!###!!###!##!!&#!((((",
  "!((!!!###!!#!##&!!&&&!!!&&&&&&!!!&&!!###!!!##!&#!!!((((!",
  "!((!!##&!!#!!#&!!&&&!!&&&&&&&&&!!!&&!&###!!&#!!###!((((!",
  "!((!##&!!#&!##&!&&&&!&&&&&&&&&&&&!&&&!&###!&##!&!!(((((!",
  "!((!&&&!#&!##&!&&&&&&&&&&&&&&&&&&&&&&!!&###!&&!!#!(((((!",
  "!!((!!!!!!!&!!!&&&&&&&&&&&&&&&&&&&&&&&!&&#!!!!!#&!((((!!",
  "!'!((!#####!!!!!!!!!!!!!!!!!!!!!!!!!!!!!!!#####&!((((!%!",
  "!!%!!(!&&&!!'%!))))!!!)!))!))!!)!!)))!!'%%!&&&&&!!!!!%!(",
  "(!%%%!!!!!!'%'!!)))!*!)!))!))!!)!&!))!&!'%%!!!!!!%'%'!((",
  "(!''%%'%'''!!!&!!)!!**!*!!*!!**!!&!))!&&!%'%%%%''!!!!(((",
  "((!!!''!!!!!&&&&!)!&!***********!&!)!!&&&!'%'!!!!(((((((",
  "((((!!!!#&&&####!!!&!***#**#***!&&!!!&#&&&!!!!!(((((((((",
  "((((((((!#&#####&!!&&!*##**##**!&!!!&######&&#!(((((((((",
  "(((((((((!#&####&&&&&!*##**##*!&&&&&######&&#!((((((((((",
  "((((((((((!#&###&&&&&!*##**##*!&&&&&######&#!(((((((((((",
  "(((((((((((!#&##&&&&&!*######*!&&&&&####&&#!((((((((((((",
  "((((((((((((!#&#&&&&!**######**!&&&&####&#!(((((((((((((",
  "(((((((((((((!&#&!!!****####****!!!&###&#!((((((((((((((",
  "(((((((((((((!#&&!!!************!!!&#&&#!(((((((((((((((",
  "((((((((((((((!#!))!*!**!**!**!*!))!&&#!((((((((((((((((",
  "(((((((((((((((!!))!!)!!)!!)!!)!!))!##!(((((((((((((((((",
  "((((((((((((((((!))!!!!!!!!!!!!!!))!!!((((((((((((((((((",
  "(((((((((((((((((!!&&&&&&&&&&&&&!!!!((((((((((((((((((((",
  "(((((((((((((((((!##&&&####&&&&&##!(((((((((((((((((((((",
  "(((((((((((((((((!!!############!!((((((((((((((((((((((",
  "((((((((((((((((((((!!!!!!!!!!!!((((((((((((((((((((((((",
};
