/* XPM */
static char *frog_gun_4[] = {
  /* width height ncolors chars_per_pixel */
  "28 16 6 1 0 0",
  /* colors */
  "! c #800000",
  "# c #008000",
  "$ c #c0dcc0",
  "% c None",
  "& c #369900",
  "' c #336666",
  /* pixels */
  "%%%%%%%%%%%%%%%%%%%%%%%%%%%%",
  "%%%%%%%%%%%%%%%%%%%%%%%%%%%%",
  "%%%%%%%%%%%%%%%%%%$$$$$%%%%%",
  "%%%%%%%%%%%%%%%%$$$&&##$%%%%",
  "%%$$$$$$$$$%$$$$$&&#####$%%%",
  "%$$'&#####$$$&&&&#######$%%%",
  "$$'&##&####&#########!$$$%%%",
  "$'&##&##&#####&#########$%%%",
  "$'&#&##&##&&&$$#$#######$%%%",
  "$'&#&#&#####$%$#$$$####$$%%%",
  "$$$#######$$%%$##$$$$$$%%%%%",
  "%%$$$$$###$%%%$$$$%%%%%%%%%%",
  "%%%%$$###$$%%%%%%%%%%%%%%%%%",
  "%%%%$###$$%%%%%%%%%%%%%%%%%%",
  "%%%%%$##$%%%%%%%%%%%%%%%%%%%",
  "%%%%%$$$$%%%%%%%%%%%%%%%%%%%",
};
