/* XPM */
static char *machine_gun_4[] = {
  /* width height ncolors chars_per_pixel */
  "34 18 9 1 0 0",
  /* colors */
  "! c #000000",
  "# c #800000",
  "$ c #808000",
  "% c #c0c0c0",
  "& c #333366",
  "' c #808080",
  "( c #ff0000",
  ") c #00ff00",
  "* c None",
  /* pixels */
  "**********************************",
  "*******%%%%%%%********************",
  "*****%%!!!!!!%%%%%%%%*************",
  "***%%%!!!!!!!!!!!!!!%*************",
  "***%!!$!%%%%%%%%!!!$!%%%%%%%%%%%%%",
  "%%%!###!%******%!$!#!!!!!!!!!!!!!%",
  "%!!##$$!%%%%%%%%!$!!!''''''''''!%*",
  "%!!!###!!))&&((!!!!##!!!!!!!!!!!!%",
  "%!%!!!!!!!!!!!!!!!!!#!''''!'!'!'!%",
  "%!%%%%!!!!!########!!!!!!!!'!'!'!%",
  "%!%%%!!*!*!!#$#$#$#!!!!%%%!!!!!!!%",
  "%!%%!!!!!!!##$#$#$#!%%%%**%%%%%%%*",
  "%%%!!!%%%%%!#$#$##!!%*************",
  "**%!!!%%**%!#####!%%**************",
  "**%!!!!%**%!!!!!!!%***************",
  "**%%%%%%**%%!##$$!%***************",
  "***********%%!!!!%****************",
  "************%%%%%%****************",
};
