/* XPM */
static char *trapdoor_4[] = {
  /* width height ncolors chars_per_pixel */
  "60 30 6 1 0 0",
  /* colors */
  "! c #000000",
  "# c #800000",
  "$ c #808000",
  "% c #c0c0c0",
  "& c #808080",
  "' c None",
  /* pixels */
  "!!!!!!!!!!!!!!!!!!!!!!!!!!!!!!!!!!!!!!!!!!!!!!!!!!!!!!!!!!!!",
  "!#!######################################################!#!",
  "!#!!##!!!!!!!!!!!!!!!!!!!!!!!!!!!!!!!!!!!!!!!!!!!!!!!!##!!#!",
  "!#!$!!#!%%%%%!&&&&&&&&&&&&&&&&&&&&&&&&&&&&&&&&!%%%%%!#!!$!#!",
  "!#!$!!!#!%%%%!&&&&&&&&&&&&&&&&&&&&&&&&&&&&&&&&!%%%%!#!!!$!#!",
  "!#!$$!!##!%%%!&&&&&&&&&&&&&&&&&&&&&&&&&&&&&&&&!%%%!##!!$$!#!",
  "!#!$$$$!##!%%!&&&&&&&&&&&&&&&&&&&&&&&&&&&&&&&&!%%!##!$$$$!#!",
  "!#!$$$$$!##!%!&&&&&&&&&&&&&&&&&&&&&&&&&&&&&&&&!%!##!$$$$$!#!",
  "!#!$$$$$$!!#!&&&&&&&&&&&&&&&&&&&&&&&&&&&&&&&&&&!#!!$$$$$$!#!",
  "!#!$$$$$$!!!#!!!!!!!!!!!!!!!!!!!!!!!!!!!!!!!!!!#!!!$$$$$$!#!",
  "!#!$$$$$$$!!####################################!!$$$$$$$!#!",
  "!#!$$$$$$$$$!!!!!!!!!!!!!!!!!!!!!!!!!!!!!!!!!!!!$$$$$$$$$!#!",
  "!#!$$$$$$$$!''''''''''''''''''''''''''''''''''''!$$$$$$$$!#!",
  "!#!$$$$$$$$!''''''''''''''''''''''''''''''''''''!$$$$$$$$!#!",
  "!#!$$$$$$$$!''''''''''''''''''''''''''''''''''''!$$$$$$$$!#!",
  "!#!$$$$$$$$!''''''''''''''''''''''''''''''''''''!$$$$$$$$!#!",
  "!#!$$$$$$$$!''''''''''''''''''''''''''''''''''''!$$$$$$$$!#!",
  "!#!$$$$$$$$!''''''''''''''''''''''''''''''''''''!$$$$$$$$!#!",
  "!#!$$$$$$$$!''''''''''''''''''''''''''''''''''''!$$$$$$$$!#!",
  "!#!$$$$$$$$!''''''''''''''''''''''''''''''''''''!$$$$$$$$!#!",
  "!#!$$$$$$$$!''''''''''''''''''''''''''''''''''''!$$$$$$$$!#!",
  "!#!$$$$$$$!''''''''''''''''''''''''''''''''''''''!$$$$$$$!#!",
  "!#!$$$$$$!''''''''''''''''''''''''''''''''''''''''!$$$$$$!#!",
  "!#!$$$$$!''''''''''''''''''''''''''''''''''''''''''!$$$$$!#!",
  "!#!$$$$!''''''''''''''''''''''''''''''''''''''''''''!$$$$!#!",
  "!#!$$$!''''''''''''''''''''''''''''''''''''''''''''''!$$$!#!",
  "!#!$$!''''''''''''''''''''''''''''''''''''''''''''''''!$$!#!",
  "!#!$!''''''''''''''''''''''''''''''''''''''''''''''''''!$!#!",
  "!#!!''''''''''''''''''''''''''''''''''''''''''''''''''''!!#!",
  "!!!''''''''''''''''''''''''''''''''''''''''''''''''''''''!!!",
};
