/* XPM */
static char *mutt_0[] = {
  /* width height ncolors chars_per_pixel */
  "24 20 11 1 0 0",
  /* colors */
  "! c #000000",
  "# c #550000",
  "$ c #555555",
  "% c #aa3f55",
  "& c #d5ccbb",
  "' c #a0a0a4",
  "( c #ffffaa",
  ") c None",
  "* c #ffffff",
  "+ c #ff9faa",
  ", c #ff5faa",
  /* pixels */
  "))))))))))))))))))))))))",
  ")))))))))))))())()))))))",
  "))))))))))))(')(')))))))",
  "))))))))))))(&$'&'()))))",
  "))))))))))))(&'('(!())))",
  ")&))))))))))('&(!'&&))$'",
  ")())))))))))&('&&&&(((&$",
  ")(&))))))))&&(('%%&&&&&)",
  ")&(&&)&&&&&&&(&&##&#*)&)",
  "))((&&((((((((('(,%)))))",
  ")))&(((((((((((&'(,+))))",
  ")))&((((((((((&'&'(,+)))",
  ")))(((&&&&&(((&'))'&,+))",
  "))((&&&&&&&&&(&')))),+))",
  "))(&&'')))''&&&$'))),+))",
  ")(&&'$))))))'&&$$)))))))",
  ")&&'$$)))))))'&$$'))))))",
  ")&'$$)))))))))&&$$))))))",
  "&')'$)))))))))'&)$')))))",
  "'))$)))))))))))'))$)))))",
};
