/* XPM */
static char *yeti_25[] = {
  /* width height ncolors chars_per_pixel */
  "50 20 16 1 0 0",
  /* colors */
  "! c #000000",
  "# c #800000",
  "$ c #663300",
  "% c #666666",
  "& c #330000",
  "' c #333366",
  "( c #aabfaa",
  ") c #aa9faa",
  "* c #555555",
  "+ c #663366",
  ", c #aa3f55",
  "- c #a28d68",
  ". c #a0a0a4",
  "/ c #808080",
  "0 c None",
  "1 c #333300",
  /* pixels */
  "000001!!000000000000000000000000000000000000000000",
  "00000!!!00000000000000000000001!000000000000000000",
  "00001!!!000000000000000000000!!!!00000000000000000",
  "0000!*!10000000000000000000!!1/*!00000000000000000",
  "000!1.!1000000000000000000!!'/).!!0000000000!!!000",
  "000!/.!!00000000000000000!!*/$%)'!000000000!1*!!!!",
  "00!1).!!00000000000!!!000!*.#$$.*!00000000!!/(./'!",
  "00!').!!0000000!00!'/'!0!!.-$$$%*!00000001!*)..)*!",
  "00!'(.!!0000000!!0!/))1!!!'.#$$%*!!000000!')-#$.*!",
  "00!'(.!!000000!!1!!/%-*!0!!'/%#%.*!!0000!!/%$$#.*!",
  "00!!.)1!00000!1**!!%$#/!00!!1*..((/'!!00!*%$$$#)*!",
  "000!/(*!!!0011**!!1-$$+1!!!!!!1.((()*!!!1/$$$#.(*!",
  "000!%(.!!!!!1**'1'1)+$$*!!'*'!!1.((((.**.-$#%./*1!",
  "0!!!/(*!$+!11**!.1*(.#$+!1.(()*!1)((((((()-)/1&100",
  "!!'%-.!$,$!!!*!/(!*()%+/11)())(*!*(((..)(((.1!0000",
  "1/%$$$&,+!!!!!/((!/(%!!./!''11/('!/()+#-(((*&00000",
  "1.-$$$1!!1!!!.().*.(''!*./!!*!*((11).#$+)(/!000000",
  "!1/#$$$*//!!/(.+#$-)'/)'/)/.)1*((./).##$..11000000",
  "0!1%$$$-().(()%$$$$-)(('1((()!*(((((-#%.)'&0000000",
  "00!%.%%)((((((.%+#$+)((*!.)(/!/((((().)(.!&0000000",
};
