/* XPM */
static char *yeti_0c[] = {
  /* width height ncolors chars_per_pixel */
  "48 50 14 1 0 0",
  /* colors */
  "! c #000000",
  "# c #663300",
  "$ c #666666",
  "% c #330000",
  "& c #333366",
  "' c #aabfaa",
  "( c #aa9faa",
  ") c #555555",
  "* c #663366",
  "+ c #aa3f55",
  ", c #a0a0a4",
  "- c #808080",
  ". c None",
  "/ c #333300",
  /* pixels */
  "................................................",
  "..........................!!....................",
  ".........................!!!....................",
  "..............!!!!!!....!!)!....................",
  "..........!!!!//&&/!!!..!)(/!.....!!!...........",
  ".........!!!!/-(('(,)/!!!,')!....!!!!...........",
  "............./!/-'''',)!/(',!!!!!/)/!...........",
  "...............!!),'''(--''()//&-,(-/!!.........",
  "................!!/-''''''''((('',&-(-/!........",
  "..................!!-'''''''''''(,/!&,,/!.......",
  "...................!/,''''/!&-('/!))!/-,/!......",
  "....................!&(''(!,-&-(/%!/)/!),/!.....",
  "....................!!$'''!('''')!#/!!/!/)!!....",
  ".................!!!!!-'''&-''''()!*+#%/!!/!....",
  "............!!!!!/&)-,''''(('''''(/!*+!/!!!!....",
  "..........!!!/)-,(('''''''''''((('()!!!!!.......",
  ".........!!!/))-,('''''''''''()//)-(,))!!.......",
  ".........!!!//!!!&-''''''''''-!!!!!!-(-!!.......",
  "................!/!)('''''((-)!!!!!!!/&!........",
  "..................!!)(''''$/)))!!!!!!!!!........",
  "...................!!,''''-!/)))!!!!!!!.........",
  ".................!!!)(''''(&!))))!!!............",
  "...............!!!&-''',))--!!))))/!!!..........",
  ".............!!!),'''',/!!!!&!!////!!!....!.....",
  "..........!!!/)-(''''')!-,-&!/&!!!!!......!!....",
  ".........!!)-('''',,'(//,,'(-!!-,!!...!!..!!!...",
  ".........!$''''''(&/((/&-&'''-//)!...!!!!!!/!...",
  "........!/(''''''-/!,(//(!!/('-!!!...!),)!!&!!..",
  "........!/(''''')!!!-')!,'(,''(&!!...!&''-!)/!..",
  ".........!)('''(/!!!)'-!$''''''()!//!!-''',()!..",
  ".........!!/),''-!&&!,(/!-'''''''-/!!$'''''')!..",
  "...........!!!&-)!/-!)'-!!,'''''''(,('''''',/!..",
  ".............!!!&!,')!,')!!,''''''''''(-$))/!...",
  ".........!!....!!&('-!)'()!/-'''''''(-!!!!!!....",
  "........!!!!...!!,',/!)''($!!&,(''(-&!!!........",
  ".......!!)-!!...!-',/!)''''()!!/--&!!!..........",
  "......!!$''$!!..!!$-$!&(''''(/!!!!!!............",
  "....!!/-'&,'$/!!.!!!!!!/)-((,!!!!!..............",
  "...!!&,'')))(,&!!!!)-,)/!!!&)!..................",
  "....!!/-(())(',&!&-''''()!!!!!!.................",
  "......!!&,'''''(,(''''()!/-(-)!!!...............",
  ".......!!!)-(''''''',-/!&,'''(-)!!..............",
  ".........!!!&('''(,)/!!!/-'''(!(-!!.............",
  "...........!!-,-)/!!!...!!),''!-,-/!............",
  "............!!!!!!!......!!/)()/&',&!...........",
  "............!!!............!!/-'''',&!!.........",
  ".............................!/('''',)!!........",
  "..............................!-''(''()!!.......",
  "..............................!/&&&&&&)&!!......",
  "...............................!!!!!!!!!!!......",
};
