/* XPM */
static char *dog_whistle_4[] = {
  /* width height ncolors chars_per_pixel */
  "8 26 5 1 0 0",
  /* colors */
  "! c #000000",
  "# c #800000",
  "$ c #808000",
  "% c #c0c0c0",
  "& c None",
  /* pixels */
  "&&%%%%&&",
  "&&%##%&&",
  "&%$$$$%&",
  "%%$$$$%%",
  "%######%",
  "%!!!!!!%",
  "&%$$$$%&",
  "%%$$$$%%",
  "%######%",
  "%!!!!!!%",
  "&%$$$$%&",
  "&%$!!$%&",
  "&%$!!$%&",
  "&%$!!$%&",
  "&%$$$$%&",
  "&%$$$$%&",
  "&%$$$$%&",
  "&%$$$$%&",
  "&%$$$$%&",
  "&%$$$$%&",
  "&%$$$$%&",
  "&&%$$%&&",
  "&&%$$%&&",
  "&&%$$%&&",
  "&&%$$%&&",
  "&&%%%%&&",
};
