/* XPM */
static char *swap_shell_4b[] = {
  /* width height ncolors chars_per_pixel */
  "10 10 3 1 0 0",
  /* colors */
  "! c #0000ff",
  "# c None",
  "$ c #00ffff",
  /* pixels */
  "##########",
  "####!!####",
  "##!!!!!!##",
  "$#!!!!$$$#",
  "$!!!$$$!$$",
  "$$!$$$$!!$",
  "#$$$$!!!#$",
  "##!!!!!!##",
  "####!!####",
  "##########",
};
