/* XPM */
static char *baby_seal_4[] = {
  /* width height ncolors chars_per_pixel */
  "22 22 5 1 0 0",
  /* colors */
  "! c #000000",
  "# c #d5ccbb",
  "$ c #808080",
  "% c None",
  "& c #ffffff",
  /* pixels */
  "%%%%%%%%%%%%%%%%%%%%%%",
  "%%%%%%%%%%&&&%%%%%%%%%",
  "%%%%%%%%&&&&&&&%%%%%%%",
  "%%%%%%%&&&&&&&&&%%%%%%",
  "%%%%%%%&&$!&!$&&%%%%%%",
  "%%%%%%&&&!$&$!&&&%%%%%",
  "%%%%%%&&&&&&&&&&&%%%%%",
  "%%%%%%&&&&&&&&&&&%%%%%",
  "%%%%%&&&$&&&&&$&&&%%%%",
  "%%%%%&&&&$&&&$&&&&%%%%",
  "%%%%%&&&&&$!$&&&&&%%%%",
  "%%%%&&&&&&&!&&&&&&&%%%",
  "%%%%&&&&&&&&&&&&&&&%%%",
  "%%%&&&#&&&&&&&&&#&&&%%",
  "%%%&&&#&&&&&&&&#&&&&%%",
  "%%%#&&&#&&&&&&&#&&&#%%",
  "%%#&&&&#&&&&&&&#&&&&#%",
  "%%#&&$&#&&&&&&&#$$&&#%",
  "%%#&&&$##&&&&&##$&&$#%",
  "%##&$$%%#$&&#$#%%#$&##",
  "%#$##%%%$$$#$$$%%%$#$#",
  "%##$%%%%$$$#$$$%%%%$##",
};
