/* XPM */
static char *baby_seal_25[] = {
  /* width height ncolors chars_per_pixel */
  "38 8 6 1 0 0",
  /* colors */
  "! c #000000",
  "# c #c0c0c0",
  "$ c #808080",
  "% c #ff0000",
  "& c None",
  "' c #ffffff",
  /* pixels */
  "&&&&&&&&&&&''''''''''''&&&&&&&&&&&&&&&",
  "&&&&&&&&'''''''''''''''''''&&&&&&&&&&&",
  "&&&&&&''''''''''''''''''''''''''&&&&&&",
  "&&&&''''''''''''''''''''#'''''%'%&&&&&",
  "&&'''''''''''''''''''''$'''''''%''&&&&",
  "&''######''''''''''####''''$''%'%'''&&",
  "''''''''$$$'''''$##$'''$''$''''''''''&",
  "'########$$'''#$##$##$$###''''''''''!!",
};
