/* XPM */
static char *oil_droplet_39[] = {
  /* width height ncolors chars_per_pixel */
  "10 10 2 1 0 0",
  /* colors */
  "! c #000000",
  "# c None",
  /* pixels */
  "######!!!#",
  "#####!!!!!",
  "#####!!!!!",
  "####!!!!!!",
  "####!!!!!#",
  "##!!!!!!##",
  "##!!!!####",
  "#!!!!#####",
  "!!!#######",
  "!!########",
};
