/* XPM */
static char *green_blood_40[] = {
  /* width height ncolors chars_per_pixel */
  "12 8 2 1 0 0",
  /* colors */
  "! c #00ff00",
  "# c None",
  /* pixels */
  "########!!!!",
  "#######!!!!!",
  "#####!!!!!!!",
  "####!!!!!!!!",
  "##!!!!!!!!##",
  "##!!!!!#####",
  "!!!!########",
  "!!!#########",
};
