/* XPM */
static char *ninja_2c[] = {
  /* width height ncolors chars_per_pixel */
  "36 36 8 1 0 0",
  /* colors */
  "! c #000000",
  "# c #339966",
  "$ c #333366",
  "% c #333399",
  "& c #aa5f55",
  "' c None",
  "( c #ffbfaa",
  ") c #ffbf00",
  /* pixels */
  "''''''''''''''''''''''''''''''''''''",
  "''''''''''''''''''''''''''''''''''''",
  "''''''''''''''''''''''''''''''''''''",
  "''''''''''''''''''''''''''''''''''''",
  "''''''''''''''''''''''''''''''''''''",
  "'''''''''''''''!!!!!!'''''''''''''''",
  "'''''''''!!!!'!%$$%%%!''''''''''''''",
  "''''''''!!$$!!%$$$$$%!!'''''''''''''",
  "'''''''!$!$!!%$$$$$$!!%!''''''''''''",
  "''''''!$%%!$!%$!!!$$!%%%!'''''''''''",
  "'''''!$%%!%!!$!%!$!!%%%!%!''''''''''",
  "'''''!%!!!!!$!%!$!$!%%!%%!''''''''''",
  "''''''!$%!%!!!$!$!$!!!%$$%!'''''''''",
  "'''''!$%%!!!%$!$!!$$!$$$$%!'''''''''",
  "'''''!%!!!&!!$!$!%$$%!$$$$%!''''''''",
  "''''''!''!&$$!$!!$$$!!$$$$%!''''''''",
  "'''''''''&($$$!$$!$$$!!$$$$!''''''''",
  "'''''''''((((($$$!$$$$!$$$%!''''''''",
  "'''''''''(((&&$$%!%$$$!$$$$!''''''''",
  "'''''''''((&%$$$!!!$$$!$$$$!''''''''",
  "'''''''''!!%$$$$!'!%$$!$$$$!''''''''",
  "'''''''''!!%$$$%!'!!%!%$$$!'''''''''",
  "''''''''''!%$$$%!!!%!%%$$$!'''''''''",
  "''''''''''!$$$%!!($$$!$%$!''''''''''",
  "'''''''''''!$%!!&&($$$$$$!'')'''''''",
  "''''''''''''!!!$(&(!$!%$!''')'''''''",
  "''''''''''''''!%$((($$$!'')))'''''''",
  "''''''''''''''!%$$)%!$!'')))''''''''",
  "''''''''''''''!%%$$!!$!'))))''''''''",
  "'''''''''''''''!%%%$$!#))))'''''''''",
  "''''''''''''''''!!!!!%#))'''''''''''",
  "''''''''''''''''''''''''''''''''''''",
  "''''''''''''''''''''''''''''''''''''",
  "''''''''''''''''''''''''''''''''''''",
  "''''''''''''''''''''''''''''''''''''",
  "''''''''''''''''''''''''''''''''''''",
};
