/* XPM */
static char *ninja_38[] = {
  /* width height ncolors chars_per_pixel */
  "24 72 6 1 0 0",
  /* colors */
  "! c #000000",
  "# c #333366",
  "$ c #333399",
  "% c #aa5f55",
  "& c None",
  "' c #ffbfaa",
  /* pixels */
  "&&&&&&&&&&&&&&&'''&&&&&&",
  "&&&&&&&&&&&&&&%%'''&&&&&",
  "&&&&&&&&&&&&&&'''''&&&&&",
  "&&&&&&&&&&&&&&&''''&&&&&",
  "&&&&&&&&&&&&&&&&'%'&&&&&",
  "&&&&&&&&&&&&&&&!!!&&&&&&",
  "&&&&&&&&&&&&&&&!!!!&&&&&",
  "&&&&&&&&&&&&&&&!!!!&&&&&",
  "&&&&&&&&&&&&&&&!$$!&&&&&",
  "&&&&&&&&&&&&&&&!!!!!&&&&",
  "&&&&&&&&&&&&&&&!$$$!&&&&",
  "&&&&&&&&&&&&&&&!!!!!&&&&",
  "&&&&&&&&&&&&&&&!$$$!&&&&",
  "&&&&&&&&&&&&&&&!!!!!&&&&",
  "&&&&&&&&&&&&&&&!!$$!!&&&",
  "&&&&&&&&&&&!!!!#!!!!!&&&",
  "&&&&&&&&&&!''''!!!!!!&&&",
  "&&&&&&&&&!$%%'%!##!!!&&&",
  "&&&&&&&&&!'''$''!##!!&&&",
  "&&&&&&&&&!$$$!$$!##!!&&&",
  "&&&&&&&&&!$$$!$$!####&&&",
  "&&&&&&&&&!$$$!$$!####!&&",
  "&&&&&&&&&!$##$$!!!!##!&&",
  "&&''''&&&&!$!!$!!####!&&",
  "&&#'''&&&&!!$$!!!###!!&&",
  "&&''''&!!!$$!!$$!###!!&&",
  "&&!'''&!!#!!##!!!$#!!!&&",
  "&!''%'!#!########!$$!!&&",
  "&!##!!##!##$#!###!$!&&&&",
  "&!!!!######!!####!$!&&&&",
  "&!##!##!##########!!&&&&",
  "!!!!!!$!###!######!&&&&&",
  "!##$!!!#####$$###!!&&&&&",
  "!!!!!!!#########!$!&&&&&",
  "!##$!!&!##!!$$!!$#&&&&&&",
  "!!!!!&&&!!#$$$$$#!&&&&&&",
  "&!!!!&&&!$$!!$!##!&&&&&&",
  "&!!!&&&&!!!!$#$##!&&&&&&",
  "&&&&&&&&!$$$#!!##!&&&&&&",
  "&&&&&&&!!!!$$$$!!!&&&&&&",
  "&&&&&&&!###!##$$$!&&&&&&",
  "&&&&&&!!$!##!##$$!&&&&&&",
  "&&&&&!!!!!!##!##$$!&&&&&",
  "&&&&&!!$$$!!#!!!#$!&&&&&",
  "&&&&&!$$$$$!#!!!!$$&&&&&",
  "&&&&&!$$$$$!!!#$!##!&&&&",
  "&&&&&!!!!!!!!$$####!&&&&",
  "&&&&&!$$$$$!&!#$####&&&&",
  "&&&&&!$!!!!!&!!#####!&&&",
  "&&&&&!!$$$$!&&!#####!&&&",
  "&&&&&&!!!!!!&&!######&&&",
  "&&&&&&!$$$!&&&!$#!##$&&&",
  "&&&&&&!!!!!&&&&!!!!$!!&&",
  "&&&&&&!$$$!&&&&!$$#!!!&&",
  "&&&&&&!!!!!&&&&!!!!!!!&&",
  "&&&&&&!$$$!&&&!!!$$#!!&&",
  "&&&&&&!!!!!&&&!!!!!!&&&&",
  "&&&&&!!$$!!&&&!!#$$#&&&&",
  "&&&&&!#$$!!&&&!!!!!!&&&&",
  "&&&&!$##$!!&&&&!#$$#&&&&",
  "&&&&!$$!!!&&&&&!!!!&&&&&",
  "&&&&!!!!&&&&&&&!$#!&&&&&",
  "&&&&&&&&&&&&&&&!!!!&&&&&",
  "&&&&&&&&&&&&&&&!$$!&&&&&",
  "&&&&&&&&&&&&&&&!!#!&&&&&",
  "&&&&&&&&&&&&&&&!#!$&&&&&",
  "&&&&&&&&&&&&&&!#!$$!&&&&",
  "&&&&&&&&&&&&&&!#!#$!&&&&",
  "&&&&&&&&&&&&&&!!!#$$!&&&",
  "&&&&&&&&&&&&&&&!!##$!&&&",
  "&&&&&&&&&&&&&&&&!!##!&&&",
  "&&&&&&&&&&&&&&&&&!!!!&&&",
};
