/* XPM */
static char *ninja_20c[] = {
  /* width height ncolors chars_per_pixel */
  "28 64 8 1 0 0",
  /* colors */
  "! c #000000",
  "# c #333366",
  "$ c #333399",
  "% c #aa5f55",
  "& c None",
  "' c #ffbfaa",
  "( c #ffbf00",
  ") c #699900",
  /* pixels */
  "&&&&&&&&&&&&&&&&&&&&&&&&&&&&",
  "&&&&&&&&&&&&&&&&&&&&&&&&&&&&",
  "&&&&&&&&&&&&&&&&&&&&&%%%%&&&",
  "&&&&&&&&&&&&&&&&&&&&&''%'&&&",
  "&&&&&&&&&&&&&&&&&&&&&''''&&&",
  "&&&&&&&&&&&&&&&&&&&&&''''&&&",
  "&&&&&&&&&&&&&&&&&&&&&%''%&&&",
  "&&&&&&&&&&&&&&&&&&&&&!!!!&&&",
  "&&&&&&&&&&&&&&&&&&&&&!!#!&&&",
  "&&&&&&&&&&&&!!!!&&&&&!$!!&&&",
  "&&&%%%&&&&&!$$$#!&&&&!!#!&&&",
  "&&&'''&&&&!#$$$$#!&&&!#!!&&&",
  "&&%'''&&&&!$$$$$$!&&&!!#!&&&",
  "&%''''&&&&!$$$$$$!&&&!#!!&&&",
  "&%'''&&&&&!$$$$$$!&&&!!#!&&&",
  "&&%''&&&&&!$$$$$$!&!!!#!!&&&",
  "&&!!#&&&&&!$###$!!!!###!!&&&",
  "&&###!&&&&!!$##$!!$!##$!&&&&",
  "&&!!!!&&&&&!!)$!!##$$$!&&&&&",
  "&&!##!&&&!!!!((####$$$!&&&&&",
  "&&!!!!&!!##!!(((###$$!!&&&&&",
  "&&!!!!!####!!(((##$#!!&&&&&&",
  "&&&!##!#######((#!#!!&&&&&&&",
  "&&&!!!##!#####((##!!#&&&&&&&",
  "&&&!#####!###((####!&&&&&&&&",
  "&&&!!##!!!###(####!!&&&&&&&&",
  "&&&&!#!!&!###$(###!&&&&&&&&&",
  "&&&&!!!&&&!#$$$###!&&&&&&&&&",
  "&&&&&&####!#$$##$#!&&&&&&&&&",
  "&&&&&&####!#####$$!&&&&&&&&&",
  "&&&&&##!#!########$&&&&&&&&&",
  "&&&&&!!##!#########&&&&&&&&&",
  "&&&&&!!!#######!$##!&&&&&&&&",
  "&&&&&!!####$$$$$$$$!&&&&&&&&",
  "&&&&&!!!!##$$#!$$$$#&&&&&&&&",
  "&&&&&!!!!###$$#####!&&&&&&&&",
  "&&&&&&!$!!!!#####!!!&&&&&&&&",
  "&&&&&&!!!!!!!!#!!###&&&&&&&&",
  "&&&&&&!$$!&&&!####$$!&&&&&&&",
  "&&&&&&!!!!&&&!###$#!!&&&&&&&",
  "&&&&&&!###&&&&####!!!&&&&&&&",
  "&&&&&&!!!!!&&&#####!!!&&&&&&",
  "&&&&&&!!$$!&&&&####!!!&&&&&&",
  "&&&&&&!#!!!&&&&###!!!!!&&&&&",
  "&&&&&&&!##!&&&&&#$$#!!!&&&&&",
  "&&&&&&!!##!&&&&&#$$#!!!&&&&&",
  "&&&&&&!!##!&&&&&&!!!!!!&&&&&",
  "&&&&&&!!$!!&&&&&&#$#!!!&&&&&",
  "&&&&&&&&&&&&&&&&&!!!!!!&&&&&",
  "&&&&&&&&&&&&&&&&!!$#!!&&&&&&",
  "&&&&&&&&&&&&&&&&!#$##!&&&&&&",
  "&&&&&&&&&&&&&&&&!#$##!&&&&&&",
  "&&&&&&&&&&&&&&&&!!!!!&&&&&&&",
  "&&&&&&&&&&&&&&&&!$$#!&&&&&&&",
  "&&&&&&&&&&&&&&&&&#!!!&&&&&&&",
  "&&&&&&&&&&&&&&&&&!#!!&&&&&&&",
  "&&&&&&&&&&&&&&&&!$##!&&&&&&&",
  "&&&&&&&&&&&&&&&&!###!!&&&&&&",
  "&&&&&&&&&&&&&&&&!###!!&&&&&&",
  "&&&&&&&&&&&&&&&&&!##!!!&&&&&",
  "&&&&&&&&&&&&&&&&&&!!!!!&&&&&",
  "&&&&&&&&&&&&&&&&&&&&&&&&&&&&",
  "&&&&&&&&&&&&&&&&&&&&&&&&&&&&",
  "&&&&&&&&&&&&&&&&&&&&&&&&&&&&",
};
