/* XPM */
static char *ninja_10e[] = {
  /* width height ncolors chars_per_pixel */
  "62 22 16 1 0 0",
  /* colors */
  "! c #000000",
  "# c #000080",
  "$ c #008080",
  "% c #330066",
  "& c #330000",
  "' c #333366",
  "( c #aa9f55",
  ") c #333399",
  "* c #aa5f55",
  "+ c None",
  ", c #ffbfaa",
  "- c #ffbf00",
  ". c #336699",
  "/ c #333300",
  "0 c #699900",
  "1 c #336666",
  /* pixels */
  "++++++++++++++++++++++++++++++++++++++++++++++++++++++++++++++",
  "++++++++++++++++++++++++++++++++++++++++---+++++++++++++++++++",
  "++++++++++++++++++++++++++++++++++++-+------0+!!!!++++++++++++",
  "+++++++++++++++++++++++++++++++++++++!!!!!-0)!))))!!++++++++++",
  "+++++++++++++++++++++++++'%'%'%'!!!!!'''''!'!!''')))!+++++++++",
  "++++++++++++++++++++++++!!!!!!'!)!!')'''''''!)''''))!+++++++++",
  "+++++++++++++++++++++++!'''''!!))!'')'''!!!!''!!-,,,!+++++++++",
  "++++++++++++++++++++++!'''''''!))!''')'!''''!'!),,**++++++++++",
  "++++++++++++++++++++++''''''''!))!')')'!''''!''!),,,!+++++++++",
  "+++++++++++++++++++++!''''''''!))!''''!!''''!''''!'!++++++++++",
  "+++++++++++++++++++++!'''''''!)!!!'''''!!'''!!!')''!++++++++++",
  "+++++++++++++++++++++!'''''''!!!!!!!'''!'''!!++!!!!+++++++++++",
  "+++++++++++++++++++++!!'''''!$''+++'!''!'''''!++++++++++++++++",
  "++++++!!'!!!'!!!++++!''''''!$)$''+++%!!!!''''!++++++++++++++++",
  "+++++!'!''!'!!'!!!!!!!'''''!)$)$%+++'.'.!''''!++++++++++++++++",
  "+++++!''!!!'''!''!'!''''''!.$)$)'+++'!.!!'''''!+++++++++++++++",
  "+++++!'!))!'!'!'!'!!''''''!'#1)1$%++%.&$.!'''!'!!+++++++++++++",
  "++++++!')!!!!!!'!'!''''''!$'1)1)''+++')$&$!'!''!'!!!++++++++++",
  "++++++!')!++++'!!'!'''''!%)!.')$.#++++/%$&.!!'!''!'!!!++++++++",
  "++++++!')!+++++%$!!!''''!$$')1'.)'++++++%'&/)!!'!'!'''*+++++++",
  "++++++!''!++++++''.!!!!!+'%#1'.)'++++++++++#/)(!!!'*,,,*++++++",
  "+++++++!!!+++++++''.%+++++++'%''+++++++++++++++++!'*,*,,*+++++",
};
