/* XPM */
static char *ninja_25[] = {
  /* width height ncolors chars_per_pixel */
  "44 12 9 1 0 0",
  /* colors */
  "! c #000000",
  "# c #d40000",
  "$ c #333366",
  "% c #333399",
  "& c #aa5f55",
  "' c None",
  "( c #ffbfaa",
  ") c #aa0000",
  "* c #ffbf00",
  /* pixels */
  "'''''''''''##$''''''''''''''''''''''''''''''",
  "''''''''''#))#!'''''''''''''''''''''''''''''",
  "'''''''''!#)%$$!#'''''''''''''''''''''''''''",
  "''''''''!$))%$$!))'''''''''''''''''''!'!!!''",
  "''''''''!$))#$$$!)##'''''!#######!'!!(&(%%!'",
  "'''''''!$)#%%$$$$!!!!#####))))))$!!#$(&(%%!'",
  "'''''''#)$$$$$$$$!%%%!)))))#!!!!!!%#!((($%%!",
  "''''''!))$$$#$$$$$!%%!$$$))%!!%$!!!$$%(*$$%!",
  "'''''!#$$$!!$$$$$!!%%!$$$#%%!%$$$!!!#!%!$$%!",
  "''!!%%!$$!''$$$$$$!%&&%$#%%!!$$$$!!%#$!!$$%!",
  "!!##%%%!!'''##$$$$!&((&##%$!%$$$$!!$$#$$%!!'",
  "!%$###$!''''!#$$$$&((##!##!!$$$%!!!!!))#!%*'",
};
