/* XPM */
static char *ninja_0[] = {
  /* width height ncolors chars_per_pixel */
  "32 56 9 1 0 0",
  /* colors */
  "! c #000000",
  "# c #333366",
  "$ c #3366cc",
  "% c #333399",
  "& c #aa5f55",
  "' c None",
  "( c #ffbfaa",
  ") c #ffbf00",
  "* c #699900",
  /* pixels */
  "''''''''''''''''''''''''''''''''",
  "''''''''''''''''''''''''''''''''",
  "''''''''''''''''''''''''''''''''",
  "'''''''''''''''''''!!!!'''''''''",
  "''''''''''''''''''!%%%%!!'''''''",
  "'''''''''''''''''%!###%%%!''''''",
  "''''''''''''')))*!%####%%!''''''",
  "''''''''')''))))%!#!!)(((!''''''",
  "'''''''''')))))''!#!%((&&'''''''",
  "''''''''''')))'''!##!%(((!''''''",
  "'''''''''''''''''!####!#!'''''''",
  "'''''''''''''''''!#%!###!'''''''",
  "'''''''''''''''!#!!!!!%!''''''''",
  "'''''''''''''!!!##!##!!'''''''''",
  "''''''''''''!##!#!####!'''''''''",
  "'''''''''''!##!##!%###!'''''''''",
  "''''''''''!###!##!%##%!!''''''''",
  "'''''''''!##%#!##!####!!'''&&'''",
  "'''''''''#%%%!!##!####!#!'&((&''",
  "'''''''''!!!!#!##!%##%!!!&((((&'",
  "''''''''''!%%!!##!%###!##!!##(&'",
  "'''''''''''!!#!##!%##!#!#!!##&''",
  "'''''''''''''!!##%!#!#!#!#%!''''",
  "''''''''''''''#!#%!!%!%%!!!'''''",
  "'''''''''''''''!!!!!!!!!''''''''",
  "''''''''''''''!%%%%%%!''''''''''",
  "''''''''''''''!%%%%%%!''''''''''",
  "''''''''''''''!!!!!!!!''''''''''",
  "'''''''''''''!###%%%%!!'''''''''",
  "'''''''''''''!########!!''''''''",
  "'''''''''''''!#######!##!'''''''",
  "'''''''''''''!#######!%##!!'''''",
  "'''''''''''''!%%####%!%####!!'''",
  "''''''''''''''!%####!!%%#####!''",
  "''''''''''''''!%####!%%%%%%%##!'",
  "''''''''''''''!#####!!%%%%%####!",
  "'''''''''''''!#####%!'!%%%%%#%#!",
  "'''''''''''''!#####!'''!!!!%%%#!",
  "'''''''''''''!%####!'''!#%%!!!!'",
  "'''''''''''''!%###%!''!#!%%%!'''",
  "'''''''''''''!####%!'!!%%!#!''''",
  "''''''''''''!%##%%!!!!%!%#!'''''",
  "''''''''''''!##%!!%!#%!%!!''''''",
  "''''''''''''!!!!!##%!#%!!'''''''",
  "'''''''''''!#!$%#!!#!!!!''''''''",
  "'''''''''''!%$!!!'!!%%%!''''''''",
  "''''''''''!%!%#!'''!#%%!''''''''",
  "'''''''''!!!%!!'''''!#%%!'''''''",
  "''''''''!%$%!!'''''''!##!'''''''",
  "'''''''!#!!#!'''''''''!!!'''''''",
  "''''''!%!%%!!'''''''''''''''''''",
  "''''''!##!!!!'''''''''''''''''''",
  "'''''''!!%%%!'''''''''''''''''''",
  "''''''''!#$$%!''''''''''''''''''",
  "'''''''''!####!'''''''''''''''''",
  "''''''''''!!!!!'''''''''''''''''",
};
