/* XPM */
static char *chainsaw_5[] = {
  /* width height ncolors chars_per_pixel */
  "12 18 6 1 0 0",
  /* colors */
  "! c #000000",
  "# c #808000",
  "$ c #c0c0c0",
  "% c #333366",
  "& c #ffff00",
  "' c None",
  /* pixels */
  "''''''$%''''",
  "'''''$%$''''",
  "'''''$%$''''",
  "'''''%$%''''",
  "'''''$$%''''",
  "'''''$%$''''",
  "'!!!!$%$!!''",
  "!&!#!$%$!#!!",
  "!!##!$%$!##!",
  "!!##!%$$!##!",
  "!!##!%$$!##!",
  "!!!#!%$$!#!!",
  "!!&!!$$$!!&!",
  "!&!!!$$%!!!!",
  "!!&!!$%$!!&!",
  "''!!!$%$!!!'",
  "'''''%$$''''",
  "'''''$$'''''",
};
