/* XPM */
static char *exit_4[] = {
  /* width height ncolors chars_per_pixel */
  "60 60 3 1 0 0",
  /* colors */
  "! c #000000",
  "# c #ff0000",
  "$ c None",
  /* pixels */
  "!!!!!!!!!!!!!!!!!!!!!!!!!!!!!!!!!!!!!!!!!!!!!!!!!!!!!!!!!!!!",
  "!!!!!!!!!!!!!!!!!!!!!!!!!!!!!!!!!!!!!!!!!!!!!!!!!!!!!!!!!!!!",
  "!!!!!!!!!!!!########!!####!!####!!####!!########!!!!!!!!!!!!",
  "!!!!!!!!!!!!########!!####!!####!!####!!########!!!!!!!!!!!!",
  "!!!!!!!!!!!!########!!####!!####!!####!!########!!!!!!!!!!!!",
  "!!!!!!!!!!!!########!!####!!####!!####!!########!!!!!!!!!!!!",
  "!!!!!!!!!!!!##!!!!!!!!####!!####!!####!!!!####!!!!!!!!!!!!!!",
  "!!!!!!!!!!!!##!!!!!!!!####!!####!!####!!!!####!!!!!!!!!!!!!!",
  "!!!!!!!!!!!!######!!!!!########!!!####!!!!####!!!!!!!!!!!!!!",
  "!!!!!!!!!!!!######!!!!!!######!!!!####!!!!####!!!!!!!!!!!!!!",
  "!!!!!!!!!!!!######!!!!!!######!!!!####!!!!####!!!!!!!!!!!!!!",
  "!!!!!!!!!!!!######!!!!!########!!!####!!!!####!!!!!!!!!!!!!!",
  "!!!!!!!!!!!!##!!!!!!!!####!!####!!####!!!!####!!!!!!!!!!!!!!",
  "!!!!!!!!!!!!##!!!!!!!!####!!####!!####!!!!####!!!!!!!!!!!!!!",
  "!!!!!!!!!!!!########!!####!!####!!####!!!!####!!!!!!!!!!!!!!",
  "!!!!!!!!!!!!########!!####!!####!!####!!!!####!!!!!!!!!!!!!!",
  "!!!!!!!!!!!!########!!####!!####!!####!!!!####!!!!!!!!!!!!!!",
  "!!!!!!!!!!!!########!!####!!####!!####!!!!####!!!!!!!!!!!!!!",
  "!!!!!!!!!!!!####!!##!!####!!####!!####!!!!####!!!!!!!!!!!!!!",
  "!!!!!!!!!!!!####!!##!!####!!####!!####!!!!####!!!!!!!!!!!!!!",
  "!!!!!!!!!!!!####!!!#!!!###!!##!!!!!###!!!!####!!!!!!!!!!!!!!",
  "!!!!!!!!!!!!####!!!#!!!!##!!##!!!!!!##!!!!####!!!!!!!!!!!!!!",
  "!!!!!!!!!!!!!###!!!!!!!!##!!!!!!!!!!##!!!!###!!!!!!!!!!!!!!!",
  "!!!!!!!!!!!!!!##!!!!!!!!!#!!!!!!!!!!##!!!!##!!!!!!!!!!!!!!!!",
  "!!!!!!!!!!!!!!##!!!!!!!!!#!!!!!!!!!!##!!!!##!!!!!!!!!!!!!!!!",
  "!!!!!!!!!!!!!!##!!!!!!!!!#!!!!!!!!!!##!!!!##!!!!!!!!!!!!!!!!",
  "!!!!!!!!!!!!!!!#!!!!!!!!!#!!!!!!!!!!!#!!!!!!!!!!!!!!!!!!!!!!",
  "!!!!!!!!!!!!!!!#!!!!!!!!!!!!!!!!!!!!!#!!!!!!!!!!!!!!!!!!!!!!",
  "!!!!!!!!!!!!!!!!!!!!!!!!!!!!!!!!!!!!!#!!!!!!!!!!!!!!!!!!!!!!",
  "!!!!!!!!!!!!!!!!!!!!!!!!!!!!!!!!!!!!!#!!!!!!!!!!!!!!!!!!!!!!",
  "!!!!!!!!!!!!!!!!!!!!!!!!!!!!!!!!!!!!!#!!!!!!!!!!!!!!!!!!!!!!",
  "!!!!!!!!!!!!!!!!!!!!!!!!!!!!!!!!!!!!!!!!!!!!!!!!!!!!!!!!!!!!",
  "!!!!!!!!!!!!!!!!!!!!!!!!!!!!!!!!!!!!!!!!!!!!!!!!!!!!!!!!!!!!",
  "!!!!!!!!!!!!!!!!!!!!!!!!!!!!!!!!!!!!!!!!!!!!!!!!!!!!!!!!!!!!",
  "!!!!!!!!!!!!!!!!!!!!!!!!!!!!!!!!!!!!!!!!!!!!!!!!!!!!!!!!!!!!",
  "!!!!!!!!!!!!!!!!!!!!!!!!!!!!!!!!!!!!!!!!!!!!!!!!!!!!!!!!!!!!",
  "!!!!!!!!!!!!!!!!!!!!!!!!!!!!!!!!!!!!!!!!!!!!!!!!!!!!!!!!!!!!",
  "!!!!!!!!!!!!!!!!!!!!!!!!!!!!!!!!!!!!!!!!!!!!!!!!!!!!!!!!!!!!",
  "!!!!!!!!!!!!!!!!!!!!!!!!!!!!!!!!!!!!!!!!!!!!!!!!!!!!!!!!!!!!",
  "!!!!!!!!!!!!!!!!!!!!!!!!!!!!!!!!!!!!!!!!!!!!!!!!!!!!!!!!!!!!",
  "!!!!!!!!!!!!!!!!!!!!!!!!!!!!!!!!!!!!!!!!!!!!!!!!!!!!!!!!!!!!",
  "!!!!!!!!!!!!!!!!!!!!!!!!!!!!!!!!!!!!!!!!!!!!!!!!!!!!!!!!!!!!",
  "!!!!!!!!!!!!!!!!!!!!!!!!!!!!!!!!!!!!!!!!!!!!!!!!!!!!!!!!!!!!",
  "!!!!!!!!!!!!!!!!!!!!!!!!!!!!!!!!!!!!!!!!!!!!!!!!!!!!!!!!!!!!",
  "!!!!!!!!!!!!!!!!!!!!!!!!!!!!!!!!!!!!!!!!!!!!!!!!!!!!!!!!!!!!",
  "!!!!!!!!!!!!!!!!!!!!!!!!!!!!!!!!!!!!!!!!!!!!!!!!!!!!!!!!!!!!",
  "!!!!!!!!!!!!!!!!!!!!!!!!!!!!!!!!!!!!!!!!!!!!!!!!!!!!!!!!!!!!",
  "!!!!!!!!!!!!!!!!!!!!!!!!!!!!!!!!!!!!!!!!!!!!!!!!!!!!!!!!!!!!",
  "!!!!!!!!!!!!!!!!!!!!!!!!!!!!!!!!!!!!!!!!!!!!!!!!!!!!!!!!!!!!",
  "!!!!!!!!!!!!!!!!!!!!!!!!!!!!!!!!!!!!!!!!!!!!!!!!!!!!!!!!!!!!",
  "!!!!!!!!!!!!!!!!!!!!!!!!!!!!!!!!!!!!!!!!!!!!!!!!!!!!!!!!!!!!",
  "!!!!!!!!!!!!!!!!!!!!!!!!!!!!!!!!!!!!!!!!!!!!!!!!!!!!!!!!!!!!",
  "!!!!!!!!!!!!!!!!!!!!!!!!!!!!!!!!!!!!!!!!!!!!!!!!!!!!!!!!!!!!",
  "!!!!!!!!!!!!!!!!!!!!!!!!!!!!!!!!!!!!!!!!!!!!!!!!!!!!!!!!!!!!",
  "!!!!!!!!!!!!!!!!!!!!!!!!!!!!!!!!!!!!!!!!!!!!!!!!!!!!!!!!!!!!",
  "!!!!!!!!!!!!!!!!!!!!!!!!!!!!!!!!!!!!!!!!!!!!!!!!!!!!!!!!!!!!",
  "!!!!!!!!!!!!!!!!!!!!!!!!!!!!!!!!!!!!!!!!!!!!!!!!!!!!!!!!!!!!",
  "!!!!!!!!!!!!!!!!!!!!!!!!!!!!!!!!!!!!!!!!!!!!!!!!!!!!!!!!!!!!",
  "!!!!!!!!!!!!!!!!!!!!!!!!!!!!!!!!!!!!!!!!!!!!!!!!!!!!!!!!!!!!",
  "!!!!!!!!!!!!!!!!!!!!!!!!!!!!!!!!!!!!!!!!!!!!!!!!!!!!!!!!!!!!",
};
