/* XPM */
static char *chicken_26[] = {
  /* width height ncolors chars_per_pixel */
  "34 42 6 1 0 0",
  /* colors */
  "! c #000000",
  "# c #aa5f55",
  "$ c #ff0000",
  "% c None",
  "& c #ffffff",
  "' c #ffbf00",
  /* pixels */
  "%%%%%%%%%%%%%%%%%%%!!!!!!!%%%%%%%%",
  "%%%%%%%%%%%%%%%%%%%!$!$!$!%%%%%%%%",
  "%%%%%%%%%%%%%%%%%%%!$!$!$!%%%%%%%%",
  "%%%%%%%%%%%%%%%%%%%!$!$!!%%%%%%%%%",
  "%%%%%%%%%%%%%%%%%%%!!!!!!%%%%%%%%%",
  "%%%%%%%%%%%%%%%%%%%%%%!!%%%%%%%%%%",
  "%%%%%%%%%%%%%%%%%%%!!!!!!!!!%%%%%%",
  "%%%%%%%%%%%%%%%%%!!!&&&!&&&!%%%%%%",
  "%%%%%%%%%%%%%%%%!##!&&!!&&!!%%%%%%",
  "%%%%%%%%%%%%%!!!###!&&!!!!!!!!%%%%",
  "%%%%%%%%%%%%!!&!###!!!!!!''''!!%%%",
  "%%%%%%%%%%%!!&&!###!'''''''''''!!%",
  "%%%%%%%%%%%!&&&!###!'''!!!!!!!!!!!",
  "%%%%%%%%%%%!&&&!###!'''''''''''!!%",
  "%%%%%%%%%%!!&&&!####!'''''''''!!%%",
  "%%%%%%%%%%!&&&&&!###!!''''!!!!%%%%",
  "%%%%%%%%%%!&&&&&!!###!!!!!!%%%%%%%",
  "%%%%%%%%%%!&&!&&&!!!!%%%%%%%%%%%%%",
  "%%%%%%%%%%!!!&&&&&&!#!%%%%%%%%%%%%",
  "%%%%%%%%%%!!!&&&&&&!##!%%%%%%%%%%%",
  "%%%%%%%%%!&&&&&&&&&!###!%%%%%%%%%%",
  "%%%%%%%!!&&&&&&&&&&!###!%%%%%%%%%%",
  "%%%%%%%!&&&&&&&&&&!#####!%%%%%%%%%",
  "%%%%%%!!&&&&&&&&&&!#####!%%%%%%%%%",
  "%%%%%%!&&&&&&&&&&&&!####!%%%%%%%%%",
  "%%%%!!!&&&&&&&&&&&&!####!%%%%%%%%%",
  "!!!!!&&&&&&&&!&&&&&!!###!%%%%%%%%%",
  "!!&&&&&&&&&&!&&&&&&&&!##!%%%%%%%%%",
  "%%!&&&&&&!!!&&&&&&&&&&!!!%%%%%%%%%",
  "%%%!!!!!!!!&&&&&&&&&&&&&!%%%%%%%%%",
  "%%%%%%%%%%!&&&&&&&&&&!!!%%%%%%%%%%",
  "%%%%%%%%%%!&&&&&&&&&!!%%%%%%%%%%%%",
  "%%%%%%%%%%!!!&&&&&!!!%%%%%%%%%%%%%",
  "%%%%%%%%%%%%!!!!!!!!%%%%%%%%%%%%%%",
  "%%%%%%%%%%%%%!'!%!'!%%%%%%%%%%%%%%",
  "%%%%%%%%%%%%%!!!%!!!%%%%%%%%%%%%%%",
  "%%%%%%%%%%%%%!'!%!'!%%%%%%%%%%%%%%",
  "%%%%%%%%%%%%%!!!%!!!%%%%%%%%%%%%%%",
  "%%%%%%%%%%%%!'''!!''!%%%%%%%%%%%%%",
  "%%%%%%%%%%%%!'''!!'''!%%%%%%%%%%%%",
  "%%%%%%%%%%%%!'!'!!!'!'!%%%%%%%%%%%",
  "%%%%%%%%%%%%!!!!!%%!!!!%%%%%%%%%%%",
};
