/* XPM */
static char *chicken_25[] = {
  /* width height ncolors chars_per_pixel */
  "38 22 6 1 0 0",
  /* colors */
  "! c #000000",
  "# c #d40000",
  "$ c #ff0000",
  "% c None",
  "& c #ffffff",
  "' c #ffbf00",
  /* pixels */
  "%%%%%%%%%%%%%!!!!!!!!!!%%%%%%%%%%%%%%%",
  "%%%%%%%%%%%%%!!&&&&&&&!!%%%%%%%%%%%%%%",
  "%%%%%%%%%%%%%%!!&&##&&&!!%%%%%%%%%%%%%",
  "%%%%%%%%%%%%%%%!!&&#&&&&&!!%%%%%%%%%%%",
  "%%%%%%%%%%%%%%%%!&&#&&&&&&!!%%%%%%%%%%",
  "%%%%%%%%%%%%%%%%!&&&&&&&&&&!%%%%%%%%%%",
  "%%%%%%%%%%%!!!!!!!&&&&!!!!!!!!%%%%%%%%",
  "%!!!%%%%%!!!&!###!!!!!#####!&!!!!$##%%",
  "!!'!!%%%%!&&&!!$#######$$$$!&&&&!$##$%",
  "!!''!%%%!&&&&&!$$$$##$$$$$!!&&&&!$##$%",
  "!''!!!!!!&&&&&!!!$$$$$$$!!!&&&!!!$#$$%",
  "!!!!'!'!'!&&&&&&!!!!!!!!!&&&&&!##&#$#%",
  "%%%!!!!!!&&&&&&&&&&&&&&&&&&&&&!#&##$#%",
  "%%%%%%!!!&&&&&&&&&&&&&&&&&&&&&!#&#$$#%",
  "%%%%%!!'!&&&&&&&###&&&&&&&&&&&!###$#%%",
  "%%!!!'!!!#!!!!&&&&#&&&&&&&&&&&!$$$$%!!",
  "%!!!''!!%$$###!&&&&&&&!&&&&&&&!!##!!!!",
  "%!'!!!!!%#$###!!!!!!!!!&&&&&&&&&&&&&&!",
  "%!'''!!%%#$$##########!&&&&##&&&&&&&&!",
  "%%!!!!%%%%#$$$$#&&&###!!&&&##&&&&&&&&!",
  "%%%%%%%%%%%%##$$#######!&&&&&&&&&&!!!!",
  "%%%%%%%%%%%%%%%$$$$$$$$#!!!!!!!!!!%%%%",
};
