/* XPM */
static char *red_hugger_25[] = {
  /* width height ncolors chars_per_pixel */
  "32 14 6 1 0 0",
  /* colors */
  "! c #000000",
  "# c #800000",
  "$ c #008000",
  "% c #ff0000",
  "& c #00ff00",
  "' c None",
  /* pixels */
  "''''''''''''''%%#'''''''''''''''",
  "'''''%%#'''''''###''''''''''''''",
  "'''''''####'''''##''%'''''''''''",
  "'''''''''###''''#&#'%%#''''%%'''",
  "'''#####&&&&#''''&#''####''%%###",
  "''######&##&##''#&#''''###''''##",
  "'##''''''#!######&''''''##'$$''#",
  "##''''''''!!####&#''''####!$$'##",
  "###''''''''#!######''####!!''###",
  "'#&#''''''''!&###&######!!#####'",
  "'''###'''''''&!##&'####!#####'''",
  "''%%'##''''''&&!########&&&'''''",
  "''%!!##''''''&&!&&&&&#&&&&&&&&''",
  "&&&&%'''&&&&&&&&&&&&&&&&&&&&&&&'",
};
