/* XPM */
static char *red_hugger_0[] = {
  /* width height ncolors chars_per_pixel */
  "32 18 5 1 0 0",
  /* colors */
  "! c #000000",
  "# c #800000",
  "$ c #008000",
  "% c #ff0000",
  "& c None",
  /* pixels */
  "&&&&&&&&&&&&&&&&&&&&&&&&&$$$&&&&",
  "&&&&&&&&&&&&&&&&&&&&&&&&&!$$&&&&",
  "&&%%%%&&&&&&&&&&&&!!!!&&!&&&&&$$",
  "&&%!!&&&&&&&&&&&&!!!!!##&&&!!!$$",
  "&&%&!#&&&&&&&&&&!!#####!!!!&&&&&",
  "&&&&###&&&&&&&&!!####!!###&&&&&&",
  "&&&&&##&&&&&&&!!###########&&&&&",
  "&&&###&&&&&&&!!##############&&&",
  "&###&&&&&&&&!!##########&&#####&",
  "###&&&&&&&&!!######&&####&&&&###",
  "##&&&&&&&&!!######&&&&####&&&&##",
  "&##&&&&&&#!#######&&&&&&##&&&&&#",
  "&&############&&###&&&&&##&&&&##",
  "&&&##########&&&&##&&&&##&&&&&##",
  "&&&&&&&&&&##&&&&###&&&##&&&&&&#&",
  "&&&&&&&&&&#&&&&&##&&&##&&&&&&##&",
  "&&&&&&&&##&&&&&###&&##&&&&&&##&&",
  "&&&&&&%%#&&&&&%%#&&&%&&&&&&%%&&&",
};
