/* XPM */
static char *egg_5[] = {
  /* width height ncolors chars_per_pixel */
  "20 30 5 1 0 0",
  /* colors */
  "! c #000000",
  "# c #800000",
  "$ c #008000",
  "% c #808000",
  "& c None",
  /* pixels */
  "&&&&&&&&&&&&&&&&&&&&",
  "&&&&&&&&&&&&&&&&&&&&",
  "&&&&&&&&&&&&&&&&&&&&",
  "&&&&&&&&&&&&&&&&&&&&",
  "&&&&&&&&&&&&&&&&&&&&",
  "!!!!!!!!&&&&!!!!!!!&",
  "!%%%%$$!!!&!!$$%%%!!",
  "!%!%%%%$$!!!$$%%%%%!",
  "!!&!%%%%%%$$$%%!!!%!",
  "&&&&!%%###%%$%#!&&!!",
  "&&&&!%##$#%#$%#!&&&&",
  "&&&&!$#$$#%#$%#!&&&&",
  "&&&!%##$##%$$$#%!&&&",
  "&&&!%##$##%$$$#%!&&&",
  "&&&!%$#%$##$%$#%!&&&",
  "&&&!%$#%$#$#%$#%!&&&",
  "&&&!%$#%$#$#$$%%!&&&",
  "&&&!%$##$###$$#$!&&&",
  "&&&!%$##$$##$$#$!!&&",
  "&&&!$$$#$$#$#$#$$!&&",
  "&&&!%$$##$$$$$#%$!&&",
  "&&&!%$$$#$$$$$#$!!&&",
  "&&&&!#$$#$$$$#$$!&&&",
  "&&&&!$#$$$$#$$$!!&&&",
  "&&&!#$$$$$#$$$#!&&&&",
  "&&&!##$$##$#$##!&&&&",
  "&&!!###$$##$####!&&&",
  "&!###$##$$##$$$##!&&",
  "&!##$$##$$$#$#$$##!&",
  "!!!!!!!!!!!!!!!!!!!!",
};
