/* XPM */
static char *cloak_4d[] = {
  /* width height ncolors chars_per_pixel */
  "30 30 3 1 0 0",
  /* colors */
  "! c #000080",
  "# c #ff0000",
  "$ c None",
  /* pixels */
  "$$$$$$$$$$$$$$$$$$$$$$$$$$$$$$",
  "$$$$$$$$$$$$$$$$$$$$$$$$$$$$$$",
  "$$$$$$$$$$$$$$$$$$$$$$$$$$$$$$",
  "$$$$$$$$$$$$$$$$$$$$$$$$$$$$$$",
  "$$$$$$$$$$$$$$$$$$$$$$###$$$$$",
  "$$$$$$$$$$$$$$$$$$$$$#$$##$$$$",
  "$$$$$$$$$$$$$$$$$$$###$$##$$$$",
  "$$$$$$$$$$$$$!!!!!$#$$$$##$$$$",
  "$$$$$$$$$$$!!!!!!!!!$$###$$$$$",
  "$$$$$$$$$$!!!!!!!!!!!##$$$$$$$",
  "$$$$$$$$$!!!!!!!!!!!##$$$$$$$$",
  "$$$$$$$$$!!!!!!!!!###!!$$$$$$$",
  "$$$$$$$$!!!!!!!!!!##!!!$$$$$$$",
  "$$$$$$$$!!!!!!!!!##!!!!$$$$$$$",
  "$$$$$$$$!!!!!!!!##!!!!!$$$$$$$",
  "$$$$$$$$!!!!!!!##!!!!!!$$$$$$$",
  "$$$$$$$$!!!!!!###!!!!!!$$$$$$$",
  "$$$$$$$$!!!!!!#!!!!!!!!$$$$$$$",
  "$$$$$$$$$!!!!#!!!!!!!!$$$$$$$$",
  "$$$$$$$$$!!!#!!!!!!!!!$$$$$$$$",
  "$$$$$$$$$$!!!!!!!!!!!$$$$$$$$$",
  "$$$$$$$$$$$!!!!!!!!!$$$$$$$$$$",
  "$$$$$$$$$$$$$!!!!!$$$$$$$$$$$$",
  "$$$$$$$$$$$$$$$$$$$$$$$$$$$$$$",
  "$$$$$$$$$$$$$$$$$$$$$$$$$$$$$$",
  "$$$$$$$$$$$$$$$$$$$$$$$$$$$$$$",
  "$$$$$$$$$$$$$$$$$$$$$$$$$$$$$$",
  "$$$$$$$$$$$$$$$$$$$$$$$$$$$$$$",
  "$$$$$$$$$$$$$$$$$$$$$$$$$$$$$$",
  "$$$$$$$$$$$$$$$$$$$$$$$$$$$$$$",
};
