/* XPM */
static char *stars_4[] = {
  /* width height ncolors chars_per_pixel */
  "36 24 4 1 0 0",
  /* colors */
  "! c #000000",
  "# c #c0c0c0",
  "$ c #808080",
  "% c None",
  /* pixels */
  "%%%%%%%%%%%%%%%%###%%%%%%%%%%%%%%%%%",
  "%%%%%%%%%%%%%%%%#!$#%%%%%%%%%%%%%%%%",
  "%%%%%%%%%%%%%%%%#!!$#%%%%%%%%%%%%%%%",
  "%%%%%%%%%%%%%%%%#!!$$##########%%%%%",
  "%%%%%%%%%%%%%%%%#!!!!!!!!!!!$#%%%%%%",
  "%%%%%%%%%%%%%%%%#!!!!!!!!!!!$#%%%%%%",
  "%%%%%%%%%%%%%%%#$!!$##!!!$$##%%%%%%%",
  "%%%%%%%%%%%%%##$$!!$##!!$$#%%%%%%%%%",
  "%%%%%%%%%%%%#$!$!!!!!!!$$#%%%%#%%%%%",
  "%%%%%%%%%%%#$$!!!!!!!!!!#%%%%##%%%%%",
  "%%%%%%%%%%%#$!######$$!!#%%%#!#%%%%%",
  "%%%%%%%%%##$!!#%%%%%#$!!#%%##!#%%%%%",
  "%%%%%%%%#$$!!$#%%%%%%##$###$!!#%%%%%",
  "########$$!!!$#%%#######$$$$!!#%%%%%",
  "#!!!!!!!!!!!!$#%%%#!!!!!$$$!!!#%%%%%",
  "%#$$!!!!!!!!$$#%%%%#$!!!!!!!!!#%%%%%",
  "%%#$$$!!$##!!$##%%%#$$!!!$##!!###%%%",
  "%%%%#$!!$##!!$$##%%%#$!!!$##!!$$##%%",
  "%%%%%#!!!!!!!!$$##%%%#!!!!!!!!$$!$#%",
  "%%%%%#!!!$!!!!!!!$#%%#!!!!!!!!!!!!!#",
  "%%%%%#!$$###########%#!!$$#########%",
  "%%%%%#!$#%%%%%%%%%%%%#!$$#%%%%%%%%%%",
  "%%%%%#!#%%%%%%%%%%%%%#!##%%%%%%%%%%%",
  "%%%%%##%%%%%%%%%%%%%%%#%%%%%%%%%%%%%",
};
