/* XPM */
static char *launcher_4[] = {
  /* width height ncolors chars_per_pixel */
  "42 24 10 1 0 0",
  /* colors */
  "! c #000000",
  "# c #800000",
  "$ c #808000",
  "% c #008080",
  "& c #c0c0c0",
  "' c #808080",
  "( c #ff0000",
  ") c #00ff00",
  "* c #ffff00",
  "+ c None",
  /* pixels */
  "++++++++++++++++++++++++++++++++++++++++++",
  "++++++++++++++++++++++++++++++++++++++++++",
  "+++&&&&&&&&&&&&+++++++++++++++++++++++++++",
  "++&!!!!!!!!!!!!&++++++++++++++++++++++++++",
  "++&!''''''((!*!&++++++++++++++++&&&+++++++",
  "++&!!!!!!!!!!!!&+++++++++++++++&!!!&++++++",
  "++&!''''''((!*!&+++++++++++++++&!'!&++++++",
  "++&!!!!!!!!!!!!&+++++++++++++++&!'!&++++++",
  "++&!''''''((!*!&+++++++++++++++&!'!&+&&&&+",
  "&&&!!!!!!!!!!!!&+++++++++++++++&!'!&&!!!!&",
  "&!!!''''''((!*!&&&&&&&&&&&&&&&&&!'!&&!$$!&",
  "&!'!!!!!!!!!!!!!!!!!!!!!!!!!!!!!!!!!!!$$!&",
  "&!'''''''''''''%%%%%%%%%%%%%%%%%%%%!'!$$!&",
  "&!'((''''''))''%%%%%%%%%%%%%%%%%%%%!'!$$!&",
  "&!'((''''''))''%%%%%%%%%%%%%%%%%%%%!'!$$!&",
  "&!'''''''''''''%%%%%%%%%%%%%%%%%%%%!'!$$!&",
  "&!!!!!!!!!!!!!!!!!!!!!!!!!!!!!!!!!!!!!!!!&",
  "&&&&&&&&!!##!&&&&&&&&&&&&&!##!&!&!&&&&&&&+",
  "++++++&&!!!!!&+++++++++++&!!!!!&!!&+++++++",
  "++++++&!!##!&++++++++++++&!##!!!!&&+++++++",
  "+++++&&!!!!!&+++++++++++&!!!!&&&&&++++++++",
  "+++++&!!##!&++++++++++++&!##&+++++++++++++",
  "+++++&!!!!!&++++++++++++&!!!&+++++++++++++",
  "+++++&&&&&&++++++++++++++&&&++++++++++++++",
};
