/* XPM */
static char *transmogifier_4[] = {
  /* width height ncolors chars_per_pixel */
  "52 30 5 1 0 0",
  /* colors */
  "! c #000000",
  "# c #800000",
  "$ c #808000",
  "% c #808080",
  "& c None",
  /* pixels */
  "&&&&&&&&&&&&&&&&&&&&&&&&&&&&&&&&&&&&&&&&&&&&&&&&&&&&",
  "&&################################################&&",
  "&&#################################################&",
  "&&##$$$$$$$$$$$$$$$$$$$$$$$$$$$$$$$$$$$$$$$###%%%##&",
  "&&##$$$$$$$$$$$$$$$$$$$$$$$$$$$$$$$$$$$$$$####%%%##&",
  "&&##$$$$$$$$$$$$$$$$$$$$$$$$$$$$$$$$$$$$$$###%%%%##&",
  "&&##$%!!!!!%!!%$%!%%!%%!%%!!%$$$$$$$$$$$$$$##%%%%##&",
  "&&##$%%%!%%%!%!%!%!%!!%!%!%%!$%%%%$$$$$$$$$#%%%%%##&",
  "&&##$$$%!%$%!%!%!%!%!!!!%!!%%%!!!!%$$$$$$$##%%%%%##&",
  "&&##$$$%!%$%!!%%!!!%!%!!%%%!%$%%%%$$$$$$$$##%%%%%##&",
  "&&##$$$%!%$%!%!%!%!%!%%!%!%%!$$$$$$$$$$$$$##%%%%%##&",
  "&&##$$$%!%$%!%!%!%!%!%%!%%!!%$$$$$$$$$$$$$##%%%%%##&",
  "&&##$$$$$$$$$$$$$$$$$$$$$$$$$$$$$$$$$$$$$$##%%%%##&&",
  "&&##$$$$$$$$$$$$$$$$$$$$$$$$$$$$$$$$$$$$$$$##%%%##&&",
  "&&##$$$%!%$%!%%!%$%!!%%!%!!!%!%!!!%!!%$$$$$##%%%##&&",
  "&&##$$$%!!%!!%!%!%!%%%%!%!%%%!%!%%%!%!%$$$$##%%%##&&",
  "&&##$$$%!!%!!%!%!%!%%%%!%!%$%!%!%%%!%!%$$$$##%%%##&&",
  "&&##$$$%!%!%!%!%!%!%!!%!%!!%%!%!!!%!!%$$$$$##%%%##&&",
  "&&##$$$%!%%%!%!%!$!%%!%!%!%$%!%!%%%!%!%$$$$##%%%##&&",
  "&&##$$$%!%$%!%%!%$%!!!%!%!%$%!%!!!%!%!%$$$$##%%%##&&",
  "&&##$$$$$$$$$$$$$$$$$!$$$$$$$$$$$$$$$$$$$$$##%%%##&&",
  "&&##$$$$$$$$$$$$$$$$$$$$$$$$$$$$$$$$$$$$$$$##%%%##&&",
  "&&##$$$$$$$$$$$$$$$$$$$$$$$$$$$$$$$$$$$$$$$##%%%##&&",
  "########################################$$$$##%%##&&",
  "#########################################$$$##%#####",
  "##$$$$$$$$$$$$$$$$$$$$$$$$$$$$$$$$$$$$$###$$$###%%%#",
  "&##$$$$$$$$$$$$$$$$$$$$$$$$$$$$$$$$$$$$$###$$##%%%%#",
  "&&##$$$$$$$$$$$$$$$$$$$$$$$$$$$$$$$$$$$$$#####%%%%##",
  "&&&##$$$$$$$$$$$$$$$$$$$$$$$$$$$$$$$$$$$$$####%%%##&",
  "&&&&###############################################&",
};
