/* XPM */
static char *missile_39[] = {
  /* width height ncolors chars_per_pixel */
  "14 14 12 1 0 0",
  /* colors */
  "! c #c0c0c0",
  "# c #333366",
  "$ c #555555",
  "% c #a0a0a4",
  "& c #808080",
  "' c #ffdf00",
  "( c #0000ff",
  ") c None",
  "* c #00ffff",
  "+ c #ffbf00",
  ", c #ff9f00",
  "- c #333300",
  /* pixels */
  ")))))))))-----",
  "))))))))--###&",
  ")))))))--#$$&&",
  "))))))--#$$&%%",
  ")))))--#$$$%%%",
  "))))--#$$$%%!)",
  ")))))($$$%%!))",
  "))))'(($%%!)))",
  ")))+'''**!))))",
  ")),++'''*)))))",
  "),,,++))))))))",
  ")))),)))))))))",
  "))),))))))))))",
  "))))))))))))))",
};
