/* XPM */
static char *missile_25[] = {
  /* width height ncolors chars_per_pixel */
  "20 6 15 1 0 0",
  /* colors */
  "! c #000000",
  "# c #c0c0c0",
  "$ c #333366",
  "% c #555555",
  "& c #a0a0a4",
  "' c #808080",
  "( c #0000ff",
  ") c #ffdf00",
  "* c None",
  "+ c #00ffff",
  ", c #ffbf00",
  "- c #ff9f00",
  ". c #ff7f00",
  "/ c #ff5f00",
  "0 c #333300",
  /* pixels */
  "********!00000000***",
  "***--,))($$$$$$$000*",
  "//.--,))(%%%%%%%$$00",
  "*****,))(%%%%%''''$$",
  "***--,,)+&&&&&&&&''*",
  "********+######&&***",
};
