/* XPM */
static char *flag_4[] = {
  /* width height ncolors chars_per_pixel */
  "22 26 6 1 0 0",
  /* colors */
  "! c #000000",
  "# c #c0c0c0",
  "$ c #333366",
  "% c #808080",
  "& c #ff0000",
  "' c None",
  /* pixels */
  "''''''%'''''''''''''''",
  "'''''#%$''''''''''''''",
  "'''''#%&$$''''''''''''",
  "'''''#%&&&$'''''''''''",
  "'''''#%&&&&$$$''''''''",
  "'''''#%&&&&&&&$$''''''",
  "'''''#%&&&&&&&&&$$$'''",
  "'''''#%&&&&&&&&&&&&$$'",
  "'''''#%&&&&&&&&&&&&!!'",
  "'''''#%&&&&&&&&&&!!'''",
  "'''''#%&&&&&&&!!!'''''",
  "'''''#%&&&&&!!''''''''",
  "'''''#%&&&!!''''''''''",
  "'''''#%&!!''''''''''''",
  "'''''#%!''''''''''''''",
  "'''''#%'''''''''''''''",
  "'''''#%'''''''''''''''",
  "'''''#%'''''''''''''''",
  "'''''#%'''''''''''''''",
  "'''''#%'''''''''''''''",
  "'''''%%'''''''''''''''",
  "''''#%%!''''''''''''''",
  "''''#%%!''''''''''''''",
  "''''#%%!''''''''''''''",
  "''##%%%%%!''''''''''''",
  "##%%%%%%%%%!!'''''''''",
};
