/* XPM */
static char *fireball_4c[] = {
  /* width height ncolors chars_per_pixel */
  "48 48 8 1 0 0",
  /* colors */
  "! c #000000",
  "# c #d49f00",
  "$ c #d47f00",
  "% c #663300",
  "& c #d45f00",
  "' c #aa5f00",
  "( c #aa3f00",
  ") c None",
  /* pixels */
  "))))))))))))))))))))))))))))))))))))))))))))))))",
  "))))))))))))))))))))))))))))))))))))))))))))))))",
  ")))))))))))))))))))))))))%))))))))))))))))))))))",
  ")))))))))))))))))))))))))%%%%%))))))))))))))))))",
  "))))))))))))))))%))))))))%(('''%))))))))))))))))",
  ")))))))))))))&'(%%%)))))%%%%(&&&))))))))))))))))",
  "))))))))))))%$$$&&&')))%(%%(''&$))))))))))))))))",
  ")))))))))))%%&$%%%%%'%%'%%%%#$&())))))))))))))))",
  ")))))))))%%%%%%%%%%%(%%'%))%$#&(&)))))))))))))))",
  "))))))))%%'''((%%%%)%%%(%)%%&$&'&&))))))))))))))",
  ")))))))(((((((()))))%%%%%))%('&$$&&)))))))))))))",
  ")))))))%%%((((######%%%%%%%%()))))))))))))))))))",
  "))))))))))%%%%%%%%)#'%%%)%%%(%%%%%))))))))))))))",
  "))))))))%'''((%%%%)%(%%%%)%%()%%%%%%%%))))))))))",
  "))))))%%%&&(%%%%%%)%%%%))%%%%)%%%%((''')))))))))",
  "))))))%$$&''(%%(%%%%%))%%%%%%)%%%%%%(&&&&%))))))",
  "))))))$$(&$#%%%%'%%%%%%%))%%%%%%(%%(''&$$&%)))))",
  "))))))$&(&#$%))%'%%''((%))#%(%%'%%%%#$&($$&)))))",
  "))))))&&'&$&%%)%(%%&(%%%))#%%%%'%))%$#&(&$$)))))",
  "))))))&$$&'(%))%%%%''))%))(%%%%(%)%%&$&'&&&)))))",
  "))))))&$#'((%%%%%%%%#)))))%%%%%%%))%('&$$&&)))))",
  "))))))&$#&'(%%%)%%%&%%)%))%%(#%%%%%%(('#$&&)))))",
  "))))))$$#$'(%%)%%%%$&%%)%)%%%#%%)%%%('&#$&&)))))",
  "))))))$$#&%%%%%))%%&$%%)))%%#%%%%)%%('$#$$$%))))",
  "))))))%%%%%%%%%%%))&&&%%%%##%%%))%%%%%&#$$&%)%))",
  "%)))))%%%%%%%(('#$&&&&%%%%%%%))%%%%%%%%%###)))))",
  "%)))))%%%)%%%('&#$&&&&%%%%%%%%('$#$$$%###'%%))))",
  "))))))%%%))%%('$#$$$%%%%))%%%%%%&#$$&##%''%%))))",
  "))))))%%%))%%%%&#$$&%%%%))))%%%%%#$&##%%%%%%%)))",
  "))))))%%%))%%%%%#$&%%%%)))))%%%%%#$&%'%%%%%%%%))",
  ")&))))%%%))%%%%%#$&%%%%))))%%##%'#&'%%%)%%%%%%))",
  ")%))))#%%)%%%%%'#&'%%%%%)))%%##%$#&%(%))%%%)))))",
  ")&))))#%%%%%%#%$#&%)%%%%%)%%%#%&#$(%%%%%)%))))))",
  "%)))))###%%%%%)#$(%)%%#%%)%%%#%##&%%%%!%%%))))))",
  "%)))))%##%%%%%)#&%%%%%##%)%%%#&##'%(%%%%%)))))))",
  ")))))))###%%%&))'%##%%##%)%%%#$##)))%%%)%)))))))",
  ")%)))))#%%%%%$))('##%%##%)%%%&$#)))))%%)%)))))))",
  ")))))))##%%%&$))'&###%%%%%%%%&##)))))%%)%)))))))",
  ")))))))))%%%&#))&%###$%%%%%%&$##))))%))))%))))))",
  ")))))))))))&$)))&%$$##%%%))($##$$))&))))%%%)))))",
  "))))))))))))#))))%$&##%%))))))#&))))))))%)))))))",
  ")))))))))))))#))))))%#%%))))))$)))))))))))()))))",
  ")))))))))))))#))))))))))))))))&)))))))))))))))%)",
  ")))))))))))))##)))))))))))))))'&))))))))))))))))",
  ")))))))))))))))##)##))))))))))'(%%%%))))))))))))",
  ")))))))))%%#$'(%%%)#)))))))))$$&%%%))%%)))))))))",
  "))))))))))))$$&%%%%%%%%%%###&(&#&)))%)))))))))))",
  ")))))))))))))))))'%%%%%%&)))))))))%%))))))))))))",
};
