/* XPM */
static char *chopper_boy_2c[] = {
  /* width height ncolors chars_per_pixel */
  "24 40 40 1 0 0",
  /* colors */
  "! c #000000",
  "# c #008080",
  "$ c #a6caf0",
  "% c #336600",
  "& c #d43f55",
  "' c #d43f00",
  "( c #339966",
  ") c #d40055",
  "* c #d40000",
  "+ c #666600",
  ", c #333366",
  "- c #669966",
  ". c #00cc99",
  "/ c #550000",
  "0 c #3366cc",
  "1 c #aa9f55",
  "2 c #555555",
  "3 c #669999",
  "4 c #33cc99",
  "5 c #aa3f55",
  "6 c #a28d68",
  "7 c #a0a0a4",
  "8 c #ffff55",
  "9 c #ff0000",
  ": c None",
  "; c #ffbfaa",
  "< c #aa0000",
  "= c #336699",
  "> c #3399ff",
  "? c #ff3f55",
  "@ c #666699",
  "A c #d4ffaa",
  "B c #d4ff55",
  "C c #d4ff00",
  "D c #6699ff",
  "E c #333300",
  "F c #699900",
  "G c #d4bfaa",
  "H c #d4bf55",
  "I c #336666",
  /* pixels */
  ":#.....#:::.(%::::::::::",
  ":((((((%(.#.(%#........#",
  "::(#(#I%%II.I%I,I%((((((",
  ":::::::::::.(%:::%(#(I#:",
  "::::::::::4II:::::::::::",
  ":::::::::4(I::::::::::::",
  ":::::::::.(:::::::::::::",
  ":::::::::.(:::H:::::::::",
  ":::::::::.(:88:C8::8::::",
  ":::::::::.(:1F868HBH::::",
  ":::::::::.(:.(....F:::::",
  ":::::::::..((###(#EGB:::",
  "::::::::(.(#!,!,@EFBGB2:",
  "::::::::#((,E+@!,,BGGGG2",
  ":::::::##(##E+HH,!2GBAGE",
  ":::::::#.###E7117FF2BHGE",
  ":::::::.#I##E227H7H72BB:",
  ":::::::####,E!227HA7FHBF",
  ":::::::####,,,,?*/&+FGBF",
  "::::::::###,!59???&&BGGF",
  "::::::::###,/??9&&?GGG+:",
  "::::::::###/????9'?FF+::",
  "::::::::###/**9?*&&++:::",
  "::::::::###/5??5//<<::::",
  "::::::::###/5),,##-/::::",
  "::::::::####/,,#,*9)<:::",
  "::::::::###,!#,,*,,#,<::",
  ":::::::::###,,,,,#D==:::",
  ":::::::::::,,,0000>30,::",
  ":::::::::::,!=000000,1::",
  "::::::::::::,!,,000GHB1:",
  ":::::::::::E21!,,1HHHH2:",
  "::::::::::E211#>>;;;22::",
  ":::::::::%;1H11E!#00::::",
  "::::::::#>>;;;!!#0$00:::",
  ":::::::0>>$0,,00,>>,0$::",
  ":::::::$,00$,$$00,,>$0::",
  ":::::::;#,>,>0>>0;#>>0::",
  "::::::::;$,##!==,$;,#0::",
  ":::::::::;$$;$;$0:$;$>::",
};
