/* XPM */
static char *chopper_boy_21d[] = {
  /* width height ncolors chars_per_pixel */
  "26 40 57 1 0 0",
  /* colors */
  "! c #000000",
  "# c #d49faa",
  "$ c #d49f55",
  "% c #000080",
  "& c #008080",
  "' c #663300",
  "( c #a6caf0",
  ") c #336600",
  "* c #330066",
  "+ c #d43f55",
  ", c #d43f00",
  "- c #339966",
  ". c #d40055",
  "/ c #d40000",
  "0 c #330000",
  "1 c #666600",
  "2 c #333366",
  "3 c #669966",
  "4 c #00cc99",
  "5 c #550000",
  "6 c #3366cc",
  "7 c #aa9fff",
  "8 c #aa9faa",
  "9 c #aa9f55",
  ": c #aa9f00",
  "; c #990066",
  "< c #555555",
  "= c #333399",
  "> c #aa5f55",
  "? c #669999",
  "@ c #aa3f55",
  "A c #aa3f00",
  "B c #a28d68",
  "C c #d5ccbb",
  "D c #a0a0a4",
  "E c #ffff55",
  "F c #ff0000",
  "G c None",
  "H c #ffbfaa",
  "I c #aa0000",
  "J c #ffffff",
  "K c #ff9f55",
  "L c #336699",
  "M c #3399ff",
  "N c #ff3f55",
  "O c #ff3f00",
  "P c #666699",
  "Q c #d4ffaa",
  "R c #d4ff55",
  "S c #d4ff00",
  "T c #6699ff",
  "U c #333300",
  "V c #699900",
  "W c #d4bfaa",
  "X c #d4bf55",
  "Y c #d4bf00",
  "Z c #336666",
  /* pixels */
  "GGGGGGGGGG4-&4GGGGGGGGGGGG",
  "GGGGGGGGGG4&444GGGGGGGGGGG",
  "GGGGGGGG-444)2GGGGGGGGGGGG",
  "GGGGGGGGGG4-)GGGGGGGGGGGGG",
  "GGGGGGGGGG&4&GGGGGGGGGGGGG",
  "GGGGGGGGGGGZ)GGGGGGGGGGGGG",
  "GGGGGGGGGGG&EEGGGGGGGGGGGG",
  "GGGGGGGGGEGEEGSGGGGGGGGGGG",
  "GGG1GGGGGVEBEXGE&GGUU<1GGG",
  "GRXRU&GG9$EDERRX&X4&4XRXGG",
  "RXWRX-4&Z&222ZZ2&-&-XRXR1G",
  "1RRXGG&&U!#DJHCDZ44GXRUUWG",
  "XUURG&Z&2<CD<DDD(&Z4G<UURG",
  "QUU<G44&2222!!22?&Z&GG>RX1",
  "XX3GGZZZ?!!22L!!?Z&&GGGVWR",
  "RXVGG&&!0L!29P8P0&/AI0G1RX",
  "XWV+IA&5!UUQ>YRUU./IERXVQX",
  "RV1R++<I5!>Y<<Y<0I/@XX3V1V",
  "13XX,FN/52U:RR90*'I+AV<V<G",
  "G1V3+/N@520<<<<0I*5/5&GGGG",
  "GGGIFII502IUDD5I+/U24&GGGG",
  "GGG<I5<Z2/5;III./2&ZZGGGGG",
  "GGGGGZ&&5/FKIFFF/5&&4GGGGG",
  "GGGGG&3!<@<Z222<@<!3&GGGGG",
  "GGGGGGZ<ZZ&<-33&ZZ<ZGGGGGG",
  "GGGGGGG5I///O@FF//2GGGGGGG",
  "GGGGGG5I/22//O@2=2=GGGGGGG",
  "GGGGGGG2=MT22=22=M=2GGGGGG",
  "GGGGG2=6T766662667T6=2GGGG",
  "GGGGG2=6T7666=666M?%!ZGGGG",
  "GGGGGZVV6M662!2=6MVVV=GGGG",
  "GGGGG<XXVM6=!G!=6=VXX<GGGG",
  "GGGGG<XXV266GGG2!D1XRR<GGG",
  "GGGGG<>><U!6GGG62<<>X<<GGG",
  "GGGGG<<R<<22CGGC2(<<<<6(GG",
  "GGGG6(<<<2(2HGGHM2((2226GG",
  "GGGG6(M2222MCGGCM2M2M((6(G",
  "GGGG6M((M%2HGGGGHM%MMM(6(G",
  "GGGGC2MMM2CGGGGGGH62%22HG(",
  "GGGGGH2%2HGGGGGGGGHHCHCGGG",
};
