/* XPM */
static char *chopper_boy_21c[] = {
  /* width height ncolors chars_per_pixel */
  "26 40 57 1 0 0",
  /* colors */
  "! c #000000",
  "# c #d49faa",
  "$ c #d49f55",
  "% c #000080",
  "& c #008080",
  "' c #663300",
  "( c #a6caf0",
  ") c #336600",
  "* c #330066",
  "+ c #d43f55",
  ", c #d43f00",
  "- c #339966",
  ". c #d40055",
  "/ c #d40000",
  "0 c #330000",
  "1 c #666600",
  "2 c #333366",
  "3 c #669966",
  "4 c #00cc99",
  "5 c #550000",
  "6 c #3366cc",
  "7 c #aa9fff",
  "8 c #aa9faa",
  "9 c #aa9f55",
  ": c #aa9f00",
  "; c #990066",
  "< c #555555",
  "= c #333399",
  "> c #aa5f55",
  "? c #669999",
  "@ c #aa3f55",
  "A c #aa3f00",
  "B c #a28d68",
  "C c #d5ccbb",
  "D c #a0a0a4",
  "E c #ffff55",
  "F c #ff0000",
  "G c None",
  "H c #ffbfaa",
  "I c #aa0000",
  "J c #ffffff",
  "K c #ff9f55",
  "L c #336699",
  "M c #3399ff",
  "N c #ff5f55",
  "O c #ff3f55",
  "P c #ff3f00",
  "Q c #666699",
  "R c #d4ffaa",
  "S c #d4ff55",
  "T c #6699ff",
  "U c #333300",
  "V c #699900",
  "W c #d4bfaa",
  "X c #d4bf55",
  "Y c #d4bf00",
  "Z c #336666",
  /* pixels */
  "G&44444&GGG4-)GGGGGGGGGGGG",
  "G------)-4&4-)&44444444&GG",
  "GG-&-&Z))ZZ4Z)Z2Z)------GG",
  "GGGGGGGGGGG4-)GGG)-&-Z&GGG",
  "GGGGGGGGGGG&4&GGGGGGGGGGGG",
  "GGGGGGGGGGGGZ)GGGGGGGGGGGG",
  "GGGGGGGGGGGE&&EGGGGGGGGGGG",
  "GGGGGGGGGGEE&EGGEGGGGGGGGG",
  "GGG1GGGGGGVEBEXGEGGUU<1GGG",
  "GSXSU&GGG9$EEESSXG4&4XSXGG",
  "SXWSX-4&Z&222ZZ2&X&-XSXS1G",
  "1SSXGG&&U!#DJHCDZ44GXSUUWG",
  "XUUSG&Z&2<CD<DDD(&Z4G<UUSG",
  "RUU<G44&2222!!22?&&&GG>SX1",
  "XX3GGZZZ?!!22L!!?&&&GGGVWS",
  "SXVGG&&!0L!29Q8Q0A/AA0G1SX",
  "XWV+IA+<!UUR>YSUU.AIESXVRX",
  "SV1S++FO5!>Y<<Y<0I/@XX3V1V",
  "13XX,FO/52U:SS90*'I+AV<V<G",
  "G1V3+/O@520<<<<0I*5/5&GGGG",
  "GGGIFII502IUDD5I+/U24&GGGG",
  "GGG<I5<Z2/5;III./2&ZZGGGGG",
  "GGGGGZ&&55/NKFFF/5&&4GGGGG",
  "GGGGG&3!<<<Z222<@<!3&GGGGG",
  "GGGGGGZ<ZZ&<-33&ZZ<ZGGGGGG",
  "GGGGGGG5I////P@//I5GGGGGGG",
  "GGGGGGG5I/222=2F//2GGGGGGG",
  "GGGGGGG2=MT22=22=M=2GGGGGG",
  "GGGGGG=6T766662667T62GGGGG",
  "GGGGG2=%?M666=666M?%=2GGGG",
  "GGGGGZVV%?M=2!2=6MVVV=GGGG",
  "GGGGG<XXVVM6!G!=6=VXX<GGGG",
  "GGGGG<XXV2=6GGG2!D1XSS<GGG",
  "GGGGG<>><U!6GGG62<<>X<<GGG",
  "GGGGG<<S<<22CGGC2(<<<<6(GG",
  "GGGG6(<<<2(2HGGHM2((2226GG",
  "GGGG6(M2222MCGGCM2M2M((6(G",
  "GGGG6M((M%2HGGGGHM%MMM(6G(",
  "GGGGC2MMM2CGGGGGGH62%22HG(",
  "GGGGGH2%2HGGGGGGGGHHCHCGGG",
};
