/* XPM */
static char *chopper_boy_2d[] = {
  /* width height ncolors chars_per_pixel */
  "24 40 41 1 0 0",
  /* colors */
  "! c #000000",
  "# c #d49f55",
  "$ c #008080",
  "% c #a6caf0",
  "& c #336600",
  "' c #d43f55",
  "( c #d43f00",
  ") c #339966",
  "* c #d40055",
  "+ c #d40000",
  ", c #666600",
  "- c #333366",
  ". c #669966",
  "/ c #00cc99",
  "0 c #550000",
  "1 c #3366cc",
  "2 c #aa9f55",
  "3 c #555555",
  "4 c #669999",
  "5 c #33cc99",
  "6 c #aa3f55",
  "7 c #a28d68",
  "8 c #a0a0a4",
  "9 c #ffff55",
  ": c #ff0000",
  "; c None",
  "< c #ffbfaa",
  "= c #aa0000",
  "> c #336699",
  "? c #3399ff",
  "@ c #ff3f55",
  "A c #666699",
  "B c #d4ffaa",
  "C c #d4ff55",
  "D c #d4ff00",
  "E c #6699ff",
  "F c #333300",
  "G c #699900",
  "H c #d4bfaa",
  "I c #d4bf55",
  "J c #336666",
  /* pixels */
  ";;;;;;;;;;;/)$/;;;;;;;;;",
  ";;;;;;;;;;;/$///;;;;;;;;",
  ";;;;;;;;;)///&-;;;;;;;;;",
  ";;;;;;;;;;;/)&;;;;;;;;;;",
  ";;;;;;;;;;/JJ;;;;;;;;;;;",
  ";;;;;;;;;5)J;;;;;;;;;;;;",
  ";;;;;;;;;/);;;II;;;;;;;;",
  ";;;;;;;;;/);99;C9;D;;;;;",
  ";;;;;;;;;/);;G999I;9;;;;",
  ";;;;;;;;;/);2#979D9I;;;;",
  ";;;;;;;;;/);/)////G;;;;;",
  ";;;;;;;;;//))$$$)$FHC;;;",
  ";;;;;;;;)/)$!-!-AFGCHC3;",
  ";;;;;;;;$))-F,A!--CHHHH3",
  ";;;;;;;$$)$$F,II-!3HCBHF",
  ";;;;;;;$/$$$F8228GG3CIHF",
  ";;;;;;;/$J$$F338I8I83CC;",
  ";;;;;;;$$$$-F!338IB8GICG",
  ";;;;;;;$$$$----@0+8,GHCG",
  ";;;;;;;;$$$-!::6@@@HCHHG",
  ";;;;;;;;$$$-0:::''@CHH,;",
  ";;;;;;;;$$$0@+@@:('GG,;;",
  ";;;;;;;;$$$0+@:@+'',,;;;",
  ";;;;;;;;$$$06@@000=0;;;;",
  ";;;;;;;;$$$06*--$$.0;;;;",
  ";;;;;;;;$$$$0--$-+:*=;;;",
  ";;;;;;;;$$$-!$--+--$-;;;",
  ";;;;;;;;;$$$-----$E>>;;;",
  ";;;;;;;;;;;---1111?41;;;",
  ";;;;;;;;;;;-!>11111442;;",
  ";;;;;;;;;;;;-!--112HIC2;",
  ";;;;;;;;;;;F32!-J2IIII3;",
  ";;;;;;;;;;F322$??<<<33;;",
  ";;;;;;;;;&<2I22F!$11;;;;",
  ";;;;;;;;$??<<<!!$1%11;;;",
  ";;;;;;;1??%1--11-??-1;;;",
  ";;;;;;;%-11%-%%11--?%1%;",
  ";;;;;;;<$-?-?1??1<$??1;;",
  ";;;;;;;;<%-$$!>>-%<-$1;;",
  ";;;;;;;;;<%%<%<%1;%<%?;;",
};
