/* XPM */
static char *chopper_boy_25[] = {
  /* width height ncolors chars_per_pixel */
  "38 18 43 1 0 0",
  /* colors */
  "! c #000000",
  "# c #008080",
  "$ c #a6caf0",
  "% c #336600",
  "& c #d43f55",
  "' c #d43f00",
  "( c #339966",
  ") c #d40055",
  "* c #d40000",
  "+ c #666600",
  ", c #333366",
  "- c #00cc99",
  ". c #550000",
  "/ c #aabf55",
  "0 c #3366cc",
  "1 c #aa9faa",
  "2 c #aa9f55",
  "3 c #aa9f00",
  "4 c #555555",
  "5 c #669999",
  "6 c #aa3f55",
  "7 c #a28d68",
  "8 c #d5ccbb",
  "9 c #a0a0a4",
  ": c #ffff55",
  "; c #ff0000",
  "< c None",
  "= c #ffbfaa",
  "> c #ffffff",
  "? c #aa0000",
  "@ c #336699",
  "A c #3399ff",
  "B c #ff3f55",
  "C c #666699",
  "D c #d4ffaa",
  "E c #d4ff55",
  "F c #d4ff00",
  "G c #6699ff",
  "H c #333300",
  "I c #699900",
  "J c #d4bfaa",
  "K c #d4bf55",
  "L c #336666",
  /* pixels */
  "<<<<<<<<<<<<<<<<<<<<<<<<<<<<<<<<<<<<<<",
  "<<<<<<<<<<<,,;(,#<<<<<<#<<<<,,;(;(,#<<",
  "<<<<<<<<<<<<<#;(;##<<<((#;,(;;;###;(<<",
  "<<<<<<<<42<<<<<<;;#(;(,(;;<###<<<<#,(<",
  "<<<<<<<4KE2<<<<<<,,,,,<,#-<<<<<<<<<,,<",
  "<<<<<<<EE;50@<<<<<<<<<<<<##<<<<<<<<((<",
  "<<<<<<;KKJ55@<?;;;;<<<<<<1,!$L1<<<<<<<",
  "<<<<<<KKK20AG#);;;;.B*+4<K!,99,::<<<<<",
  "<<<<<EE;2000#,*#;,;;*B+D;I!!98L3;/<<<<",
  "<<<<<E;KL000,*,#;,;;B;9K;I!,9=L/E7/<<<",
  "<<<$;;KA,,00,,#,;B6;BB49;9,,C>//K/<<<<",
  "<<00>KAA#,00,,,,;.B&;*!4;;K!,,,;;/<<<<",
  "<<0;>;>>A!@,,#,);*B&'&#44;KC!L,K7F<<<<",
  ",00,,0>A,,HIE4IKD9BB&&#!;9++,L!::</<<<",
  "00$$,$00#<JEJ;4##+JEI+,%;HHH!,/EI:<<<<",
  "0AA;A,A,=<EJJEE4IIEJI+,;;#,,###<</<<<<",
  ",@@!##,$<<<E;D;E;;;J+##((((-#-<<<<<<<<",
  "0$=$=$$=<<<4JJ;EEEJ+##-;###(<<<<<<<<<<",
};
