/* XPM */
static char *chopper_boy_0f[] = {
  /* width height ncolors chars_per_pixel */
  "28 40 49 1 0 0",
  /* colors */
  "! c #000000",
  "# c #008080",
  "$ c #a6caf0",
  "% c #336600",
  "& c #d43f00",
  "' c #339966",
  "( c #663399",
  ") c #d40055",
  "* c #330000",
  "+ c #d40000",
  ", c #666600",
  "- c #333366",
  ". c #339999",
  "/ c #00cc99",
  "0 c #550000",
  "1 c #3366cc",
  "2 c #aabf55",
  "3 c #aa9faa",
  "4 c #aa9f55",
  "5 c #aa9f00",
  "6 c #555555",
  "7 c #aa5faa",
  "8 c #669999",
  "9 c #aa5f55",
  ": c #33cc99",
  "; c #aa3f55",
  "< c #a28d68",
  "= c #d5ccbb",
  "> c #a0a0a4",
  "? c #ffff55",
  "@ c #ff0000",
  "A c None",
  "B c #ffbfaa",
  "C c #ffffff",
  "D c #336699",
  "E c #3399ff",
  "F c #ff3fff",
  "G c #ff3f55",
  "H c #666699",
  "I c #ff0055",
  "J c #d4ffaa",
  "K c #d4ff55",
  "L c #d4ff00",
  "M c #6699ff",
  "N c #333300",
  "O c #699900",
  "P c #d4bfaa",
  "Q c #d4bf55",
  "R c #336666",
  /* pixels */
  "AAAAAAAAAA/'%AAA#/////#AAAAA",
  "A#///////#/'%#/'%''''''AAAAA",
  "A'''''%R-R/R%RR%%R#'#'AAAAAA",
  "AA#RD69AAA/'%AAAAAAAAAAAAAAA",
  "AAAAAAAAA/RRAAAAAAAAAAAAAAAA",
  "AAAAAAAA/'RA2AAA2AAAAAAAAAAA",
  "AAAAAAAA/'2?AL22<2AAAAAAAAAA",
  "AAAAAAAA/'AO?<?QKQ?AAAAAAAAA",
  "AAAAAAAA/'AK?Q2225?AAAAAAAAA",
  "AAAAAAAA/'A2!--2RR-3AAAAAAAA",
  "AAAA,N#A/'A-RR-CB=>RAAAAAAAA",
  "AAAA,NN#/RA!-!-H>>>$AAAAAAAA",
  "AAA,NN#'/#-N,H!--!-!AAAAAAAA",
  "AAA,NAN###-N,QQ-!!!-AAAAAAAA",
  "AAANNAN,R##N>44>OOQ3AAAAAAAA",
  "AAANNA!/###N66>Q>Q9AAAAAAAAA",
  "AAAAAA/#R##%!66>QJ6AAAAAAAAA",
  "AAAAAA####--##!6>,,AAA6QKAAA",
  "AAAAAA####-!0+;000&AAAQK=KAA",
  "AAAAAAA###-0GGGGGG0&AAK=Q=AA",
  "AAAAAAA###0+++GG&G&&0A6Q=KAA",
  "AAAAAA+###0+@G++@+)&KKQQQAAA",
  "AAAAAA;##-!I)+)@)+)0QQ==4AAA",
  "AAAAAA0##-!@)0*00000%55OAAAA",
  "AAAAAAA####0@)-&+&*!0AAAAAAA",
  "AAAAAAA###-!-------#AAAAAAAA",
  "AAAAAAA###----##-!!-AAAAAAAA",
  "AAAAAAAA###!-D-DEEMDDAAAAAAA",
  "AAAAAAAAAAAD--.111E8D!AAAAAA",
  "AAAAA$B$AA-!--!D11-!!-AAAAAA",
  "A$AAB--11-*QD-!!1--O=6AAAAAA",
  "AA$$-11B(OQKO!-!!!OQKP6A11EA",
  "AAB-1-BBHOKKQO6-AA6OQBB-$$1:",
  "AB-.$-B>76OQ66AAAAABB38-$1EB",
  "AB-D$E-B6!66OAAAAAA!E=E-1E-$",
  "A$111!NNAAAAAAAAAA!-11E1--BA",
  "AAB1!-AAAAAAAAAAAA!11E1--$AA",
  "AAAAAAAAAAAAAAAAAA$-D---BAAA",
  "AAAAAAAAAAAAAAAAAA$B$$8BAAAA",
  "AAAAAAAAAAAAAAAAAAAAAFAAAAAA",
};
