/* XPM */
static char *chopper_boy_0e[] = {
  /* width height ncolors chars_per_pixel */
  "28 40 47 1 0 0",
  /* colors */
  "! c #000000",
  "# c #d49f55",
  "$ c #008080",
  "% c #a6caf0",
  "& c #336600",
  "' c #d43f00",
  "( c #339966",
  ") c #d40055",
  "* c #d40000",
  "+ c #666600",
  ", c #333366",
  "- c #669966",
  ". c #00cc99",
  "/ c #550000",
  "0 c #3366cc",
  "1 c #aabf55",
  "2 c #aa9faa",
  "3 c #aa9f55",
  "4 c #aa9f00",
  "5 c #555555",
  "6 c #669999",
  "7 c #aa5f55",
  "8 c #33cc99",
  "9 c #aa3f55",
  ": c #a28d68",
  "; c #d5ccbb",
  "< c #a0a0a4",
  "= c #ffff55",
  "> c #ff0000",
  "? c None",
  "@ c #ffbfaa",
  "A c #aa0000",
  "B c #ffffff",
  "C c #336699",
  "D c #3399ff",
  "E c #ff3f55",
  "F c #666699",
  "G c #ff0055",
  "H c #d4ffaa",
  "I c #d4ff55",
  "J c #d4ff00",
  "K c #6699ff",
  "L c #333300",
  "M c #699900",
  "N c #d4bfaa",
  "O c #d4bf55",
  "P c #336666",
  /* pixels */
  "????????????????????????????",
  "??????????.(&???$.....$?????",
  "?$.......$.(&$.(&((((((?????",
  "?(((((&P,P.P&PP&&P$($(??????",
  "??$P$(&???8(&???????????????",
  "?????????8PP????????????????",
  "????????8(==?II?4?=?????????",
  "????????.(?M===O?O:=????????",
  "????????.(?#=:=J=O==????????",
  "????????.(?I=OJ=14=?????????",
  "????????.(?,!,1,PP,2????????",
  "????+L$?.(?,PP,B@;<P????????",
  "????+LL$.P?!,!,F<<<%????????",
  "???+LL$(.$,L+F!,,!,!????????",
  "???+L?L$$$,L+OO,!!!,????????",
  "???LL?L+P$$L<33<MMO2????????",
  "???LL?!.$$$L55<O<O7??5NI????",
  "??????.$P$$L!55<OH5??OINI???",
  "??????$$$$,,$$!5<++??INNN???",
  "??????$$$$,!/*9///'??5NNH???",
  "???????$$$,/EEEEEE/'??-OO???",
  "???????$$$/***EE'E''-MNOI???",
  "???????$$$/*>***>**'IINNO???",
  "???????$$$/G)*)>)*/+MNNN-???",
  "???????$$$/*)*////+MM++-????",
  "???????$$$$/>/,,*>/!A???????",
  "???????$$$,!*,,*,$,,5???????",
  "???????$$$$,,,,,$KCC????????",
  "????????$$,,,0000D6!????????",
  "??????????,!C00,,,I33???????",
  "???????????,!,,!!3NOI3??????",
  "??????????L53!,P3OOOO5??????",
  "?????????L533$D@@@@55???????",
  "????????&@330DD%00,00???????",
  "???????$DD@@%,00%,D%%0??????",
  "??????0DD%00@$,D0,0DD0??????",
  "??????%,00%,D@%,,$!C,,??????",
  "??????@$,D,D0DD@%%@@%0??????",
  "?????%%@%,$$!CC,????????????",
  "????????@%%@%@%0????????????",
};
