/* XPM */
static char *chopper_boy_0b[] = {
  /* width height ncolors chars_per_pixel */
  "28 40 45 1 0 0",
  /* colors */
  "! c #000000",
  "# c #d49f55",
  "$ c #008080",
  "% c #a6caf0",
  "& c #336600",
  "' c #d43f55",
  "( c #d43f00",
  ") c #339966",
  "* c #d40055",
  "+ c #d40000",
  ", c #666600",
  "- c #333366",
  ". c #00cc99",
  "/ c #550000",
  "0 c #3366cc",
  "1 c #aabf55",
  "2 c #aa9faa",
  "3 c #aa9f55",
  "4 c #aa9f00",
  "5 c #555555",
  "6 c #aa5f55",
  "7 c #aa3f55",
  "8 c #a28d68",
  "9 c #d5ccbb",
  ": c #a0a0a4",
  "; c #ffff55",
  "< c #ff0000",
  "= c None",
  "> c #ffbfaa",
  "? c #aa0000",
  "@ c #ffffff",
  "A c #ff9f55",
  "B c #336699",
  "C c #3399ff",
  "D c #ff3f55",
  "E c #666699",
  "F c #ff0055",
  "G c #d4ffaa",
  "H c #d4ff55",
  "I c #d4ff00",
  "J c #333300",
  "K c #699900",
  "L c #d4bfaa",
  "M c #d4bf55",
  "N c #336666",
  /* pixels */
  "============================",
  "==========.)&===$.....$=====",
  "=$.......$.)&$.)&))))))=====",
  "=)))))&N-N.N&NN&&N$)$)======",
  "==$N$)&===.)&===============",
  "=========.NN================",
  "========.);;=HH=4=;=========",
  "========.)=K;;;M=M8;========",
  "========.)=#;8;I;M;;========",
  "========.)=H;MI;14;=========",
  "========.)=-!--1NN-2========",
  "====,J$=.)=-NN-@>9:N========",
  "====,JJ$.N=!-!-E:::%========",
  "===,JJ$).$-J,E!--!-!========",
  "===,J=J$$$-J,MM-!!!-========",
  "===JJ=J,N$$J:33:KKM2========",
  "===JJ=!.$$$J55:M:M6=========",
  "======.$N$$,J55:MG5=========",
  "======$$$$-/D+!5:,,=========",
  "======$$$$!*DD'//?==MH======",
  "=======$$$*<DD<7+DFMH9H=====",
  "=======$$$+<DDD++DFH9M9=====",
  "=======$$$/*<((/+AF5M94=====",
  "=======$$-/++DD++/?M455=====",
  "=======$$-MM*(7(/M,55=======",
  "=======$$,MMMHKKMHM=========",
  "=======$$,KMMMMMHMM-========",
  "=======$$$,JJKMMMM,-========",
  "========$$---,JJ,J--========",
  "==========-!B00--!H33=======",
  "===========-!--!!3LMH3======",
  "==========J53!-N3MMMM5======",
  "=========J533$CC>>>55=======",
  "========&>3M33J!$0000=======",
  "=======$CC>>>!!$0C-%%0======",
  "======0CC%0--00-C-C0CC======",
  "======%-00%-%%00-$$!-B======",
  "======>$-C-C0CC0>%>>%%======",
  "=======>%-$$!BB-%===========",
  "========>%%>%>%0============",
};
