/* XPM */
static char *chopper_boy_22c[] = {
  /* width height ncolors chars_per_pixel */
  "26 40 58 1 0 0",
  /* colors */
  "! c #000000",
  "# c #d49faa",
  "$ c #d49f55",
  "% c #000080",
  "& c #008080",
  "' c #663300",
  "( c #a6caf0",
  ") c #336600",
  "* c #330066",
  "+ c #d43f55",
  ", c #d43f00",
  "- c #339966",
  ". c #d40055",
  "/ c #330000",
  "0 c #d40000",
  "1 c #666600",
  "2 c #333366",
  "3 c #669966",
  "4 c #00cc99",
  "5 c #550000",
  "6 c #3366cc",
  "7 c #aabf55",
  "8 c #aa9fff",
  "9 c #aa9faa",
  ": c #aa9f55",
  "; c #aa9f00",
  "< c #990066",
  "= c #555555",
  "> c #333399",
  "? c #669999",
  "@ c #aa5f55",
  "A c #aa3f55",
  "B c #aa3f00",
  "C c #a28d68",
  "D c #d5ccbb",
  "E c #a0a0a4",
  "F c #ffff55",
  "G c #ff0000",
  "H c None",
  "I c #ffbfaa",
  "J c #aa0000",
  "K c #ffffff",
  "L c #ff9f55",
  "M c #336699",
  "N c #3399ff",
  "O c #ff5f55",
  "P c #ff3f55",
  "Q c #ff3f00",
  "R c #666699",
  "S c #d4ffaa",
  "T c #d4ff55",
  "U c #6699ff",
  "V c #333300",
  "W c #699900",
  "X c #d4bfaa",
  "Y c #d4bf55",
  "Z c #d4bf00",
  "[ c #336666",
  /* pixels */
  "H&44444&HHH4-)HHHHHHHHHHHH",
  "H------)-4&4-)&44444444&HH",
  "HH-&-&[))[[4[)[2[)------HH",
  "HHHHHHHHHHH4-)HHH)-&-[&HHH",
  "HHHHHHHHHHH&4&HHHHHHHHHHHH",
  "HHHHHHHHHHHH[)HHHHHHHHHHHH",
  "HHHHHHHHHHHF&&FHHHHHHHHHHH",
  "HHHHHHHHHHFF&FHHFHHHHHHHHH",
  "HHH1HHHHHHWFCFYHFHHVV=1HHH",
  "HTYTV&HHH:$FFFTTYH4&4YTYHH",
  "TYXTY-4&-;TFYTF7;Y&-YTYT1H",
  "1TTYHH&&[;TTYT77;44HYTVVXH",
  "YVVTH&[&V&222[[2&&[4H=VVTH",
  "SVV=H44&2!#EKIDE[&&&HH@TY1",
  "YY3HH[[[2=DE=EEE(&&&HHHWXT",
  "TYWHH&&!?222!!22?B0BB/H1TY",
  "YXW+JB+=/!!22M!!?.BJFTYWSY",
  "TW1T++GP!M!2:R9R/J0AYY3W1W",
  "13YY,GP05VVS@ZTVV'J+BW=W=H",
  "H1W3+0PA5!@E==E=/*505&HHHH",
  "HHHJGJJ5/2JVTX5J+0V24&HHHH",
  "HHH=J5=[205<JJJ.02&[[HHHHH",
  "HHHHH[&&550OLGGG05&&4HHHHH",
  "HHHHH&3!===[222=A=!3&HHHHH",
  "HHHHHH[=[[&=-33&[[=[HHHHHH",
  "HHHHHHH5J0000QA00J5HHHHHHH",
  "HHHHHHH5J0222>2G002HHHHHHH",
  "HHHHHHH2>NU22>22>N>2HHHHHH",
  "HHHHHH>6U866662668U62HHHHH",
  "HHHHH2>%?N666>666N?%>2HHHH",
  "HHHHH[WW%?N>2!2>6NWWW>HHHH",
  "HHHHH=YYWWN6!H!>6>WYY=HHHH",
  "HHHHH=YYW2>6HHH2!E1YTT=HHH",
  "HHHHH=@@=V!6HHH62==@Y==HHH",
  "HHHHH==T==22DHHD2(====6(HH",
  "HHHH6(===2(2IHHIN2((2226HH",
  "HHHH6(N2222NDHHDN2N2N((6(H",
  "HHHH6N((N%2IHHHHIN%NNN(6H(",
  "HHHHD2NNN2DHHHHHHI62%22IH(",
  "HHHHHI2%2IHHHHHHHHIIDIDHHH",
};
