/* XPM */
static char *chopper_boy_21[] = {
  /* width height ncolors chars_per_pixel */
  "26 40 56 1 0 0",
  /* colors */
  "! c #000000",
  "# c #d49faa",
  "$ c #000080",
  "% c #008080",
  "& c #663300",
  "' c #a6caf0",
  "( c #336600",
  ") c #330066",
  "* c #d43f55",
  "+ c #d43f00",
  ", c #339966",
  "- c #d40055",
  ". c #d40000",
  "/ c #330000",
  "0 c #666600",
  "1 c #333366",
  "2 c #669966",
  "3 c #00cc99",
  "4 c #550000",
  "5 c #3366cc",
  "6 c #aa9fff",
  "7 c #aa9faa",
  "8 c #aa9f55",
  "9 c #aa9f00",
  ": c #990066",
  "; c #555555",
  "< c #333399",
  "= c #aa5f55",
  "> c #669999",
  "? c #aa3f55",
  "@ c #aa3f00",
  "A c #a28d68",
  "B c #d5ccbb",
  "C c #a0a0a4",
  "D c #ffff55",
  "E c #ff0000",
  "F c None",
  "G c #ffbfaa",
  "H c #aa0000",
  "I c #ffffff",
  "J c #336699",
  "K c #3399ff",
  "L c #ff5f55",
  "M c #ff3f55",
  "N c #ff3f00",
  "O c #666699",
  "P c #d4ffaa",
  "Q c #d4ff55",
  "R c #d4ff00",
  "S c #6699ff",
  "T c #333300",
  "U c #699900",
  "V c #d4bfaa",
  "W c #d4bf55",
  "X c #d4bf00",
  "Y c #336666",
  /* pixels */
  "FFFFFFFFFFF3,(FFF%33333%FF",
  "F%33333333%3,(%3,(,,,,,,FF",
  "F,,,,,,(Y1Y3Y(YY((Y%,%,FFF",
  "FF%Y,%,(FFF3,(FFFFFFFFFFFF",
  "FFFFFFFFFFF%3%FFFFFFFFFFFF",
  "FFFFFFFFFFFFY(FFFFFFFFFFFF",
  "FFFFFFFFFFFF%%FFFFFFFFFFFF",
  "FFFFFFFFFFFW%%FFFFFFFFFFFF",
  "FFF0FFFFFDDFRDFFDFFTT;0FFF",
  "FQWQT%FFF8UDADWQWF3%3WQWFF",
  "QWVQW,3%Y%111YW1%,%,WQWQ0F",
  "0QQWFF%%T!#CIGBCY33FWQTTVF",
  "WTTQF%Y%1;BC;CCC'%Y3F;TTQF",
  "PTT;F33%1111!!11>%%%FF=QW0",
  "WW2FF33%>!!11J!!>H@%FFFUVQ",
  "QWUFF/%,/J!18O7O/**;H/F0QW",
  "WVU/@H-.!TTP=XQTT-@HDQWUPW",
  "QU0Q**;H4!=X;;X;/H.?WW2U0U",
  "02WW+EM.41T9QQ8/)&H*@U;U;F",
  "F0U2*.M?41/;;;;/H)4.4%FFFF",
  "FFFHEHH4/1HTCC4H*.T13%FFFF",
  "FFF;H4;Y1.4:HHH-.1%YYFFFFF",
  "FFFFFY%%4.ELNHHEE4%%3FFFFF",
  "FFFFF%2!;?;Y111;?;!2%FFFFF",
  "FFFFFFY;YY%;,22%YY;YFFFFFF",
  "FFFFFFF4H...N?E..H4FFFFFFF",
  "FFFFFFFF111..N?E..1FFFFFFF",
  "FFFFFFF1<KSK1<11<K<<1FFFFF",
  "FFFFF1<5S655551556SS5<FFFF",
  "FFFFFY!$KK555<555K>$!1FFFF",
  "FFFFF<U$>K5<1!1<5<<UUYFFFF",
  "FFFFF;WWUK5<!F!<55CWW;FFFF",
  "FFFFF;WWU115FFF1!;0WQQ;FFF",
  "FFFFF;==;T!5FFF51;;=W;;FFF",
  "FFFFF;;Q;;11BFFB1';;;;5'FF",
  "FFFF5';;;1'1GFFGK1''1115FF",
  "FFFF5'K1111KBFFBK1K1K''5'F",
  "FFFF5K''K$1GFFFFGK$KKK'5'F",
  "FFFFB1KKK1BFFFFFFG51$11G'F",
  "FFFFFG1$1GFFFFFFFFGGBGBFFF",
};
