/* XPM */
static char *chopper_boy_2[] = {
  /* width height ncolors chars_per_pixel */
  "24 40 40 1 0 0",
  /* colors */
  "! c #000000",
  "# c #d49f55",
  "$ c #008080",
  "% c #a6caf0",
  "& c #336600",
  "' c #d43f55",
  "( c #d43f00",
  ") c #339966",
  "* c #d40055",
  "+ c #d40000",
  ", c #666600",
  "- c #333366",
  ". c #669966",
  "/ c #00cc99",
  "0 c #550000",
  "1 c #3366cc",
  "2 c #aa9f55",
  "3 c #555555",
  "4 c #669999",
  "5 c #33cc99",
  "6 c #aa3f55",
  "7 c #a28d68",
  "8 c #a0a0a4",
  "9 c #ffff55",
  ": c #ff0000",
  "; c None",
  "< c #ffbfaa",
  "= c #aa0000",
  "> c #336699",
  "? c #3399ff",
  "@ c #ff3f55",
  "A c #666699",
  "B c #d4ffaa",
  "C c #d4ff55",
  "D c #6699ff",
  "E c #333300",
  "F c #699900",
  "G c #d4bfaa",
  "H c #d4bf55",
  "I c #336666",
  /* pixels */
  ";;;;;;;;;;;/)&;;;$/////$",
  ";;$///////$/)&$/)&))))))",
  ";;)))))&I-I/I&II&&I$)$);",
  ";;;$I$)&;;;5)&;;;;;;;;;;",
  ";;;;;;;;;;5II;;;;;;;;;;;",
  ";;;;;;;;;5)I;;;;;;;;;;;;",
  ";;;;;;;;;/);;;9;;9;;;;;;",
  ";;;;;;;;;/);;99H9;;9;;;;",
  ";;;;;;;;;/);;F979HF9;;;;",
  ";;;;;;;;;/);2#999CCH;;;;",
  ";;;;;;;;;/);/)////F;;;;;",
  ";;;;;;;;;//))$$$)$EGC;;;",
  ";;;;;;;;)/)$!-!-AEFCGC3;",
  ";;;;;;;;$))-E,A!--CGGGG3",
  ";;;;;;;$$)$$E,HH-!3GCBGE",
  ";;;;;;;$/$$$E8228FF3CHGE",
  ";;;;;;;/$I$$E338H8H83CC;",
  ";;;;;;;$$$$-E!338HB8FHCF",
  ";;;;;;;$$$$----@0+''FGCF",
  ";;;;;;;;$$$-!6:@@@'GCGGF",
  ";;;;;;;;$$$-0@+:''@CGG,;",
  ";;;;;;;;$$$0@+@@:(FFF,;;",
  ";;;;;;;;$$$0+@+@+',,,;;;",
  ";;;;;;;;$$$06@@000===;;;",
  ";;;;;;;;$$$06*--$$.0;;;;",
  ";;;;;;;;$$$$0--$-+:*!;;;",
  ";;;;;;;;$$$-!$--+--$-;;;",
  ";;;;;;;;;$$$-----$D>>;;;",
  ";;;;;;;;;;;---1111?41;;;",
  ";;;;;;;;;;;-!>11111412;;",
  ";;;;;;;;;;;;-!--11114C2;",
  ";;;;;;;;;;;E32!--2HHHH3;",
  ";;;;;;;;;;E322$??<<<33;;",
  ";;;;;;;;;&<2H22E!$11;;;;",
  ";;;;;;;;$??<<<!!$1%11;;;",
  ";;;;;;;1??%1--11-??-1%;;",
  ";;;;;;;%-11%-%%11--?%1%;",
  ";;;;;;;<$-?-?1??1<$??1;;",
  ";;;;;;;;<%-$$!>>-%<-$1;;",
  ";;;;;;;;;<%%<%<%1;%<%?;;",
};
