/* XPM */
static char *chopper_boy_4[] = {
  /* width height ncolors chars_per_pixel */
  "26 40 57 1 0 0",
  /* colors */
  "! c #000000",
  "# c #d49faa",
  "$ c #000080",
  "% c #008080",
  "& c #663300",
  "' c #a6caf0",
  "( c #336600",
  ") c #330066",
  "* c #d43f55",
  "+ c #d43f00",
  ", c #339966",
  "- c #d40055",
  ". c #d40000",
  "/ c #330000",
  "0 c #666600",
  "1 c #333366",
  "2 c #669966",
  "3 c #00cc99",
  "4 c #550000",
  "5 c #3366cc",
  "6 c #aabf55",
  "7 c #aa9fff",
  "8 c #aa9faa",
  "9 c #aa9f55",
  ": c #aa9f00",
  "; c #990066",
  "< c #555555",
  "= c #333399",
  "> c #669999",
  "? c #aa5f55",
  "@ c #aa3f55",
  "A c #aa3f00",
  "B c #a28d68",
  "C c #d5ccbb",
  "D c #a0a0a4",
  "E c #ffff55",
  "F c #ff0000",
  "G c None",
  "H c #ffbfaa",
  "I c #aa0000",
  "J c #ffffff",
  "K c #336699",
  "L c #3399ff",
  "M c #ff5f55",
  "N c #ff3f55",
  "O c #ff3f00",
  "P c #666699",
  "Q c #d4ffaa",
  "R c #d4ff55",
  "S c #d4ff00",
  "T c #6699ff",
  "U c #333300",
  "V c #699900",
  "W c #d4bfaa",
  "X c #d4bf55",
  "Y c #d4bf00",
  "Z c #336666",
  /* pixels */
  "GGGGGGGGGGG3,(GGG%33333%GG",
  "G%33333333%3,(%3,(,,,,,,GG",
  "G,,,,,,(Z1Z3Z(ZZ((Z%,%,GGG",
  "GG%Z,%,(GGG3,(GGGGGGGGGGGG",
  "GGGGGGGGGGG%3%GGGGGGGGGGGG",
  "GGGGGGGGGGGGZ(GGGGGGGGGGGG",
  "GGGGGGGGGGGG%%GGGGGGGGGGGG",
  "GGGGGGGGGGGX%%GGGGGGGGGGGG",
  "GGG0GGGGGEEGSEGGEGGUU<0GGG",
  "GRXRU%GGG9VEBEXRXG3%3XRXGG",
  "RXWRX,3%,:REXE66:,%,XRXR0G",
  "0RRXGG%%Z%111ZX1%33GXRUUWG",
  "XUURG%Z%U!#DJHCDZ%Z3G<UURG",
  "QUU<G33%1<CD<DDD'%%%GG?RX0",
  "XX2GG33%1111!!11>IA%GGGVWR",
  "RXVGG/%,>!!11K!!>**<I/G0RX",
  "XWV/AI-./K!19P8P/-AIERXVQX",
  "RV0R**<I!UUQ?YRUUI.@XX2V0V",
  "02XX+FN.4!?D<<D</&I*AV<V<G",
  "G0V2*.N@41U:RR</I)4.4%GGGG",
  "GGGIFII4/1IURW4I*.U13%GGGG",
  "GGG<I4<Z1.-4;III-1%ZZGGGGG",
  "GGGGGZ%%4.FMOIIFF4%%3GGGGG",
  "GGGGG%2!<@<Z111<@<!2%GGGGG",
  "GGGGGGZ<ZZ%<,22%ZZ<ZGGGGGG",
  "GGGGGGG4I...O@F..I4GGGGGGG",
  "GGGGGGGG111..O@F..1GGGGGGG",
  "GGGGGGG1=LTL1=11=L==1GGGGG",
  "GGGGG1=5T755551557TT5=GGGG",
  "GGGGGZ!$LL555=555L>$!1GGGG",
  "GGGGG=V$>L5=1!1=5==VVZGGGG",
  "GGGGG<XXVL5=!G!=55DXX<GGGG",
  "GGGGG<XXV115GGG1!<0XRR<GGG",
  "GGGGG<??<U!5GGG51<<?X<<GGG",
  "GGGGG<<R<<11CGGC1'<<<<5'GG",
  "GGGG5'<<<1'1HGGHL1''1115GG",
  "GGGG5'L1111LCGGCL1L1L''5'G",
  "GGGG5L''L$1HGGGGHL$LLL'5'G",
  "GGGGC1LLL1CGGGGGGH51$11H'G",
  "GGGGGH1$1HGGGGGGGGHHCHCGGG",
};
