/* XPM */
static char *chopper_boy_22b[] = {
  /* width height ncolors chars_per_pixel */
  "26 40 58 1 0 0",
  /* colors */
  "! c #000000",
  "# c #d49faa",
  "$ c #d49f55",
  "% c #000080",
  "& c #008080",
  "' c #663300",
  "( c #a6caf0",
  ") c #336600",
  "* c #330066",
  "+ c #d43f55",
  ", c #d43f00",
  "- c #339966",
  ". c #d40055",
  "/ c #330000",
  "0 c #d40000",
  "1 c #666600",
  "2 c #333366",
  "3 c #669966",
  "4 c #00cc99",
  "5 c #550000",
  "6 c #3366cc",
  "7 c #aabf55",
  "8 c #aa9fff",
  "9 c #aa9faa",
  ": c #aa9f55",
  "; c #aa9f00",
  "< c #990066",
  "= c #555555",
  "> c #333399",
  "? c #669999",
  "@ c #aa5f55",
  "A c #aa3f55",
  "B c #aa3f00",
  "C c #a28d68",
  "D c #d5ccbb",
  "E c #a0a0a4",
  "F c #ffff55",
  "G c #ff0000",
  "H c None",
  "I c #ffbfaa",
  "J c #aa0000",
  "K c #ffffff",
  "L c #336699",
  "M c #3399ff",
  "N c #ff5f55",
  "O c #ff3f55",
  "P c #ff3f00",
  "Q c #666699",
  "R c #d4ffaa",
  "S c #d4ff55",
  "T c #d4ff00",
  "U c #6699ff",
  "V c #333300",
  "W c #699900",
  "X c #d4bfaa",
  "Y c #d4bf55",
  "Z c #d4bf00",
  "[ c #336666",
  /* pixels */
  "HHHHHHHHHHH4-&4HHHHHHHHHHH",
  "HHHHHHHHHHH4&444HHHHHHHHHH",
  "HHHHHHHHH-444)2HHHHHHHHHHH",
  "HHHHHHHHHHH4-)HHHHHHHHHHHH",
  "HHHHHHHHHHH&4&HHHHHHHHHHHH",
  "HHHHHHHHHHHH[)HHHHHHHHHHHH",
  "HHHHHHHHHHHYY[HHHHHHHHHHHH",
  "HHHHHHHHHFFHSFHTHHHHHHHHHH",
  "HHH1HHHHHHWFFFYHFHHVV=1HHH",
  "HSYSV&HHH:$FCFTFYH4&4YSYHH",
  "SYXSY-4&-SSFYTF7;-&-YSYS1H",
  "1SSYHH&&[;SFYY7F;Y4HYSVVXH",
  "YVVSH&[&V&2Y2[[2&&[4H=VVSH",
  "RVV=H44&2!#EKIDE[&&&HH@SY1",
  "YY3HH[[[2=DE=EEE(&&&HHHWXS",
  "SYWHH[+!?222!!22?50/0/H1SY",
  "YXW/J+=5/!!22L!!?.BJFSYWRY",
  "SW1S++OJ!L!2:Q9Q/J0AYY3W1W",
  "13YY,GO05VVR@ZSVV'J+BW=W=H",
  "H1W3+0OA5!@E==E=/*505&HHHH",
  "HHHJGJJ5/2JVSX5J+0V24&HHHH",
  "HHH=J5=[20.5<JJJ02&[[HHHHH",
  "HHHHH[&&50GNNJG005&&4HHHHH",
  "HHHHH&3!=A=[222=A=!3&HHHHH",
  "HHHHHH[=[[&=-33&[[=[HHHHHH",
  "HHHHHHH5J000PAG00J5HHHHHHH",
  "HHHHHHH5J000PPAG002HHHHHHH",
  "HHHHHHH22L200222>M>2HHHHHH",
  "HHHHH2>6U866222668U62HHHHH",
  "HHHHH[!%?M666>666M?%![HHHH",
  "HHHHH>WWWM6>2!2>66M?W>HHHH",
  "HHHHH=YYW>6>!H!>>6>WY=HHHH",
  "HHHHH=YYW226HHH2!6=YSS=HHH",
  "HHHHH=@@=V!6HHH62==@Y==HHH",
  "HHHHH==S==22DHHD2(====6(HH",
  "HHHH6(===2(2IHHIM2((2226HH",
  "HHHH6(M2222MDHHDM2M2M((6(H",
  "HHHH6M((M%2IHHHHIM%MMM(6H(",
  "HHHHD2MMM2DHHHHHHI62%22I(H",
  "HHHHHI2%2IHHHHHHHHIIDIDHHH",
};
