/* XPM */
static char *chopper_boy_0d[] = {
  /* width height ncolors chars_per_pixel */
  "28 40 42 1 0 0",
  /* colors */
  "! c #000000",
  "# c #008080",
  "$ c #a6caf0",
  "% c #336600",
  "& c #d43f55",
  "' c #d43f00",
  "( c #339966",
  ") c #d40055",
  "* c #d40000",
  "+ c #666600",
  ", c #333366",
  "- c #00cc99",
  ". c #550000",
  "/ c #3366cc",
  "0 c #aabf55",
  "1 c #aa9faa",
  "2 c #aa9f55",
  "3 c #aa9f00",
  "4 c #555555",
  "5 c #aa5f55",
  "6 c #aa3f55",
  "7 c #a28d68",
  "8 c #d5ccbb",
  "9 c #a0a0a4",
  ": c #ffff55",
  "; c #ff0000",
  "< c None",
  "= c #ffbfaa",
  "> c #aa0000",
  "? c #ffffff",
  "@ c #336699",
  "A c #3399ff",
  "B c #ff3f55",
  "C c #666699",
  "D c #d4ffaa",
  "E c #d4ff55",
  "F c #d4ff00",
  "G c #6699ff",
  "H c #333300",
  "I c #699900",
  "J c #d4bf55",
  "K c #336666",
  /* pixels */
  "<<<<<<<<<<<<<<<<<<<<<<<<<<<<",
  "<<<<<<<<<<-(%<<<#-----#<<<<<",
  "<#-------#-(%#-(%((((((<<<<<",
  "<(((((%K,K-K%KK%%K#(#(<<<<<<",
  "<<#K#(%<<<-(%<<<<<<<<<<<<<<<",
  "<<<<<<<<<-KK<<<<<<<<<<<<<<<<",
  "<<<<<<<<-(K<<J<<:<<<<<<<<<<<",
  "<<<<<<<<-(<::<F:77:<<<<<<<<<",
  "<<<<<<<<-(22I:7:JE::<<<<<<<<",
  "<<<<<<<<-(<3E:J:003<<<<<<<<<",
  "<<<<<<<<-(<,!,,,K0,1<<<<<<<<",
  "<<<<+H#<-(<,KK,?=89K<<<<<<<<",
  "<<<<+HH#-K<!,!,C999$<<<<<<<<",
  "<<<+HH#(-#,H+C!,,!,!<<<<<<<<",
  "<<<+H<H###,H+JJ,!!!,<<<<<<<<",
  "<<<HH<H+K##H9229IIJ1<<<<<<<<",
  "<<<HH<!-###H449J9J5<<<<<<<<<",
  "<<<<<<-#K##+,449JD4<<<<<<<<<",
  "<<<<<<####,,)B!49++<<<<<<<<<",
  "<<<<<<####!.)BB&.6<<<<<<<<<<",
  "<<<<<<<###.);BB;6>>JE<<<<<<<",
  "<<<<<<<###.*;BBB!).J8E<<<<<<",
  "<<<<<<<###..);''.#)6J8<<<<<<",
  "<<<<<<<###..**B..!HH+3<<<<<<",
  "<<<<<<<###,.))'6'HEJ!+<<<<<<",
  "<<<<<<<###,..'!!+EJJJ+<<<<<<",
  "<<<<<<<###,+JJJEEJJJIH<<<<<<",
  "<<<<<<<<###+JJJJJJI+H<<<<<<<",
  "<<<<<<<=$<<!+JJ+HHH+<<<<<<<<",
  "<<<$<<8,,#<,///GA//<<<<<<<<<",
  "<<<<$$,AA,9,,//AG//,<<<<<<<<",
  "<<<<$,A$$/=,,///G!!,<<<<<<<<",
  "<<<$,A$//=J4,!,!!,4<<<<<<<<<",
  "<<$,A,//==IJ,/!%KJ24<<<<<<<<",
  "<<=,//,/4=I4H<<4====<<<<<<<<",
  "<<=///,<44H4<<9==///,//<<<<<",
  "<<<A/A<<<<<<<<,//A$,$$$/<<<<",
  "<<<<<<<<<<<<<<#A$/A/AA/,<<<<",
  "<<<<<<<<<<<<<<#,,,,!@@,,<<<<",
  "<<<<<<<<<<<<<</8$$$===$/<<<<",
};
