/* XPM */
static char *chopper_boy_4d[] = {
  /* width height ncolors chars_per_pixel */
  "26 40 58 1 0 0",
  /* colors */
  "! c #000000",
  "# c #d49faa",
  "$ c #d49f55",
  "% c #000080",
  "& c #008080",
  "' c #663300",
  "( c #a6caf0",
  ") c #336600",
  "* c #330066",
  "+ c #d43f55",
  ", c #d43f00",
  "- c #339966",
  ". c #d40055",
  "/ c #330000",
  "0 c #d40000",
  "1 c #666600",
  "2 c #333366",
  "3 c #669966",
  "4 c #00cc99",
  "5 c #550000",
  "6 c #3366cc",
  "7 c #aabf55",
  "8 c #aa9fff",
  "9 c #aa9faa",
  ": c #aa9f55",
  "; c #aa9f00",
  "< c #990066",
  "= c #555555",
  "> c #333399",
  "? c #669999",
  "@ c #aa5f55",
  "A c #aa3f55",
  "B c #aa3f00",
  "C c #a28d68",
  "D c #d5ccbb",
  "E c #a0a0a4",
  "F c #ffff55",
  "G c #ff0000",
  "H c None",
  "I c #ffbfaa",
  "J c #aa0000",
  "K c #ffffff",
  "L c #ff9f55",
  "M c #336699",
  "N c #3399ff",
  "O c #ff3f55",
  "P c #ff3f00",
  "Q c #666699",
  "R c #d4ffaa",
  "S c #d4ff55",
  "T c #d4ff00",
  "U c #6699ff",
  "V c #333300",
  "W c #699900",
  "X c #d4bfaa",
  "Y c #d4bf55",
  "Z c #d4bf00",
  "[ c #336666",
  /* pixels */
  "HHHHHHHHHH4-&4HHHHHHHHHHHH",
  "HHHHHHHHHH4&444HHHHHHHHHHH",
  "HHHHHHHH-444)2HHHHHHHHHHHH",
  "HHHHHHHHHH4-)HHHHHHHHHHHHH",
  "HHHHHHHHHH&4&HHHHHHHHHHHHH",
  "HHHHHHHHHHH[)HHHHHHHHHHHHH",
  "HHHHHHHHHHH&FFHHHHHHHHHHHH",
  "HHHHHHHHHFHFFHTHHHHHHHHHHH",
  "HHH1HHHHHWFCFYHF&HHVV=1HHH",
  "HSYSV&HH:$FEFSSY&Y4&4YSYHH",
  "SYXSY-4&-SFYS77;;-&-YSYS1H",
  "1SSYHH&&[&222[[2&44HYSVVXH",
  "YVVSH&[&V!#EKIDE[&[4H=VVSH",
  "RVV=H44&2=DE=EEE(&[&HH@SY1",
  "YY3HH[[[2222!!22?[&&HHHWXS",
  "SYWHH&&!?!!22M!!?&0BJ/H1SY",
  "YXW+JB&5/M!2:Q9Q/.0JFSYWRY",
  "SW1S++=J!VVR@ZSVVJ0AYY3W1W",
  "13YY,GO05!@E==E=/'J+BW=W=H",
  "H1W3+0OA52V;SS=/J*505&HHHH",
  "HHHJGJJ5/2JVSX5J+0V24&HHHH",
  "HHH=J5=[20.<JJ.002&[[HHHHH",
  "HHHHH[&&50GLJGGG05&&4HHHHH",
  "HHHHH&3!=A=[222=A=!3&HHHHH",
  "HHHHHH[=[[&=-33&[[=[HHHHHH",
  "HHHHHHH5J000PAGG002HHHHHHH",
  "HHHHHH5J02200PA2>2>HHHHHHH",
  "HHHHHHH2>NU22>22>N>2HHHHHH",
  "HHHHH2>6U866662668U6>2HHHH",
  "HHHHH2>6U8666>666N?%![HHHH",
  "HHHHH[WW6N662!2>6NWWW>HHHH",
  "HHHHH=YYWN6>!H!>6>WYY=HHHH",
  "HHHHH=YYW266HHH2!E1YSS=HHH",
  "HHHHH=@@=V!6HHH62==@Y==HHH",
  "HHHHH==S==22DHHD2(====6(HH",
  "HHHH6(===2(2IHHIN2((2226HH",
  "HHHH6(N2222NDHHDN2N2N((6(H",
  "HHHH6N((N%2IHHHHIN%NNN(6(H",
  "HHHHD2NNN2DHHHHHHI62%22IH(",
  "HHHHHI2%2IHHHHHHHHIIDIDHHH",
};
