/* XPM */
static char *demon_summoner_4[] = {
  /* width height ncolors chars_per_pixel */
  "10 26 9 1 0 0",
  /* colors */
  "! c #000000",
  "# c #800000",
  "$ c #800080",
  "% c #c0c0c0",
  "& c #ff0000",
  "' c #ffff00",
  "( c #0000ff",
  ") c None",
  "* c #ffffff",
  /* pixels */
  ")))%%%%)))",
  "))%&&&&%))",
  "))%&##&%))",
  "%%&#((#&%%",
  "%&#(*%(#&%",
  "%&#(%*(#&%",
  "%&!#((#!&%",
  "%%&&##&&%)",
  ")%%&&&&%%)",
  ")%######%)",
  ")%!!!!!!%)",
  "))%&&&&%))",
  "))%&''&%))",
  "))%&##&%))",
  "))%&''&%))",
  "))%&##&%))",
  "))%&''&%))",
  "))%&&&&%))",
  "))%&''&%))",
  "))%&&&&%))",
  "))%&&&&%))",
  ")))%&&%)))",
  ")))%&&%)))",
  ")))%&&%)))",
  ")))%$$%)))",
  "))))%%))))",
};
