/* XPM */
static char *enforcer_0[] = {
  /* width height ncolors chars_per_pixel */
  "32 60 40 1 0 0",
  /* colors */
  "! c #000000",
  "# c #66cc66",
  "$ c #000080",
  "% c #ccffff",
  "& c #a6caf0",
  "' c #336600",
  "( c #339966",
  ") c #663399",
  "* c #d40055",
  "+ c #666600",
  ", c #333366",
  "- c #339999",
  ". c #669966",
  "/ c #3366cc",
  "0 c #990066",
  "1 c #555555",
  "2 c #aa5fff",
  "3 c #669999",
  "4 c #aa5f00",
  "5 c #aa3f55",
  "6 c #66cfff",
  "7 c #d5ccbb",
  "8 c #ffffaa",
  "9 c #a0a0a4",
  ": c #00ff00",
  "; c #ffff00",
  "< c None",
  "= c #ffbf55",
  "> c #aa0000",
  "? c #ffffff",
  "@ c #ffbf00",
  "A c #ff9f55",
  "B c #ff9f00",
  "C c #336699",
  "D c #3399ff",
  "E c #ff5f55",
  "F c #99ffff",
  "G c #333300",
  "H c #d4bf00",
  "I c #336666",
  /* pixels */
  "<<<<<<<<<<<<<<<<<?<?<<<<<<<<<<<<",
  "<<<<<<<<<<77???,/777<?<<<<<<<<<<",
  "<<<<<<<(((<777733??97<<<<<<<<<<<",
  "<<<<<<(<<<()'37//97?97?<<<<<<<<<",
  "<<<<<(<<22)#.(,,,*7799<<<<<<<<<<",
  "<<<<<(<2>><I'G,,EA*799?<<<<<<<<<",
  "<<<<<(>2<<)#.(11,EE,,1<<<<<<<<<<",
  "<<<<<>(<2)'GG17779,19<<<<<<<<<<<",
  "<<<<<><(<#.(1%$-$-7%7<<<<<<<<<<<",
  "<<<<<<>(<6G19-!%!%!%1<<<<<<<<<<<",
  "<<<<<<))%-(17!!<<<<<<<<<<<<<<<<<",
  "<<<<9771F-G,7%6!%!%<<<<<<<<<<<<<",
  "<<<<199,&-,,&--$-$-$<<<<<<<<<<<<",
  "<<<<19/,6,,6--97777771<<<<<<<<<<",
  "<<<<<9/D,3,--,,9777791<<<<<<<<<<",
  "<<<%%;CFD33,,,/&F%,,,<<<<<<<<<<<",
  "<<<<6BC,D333,---6B?4?4<<<<<<<<<<",
  "<<<<<9CIFDD33,,,?48=HH<<<<<<<<<<",
  "<<%%@B1C,I6DFDF/?;8H!+H<<<<<<<<<",
  "<<<6B791CI,I,I,/4;88+!+<<<<<<<<<",
  "<<<<991,1CCCCCCB?;88;+!<<<<<<<<<",
  "<%%791,791,B4,B+433-777<777<777<",
  "11111,991,44333F3F3-11!711<711<<",
  "1,777719,133333,3,3-9!9!9!9!917<",
  "<791197133F336666666111117771!17",
  "79999797--,36--,-,-,,,,17,9,7917",
  "719779171C33-3313131999979,97!<7",
  "719799171C33C--,-,-,,,,17,9,797<",
  "797997971CF33CCCCCCC11111779I!17",
  ",791197,--,33333333-9!9!9!9!9117",
  "1,7777,1C-CCCCCC-F3-17<117<117<7",
  "11,,,,)()C,,,,.GC,CC7<777<777<<<",
  "<11<<;2'()1,111'.G.#<<<<<<<<<<<<",
  "9771<2)(>1,1,199G..G#<<<<<<<<<<<",
  "<91)2<(>:,1#(,197(G..'<<<<<<<<<<",
  "<(><<(<>:<#(',,199'.G.#D/<<<<<<<",
  "<<(((<><;)(',,1,197G.3DFDF<<<<<<",
  "<<<<<<<<<:)<,1,1,1993FD,I,<<<<<<",
  "<<<<<<<<<<;:),1#(,13D,IIIC<<<<<<",
  "<<<<<<<<<<<;:<#(333D6IICC33<<<<<",
  "<<<<<<<<<<<<,)33,-,3,ICC3CC<<<<<",
  "<<<<<<<<<<<<,-1-1-1DFCC3C<<<<<<<",
  "<<<<<<<<<<<<C,CC,-,3,C3C1,<<<<<<",
  "<<<<<<<<<<<<9C,,CCCDF3C1,!<77<<<",
  "<<<<<<<<<<<711C,,))/,C1,!1177<<<",
  "<<<<<<<<<<<7199<)(;<C1,!1177997<",
  "<<<<<<<<<<7197<<:(<;<,!11779197<",
  "<<<<<<<<<<7197<:(<;<<<<,7799977<",
  "<<<<<<<<<EEEEEE-33-<<;,7791197C<",
  "<<7<<7<7**9,19*CEEECB=7799917C<<",
  "<<<!9!9!0******E***E*B7911997<7<",
  "7<917171700*******E*>17911197!<<",
  "<!1177711110EEEE**>817979999779<",
  "<977,9,71,,,00,0E*;;1719779171!7",
  "7!179,979999**1*0*==17199791779<",
  "<977,9,71,,,00,0>**B1797997971!7",
  "<!1177711111>>>>**E00,791197,79<",
  "7<91717171715*****>*;=,7777,7!<<",
  "<<<!9!9!9!9!>>>>>>>>>B9,,,,!9<7<",
  "<<7<<7<7<7<7<7<7<7<7<7<7<7<7<<<<",
};
