/* XPM */
static char *enforcer_4[] = {
  /* width height ncolors chars_per_pixel */
  "32 60 33 1 0 0",
  /* colors */
  "! c #66cc66",
  "# c #000000",
  "$ c #000080",
  "% c #ccffff",
  "& c #a6caf0",
  "' c #336600",
  "( c #663399",
  ") c #666600",
  "* c #660066",
  "+ c #333366",
  ", c #669966",
  "- c #339999",
  ". c #3366cc",
  "/ c #555555",
  "0 c #669999",
  "1 c #aa5f00",
  "2 c #66cfff",
  "3 c #d5ccbb",
  "4 c #ffffaa",
  "5 c #a0a0a4",
  "6 c #ff0000",
  "7 c #ffff00",
  "8 c None",
  "9 c #ffbf55",
  ": c #ffffff",
  "; c #336699",
  "< c #ff9f00",
  "= c #3399ff",
  "> c #ff3f55",
  "? c #99ffff",
  "@ c #333300",
  "A c #d4bf00",
  "B c #336666",
  /* pixels */
  "888888888888888::888888888888888",
  "8888888888:.533::335.:8888888888",
  "8888888883055::55::5503888888888",
  "8888888880.5553::3555.0888888888",
  "8888888888+++*3553*+++8888888888",
  "888888888''+6<*::*<6+''888888888",
  "8888888888//+6>++>6+//8888888888",
  "888888888/3335+//+5333/888888888",
  "88888888853-$-3%%3-$-35888888888",
  "8888888285#%#%#--#%#%#5828888888",
  "8888888-832#%#%//%#%#238-8888888",
  "888%888-?5-$-$-$$-$-$-5?-888%888",
  "888-&++-&+533333333335+&-++&-888",
  "888--2++2+.5333333335.+2++2--888",
  "88++--+0+=.//555555//.=+0+--++88",
  "%?.+++00=?;++++++++++;?=00+++.?%",
  "82--+000=+;11<:11:<11;+=000+--28",
  "8+++00==?B;4A774477A4;B?==00+++8",
  "8.?=?=2B+;<A77444477A<;+B2=?=?.8",
  "8.+B+B+B;1AA#)4444)#AA1;B+B+B+.8",
  "88;;;;;;49A###A44A###A94;;;;;;88",
  "8;5;5/+119A)##)AA)##)A911+/5;5;8",
  "+;3;0+80:747A)7##7)A747:08+0;3;+",
  "2+/+;;0;174447A##A744491;0;;+/+2",
  "555520;<:974447AA744479:<;025555",
  "3+3+;2;<<17744A))A44771<<;2;+3+3",
  "3535;2;+<:9777)##)7779:<+;2;5353",
  "3+3+;2;/+1<79A)##)A99<1+/;2;+3+3",
  "55/5;0;+11<:19A99A91:<11+;0;5/55",
  ";+3+0;81111<<1:11:1<<11118;0+3+;",
  "8;3;;;81+/11++''''++11/+18;;;3;8",
  "8858888+/+1@;,,!!,,;@1+/+8888588",
  "8888888+//1'@@''''@@'1//+8888888",
  "888888+/+(8@,,!!!!,,@8(,/+888888",
  "888888/537(,!@''''@!,(735/888888",
  "888888+/58+!@.0..0.@!+85/+888888",
  "888888+/53+.2=?==?=2.+35/+888888",
  "8888888+/50=+B+BB+B+=05/+8888888",
  "8888888+/.?BB;;;;;;BB?./+8888888",
  "88888888+=+B;;0000;;B+=+88888888",
  "888888880?B;00;;;;00;B?088888888",
  "88888888=+00;;+//+;;00+=88888888",
  "88888888?B;;++++++++;;B?88888888",
  "88888888+;333333333333;+88888888",
  "88888883555/53333335/55538888888",
  "88883555/33330;;;;03333/55538888",
  "88333333555//;.++.;//55533333388",
  "8355/++++++++++BB++++++++++/5538",
  "355//<;;;<//+++;;++++/<;;;<//553",
  "3/3333353333338++8333333533333/3",
  "3+++++++++++++5//5+++++++++++++3",
  "3+33333533333+3553+33333533333+3",
  "3+++++++++++++3333+++++++++++++3",
  "3+55555/55555+3333+55555/55555+3",
  "3+33333533333+3333+33333533333+3",
  "3+55555/55555+3553+55555/55555+3",
  "3+++++++++++++5//5+++++++++++++3",
  "/+33333533333+/++/+33333533333+/",
  "+/+++++++++++++88+++++++++++++/+",
  "8/555555555555888855555555555//8",
};
