/* XPM */
static char *enforcer_0c[] = {
  /* width height ncolors chars_per_pixel */
  "32 60 42 1 0 0",
  /* colors */
  "! c #000000",
  "# c #66cc66",
  "$ c #000080",
  "% c #ccffff",
  "& c #a6caf0",
  "' c #336600",
  "( c #d43f55",
  ") c #339966",
  "* c #663399",
  "+ c #d40055",
  ", c #666600",
  "- c #660066",
  ". c #333366",
  "/ c #339999",
  "0 c #669966",
  "1 c #3366cc",
  "2 c #990066",
  "3 c #555555",
  "4 c #aa5fff",
  "5 c #669999",
  "6 c #aa5f00",
  "7 c #66cfff",
  "8 c #d5ccbb",
  "9 c #ffffaa",
  ": c #a0a0a4",
  "; c #00ff00",
  "< c #ffff00",
  "= c None",
  "> c #ffbfaa",
  "? c #ffbf55",
  "@ c #aa0000",
  "A c #ffffff",
  "B c #ffbf00",
  "C c #ff9f00",
  "D c #336699",
  "E c #3399ff",
  "F c #ff5f55",
  "G c #ff3f00",
  "H c #99ffff",
  "I c #333300",
  "J c #d4bf00",
  "K c #336666",
  /* pixels */
  "=================A=A============",
  "==========88AAA.1888=A==========",
  "=======)))=888855AA:8===========",
  "======)===)*'5811:8A:8A=========",
  "=====)==44*#0)...G88::==========",
  "=====)=4@@=K'I..>>G8::A=========",
  "=====)@4==*#0)33.>>..3==========",
  "=====@)=4*'II3888:.3:===========",
  "=====@=)=#0)3%$/$/8%8===========",
  "======@)=7I3:/!%!%!%3===========",
  "======**%/)38!!=================",
  "====:883H/I.8%!=================",
  "====3::.&/..&/7!%!%=============",
  "====3:1.7..7//1$/$/$============",
  "=====:1E.5.//..:8888:3==========",
  "===%%<DHE55...1&H%...===========",
  "====7CD.E555.///7CA6A6==========",
  "=====:DKHEE55...A69?JJ==========",
  "==%%BC3D.K7EHEH1A<9J!,J=========",
  "===7C8:3DK.K.K.16<99,!,=========",
  "====::3.3DDDDDDCA<99<,!=========",
  "=%%8:3.8:3.C6.C,655/88,888=888==",
  "33333.::3.66555H5H5/3,833=833===",
  "3.88883:.355555.5.5/!:!:!:!:!38=",
  "=8:33:8355H557777777333338883:38",
  "8::::8:8//.57//././....38.:.8!38",
  "83:88:383D55/5535353::::8:.:8:=8",
  "83:8::383D55D//././....38.:.8!8=",
  "8:8::8:83DH55DDDDDDD333338883:38",
  ".8:33:8.//.55555555/!:!:!:!:!338",
  "3.8888.3D/DDDDDD/H5/338=338=33=8",
  "33....*)*D....0ID.DD88=888=888==",
  "=33==<4')*3.333'0I0#============",
  ":883=4*)@3.3.3::I00I#===========",
  "=:3*4=)@;.3#).3:8)I00'==========",
  "=)@==)=@;=#)'..3::'0I0#E1=======",
  "==)))=@=<*)'..3.3:8I05EHEH======",
  "=========;*=.3.3.3::5HE.K.======",
  "==========<;*.3#).35E.KKKD======",
  "===========<;=#)555E7KKDD55=====",
  "============.*55./.5.KDD5DD=====",
  "============./3/3/3EHDD5D=======",
  "============D.DD./.5.D5D3.======",
  "============:D..DDDEH5D3.!=88===",
  "===========833D..**1.D3.!3388===",
  "===========83::=*)<=D3.!3388::8=",
  "==========83:8==;)=<=.!3388:3:8=",
  "==========83:8=;)=<====.88:::88=",
  "=========FFFFFF/55/==<.88:33:8D=",
  "====8=8=(+:.3:+DFFFDC?88:::38D==",
  "=8=:!:!:-++++++F+++F+C8:33::8===",
  "==!83838322+++++++F+@38:333:8:=8",
  "=:8388833332FFFF++@938:8::::83!=",
  "8!38.:.83...22.2F+<<383:88:388:=",
  "=:88:.:8::::++3+2+??383::8:383!8",
  "8!38.:.83...22.2@++C38:8::8:88:=",
  "=:8388833333@@@@++F22.8:33:8.3!=",
  "==!8383838382+++++@+<?.8888.3:=8",
  "=8=:!:!:!:!:@@@@@@@@@C!....:!===",
  "====8=8=8=8=8=8=8=8=8=8=8=8==8==",
};
