/* XPM */
static char *caffine_4[] = {
  /* width height ncolors chars_per_pixel */
  "12 22 11 1 0 0",
  /* colors */
  "! c #000000",
  "# c #800000",
  "$ c #008080",
  "% c #c0c0c0",
  "& c #663300",
  "' c #333366",
  "( c #808080",
  ") c #ff0000",
  "* c None",
  "+ c #ffffff",
  ", c #ff7f55",
  /* pixels */
  "*!!!!!!!!!&*",
  "!#!!&,+&#!&!",
  "!+!#&,++#)%&",
  "&+##&,+%+###",
  "&%!+&,++%###",
  "!,!+&+++(#&!",
  "!,+'&+++&(&!",
  "!#%!!%+%#!&!",
  "!%%+%++(#!!!",
  "!%+(+&+&#!!!",
  "!!%(+++)!!!'",
  "'%!'+++#!!!%",
  "!$++!+&#!!!!",
  "!%'%+%&!!!!!",
  "!%'+++!!!!!%",
  "(!%$+&!!!!!%",
  "%%!++##!!!!%",
  "!%+%!&&!!!!!",
  "!!%+)##!!!!!",
  "!!!%#(#!!!(!",
  "%(!'#!!!!!!(",
  "*$$$$$(($$%*",
};
