/* XPM */
static char *walker_20b[] = {
  /* width height ncolors chars_per_pixel */
  "32 52 5 1 0 0",
  /* colors */
  "! c #000000",
  "# c #808000",
  "$ c #c0c0c0",
  "% c #808080",
  "& c None",
  /* pixels */
  "&&&&&&&&&&&&&&&&&&&&&&&&&&&&&&&&",
  "&&&!!!!!!!!!!!!!!!!!!!!!!!!!!&&&",
  "&&!$$$$$$$$$$$$$$$$$$$$$$$$$$!&&",
  "&&!$$$$$!!!$$$$$$$$$$!!!$$$$$!&&",
  "&&!$$$!!###!!$$$$$$!!###!!$$$!&&",
  "&&!$$!##!!!##!$$$$!##!!!##!$$!&&",
  "&&!$$!#!%%%!#!$$$$!#!%%%!#!$$!&&",
  "&&!$!#!%%%%%!#!$$!#!%%%%%!#!$!&&",
  "&!!$!#!%%!%%!#!$$!#!%%!%%!#!$!!&",
  "!%!$!#!%%%%%!#!$$!#!%%%%%!#!$!%!",
  "!%!$$!#!%%%!#!$$$$!#!%%%!#!$$!%!",
  "!%!$$!##!!!##!$$$$!##!!!##!$$!%!",
  "!%!$$$!!###!!$$$$$$!!###!!$$$!%!",
  "!%!$$$$$!!!$$$$$$$$$$!!!$$$$$!%!",
  "!%%!$$$$$$$$$$$$$$$$$$$$$$$$!%%!",
  "!%%%!!!!!!!!!$$$$$$!!!!!!!!!%%%!",
  "!%%%!!!!%%%!!!!!!!!!!%%%!!!!%%%!",
  "!%%!$$$!%%!$$$$$$$$$$!%%!$$$!%%!",
  "!%%!$$$!%%!$$$$$$$$$$!%%!$$$!%%!",
  "!%%!$$$!%%!$$$$$$$$$$!%%!$$$!%%!",
  "!%%!$$$!%%!$$$$$$$$$$!%%!$$$!%%!",
  "!!!!$$$!%%!$$$$$$$$$$!%%!$$$!!!!",
  "!!$!$$$!!!!$$$$$$$$$$!!!!$$$!$!&",
  "&!!!$$$!%%!$$$$$$$$$$!%%!$$$!!!&",
  "&&&!$$$!%%!$$$$$$$$$$!%%!$$$!&&&",
  "&&&!$$$!%%!$$$$$$$$$$!%%!$$$!&&&",
  "&&&!$$$!%%%!!!!!!!!!!%%%!$$$!&&&",
  "&&&!$$$!!%%%%%%%%%%%%%%!!$$$!&&&",
  "&&&&!!!&&!!!!!!!!!!!!!!&&!!!&&&&",
  "&&&&!%!&&&&&&&&&&&&&&&&&&!%!&&&&",
  "&&&&!%!&&&&&&&&&&&&&&&&&&!%!&&&&",
  "&&&&!%!&&&&&&&&&&&&&&&&&&!%!&&&&",
  "&&&!!!!!&&&&&&&&&&&&&&&&&!%!&&&&",
  "&&&!$$$!&&&&&&&&&&&&&&&&&!!!&&&&",
  "&&&!$$$!&&&&&&&&&&&&&&&&!$$$!&&&",
  "&&&!$$$!&&&&&&&&&&&&&&&&!$$$!&&&",
  "&&&!$$$!&&&&&&&&&&&&&&&&!!!!!&&&",
  "&&&!$$$!&&&&&&&&&&&&&&&&!###!&&&",
  "&!!!$$$!!!&&&&&&&&&&&&&&!###!&&&",
  "!%%!!!!!%%!&&&&&&&&&&&&&!###!&&&",
  "!%!!$$$!!%!&&&&&&&&&&&&&!###!&&&",
  "!!!$$$$$!!!&&&&&&&&&&&&&!!!!!&&&",
  "&&!!!!!!!&&&&&&&&&&&&&&&!$$$!&&&",
  "&&&&&&&&&&&&&&&&&&&&&&&&!$$$!&&&",
  "&&&&&&&&&&&&&&&&&&&&&&&&!$$$!&&&",
  "&&&&&&&&&&&&&&&&&&&&&&&&!$$$!&&&",
  "&&&&&&&&&&&&&&&&&&&&&&&&!$$$!&&&",
  "&&&&&&&&&&&&&&&&&&&&&&!!!$$$!!!&",
  "&&&&&&&&&&&&&&&&&&&&&!%%!!!!!%%!",
  "&&&&&&&&&&&&&&&&&&&&&!%!!$$$!!%!",
  "&&&&&&&&&&&&&&&&&&&&&!!!$$$$$!!!",
  "&&&&&&&&&&&&&&&&&&&&&&&!!!!!!!&&",
};
