/* XPM */
static char *walker_4b[] = {
  /* width height ncolors chars_per_pixel */
  "40 26 6 1 0 0",
  /* colors */
  "! c #000000",
  "# c #008000",
  "$ c #c0c0c0",
  "% c #808080",
  "& c #00ff00",
  "' c None",
  /* pixels */
  "'''''!!!!!!!!!!!!!!!!!!!!!!!!!!!!!!'''''",
  "''''''!!$$$$$$$$$$$$$$$$$$$$$$$$!!''''''",
  "'''''!%%!!!!!!!!!!!!!!!!!!!!!!!!%%!'''''",
  "'''''!%%!############&&########!%%!'''''",
  "'''''!%%!############&&########!%%!'''''",
  "'''''!%%!############&&########!%%!'''''",
  "''''''!%!############&&########!%!''''''",
  "''''!!!!!!!!!!!!!!!!!!!!!!!!!!!!!!!!''''",
  "'''!$$$!$$$$$$$$$$$$$$$$$$$$$$$$!$$$!'''",
  "'''!$$!!$$$$$$$$$$$$$$$$$$$$$$$$!!$$!'''",
  "'''!$!%!$$$$$$$$$$$$$$$$$$$$$$$$!%!$!'''",
  "'''!$$!!$$$$$$$$$$$$$$$$$$$$$$$$!!$$!'''",
  "'''!$$$!$$$$$$$$$$$$$$$$$$$$$$$$!$$$!'''",
  "'''!$$!!$$$$$$$$$$$$$$$$$$$$$$$$!!$$!'''",
  "'''!$!%!$$$$$$$$$$$$$$$$$$$$$$$$!%!$!'''",
  "'''!$$!!$!$!$!$!$$$$$$$$!$!$!$!$!!$$!'''",
  "'''!$$$!$$$$$$$$$$$$$$$$$$$$$$$$!$$$!'''",
  "'''!$$!!$!$!$!$!$$$$$$$$!$!$!$!$!!$$!'''",
  "'''!$!%!$$$$$$$$$$$$$$$$$$$$$$$$!%!$!'''",
  "'''!$$!!$!$!$!$!$$$$$$$$!$!$!$!$!!$$!'''",
  "''''!!!!$$$$$$$$$$$$$$$$$$$$$$$$!!!!''''",
  "'''!!!!!$!$!$!$!$$$$$$$$!$!$!$!$!!!!!'''",
  "''!%%%%%!$$$$$$$$$$$$$$$$$$$$$$!%%%%%!''",
  "'!%%%%%%%!!!!!!!!!!!!!!!!!!!!!!%%%%%%%!'",
  "'!%%%%%%%%%%!''''''''''''''!%%%%%%%%%%!'",
  "'!!!!!!!!!!!!''''''''''''''!!!!!!!!!!!!'",
};
