/* XPM */
static char *walker_25[] = {
  /* width height ncolors chars_per_pixel */
  "54 28 7 1 0 0",
  /* colors */
  "! c #000000",
  "# c #008000",
  "$ c #808000",
  "% c #c0c0c0",
  "& c #663366",
  "' c #808080",
  "( c None",
  /* pixels */
  "((((!!((((((((((((((((((((((((((((((((((((((((((((((((",
  "((((!!((((((((((((((((((((((((((((((((((((((((((((((((",
  "(((((!((((((((((((!!((((((((((((((((((((((((((((((((((",
  "(((((!(!!!(!((((((!!!((((((((((((((((((((((((((!!!!!((",
  "((((!!!!!!!(((((((!!(!(((((!!!!!((((((((!(((((!!!%!(((",
  "((((!!!%!!!((((((((((!((((!%%%!!((((((((!(((((!%%!((((",
  "(((!!%%%!(((((((((((((!(((!%%%%!!!!!((((!((((!%!!((!!!",
  "(((!!%%!!((((((((!!(((!!!(!%%%%%%%!!((((!(((!!%!!!!%%!",
  "(((!!%%!!((((((((((!(!$%%!#%!%%%%%%!!!!!!((!%%%%%!%%!!",
  "((!!!%%!((((((((((((!!!$$!!!!#%%%%!%%!!!!!((!%%%%%%%!(",
  "((!!!%%!((((((((((((!!!!!!$######%%%%%%%%!!(!%%%%%!!((",
  "((!!!!%!((((((((((((!!!!!'####&&&##%%%%%%!!(!%%%%!((((",
  "((!!!!%!((((((((((!!''!!##!#####&!&&&%%%%!!!!!!!!!((((",
  "((!!!%!!((((((((((!!'%%!##!!#####!!###%%%%%!!!!!!(((((",
  "!!'''%!!((((((((((!!!!!%!!%%%##&&!!&&##%%%%%!!%!!((!((",
  "!!'''%!(((((((((((!!!!!%%!%%%%####&######!%%!%%!((!!((",
  "!!''''!!((((((((((!!%%%%%%%%'%%%%#&##&####%%!!%!!!!(((",
  "!!'%%'!!((((((((((!!%%%%%!!%%%%%%!##########$%%!!((!((",
  "!!%%!%''!!((((((!!!!%%%%%!!%!!!!%%%%#########!%%!(((((",
  "!!!!%%''!!(((!!(!!!!%%%%%%%%!!!!%%%%$######!!##%!(((((",
  "((((!%''!!(!!!!(!!!%%'!!''''%%%%%%'!%%%%%%##!###!(((((",
  "((((!%''!!!!'''!!!!%%'!!''''%%%%%%!''%%%%%######!(((((",
  "((!!!!''!!!'''''!!!!%'!!!!%%''%%'!'''!''%%''%###!!!!((",
  "((!!!!''!''!''''!!!!''!!!!%%''%%!'''!'''%%''%%##!!''!(",
  "(!''!!!!!''!''''''!!!!''!!!!!!''%%'''''!''%%''%%!!%%!(",
  "!!''!!!!!!!!''''''!!!!''!%%%%!''%%!!''!'''%%''%%!!%%!(",
  "!''''''''!'!!!''''''!!!!!!!!!!!!!!!!!!!!!!!!!!!!!!!!!(",
  "(!!!!!!!!!!!!!!!!!!!!!!!!!!!!!!!!!!!!!!!!!!!!!!!!!!!!!",
};
