/* XPM */
static char *walker_0c[] = {
  /* width height ncolors chars_per_pixel */
  "56 52 9 1 0 0",
  /* colors */
  "! c #000000",
  "# c #800000",
  "$ c #008000",
  "% c #808000",
  "& c #c0c0c0",
  "' c #808080",
  "( c #00ff00",
  ") c #ffff00",
  "* c None",
  /* pixels */
  "********************************************************",
  "********************************************************",
  "***********!!!!!!!!!!!!!!!!!!!!!!!!!!!!!!!!!!!!!!!!!!!!*",
  "!!!!!!***!!!!&&&&&&&&&&&&&&&&&&&&&&&&&&&&&&&&&&&&&&&&&&!",
  "!%&%%&!!*!&&&&&&&&&&&&&&&&&&&&&&&&&&&&&&&&&&&&&&&&&&&&!*",
  "!%&%%&%%!&&&&&!!!!!!!!!!!!!!!!!!!!!!!!!!!!!!!!!!!!!!!!!*",
  "!%%&%&%%%!&&&&!&&&&&&&&&&&&&&&&&&&!''''''''!$$$$(($$$$$!",
  "!%%&%%&%%!&&&&!&&&&''''''''''''''&!'!'!'!''!$$$$(($$$$$!",
  "!%%&%%&%%!&&&&!!!&&&'$$''))''###'&!'!'!'!!'!$$$$(($$$$$!",
  "!%%&%%&%%!&&&&&&&!!&'''''''''''''&!'!'!'!''!$$$$(($$$$$!",
  "!%%&%&%%%!&&&&&&&&&!&&&!!!!!!''''&!''''''''!!!!!!!!!!!!*",
  "!%&%%&%%!&&&&&&&&&&&!&!&&&&&&!&''&%!!!!!!!!&&&&&&&&&&&!*",
  "!%&%%&!!*!&&&&&&&&&&&!&&&&&&&&!&'&!&&&&&&!&&&&&&&&&&&&&!",
  "!!!!!!***!!!!!!!&&!!!&&&&&&&&&&!&&!&&!!!!!&&&&&&&&&&&&&!",
  "****************!!&!!&&&!!&&&&&!&&!&!''''!&&&&&&&&&&&&&!",
  "****************!&&!&&&!''!&&&&&!&!&&!!!!!&&&&&&&&&&&&&!",
  "***************!&&&!&&!''''!&&&&!&!&&&&&&!&&&&&&&&&&&&&!",
  "**************!&&&&!&&&!''''!&&&!&!&&!!!!!&&&&&&&&&&&&&!",
  "*************!&&&&&!&&&&!''''!&&!&!&!''''!&&&!&!&!&!&!&!",
  "************!&&!&&&!!&&&&!''!&&!&&!&&!!!!!&!&&&&&&&&&&&!",
  "***********!&&!*!&&&!&&&&&!!&&&!!!!&&&&&&!&&&!&!&!&!&!&!",
  "**********!&&!**!!&&!!&&&&&&&&!***!&&!!!!!&!&&&&&&&&&&&!",
  "*********!&&!**!!&&!''!&&&&&&!****!&!''''!&&&!&!&!&!&!&!",
  "********!&&!**!!&&!'''!!!!!!!*****!&&!!!!!&!&&&&&&&&&&&!",
  "*******!&&!**!!&&!'''!************!&&&&&&!&&&!&!&!&!&!&!",
  "******!&&!**!!&&!'''!*************!&&&&&&!&&&&&&&&&&&&&!",
  "*****!&&!**!!&&!'''!***************!!!!!!!&&&&&&&&&&&&&!",
  "**!!!!!!!!!!!!!!!!!!!!!!!!!!!!!!!!********!!!!!!!!!!!!!*",
  "*!&&!%%%%%%%%!&&&&&&&&&&&&&&!!&&&!!*********************",
  "!&&&!%%%%%%%%!&&&&&&&&&&&&&!&&&&&&&!********************",
  "!!!!!%%!!!!%%!!!!!!!!!!!!!!!&&!!!&&!********************",
  "****!%%!!!!%%!%%!''!******!&&&!'!&&&!!!!!!!!!!**********",
  "****!%%!*!!%%!%!*!''!*****!&&&!'!&&&!&&&&&&&&!****!!!!**",
  "****!%%!**!%%!!***!''!****!&&&!'!&&&!&&&&&&&&&!!!!&&&&!*",
  "!!!!!%%!!!!%%!!!!!!!!!!!!!!!&&!!!&&!&&&&&&&&&&!&&!&&&&&!",
  "!&&&!%%%%%%%%!&&&&&&&&&&&&&!&&&&&&&!&&&&&&&&&&!&&!&&&&&!",
  "*!&&!%%%%%%%%!&&&&&&&&&&&&&&!!&&&!!!!!!!!!!!!!!!!!&&&&&!",
  "**!!!!!!!!!!!!!!!!!!!!!!!!!!!!!!!!***************!!!!!!!",
  "**************!'''!***!''!******************************",
  "***************!'''!***!''!*****************************",
  "****************!'''!***!!!!!!**************************",
  "*****************!'''!**!!'''!!*************************",
  "******************!'''!!'''''''!************************",
  "*******************!'''!''''!''!************************",
  "********************!'!''''!!!''!***********************",
  "*********************!!'''!!!!''!***********************",
  "**********************!''!!!!'''!!!!!!!!!****!!!!*******",
  "***********************!''!!'''!''''''''!***!''''!******",
  "***********************!'''''''!'''''''''!!!!'''''!*****",
  "**********************!'!!'''!!''''''''''!''!'''''!*****",
  "*********************!''''!!!''''''''''''!''!'''''!*****",
  "*********************!!!!!!!!!!!!!!!!!!!!!!!!!!!!!!*****",
};
