/* XPM */
static char *med_kit_4[] = {
  /* width height ncolors chars_per_pixel */
  "14 14 20 1 0 0",
  /* colors */
  "! c #008000",
  "# c #008080",
  "$ c #663300",
  "% c #336600",
  "& c #339966",
  "' c #d40000",
  "( c #660066",
  ") c #333366",
  "* c #669966",
  "+ c #550000",
  ", c #555555",
  "- c #33cc99",
  ". c #aa3f55",
  "/ c #ff0000",
  "0 c None",
  "1 c #66cc99",
  "2 c #ff5f00",
  "3 c #ff3f55",
  "4 c #333300",
  "5 c #336666",
  /* pixels */
  "1115&&&&&511*5",
  "14454444454*44",
  "14###(2(###145",
  "55#*!$3$5*)55!",
  "&4#%)$/4#%)&4!",
  "&4!!!./,!!)&4)",
  "&4(233/33/(&4(",
  "&4('''/'''(&5(",
  "&4!!!./(!!)14)",
  "&4##5,/$5##14!",
  "55#*!$/$#*%55!",
  "14#))(/+#))145",
  "1*15&&&-1511&5",
  "*445444%454444",
};
