/* XPM */
static char *fire_demon_4[] = {
  /* width height ncolors chars_per_pixel */
  "96 96 4 1 0 0",
  /* colors */
  "! c #800000",
  "# c #ff0000",
  "$ c #ffff00",
  "% c None",
  /* pixels */
  "%%%%%%%%%%%%%%%%%%%%%%%%%%%%%%%%%%%%%%###!#####!#%%%%%%%%%%%%%%%%%%%%%%%%%%%%%%%%%%%%%%%%%%%%%%%",
  "%%%%%%%%%%%%%!%%%%%%%%%%%%%%%%%%%%%%!#############%%%%%%%%%%%%%%%%%%%%%%%%%%%%%%%%%%%%%%%%%%%%%%",
  "%%%%%%%%%%%%%#######!###%%%%%%%%%%%%%##############%%%%%%%%%%%%%%%%%%%%%%%%%%%%%%%%%%%%%%%%%%%%%",
  "%%%%%%!%%%%%#############!%%!%%%%%%!%##############%%%%%%!%%%%%%%%%%%%%%%%%%%%%%%%%%%%%!%%%%%%%%",
  "%%%###########$$$$$$$#############################!#%%%%%###%%%!%%%%%%%%%!%%%#!#########%%%%%%%%",
  "%%################$$$$$$$$##########!###############%%!%########%%%%%%!%%%################%%%%%%",
  "%%!#################################$###########################################$###########%%%%",
  "%%##################################$#########################################$$$############!%%",
  "%%########$$$$$$$##########$$##$$$$$$##############$$$$############$$$#########$$######$#####%%%",
  "%%##########$$$$#######$#$$###$$$$$$$##############$$$$$##########$$####$######$########$####%%%",
  "%%###$###%#######$################$$!##############!$$##$#####$$$$###########################%%%",
  "%%###$#!%%%%%#####################$$$##############$$$$#$$#######$############################%%",
  "%%###$##%%%%%!%%###!#%%%%%%%%%###$$$$##########$###$$$$$$###############%%%%%%%!!%%%%#########%%",
  "%!####$#%%%%%%%%%%%%%%%%%%%!%%##$$$$$##########$###$$$$$$###########%%%%!%%%%%%%%%%%%%########%%",
  "%%###$##%%%%%%%%%%%%%%%%%%%%%%##$$$$$##########$$###$$$$$$####%%%%!%%%%%%%%%%%%%%%%%%%########%%",
  "%%%##$##%%%%%%%%%%%%%%%%%%%%%%###$$$$####$#####$$###$$$$$$####%%%%%%%%%%%%%%%%%%%%%%%!########%%",
  "%%%%#$$##!%%%%%%%%%%%%%%%%%%%%####$$!$##$$#####$$##$$$$$#$###%%%%%%%%%%%%%%%%%%%%%%%%%########%%",
  "%%%%##$##%%%%%%%%%%%%%%%%%%%%%!####$$$##$$#####$$##$$$$$#$##%%%%%%%%%%%%%%%%%%%%%%%%%%########%%",
  "%%%!##$#%%%%%%%%%%%%%%%%%%%%%%%%###$$$##$$######$##$$$$$####!%%%%%%%%%%%%%%%%%%%%%%%%%########!%",
  "%%%%####%%%%%%%%%%%%%%%%%%%%%%%%%####$###$#########!$$$$####%%%%%%%%%%%%%%%%%%%%%%%%%%########%%",
  "%%%%#####%%%%%%%%%%%%%%%%%%%%%%%%%####$$###########$$$#####%%%%%%%%%%%%%%%%%%%%%%%%%%%##$#####%%",
  "%%%%#####%%%%%%%%%%%%%%%%%%%%%%%%%####$$###########$$$#####%%%%%%%%%%%%%%%%%%%%%%%%%%%##$#####%%",
  "%%%%#####%%%%%%%%%%%%%%%%%%%%%%%%%!###$!$$########$$#####$#!%%%%%%%%%%%%%%%%%%%%%%%%%%!#$#####%%",
  "%%%%#####!%%%%%%%%%%%%%%%%%%%%%%%%%###$$$$$####$$$$#####$$%%%%%%%%%%%%%%%%%%%%%%%%%%%%##$#####%%",
  "%%%%######%%%%%%%%%%%%%%%%%%%%%%%%%%###$$$$$$!$$!$#####$##%%%%%%%%%%%%%%%%%%%%%%%%%%%%%#$$####!%",
  "%%%%##$###%%%%%%%%%%%%%%%%%%%%%%%%%%%###$$$$$$$$$$####$##%%%%%%%%%%%%%%%%%%%%%%%%%%%%%%#$$####%%",
  "%%%%##$###%%%%%%%%%%%%%%%%%%%%%%%%%%%####$$$$$$$$$##$####%%%%%%%%%%%%%%%%%%%%%%%%%%%%%%#$$####%%",
  "%%%!##$###%%%%%%%%%%%%%%%%%%%%%%%%%%%!####$$$$$$$###$##!%%%%%%%%%%%%%%%%%%%%%%%%%%%%%%%!$$####%%",
  "%%%%##$###%%%%%%%%%%%%%%%%%%%%%%%%%%%%%###$$$$##########%%%%%%%%%%%%%%%%%%%%%%%%%%%%%%%%##$###%%",
  "%%%%##$$##%%%%%%%%%%%%%%%%%%%%%%%%%%%%#####$$$#########%%%%%%%%%%%%%%%%%%%%%%%%%%%%%%%%%######%%",
  "%%%%###$##%%%%%%%%%%%%%%%%%%%%%%%%%%%%#####$$$$$$#####%%%%%%%%%%%%%%%%%%%%%%%%%%%%%%%%%%######%%",
  "%%%%###$##!%%%%%%%%%%%%%%%%%%%%%%%%%%%%####$#$$$$####!%%%%%%%%%%%%%%%%%%%%%%%%%%%%%%%%%%######!%",
  "%%%%%##$##%%%%%%%%%%%%%%%%%%%%%%%%%%%%%%############%%%%%%%%%%%%%%%%%%%%%%%%%%%%%%%%%%%%#######%",
  "%%%%%#####%%%%%%%%%%%%%%%%%%%%%%%%%%%%%%###########%%%%%%%%%%%%%%%%%%%%%%%%%%%%%%%%%%%%%#######%",
  "%%%%!%####%%%%%%%%%%%%%%%%%%%%%%%%%%%%%%%!##$$#####%%%%%%%%%%%%%%%%%%%%%%%%%%%%%%%%%%%%%#######%",
  "%%%%%%####%%%%%%%%%%%%%%%%%%%%%%%%%%%%%%%###$$####%%%%%%%%%%%%%%%%%%%%%%%%%%%%%%%%%%%%%%#######%",
  "%%%%%%####%%%%%%%%%%%%%%%%%%%%%%%%%%%%%%%###$####%%%%%%%%%%%%%%%%%%%%%%%%%%%%%%%%%%%%%%%##$$####",
  "%%%%%%####!%%%%%%%%%%%%%%%%%%%%%%%%%%%%%####$####%%%%%%%%%%%%%%%%%%%%%%%%%%%%%%%%%%%%%%%!#$$$###",
  "%%%%%%####%%%%%%%%%%%%%%%%%%%%%%%%%%%%%%#######%%%%%%%%%%%%%%%%%%%%%%%%%%%%%%%%%%%%%%%%%%###$###",
  "%%%%%!####%%%%%%%%%%%%%%%%%%%%%%%%%%%%%%#######!%%%%%%%%%%%%%%%%%%%%%%%%%%%%%%%%%%%%%%%%%%##$$##",
  "%%%%%%####%%%%%%%%%%%%%%%%%%%%%%%%%%%%%#$#####%%%%%%%%%%%%%%%%%%%%%%%%%%%%%%%%%%%%%%%%%%%%%####!",
  "%%%%%%%###%%%%%%%%%%%%%%%%%%%%%%%%%%%%%#$#####%%%%%%%%%%%%%%%%%%%%%%%%%%%%%%%%%%%%%%%%%%%%%%####",
  "%%%%%%%%##%%%%%%%%%%%%%%%%%%%%%%%%%%%%!#$#####%%%%%%%%%%%%%%%%%%%%%%%%%%%%%%%%%%%%%%%%%%%%%%####",
  "%%%%%%%%##%%%%%%%%%%%%%%%%%%%%%%%%%%%%##$$####!%%%%%%%%%%%%%%%%%%%%%%%%%%%%%%%%%%%%%%%%%%%!%####",
  "%%%%%%%##!%%%%%%%%%%%%%%%%%%%%%%%%%%%%##$$####%%%%%%%%%%%%%%%%%%%%%%%%%%%%%%%%%%%%%%%%%%%%%%%###",
  "%%%%%%%###%%%%%%%%%%%%%%%%%%%%%%%%%%%%###$####%%%%%%%%%%%%%%%%%%%%%%%%%%%%%%%%%%%%%%%%%%%%%%####",
  "%%%%%%####%%%%%%%%%%%%%%%%%%%%%%%%%%%%###$####%%%%%%%%%%%%%%%%%%%%%%%%%%%%%%%%%%%%%%%%%%%%%%%##!",
  "%%%%%%####%%%%%%%%%%%%%%%%%%%%%%%%%%%%###$####%%%%%%%%%%%%%%%%%%%%%%%%%%%%%%%%%%%%%%%%%%%%%%%###",
  "%%%%%%!###%%%%%%%%%%%%%%%%%%%%%%%%%%!#########%%%%%%%%%%%%%%%%%%%%%%%%%%%%%%%%%%%%%%%%%%%%%%%!%%",
  "%%%%%%####%%%%%%%%%%%%%%%%%%%%%%%%%%%#########%%%%%%%%%%%%%%%%%%%%%%%%%%%%%%%%%%%%%%%%%%%%%%%%%%",
  "%%%%%%%%#!%%%%%%%%%%%%%%%%%%%%%%%%%%%#####$###%%%%%%%%%%%%%%%%%%%%%%%%%%%%%%%%%%%%%%%%%%%%%%%%%%",
  "%%%%%%%%%%%%%%%%%%%%%%%%%%%%%%%%%%%%%#####$$#!%%%%%%%%%%%%%%%%%%%%%%%%%%%%%%%%%%%%%%%%%%%%%%%%%%",
  "%%%%%%%%%%%%%%%%%%%%%%%%%%%%%%%%%%%%%#########%%%%%###%!%%%%%%%%%%%%%%%%%%%%%%%%%%%%%%%%%%%%%%%%",
  "%%%%%%!%%%%%%%%%%%%%%%%!%%%%%%%%%%%##########%%!%%##########%%%%%%%!%%%%%%%%%%%%%%%%%%%%%%%%%%%%",
  "%%%%%%#########!#######%%%%%%%%%%%%#################$$$$#############%%%%%%%%%%%%%%%%%%%%%%%%%%%",
  "%%%!%###################%%%%%%%%%%%####################$$$############%%%%%%%%%%%%%%%%%%%%%%%%%%",
  "%%%%####$$$$$$$$$$$$$#######!##################$$$$$$####$$$$$$$$########!#########!%%%%%%%%%%%%",
  "%%%##########$$$$$$$$$#############################$$$######$$$$$$$$################%%%%%%%%%%%%",
  "%%%##################################################################################!%%%%%%%%%%",
  "%%######################################################################$#############%%%%%%%%%%",
  "%%##########$##########$$$$###$$$$$$####%%%%%###########$$$$$$$$########$$$$#########%%%%%%%%%%%",
  "%%##########$$$$$$$##$######$$$$$$#####%%%%%%!%%#############$$#####$$$$$$$$$$$$#####%%%%%%%%%%%",
  "%%######%%!%#########################%%!%%%%%%%%%%%%!%%###############################%%%%%%%%%%",
  "%%!#####%%%%%%%%%########!##########%%%%%%%%%%%%%%%%%%%%%%!###########################%%%%%%%%%%",
  "%%######%%%%%%%%%%%%%%%%%%%%%%%%%%%!%%%%%%%%%%%%%%%%%%%%%%%%%%%%%%%!%%%%%%!%#####$$###%%%%%%%%%%",
  "%%######%%%%%%%%%%%!%%%%%%%%%%%%%%%%%%%%%%%%%%%%%%%%%%%%%%%%%%%%%%%%%%%%%%%%%###$$$###%%%%%%%%%%",
  "%#######%%%%%%%%%%%%%%%%%%%%%%%%%%%%%%%%%%%%%%%%%%%%%%%%%%%%%%%%%%%%%%%%%%%%%###$$$$##%%%%%%%%%%",
  "%######!%%%%%%%%%%%%%%%%%%%%%%%%%%%%%%%%%%%%%%%%%%%%%%%%%%%%%%%%%%%%%%%%%%%%%###$$$$##!%%%%%%%%%",
  "%#######%%%%%%%%%%%%%%%%%%%%%%%%%%%%%%%%%%%%%%%%%%%%%%%%%%%%%%%%%%%%%%%%%%%%%###$$####%%%%%%%%%%",
  "%######%%%%%%%%%%%%%%%%%%%%%%%%%%%%%%%%%%%%%%%%%%%%%%%%%%%%%%%%%%%%%%%%%%%%%%%##$$####%%%%%%%%%%",
  "%#$####%%%%%%%%%%%%%%%%%%%%%%%%%%%%%%%%%%%%%%%%%%%%%%%%%%%%%%%%%%%%%%%%%%%%%%%##$$$####%%%%%%%%%",
  "##$####%%%%%%%%%%%%%%%%%%%%%%%%%%%%%%%%%%%%%%%%%%%%%%%%%%%%%%%%%%%%%%%%%%%%%%%##$#######%%%%%%%%",
  "!#$###%%%%%%%%%%%%%%%%%%%%%%%%%%%%%%%%%%%%%%%%%%%%%%%%%%%%%%%%%%%%%%%%%%%%%%%%!#$$$#####%%%%%%%%",
  "##$$##%%%%%%%%%%%%%%%%%%%%%%%%%%%%%%%%%%%%%%%%%%%%%%%%%%%%%%%%%%%%%%%%%%%%%%%%##$$$#####%%%%%%%%",
  "##$$###%%%%%%%%%%%%%%%%%%%%%%%%%%%%%%%%%%%%%%%%%%%%%%%%%%%%%%%%%%%%%%%%%%%%%%%##$$$#####!%%%%%%%",
  "##$$####%%%%%%%%%%%%%%%%%%%%%%%%%%%%%%%%%%%%%%%%%%%%%%%%%%%%%%%%%%%%%%%%%%%%%%%##$$$####%%%%%%%%",
  "##$$####%%%%%%%%%%%%%%%%%%%%%%%%%%%%%%%%%%%%%%%%%%%%%%%%%%%%%%%%%%%%%%%%%%%%%%%##$$$####%%%%%%%%",
  "##$$####%%%%%%%%%%%%%%%%%%%%%%%%%%%%%%%%%%%%%%%%%%%%%%%%%%%%%%%%%%%%%%%%%%%%%%%###$$####%%%%%%%%",
  "##$$####%%%%%%%%%%%%%%%%%%%%%%%%%%%%%%%%%%%%%%%%%%%%%%%%%%%%%%%%%%%%%%%%%%%%%%!###$$##%%%%%%%%%%",
  "##$$####%%%%%%%%%%%%%%%%%%%%%%%%%%%%%%%%%%%%%%%%%%%%%%%%%%%%%%%%%%%%%%%%%%%%%%#####$###%%%%%%%%%",
  "##$$#####!%%%%%%%%%%%%%%%%%%%%%%%%%%%%%%%%%%%%%%%%%%%%%%%%%%%%%%%%%%%%%%%%%%%%#####$###%%%%%%%%%",
  "##$$#####%%%%%%%%%%%%%%%%%%%%%%%%%%%%%%%%%%%%%%%%%%%%%%%%%%%%%%%%%%%%%%%%%%%%%#####$###%%%%%%%%%",
  "!##$#####%%%%%%%%%%%%%%%%%%%%%%%%%%%%%%%%%%%%%%%%%%%%%%%%%%%%%%%%%%%%%%%%%%%%%########!%%%%%%%%%",
  "%##$######%%%%%%%%%%%%%%%%%%%%%%%%%%%%%%%%%%%%%%%%%%%%%%%%%%%%%%%%%%%%%%%%%%%%#########%%%%%%%%%",
  "%%########%%%%%%%%%%%%%%%%%%%%%%%%%%%%%%%%%%%%%%%%%%%%%%%%%%%%%%%%%%%%%%%%%%%%##$#####%%%%%%%%%%",
  "%%########%%%%%%%%%%%%%%%%%%%%%%%%%%%%%%%%%%%%%%%%%%%%%%%%%%%%%%%%%%%%%%%%%%%%##$$####%%%%%%%%%%",
  "%%########%%%%%%%%%%%%%%%%%%%%%%%%%%%%%%%%%%%%%%%%%%%%%%%%%%%%%%%%%%%%%%%%%%!%##$$$###!%%%%%%%%%",
  "%%#######!%%%%%%%%%%%%%%%%%%%%%%%%%%%%%%%%%%%%%%%%%%%%%%%%%%%%%%%%%%%%%%%%%%%%##$$$###%%%%%%%%%%",
  "%%!#######%%%%%%%%%%%%%%%%%%%%%%%%%%%%%%%%%%%%%%%%%%%%%%%%%%%%%%%%%%%%%%%%%%%%##$$$###%%%%%%%%%%",
  "%%###$##%%%%%%%%%%%%%%%%%%%%%%%%%%%%%%%%%%%%%%%%%%%%%%%%%%%%%%%%%%%%%%%%%%%%%%##$$$###%%%%%%%%%%",
  "%%###$$#%%%%%%%%%%%%%%%%%%%%%%%%%%%%%%%%%%%%%%%%%%%%%%%%%%%%%%%%%%%%%%%%%%%%%%###$$###%%%%%%%%%%",
  "%%####$#%%%%%%%%%%%%%%%%%%%%%%%%%%%%%%%%%%%%%%%%%%%%%%%%%%%%%%%%%%%%%%%%%%%%%%%###$$##%%%%%%%%%%",
  "%%######%%%%%%%%%%%%%%%%%%%%%%%%%%%%%%%%%%%%%%%%%%%%%%%%%%%%%%%%%%%%%%%%%%%%%%%%!#$$###!%%%%%%%%",
  "%%#####!%%%%%%%%%%%%%%%%%%%%%%%%%%%%%%%%%%%%%%%%%%%%%%%%%%%%%%%%%%%%%%%%%%%%%%%%%#$#####%%%%%%%%",
  "%%####%%%%%%%%%%%%%%%%%%%%%%%%%%%%%%%%%%%%%%%%%%%%%%%%%%%%%%%%%%%%%%%%%%%%%%%%%%%%######%%%%%%%%",
  "%%!##%%%%%%%%%%%%%%%%%%%%%%%%%%%%%%%%%%%%%%%%%%%%%%%%%%%%%%%%%%%%%%%%%%%%%%%%%%%%%#####!%%%%%%%%",
};
