/* XPM */
static char *fire_demon_5[] = {
  /* width height ncolors chars_per_pixel */
  "94 96 4 1 0 0",
  /* colors */
  "! c #800000",
  "# c #ff0000",
  "$ c #ffff00",
  "% c None",
  /* pixels */
  "%%%%%%%%%%%%%%%%%%%%%%%%%%%%%%%%%%%%###############%%%%%%%%%%%%%%%%%%%%%%%%%%%%%%%%%%%%%%%%%%%",
  "%%%%%%%%%%%%%%%%%%%%%%%%%%%%%%%%%%%%##############!#%%%%%%%%%%%%%%%%%%%%%%%%%%%%%%%%%%%%%%%%%%",
  "%%%%%%%%%%%%%%%%%%%%%%%%%%%%%%%%%%%!################%%%%%%%%%%%%%%%%%%%%%%%%%%%%%%%%%%%%%%%%%%",
  "%%%%%%%%%%%%%%%%%%%%%%%%%%%%%%%%%%##############$###%%%%%%%%%%%%%%%%%%%%%%%%%%%%%%%%%%%%%%%%%%",
  "%%%%%%%%%%%%%%%%%%%%%%%%%%%%%%%%%%#############$$##!%%%%%%%%%%%%%%%%%%%%%%%%%%%%%%%%%%%%%%%%%%",
  "%%%%%%%%%%%%%%%%%%%%%%%%%%%%%%%%%%#############$$###%%%%%%%%%%%%%%%%%%%%%%%%%%%%%%%%%%%%%%%%%%",
  "%%%%%%%%%%%%%%%%%%%%%%%%%%%%%%%%%!#####$######$$$###%%%%%%%%%%%%%%%%%%%%%%%%%%%%%%%%%%%%%%%%%%",
  "%%%%%%%%%%%%%%%%%%%%%%%%%%%%%%%%%%#####$######$$$##%%%%%%%%%%%%%%%%%%%%%%%%%%%%%%%%%%%%%%%%%%%",
  "%%%%%%%%%%%%%%%%%%%%%%%%%%%%%%%%%%####$$######$$###%%%%%%%%%%%%%%%%%%%%%%%%%%%%%%%%%%%%%%%%%%%",
  "%%%%%%%%%%%%%%%%%%%%%%%%%%%%%%%%%%####$$######$###!%%%%%%%%%%%%%%%%%%%%%%%%%%%%%%%%%%%%%%%%%%%",
  "%%%%%%%%%%%%%%%%%%%%%%%%%%%%%%%%%%####$###########%%%%%%%%%%%%%%%%%%%%%%%%%%%%%%%%%%%%%%%%%%%%",
  "%%%%%%%%%%%%%%%%%%%%%%%%%%%%%%%%%%%###############%%%%%%%%%%%%%%%%%%%%%%%%%%%%%%%%%%%%%%%%%%%%",
  "%%%%%%%%%%%%%%%%%%%%%%%%%%%%%%%%%%%%############!%%%%%%%%%%%%%%%%%%%%%%%%%%%%%%%%%%%%%%%%%%%%%",
  "%%%%%%%%%%%%%%%%%%%%%%%%%%%%%%%%%%%!############%%%%%%%%%%%%%%%%%%%%%%%%%%%%%%%%%%%%%%%%%%%%%%",
  "%%%%%%%%%%%%%%%%%%%%%%%%%%%%%%%%%%%%############%%%%#!%%%%%%%%%%%%%%%%%%%%%%%%%%%%%%%%%%%%%%%%",
  "%%%%%%%%%%%%%%%%%%%%%%%%%%%%!%%%%%%%############%%%%##%%%%%%%%%%%%%%%%%%%%%%%%%%%%%%%%%%%%%%%%",
  "%%%%%%%%%%%%%%%%%%%%%%%%!%###!###!################%%#####!%%%%%%%%%%%%%%%%%%%%%%%%%%%%%%%%%%%%",
  "%%%%%%%%%%%%%%!%!%%%%%############################%%######%%%%%%%%%%%%%%%%%%%%%%%%%%%%%%%%%%%%",
  "%%%%%%%%%%%%%%################$$$$$##############$######$$#######!%%%%%%%%%%%%%%%%%%%%%%%%%%%%",
  "%%%%%%%%%%%%##################$$$$$$############$$#######$########%%%%%%%%%%%%%%%%%%%%%%%%%%%%",
  "%%%%%%%%%%#########$$$########$$$$$$$$##########$$$$$############$#######!%%%%%%%%%%%%%%%%%%%%",
  "%%%%%%##!#########$$$##########$$$$$$$##########$$$$$$##########$$########%%%%%%%%%%%%%%%%%%%%",
  "%%%%############################$$$$$$$$#######$$$$$$$#######$$$$$####$$$$#######%%%%%%%%%%%%%",
  "%%%%%###########################$$$$$$$$######$$$$$$$$##########$$#####$$$#######!%%%%%%%%%%%%",
  "%###!#####################%%######$$$$$$$$$$$$$$$$$$$$########################$$##%%%%%%%%%%%%",
  "%###################%%%%%%!%#######$$$$$$$$$$$$$$$$$$############!#############$##%%%%%%%%%%%%",
  "####$####$####%%%!%%%%%%%%%!##########$$$$$$$$$###$$#########%%%%%%%%%############%%%%%%%%%%%%",
  "#!##$$##$$###%%%%%%%%%%%%%%%%##########$$$$$$$##############%%%%%%%%%%!###########%%%%%%%%%%%%",
  "%#########%%%%%%%%%%%%%%%%%%%%###$$$##$$$#$$###############%%%%%%%%%%%%%%%########%%%%%%%%%%%%",
  "%#########%%%%%%%%%%%%%%%%%%%%%#$$######$#$$###############%%%%%%%%%%%%%%%########%%%%%%%%%%%%",
  "%%########%%%%%%%%%%%%%%%%%%%%%%!########$$$$$$$#########%!%%%%%%%%%%%%%%%###$####%%%%%%%%%%%%",
  "%%########%%%%%%%%%%%%%%%%%%%%%%%#########$$$$$$########%%%%%%%%%%%%%%%%%%###$####%%%%%%%%%%%%",
  "%%%#######%%%%%%%%%%%%%%%%%%%%%%%%######$$$$$$########%%%%%%%%%%%%%%%%%%%%##$$####%%%%%%%%%%%%",
  "%%%#######%!%%%%%%%%%%%%%%%%%%%%%%%#####$$$$$$#######%%%%%%%%%%%%%%%%%%%%%##$$###!%%%%%%%%%%%%",
  "%%%%###$###!%%%%%%%%%%%%%%%%%%%%%%%!%###$$$$$$####%%%%%%%%%%%%%%%%%%%%%%!#######%%%%%%%%%%%%%%",
  "%%%!##$$####%%%%%%%%%%%%%%%%%%%%%%%%%###$$$$$$####!%%%%%%%%%%%%%%%%%%%%%########%%%%%%%%%%%%%%",
  "%%%%##$$#####%%%%%%%%%%%%%%%%%%%%%%%%###$$$#######%%%%%%%%%%%%%%%%%%%%%%########%%%%%%%%%%%%%%",
  "%%%%%#$#######%%%%%%%%%%%%%%%%%%%%%%%####$#######%%%%%%%%%%%%%%%%%%%%%%%########%%%%%%%%%%%%%%",
  "%%%%%%########%%%%%%%%%%%%%%%%%%%%%%%%####$$$$###%%%%%%%%%%%%%%%%%%%%%!#########%%%%%%%%%%%%%%",
  "%%%%%%########%%%%%%%%%%%%%%%%%%%%%%%%#####$$$###%%%%%%%%%%%%%%%%%%%%%#########!%%%%%%%%%%%%%%",
  "%%%%%%##$#####%%%%%%%%%%%%%%%%%%%%%%%%%%##########%%%%%%%%%%%%%%%%%%%%########%%%%%%%%%%%%%%%%",
  "%%%%%!##$#####%%%%%%%%%%%%%%%%%%%%%%%%%%##########%%%%%%%%%%%%%%%%%%%%########%%%%%%%%%%%%%%%%",
  "%%%%%!%#$$####%%%%%%%%%%%%%%%%%%%%%%%%%%%%#########%%%%%%%%%%%%%%%%%%%######%%%%%%%%%%%%%%%%%%",
  "%%%%%%%#$$####%%%%%%%%%%%%%%%%%%%%%%%%%%%%####$#####%%%%%%%%%%%%%%%%%%######%%%%%%%%%%%%%%%%%%",
  "%%%%%%%%#######%%%%%%%%%%%%%%%%%%%%%%%%%%!##########!%%%%%%%%%%%%%%%%%######%%%%%%%%%%%%%%%%%%",
  "%%%%%%%%%######%%%%%%%%%%%%%%%%%%%%%%%%%%%#########%%%%%%%%%%%%%%%%%%%#####!%%%%%%%%%%%%%%%%%%",
  "%%%%%%%%%#######%%%%%%%%%%%%%%%%%%%%%%%%%%########%%%%%%%%%%%%%%%%%%!#####%%%%%%%%%%%%%%%%%%%%",
  "%%%%%%%%%######!%%%%%%%%%%%%%%%%%%%%%%%%%%%#######%%%%%%%%%%%%%%%%%%######%%%%%%%%%%%%%%%%%%%%",
  "%%%%%%%%%!######%%%%%%%%%%%%%%%%%%%%%%%%%%%%#####$#%%%%%%%%%%%%%%%%%####%%%%%%%%%%%%%%%%%%%%%%",
  "%%%%%%%%%%%#####%%%%%%%%%%%%%%%%%%%%%%%%%%%%####$$#!%%%%%%%%%%%%%%%%%!#!%%%%%%%%%%%%%%%%%%%%%%",
  "%%%%%%%%%%%%####%%%%%%%%%%%%%%%%%%%%%%%%%%!#########%%%%%%%%%%%%%%%%%%%%%%%%%%%%%%%%%%%%%%%%%%",
  "%%%%%%%%%%%%#!##%%%%%%%%%%%%%%%%%%%%%%%%%%##########%%%%%%%%%%%%%%%%%%%%%%%%%%%%%%%%%%%%%%%%%%",
  "%%%%%%%%%%%%%%%%%%%%%%%%%%%%%%%%%%%%%%!%%###############!###%%%%%%%%%%%%%%%%%%%%%%%%%%%%%%%%%%",
  "%%%%%%%%%%%%%%%%%%%%%%%%%%%%%%%%%%%%%%##########################%%%%%%%%%%%%%%%%%%%%%%%%%%%%%%",
  "%%%%%%%%%%%%%%%%%%%%%%%%%%%%%%%%%########$########$$$$##########%#####!#%%%%%%%%%%%%%%%%%%%%%%",
  "%%%%%%%%%%%%%%%%%%%%%%%%%%%%%%%!########$$##########$$$$########!########!%%%%%%%%%%%%%%%%%%%%",
  "%%%%%%%%%%%%%%%%%%%%%%%%##############################$$####################%#%%%%%%%%%%%%%%%%",
  "%%%%%%%%%%%%%%%%%%%%%%################################$$#####################%%%%%%%%%%%%%%%%%",
  "%%%%%%%%%%%%%%%%%%%%#########$##############%%!%%%%%###############$$$$$######!%%%%%%%%%%%%%%%",
  "%%%%%%%%%%%%%%%%%%%!########$$###########!%%%%%%%%%%%#############$$$$$$########%%%%%%%%%%%%%%",
  "%%%%%%%%%%%%%%%%######################%%%%%%%%%%%%%%%!%%!%############$$$$##$$###%%%%%%%%%%%%%",
  "%%%%%%%%%%%%%%%%####################!%%%%%%%%%%%%%%%%%%%%%##############$$$$$$####%%%%%%%%%%%%",
  "%%%%%%%%%%%%%%################%##%%%%%%%%%%%%%%%%%%%%%%%%%%%%%%%%#################%%%%%%%%%%%%",
  "%%%%%%%%%%%%%%################%%!%%%%%%%%%%%%%%%%%%%%%%%%%%%%%%%%%%%##############!%%%%%%%%%%%",
  "%%%%%%%%%%%%%###$###########%%%%%%%%%%%%%%%%%%%%%%%%%%%%%%%%%%%%%%%%%!#############%%%%%%%%%%%",
  "%%%%%%%%%%%!####$$######!%%%%%%%%%%%%%%%%%%%%%%%%%%%%%%%%%%%%%%%%%%%%%%#############%%%%%%%%%%",
  "%%%%%%%%%%%%####$$###$##%%%%%%%%%%%%%%%%%%%%%%%%%%%%%%%%%%%%%%%%%%%%%%%%#############%%%%%%%%%",
  "%%%%%%%%%%%%####$$##$$##%%%%%%%%%%%%%%%%%%%%%%%%%%%%%%%%%%%%%%%%%%%%%%%%%%##########!%%%%%%%%%",
  "%%%%%%%%%%%%#####$$$$$##%%%%%%%%%%%%%%%%%%%%%%%%%%%%%%%%%%%%%%%%%%%%%%%%%%%###########%%%%%%%%",
  "%%%%%%%%%%%%#######$$###%%%%%%%%%%%%%%%%%%%%%%%%%%%%%%%%%%%%%%%%%%%%%%%%%%!%%#########%%%%%%%%",
  "%%%%%%%%%%%%##########!%%%%%%%%%%%%%%%%%%%%%%%%%%%%%%%%%%%%%%%%%%%%%%%%%%%%%%%%#######%%%%%%%%",
  "%%%%%%%%%%%%##########%%%%%%%%%%%%%%%%%%%%%%%%%%%%%%%%%%%%%%%%%%%%%%%%%%%%%%%%%#######!%%%%%%%",
  "%%%%%%%%%%%!##$######%%%%%%%%%%%%%%%%%%%%%%%%%%%%%%%%%%%%%%%%%%%%%%%%%%%%%%%%%########%%%%%%%%",
  "%%%%%%%%%%%%##$######%%%%%%%%%%%%%%%%%%%%%%%%%%%%%%%%%%%%%%%%%%%%%%%%%%%%%%%%%########%%%%%%%%",
  "%%%%%%%%%%%%##$######%%%%%%%%%%%%%%%%%%%%%%%%%%%%%%%%%%%%%%%%%%%%%%%%%%%%%%%%%%#$$$###%%%%%%%%",
  "%%%%%%%%%%%%##$#####!%%%%%%%%%%%%%%%%%%%%%%%%%%%%%%%%%%%%%%%%%%%%%%%%%%%%%%%%%%##$$###%%%%%%%%",
  "%%%%%%%%%%%%%#$$####%%%%%%%%%%%%%%%%%%%%%%%%%%%%%%%%%%%%%%%%%%%%%%%%%%%%%%%%%%%%##$$##%%%%%%%%",
  "%%%%%%%%%%%%%#$$####%%%%%%%%%%%%%%%%%%%%%%%%%%%%%%%%%%%%%%%%%%%%%%%%%%%%%%%%%%%%##$$##%%%%%%%%",
  "%%%%%%%%%%%%%%######%%%%%%%%%%%%%%%%%%%%%%%%%%%%%%%%%%%%%%%%%%%%%%%%%%%%%%%%%%%%##$$##%%%%%%%%",
  "%%%%%%%%%%%%%%######!%%%%%%%%%%%%%%%%%%%%%%%%%%%%%%%%%%%%%%%%%%%%%%%%%%%%%%%%%%%##$$##!%%%%%%%",
  "%%%%%%%%%%%%%%######%%%%%%%%%%%%%%%%%%%%%%%%%%%%%%%%%%%%%%%%%%%%%%%%%%%%%%%%%%%!##$$##%%%%%%%%",
  "%%%%%%%%%%%%%!######%%%%%%%%%%%%%%%%%%%%%%%%%%%%%%%%%%%%%%%%%%%%%%%%%%%%%%%%%%%%##$$#!%%%%%%%%",
  "%%%%%%%%%%%%%%######%%%%%%%%%%%%%%%%%%%%%%%%%%%%%%%%%%%%%%%%%%%%%%%%%%%%%%%%%%%%###$##%%%%%%%%",
  "%%%%%%%%%%%%%%######!%%%%%%%%%%%%%%%%%%%%%%%%%%%%%%%%%%%%%%%%%%%%%%%%%%%%%%%%%%%###$##%%%%%%%%",
  "%%%%%%%%%%%%%%##$###%%%%%%%%%%%%%%%%%%%%%%%%%%%%%%%%%%%%%%%%%%%%%%%%%%%%%%%%%%%%###$##%%%%%%%%",
  "%%%%%%%%%%%%%%######%%%%%%%%%%%%%%%%%%%%%%%%%%%%%%%%%%%%%%%%%%%%%%%%%%%%%%%%%%%%###$##%%%%%%%%",
  "%%%%%%%%%%%%%%###$##%%%%%%%%%%%%%%%%%%%%%%%%%%%%%%%%%%%%%%%%%%%%%%%%%%%%%%%%%%%%######%%%%%%%%",
  "%%%%%%%%%%%%%%###$##%%%%%%%%%%%%%%%%%%%%%%%%%%%%%%%%%%%%%%%%%%%%%%%%%%%%%%%%%%%%######%%%%%%%%",
  "%%%%%%%%%%%%%!##$$##%%%%%%%%%%%%%%%%%%%%%%%%%%%%%%%%%%%%%%%%%%%%%%%%%%%%%%%%%%%%######%%%%%%%%",
  "%%%%%%%%%%%%%###$$##%%%%%%%%%%%%%%%%%%%%%%%%%%%%%%%%%%%%%%%%%%%%%%%%%%%%%%%%%%%%!####!%%%%%%%%",
  "%%%%%%%%%%%#########%%%%%%%%%%%%%%%%%%%%%%%%%%%%%%%%%%%%%%%%%%%%%%%%%%%%%%%%%%%%%########%%%%%",
  "%%%%%%%%%%!########!%%%%%%%%%%%%%%%%%%%%%%%%%%%%%%%%%%%%%%%%%%%%%%%%%%%%%%%%%%%%%#########%%%%",
  "%%%%%%%%%%########%%%%%%%%%%%%%%%%%%%%%%%%%%%%%%%%%%%%%%%%%%%%%%%%%%%%%%%%%%%%%%%%#######!#%%%",
  "%%%%%%%%%########%%%%%%%%%%%%%%%%%%%%%%%%%%%%%%%%%%%%%%%%%%%%%%%%%%%%%%%%%%%%%%%%%##########%%",
  "%%%%%%%%%#####%%%%%%%%%%%%%%%%%%%%%%%%%%%%%%%%%%%%%%%%%%%%%%%%%%%%%%%%%%%%%%%%%%%%!##########%",
  "%%%%%%%%%!####!%%%%%%%%%%%%%%%%%%%%%%%%%%%%%%%%%%%%%%%%%%%%%%%%%%%%%%%%%%%%%%%%%%%%%#!#######!",
};
