/* XPM */
static char *frog_4[] = {
  /* width height ncolors chars_per_pixel */
  "18 22 3 1 0 0",
  /* colors */
  "! c #008000",
  "# c #0000ff",
  "$ c None",
  /* pixels */
  "$$!!$$$$$$$$$$!!$$",
  "$!!!$$$$$$$$$$!!!$",
  "!!!!$$##!!##$$!!!!",
  "!!!!!$##!!##$!!!!!",
  "$$$!!!!!!!!!!!!$$$",
  "$$$$!!!!!!!!!!$$$$",
  "$$$$$!!!!!!!!$$$$$",
  "$$$$$$!!!!!!$$$$$$",
  "$$$$$$!!!!!!$$$$$$",
  "$$$$$$!!!!!!$$$$$$",
  "$$$$$$!!!!!!$$$$$$",
  "$$$$$$!!!!!!$$$$$$",
  "$$$$$$!!$$!!$$$$$$",
  "$$$$$!!!$$!!!$$$$$",
  "$$$$$!!!$$!!!$$$$$",
  "$$$$$!!!$$!!!$$$$$",
  "$$$$!!!$$$$!!!$$$$",
  "$$$$!!$$$$$$!!$$$$",
  "$$$$!!$$$$$$!!$$$$",
  "$$$!!!!$$$$!!!!$$$",
  "$$!!!!!!$$!!!!!!$$",
  "$$!!!!!!$$!!!!!!$$",
};
