/* XPM */
static char *frog_25[] = {
  /* width height ncolors chars_per_pixel */
  "14 14 5 1 0 0",
  /* colors */
  "! c #800000",
  "# c #008000",
  "$ c #ff0000",
  "% c #0000ff",
  "& c None",
  /* pixels */
  "&&&&&&&&&&&&&&",
  "&&&&&&&&&&&&&&",
  "##&&&&&&&&&&&&",
  "#$&&&&&&&&&&&&",
  "#$&&&&&&&&#&&&",
  "##$$&&&&&&##&&",
  "&##$&&&&&&!##&",
  "&&&#$&&&&$##&&",
  "&&##$&&&$$#&&&",
  "&####$$$$##&&&",
  "###!$$!!###!#&",
  "###!!!!!###!#&",
  "&#!!#!!!#%%#!&",
  "!!!##$###%%!!!",
};
