/* XPM */
static char *background_4[] = {
  /* width height ncolors chars_per_pixel */
  "100 100 7 1 0 0",
  /* colors */
  "! c #000000",
  "# c #663300",
  "$ c #666600",
  "% c #333366",
  "& c #555555",
  "' c #333300",
  "( c #336666",
  /* pixels */
  "%!!!!!'!%!!!%!%&%'%%%%(%!!!!!!%!!%!%&&'%%!%%%!!!!!%%%!!!%&!!!&!!'!!!!!!!!!!!!!%!%%&%%&!!!!!%!!!!!%!!",
  "%!!!%!!'!!!!%!%((&(%%(!!!%!!!!!%!%!%&%%!(!%%%!!!!!'!%%'!!!!!!%!!!!!'!!%!!!!!!!!!!(&%!!!!&!%!&!!!!%!!",
  "!!!!!!!!!!'!(!!&((((%%'!!%!!%!!%!%%((&%!%!!!!!'&%%!!!%(('!!%%(!%'!!''!%!!!!!!!!!!!&%!!!%%!(!!'!!!'!!",
  "%!!!!'!!!!!'%(!%(%&&(%%&!!'!!!!%!%%&%%!!!%!!!!!!&!!!'!%!%%%!!%!!'!!'!!%%!!!!!!!!!&%!!!!&!!!!!&!!!%!!",
  "&!!!!'!!!!!&!&!%%(!!%(%%'!%!!%!%!!%%!!!!!!!!'!!!%!!!%!%!!!'%(%!!!''!!!!%!!!!!!!!%!!!!!!!'!!!!%'!!'!!",
  "'!!!!!!&!!!%&%('%!!!!%&(%!!!!&!!%!!!!!!!!!!!%&!%&!!!!%''%!!%%&!!!!!!!!!!!!!!!!''!!!!!'!!!'!!!%%!!!'!",
  "!!!!!!!%!!%!&('%(!!!!!%(%'!!!(!'!!!!!'!!!&'%!%!%(%%!%!%!!!'!!%(%!!!!!'!!!!!!!'!%!!!!!!!&!!'!!%%!!!!!",
  "%!!!!!&!!&&'%(%'&!!!%'!((%'!(&!%!%!!!!!!'&(%%!%'!!%!&'!!!!!!!!%(%!!%!!!!!!!!!'!%!!!!!!!&!!!%!%!!!!!!",
  "''!!'!%!!&%%&((%!!!!!(!!&!%!&%!%!%!'!!!''%!&!!!!'!!!%'%!!!!!!!!!%%%%!!!!!!!!%!!!!!!!!!!!&!''%!'!!!!!",
  "!!!!!%!!!!&(%(&%%!!!!&!!%(%&!!!%'!%!!!!%!!!%!!%!%!!!&!%!!!!!!!%!!!%%!%!!!!!'!!!!!!!!!!&!!%(%%!!!!%!!",
  "%!!%!(!!!!&'&(%%&!!!!&!!!&%%'!!(!%%!!!!%!!%%!%%!%!!!%%&%!'!!!!'!!!!%!%!!!!'!!!!!!%!!'%%!!'%%!%!%!!!!",
  "&!!!!%!%''%%(%%%&!!!!%!%!!&%(!!%%%!!!!!!!%!!!!'%!!%!!'%%!!''!!'!!!!%!%!!!!'!!!!!!!!!!!!!!!%%!!!!'!!!",
  "%!!!&%!!(!%%%%(%%!!!!%&%!!%&%%!%!!'!!!!!!!!!%%'%!!'%((%&%!!'!!!!!!!!!!!!!'!!!!!!!!!!!!!!!!%%!!!%!!'!",
  "%!!!&!'!(%!!%%%'!!'!!&(%!!!&%&!!'%!'!!!!!!%%%'!'!!%!!!&&%%!!!!!!!!!!!!!!!%!!!!!'!!!!!!!'!%%%%!!'%!&!",
  "'!!&!!%%!&!!!%%!!!!!'&%!!!!!&%(!!%!!!!!!!%&%%!!'!!%!!!!&&%%!!!!!!%'!!!!!'!!!!!!!!!!!!!!!!!'%!%!!%!%!",
  "%'!&!%%&!!&!%%%!!!!'&&!!!!!!&&%!!%!!!!!!!'%'!!!&&!%!&!!!&&(%!%'!!'''!!!'%%!!!!!'!!!!!!!!!!%'%&!%!!%!",
  "!'!&!%%&%!%!!'!!!!'&&!!!(!!%!&%!!&!!!!!!%'!!!!&'%!%!&&!!!&&&'!!'!!'!!!!!!%!!!!!'&!!!!!!%!!!!!&!!!!%%",
  "%%!%!%(%%!%&!!'!!'&&!!!!%!!!!%%!!!!!!!!!'%!!!%&!!''!!$&!!!&&&!!!#!%!!!!!!!%!%!!!!&&!!!!%!%!'!!!&!!%!",
  "&%!!!%%(!!!&%!!!!&&!!!!!%!!!'!!!!!'!!!!!'!!!!&'!%!!!!&#!!!&&&'#!!%!''%!!!!%!'!!!!!%!!!!!%(!!!!!&''!!",
  "&%!!%!%%%%!!&!!%'%!!!!!!%!!!!'!!!!'!!!!!!!!!&!!!!!!!!!'&!!&!%&%'%%!#''%!!!%!%#!!!!!#!!!!(!!!!!%!!!!!",
  "%%'!%%(''%%!%&!!!!!!!!'%!!!!!!!!!!!!&!!!!!!%&!!!!!!'!!!%&!!!!&&%&!!''''!!!%!!%'!!!!!'%!%%!!'&!!!!!!!",
  "!!'!'&((''&!!&%!!!!!!%%!!!!!!!!!!!!&%!!!!!!!!!!!!!'%!!!!'!!!!!&&'&!!''!!!!%!!!&'!!!!!'%&%%!!&&%!'!!!",
  "'!!!%&%%'%%!!!&!!!!!%%!!!%!!!!!#!!!'!!!!!'!!!!!!!!!%!!!!!%#%!!!&'(&!!''!!!!!!!!&&!!!!!&&%%!!!%&%!!!%",
  "%!!!!!!%!!%'!!(%!!!%%!!!!%!!!%'!%&!!!!!%'!!!!!!!!!%!!!!!!%!&!!'!%%&&!!''!!!%!!!!&''%%%&!%%!!!!!'!!%!",
  "!!!!!!!%!!'%'!!&!!!%!!!!!!!!!'!%%&!!!!!%!!!!!!!!!!%!!!!!!%!'&!'!!!!&&%!!!!!%!!!!!&%!!(%!''!!!!!!!!!!",
  "%!!!!'!%!''%'!!%%!!%!!!!!%!!!!%&&!!!!!!!!!!!!!!!!!'!!!!!!&!!''%!!!!!&&%!%!!%!!!'!!%'%%!!!%!!!!!!!!!!",
  "%!!!!!!%!(!!%'!!%!%!!!!!!%!!!!&'!!!!!&!!!!!!!'!!%!%!!!!!!!!!!%&!!!!''&&%!!!%!!!%'!%%%!!%!%%!!!!!!!!!",
  "!%!!!!!%#%!!!'!!!%!!!!!!!!!!!&&!!!!!%%!!!!!%&!!!!%'!!!'&&!!!!!'&%!!!!!&&%!!%!!!!!&!!%'!!!!%'!!!!!!!!",
  "'%!!!!'!!!!!!%'!!&!!!!!!!!!!&'!!!!!#!!!!!!&&'!'!!!!!'!'&%&#!!!!'&%!!!!!&&!!%!!!!!!!!!&%!!!!!!!%!!!!!",
  "!'!!!%&!!!!'%''!!!%!!!!!!!!&'!!!!!&&!!!!!'&!!!!!!!%%'!%'%%&'!'!!!&%!!!!!%&!!!!!!!!!!!!&!!!!!!%&!!!!!",
  "!!!!'&!!%!%%'%!!!!!!!!!!!!%&!!!!!&!!!!!!!!!!%!!!!!&%!!'!!%%!!%!!!!&(!!!!!'%!!!!!!!!!'!!!!!!!!!&%!!!!",
  "!!!&#'!%&&&%&!!'!!!!!!!!!!&!!!!!'!!!!!!'!!!!!&!'!!&%!!!!%''!!!%!!!!&&!!!!!&!%!!!!!!!'!!!!!'!!!!&%!%!",
  "'!!$%!!!(&&!!''!!!!!%!!!!!&!!!!&&!!!!!!!!'!!!&!!!!%%!%!!&&%!%'!!!!!'&&!!!!&!!!!!%!!!!!!!!!'%!!!%&!!%",
  "%!&&!!!'&&'!!''!!'!!!%!!!!!!!'&!!!!!!%!!!!!&!!!!%%''!&!!'&%!!&%%!!!!'&&!!!&!!!!&%!!&!!!!!!%'!!!!#'%!",
  "%!&!!!'%&%!!!!!'!!!!!&%%!!!!!%'!!!!!!!!!!'%&!%!!%!%'!&!!!%(%!&%%%!!!!'&&!!!!!!%&'!!!!!!!!!!#%#!!!&&!",
  "'!'!!%%%%!'!'!!!'!!!!!'!!!!!!!!!!!!!!!!!!!!%!!%!%!!!!#!!%&%%%%%(%!!!!!'&(!!!!!&%%!!!!!!!!!!%&%#!!'!!",
  "%!!!''!%!!!!!!!!!!!!!!!%!!!!!'!!!!!!!%!!!!!!!%%!&!%!!!&!'%!!!%&%%'!!'!!&(%!!!&%&!!!!!!!!!!!!&%%'!'!!",
  "'%%!%'!!''!!'!!!!!!!!!!'!!!!!!!!!!!!!!!!!%!!!%!!'!%!!!&!!!'%%%%%(%%!!!!%&%!!%(%%!%!!!!!!!!!!!%&&&&!!",
  "%!%%(%!!''!!'!!!!%!%!!!!'!!!!!!!!!!!!!!!%&!!!!'!!!&!!!!%!!!%&(%%%(&!!!!%!%!!&%&!!%%%!!!!!!!!!!&'%&!!",
  "!!((%%!'!!!!'!!!!%!%!!!!'!!!!!!!!!!%%!!!!!!!!%!!!!%!!%!&!!!!&'&(%%&!!!!&!!!&%&'!!(!%%!!'!%!!!!%'%&'!",
  "!!%%%!!!!!!!'!!!%%!%!!!!!'!!!!!!!!!!&!!%&!!%!!!%!!!!!!!%!!!!&%%(&'%!!!!&!!%&%&!!!%'!(%!!!!!!!!%%(!!!",
  "!!'%'!!!!!!!!!%%%%!!!!!!!!'!!!!!!!!!!!&!''!!'!!!!!''!!'!%!!(%%&(&%!!!!!(!!&%%!&(!%!%!'(%!%%%%!%%'!!!",
  "!!!%'!!!!!!!!%%!!%!!!!!!!!'!!%!!!!!!!&!!!%!!!!!!!!%!!!!!&!!&&'%(%'&!!!!'!((%'!&&!%!%!'%((%%%%%!%'!!!",
  "!!!&%!!!'!!%(%!!!!!%!!!!!!!#!!!!!!!!!&!!'!!!!!!!!!!!!!!!!%!!%!(('%%!!!!!%('%!!!&!%!!%!!'((!!(%%%!!%!",
  "%!%&''%!!%%(!!!!!!!!!!!!!!!!'%!!!!!%!!!'!!!%'!!!'!%!!!!!!&!!!%&%('%!!!!%&(%!!!!&!%(!!!!!!(%%!%(%%!!!",
  "%!&%'!!!'%(%!!!!!!!!!!!!!!!!!!&!!!!!!!'!!!!(!!!'!!&!!!!'!!!!!&!&!%%(!!%(%%'!%!!%!&!!%%!!!%'%((%%%%%!",
  "%!%!%!%%%!!%!!%!!!!!!!!!!!!!!!!&%!!!!&!!!!!&!!!%!!%!!!!'!!!!!%%('%(%&&(%%&!!'!!!!%!%%&(%!%(%(((%'%%%",
  "!!!!(%'!!%%(!&%!!!!!!!!!!!!!!!!!&%!!!%%!&!!'!!!'!!!!!!!!!!!!'!(!!&(((%%%'!!%!!%!!%!%%(&&&%&%!!(&(!%%",
  "!!%%%!!!!!!%!!%!!!!!!!!!!!!!!!!(&&!!!!&!'!&!!!!%!!%!!!%!!'!!!!%!%((&&%%(!!!%!!!!!%!%!%&%%%&!&!!%(&%%",
  "(&%!!!%&!!!&!!%!!!!!!!!!!!!!%%%%&%%&!!!!!%!!!!!%!!%!!!!!'!%!!!%!%&%!(%%%(%!!!!!!%'!%!%&&'%(!(((%!'((",
  "%%!!%%!!!!!!!!&!!!!!!!!!!%%%%%%!!%!%'!!!!!!!!!%'!!%!!!!!!%%!!!!!%&!!%'(&(&&&!!!!%!!%!&&'!(%!!!%!!!!!",
  "!!!%%!%%((!%!!%!!!!!!%%!!!%!!!'%!%!!!!!!%!!&!!!!!!%!!!!!!'!&!!!!%&!!!%!%'(&(&(%!%!!'!&&!!(%!'(&!!!!!",
  "!%!%!!%(%(%%!!%%!!!!!%&!!%!!!!!!!!!!%!!!!'!'!!%!!!!!!!!!!!!'%!!!!'!!!%'%&%'!%&&%(%!!!&(!!%!!''!!'&%%",
  "!!!!(%!%%%%%%!!!!%%!!!!'!!!!!!!!!!!'!!'!!&!!!!''!!!!!!!!!!!!'!!!!!!!!!!!!!!!''%%%%%%%(%!'%'(%!!!!!&!",
  "!!%!%(!!((%!!!!%(&(!!'!!!!!!!!!!!!!!!%!!!!!!!!!%!!%!!!!!!!&%%!!%%!!!!!!!!!!!!!!!%%%%((('!%&%!!'!!!%!",
  "!!!!'%%!!!!!!((%!!!!!!!!!!!!!!&!!!!!!!!!!!!!!'!!!!!!!!!!!&!&'!!!'!!!!!!!!!&!%!!'!!''%'%('%!!!!%&!%&!",
  "%!%!'%%!!%((&!!!!!!!!!%!!!!!!!!!!!!!!!!!!!!!%'!!!!!!!!!!!%!!'!'!!%!!!!!!!%!!&!!&!!!%%%&(('!&'%!%!%(%",
  "%!&'!!%%%!!!!!!!%!!!%!'!!!!%%!!!!!!!!!!!!'!!'!'!!!!!!!!#!!!!'!'!!!%!!%!!!%!!'!%%!%!%((%&!!&&('%!%'!!",
  "!!%!%!!!!!!!!!!!!!!!!!!!!!!!%%%%!!!!!!!!!!!!!!!!!!!!!!!'!!!!''!!!!!%!!!!!!!&!!&!!%!%&(%%!%&%!(!!!!'!",
  "!!(!%!!!!!%!!!!!!'!!!!!!!!!!%%&&!!!!!!!!!!!'!%&%!!!!!!'!!!!!!!!!!!%!!!!&&!%!!%!!%'!%(('!&&'!!%!!'!%!",
  "!!%%(%!%%%'%!%%!!!!!!!!!!!!!%%%!!!!!!!!!!!'!!%&&!!!!!!'!!'!!%!!!!%%%!!!!!!!!!!!!%'!(%'!&('!'%%!(%!%!",
  "('!!%%!!'(%!%!%!!%!!!!!!!!!!!!!!!!!!!!!!!%!!'(&%!!!!!!&!!'!!%%!!&%%'&%!!!!%%!!!%'!!&%!&%'!'(!!!!!%!!",
  "&!!!!!!!%%%%(%%%!!%!!!!!!%'!!!!!!&!!!!!!'!!!%!&&!!%!!!&'!!!!!!!!!(&%%!!%!'!!!!!&'!%&%%(('%%!!!!%!!!!",
  "%'&!!(!!&%'%%%%(!!(!!!!!!!!!!!!%!'!!!!&&!!!&(!%&!!%!!!%''!!!!!!'!!!!!!%!%'!!!!&%!!%(!%(%%%!!!!!!%%%%",
  "'%(%%&!%!!%%%%!%%!%!!!!!!!!!!%%'&!!!!!!!!!!%&%!&!!!!!!%!'!!!!!!!!%!!!%!!!!!'!%(!!%(%!(%%!%!%!!'%'!%(",
  "%%''!%%!!!!!(%%!%!!!!!!!!!!!!!!!!%%%!!!!!!%%%'%&!!!!!%%!!!!%!!!!%&%%!%!&!!!!!&'!%%(''(!!&!!!!!%!'!!&",
  "%%'%'%%!!%!!!%%%(!!&%!!!!!!!!!!!!'!&&%&&!!!''%%%!!!!!%'!!!!!%%%%%'!!!!!!!!%!&%'!%(('%!!!'!!%!!%!!!!'",
  "%''''!%!%!%!!!%%(%!'(%!!!!!!!!!!!!!!!'!!!!!!'!%%!!!!!''!!!!!!!!!!!!!!!!!!&!(('!%(%%%!!!'!!%!!%%!!!!'",
  "(('''!(!!%!!!!!!'%(%!%%!!!!!!!!!!!!!!!!!!!!!'%%%!!!!!&'!!!!!!!!!!!!!!'!!'!%&!'%&!!%!!'&!!&'!!%%!%'%%",
  "(%%'%!%!!!!!%!!!!!%(!!(!!!!!!!!!!!!!!!!!!!!!%%(&%!!!%&''!!!!!!!!!!!!!!!&!%%'!'(%!(%!%&!%%!!!!%%'!%%!",
  "%''%'!%!!!!!!&!!!!!!%!!&!!!!!!!!!!!!!!!!!!!!&%%%!!!!%'&!!!!!!!!!!!!!!!'!%%!!'%%'%%!!'%!!!!!!!(%!!'%!",
  "('!!!!!%!%!!!!!!'!'!!%!%(!!!!!!!!!!!!!!!!!!!!!!''$%'!!!('!!!!!!!!!!!!%!!%!!!%(!%%!''!!!!!!!!%%!!!%'%",
  "%!!!!!%%!!!!!!%!!!!'!%%!(!!!!!!!!!!!!!!!!!!%!!!!&!%!'!!!'!!!!!!!!!!!%!!!'!!%(!%%!'!!!%!!!!!!!%!!!%!!",
  "%'!!!!!'!!!%!!!(!!!!!!(!!&!!!'!!!!!!!!!!!!!&!!!!!!!!%!!!%!!!!!!!!!&!!!!!!!!%!!%!!!!!!!!!!!!!!%!!!''!",
  "(!!''!%%!!!!!!!!&'%!!!!(!!%!!!'!!!!!!!!!!!!&!!!!!!&!!!!!!%!!!!!!!!!!!'!!!!%%!%!!!!!!!!!!!!!!!&!!!%!%",
  "(!!!!!%%!!!!!!!!!!!!!'!!(!%%!!!!!!!!!!!!!!!&!!!!!!&!!''!!!!!!!!!!!&'%!!!!%%!%!!!'!!!!!!!!!!!!&!!!!%%",
  "%%%!!!%!!!!!!!!!(!!!!!!!!%!%!!!!!!!!!!!!!!!%!!!!!!%'!!!!!%!!!%!!!&!!'!!!'%!%!!!'!!!!!!!!!!!!!&!!!!%%",
  "%''!!!'!!!!!!!!!!!'!!!'!!%!!(!!'!!!%!!!!!!!%!!!'!!%!!!!!!!!!!!!!%!!!!'!'%!%!!!!!!!!!!!!!!!!!!%!!!'(%",
  "%'!!!('!!!!!!!!!!!!%!!%!!!%!!&!!!'!!!!!!!!!(!!!%!'(!!!!!!!!!!!!!!!'!%!!%!%(!!!!!!!!!!!!!!!!!!!!!!%%(",
  "!!%'&!!!!!!!!!!!!!!!'!%%!!!%!&!!!!'%!!!!!!!%!!!'!!'''%'!!!!!!!!&!!!!!!%!!&!!!!!!!!!!!!!!!!!!!!&%%%%!",
  "!!%&''!!!!!!!!!!!!!!!&!%''!!(!%&!!&&!%%!!!!%!!!%'!('''%!&!!!!!%!!!!!%!!!(!!!!!!!!!!!!!!!!!!!!!%%(&%!",
  "!!!&'!!!!!!!!!!!!!!%!!'!%(!!%('!!!!'$!!&'!!%!!%'''(&'''!(!!&!!!!!!%(%!!%%!!!!!!!!!!!!!!!!!!!!!'%%%!!",
  "!!!'!!!!!!!!!!!!!!!!!!!&!(%!!%%'%%!!!'!!%!!!%!!!!!%''''!%!!!%!!!%%(!!&(%!!!!!!!!!!!!!!!!!!!!!!'%%%!!",
  "!!!%'!!!!!%%%%%'!!!!!!!!%!&'!!%&%#%!!!'!!%!!%!!!!!%%'%'%!!!%!!!%%%&!!&%!!!!!!!!!!!!'!&&%&&!!!''%%%!!",
  "!!!%%!!!!%!!!!%(%%!%!%!!!!%&'!!%'!'%!!&!!!!!%!'!!&%%''!%%!!!!%%%!!(!!!!!!!!!!!!!!!!%%%!!!!!!%%%%%(%!",
  "%!!!%!''!!!!!!!%!!!%!!!!!'!%(!!!!''''%!%!%!!!%'!%('%('%&!!!!%%%!!%%!'!!!!!!!!!!(%'&!!!!!!!!!!%&%!(%!",
  "%!!!%''!!!!!!!!!!!!!%!%!!!!!&%'!!!!#''%%!!!!!!%%!%%'&!!&!!&(!!!!!&!!(!!!!!!!!!!!!%!%'!!!&&!!!&(!%(!!",
  "%!!!&'!!!!!!!!!(&%%!!%!'!!!!!&'!%%'(&'!%%!!!!!!!!!&!!!!%!!%%%!!!!%!!%!!!!!!%%!!%!!!&'!!!!!'!!!%%(%'!",
  "!!!!&!!'!!%%!!&%%'&'!!!!%%!!!%'!!('!&%'!'(!!!%!%!!&'!!(%!!'(%!!!%!!%!!!!!!!!!!!%!!!!!!!!!!!%!!%%(%!!",
  "!!!!'!'%!!%!!!!%%%!!!!!!!!!!!!%'!%%%!&('!!%%!(%!%!!!%'%%!%%%%!!!%!!!!!!!!!!!!!%'%!!!!!!!!!!!%!%%&&!!",
  "!!!%%'%!!!!!!!!!%!!!!%(!%!!%!!%'!(('%!&&'!!%!!%!%!!!&!%'!!!%%'!!!!!'!!!!!!!!!!%%&&!!!!!!!!!!!%!%&%!!",
  "!!!!%%!!!!''!!!!!%!!!!!!!&!!&!!%!%&%'%!%$%!&%!%!'!!!%!%!%('!!!!%!!!!!!!!!!!!!!%(%%!!!!!!!!!!!!%'!!!!",
  "!!!!!(!%!!%''!!!%!!!!!!%!!!!%%!%!!&%'%!!&&(%%!%'!!%!&'!!%%%%'!!!!!%!!!%!%!!!!%%!!!!!!!!!!!!'!!%!'!!!",
  "!!!!!!!%!'%!'!!%!!!!!!!%!!&!!&!!!!'!'%('!&'%%%!%(%%!%!%%%!!!&((%!!!!!!%!%!!!!%!!!!!!!!!!!!!!'!%%!!!!",
  "!!!!!!!&!(%!%!'!!!!!!!!!%!%!!'!!''!%((%%!!!!%&!%&!!!!!'%%!!(%%%%%%%!!!!!!!!!!!!!&!!!!!!!!!!!!!!%!!!!",
  "%!!!!!!!&%%%!%%!!!!!!!!!!!!!!!&&&&&&&%!%&!!!'!!!%!!!!!%('!(((%%%%%%(%!!'!!!!!!!!!!!!!!!%!!!!!%%!!%!!",
  "!!!!!!!!!%%%!!!'!!!!!!!!!!'''%%&&%%(%!'''&%!!!!!(!!!%!&%!%%%(%(%%!!%'!!!''!!!!!!!!!!!%!!'!!&%%%%''!!",
  "!!!!!!!!!%%!!!!%!!!%''&%!!%&&%(!!!!&&!!!!!''!!!%%%!!!%!!%%%((%(%%%!!!!!%&!!%'%%%!!!!!%'!!!!%%%%!%!!!",
  "%!!!!!!'!&!!%%%&!!!%!%'(%%&&%!%!!'!&&!!%'''((%%%!!!!!%%%%!%(%((%(%!!!!!!%!!!%'!%%%%%!!!!!!%%%(!!!!!!",
  "%!!!!!!%%!!!!!%&!%%'(((((%!!!!%!!%!(&!!%%!!%%%%!!!%%!!%%!!!!!!!!!!!!!!!!!!!%%%%%%!'%%%'!!!!'!!%!%'!!",
};
