/* XPM */
static char *background_10[] = {
  /* width height ncolors chars_per_pixel */
  "128 128 11 1 0 0",
  /* colors */
  "! c #000000",
  "# c #800000",
  "$ c #663300",
  "% c #666666",
  "& c #330000",
  "' c #666600",
  "( c #333366",
  ") c #550000",
  "* c #555555",
  "+ c #663366",
  ", c #333300",
  /* pixels */
  "#)),$$##)&&&#))######))))&,,,+##)))##$$$$$$$$$$$$$$$$$$$$############$$''$#+!!!!&&!!!!!!!!!!!&)))###$$$$$$$$$$$$$$##########)))#",
  "###$$$#))&!&#)))#))#))))))),,,$##))###$$$$$$$$$$$$$$$$$$#$$$$$$$#####$#$'$#$!!!!&&!!!!!!!!!!!&))###$$$$$$$'''''''$##########)))#",
  "#)$,$$#$$&!,#)))))))))))))))!!&##)))##$$$$$$$$$$$$$$$###)###############$#+,!!!!&&!!!!!!!!!!!&)####$$$$$$$'''$$''$$$############",
  ")&)&&&!!&!!$#))))))))))))))),!!)#)))##$$$$$$$$$#####)))))))))))))#########*!!!!!&&!!!!!!!!!!!,###$#$$$$$$$$$$$$$$$'$########)###",
  "#)&&&$$+*!!$#)#)))))))))##)##&&&)#))###$$$$#$##))))))))))))))))))########+,!!!!!&&!!!!!!!!!!!,#####$$$$$$$$$#$$$$'$########''$##",
  "##)$$##$$!&$))#))))))))#####)))&,######$$####)))))))))))))))))))))######+,!!!!!!&&&!!!!!!!!!!$####$$$$#######$$$$$####$,$$$$,$##",
  "##$####)&!,#)#####)))#######)))&&$##########)))))))))))))))))))))))#####,!!!!!!!&&&&!!!!!!!!!&$##################$$,,,$$$$,,$)#)",
  "#)$###$&!,$#######)######$$##)))&,$)######))))))))))))))))))))))))))###+!!!!!!!!!)!&!!!!!!!!!!$$###))#########$&&,$$$##$,,&$)###",
  ")&&,$$,,,+###############$$$#)))&&!!&&$$))))))))))))))))))))))))))####+,!!!!!!!&&!&&&!!!!!!!!!,,$))))))####$&!&,$$####)&&&$)##))",
  ")&!!!,(++################$$$#)))&&&&&&!!&)))))))))))))))))))))##)))$$$,!!!!!!!!!&!!&&&!!!!!!!!!,&&)))))))#)&($)######))&,$)###))",
  ")&!!,,$+################$$$$#)))&&&&&!&&!!!!!!!!!!&&$))))))))))&!!!&!!!!!!!!!!!!!&!!&!&!!!!!!!!!!&&)))))&&+$$#######))$$$$####))",
  "#$$$)###################$$$$#))&&&&&!!!&&&!&&&!!!!!!!!&&&&&!!!!!!!&&!!!!!!!!!!!!!&!!&!&&!!!!!!!!!!!&&&&&&)#########)&&$$$''#####",
  "########################$$$$#)&&&&&&!!!!!&&))&&!!!!!!!!!!!!!!!!!!!&)&!!!!!!!!!!!!&&!&!!!!!!!!!!!!!!!!!,$)########)&&,$$$'''$####",
  "########################$$$$#))&&&&&!!!!!!&&)))&&!!!!!!!!!!!!!!!!!!&&&!!!!!!!!!!!&&!&!!!!!!!!!!!!!!!&$)#########))&&$$$$$''$####",
  "#########################$##))))&&&!!!!!!!!&&))&&&!!!!!!!!!!!!!!!!!&&&&!!!!!!!!!!&&!&!!!!!!!!!!!!&&&)########)#)&&&##$$$$''$####",
  "############################)))&&&&&!!!!!!!!&&))&&&&!!!!!!!!!!!!!!!&&&&&&!!!!!!!!&&!&!!!!&!!!!!&&&)#)))#######)&!&###$$#$''$####",
  "##########################)))))&&&&!!!!!!!!!&&&)))))&!!!!!!!!!!!!!!&!)&&&!!!!!!!!&!!!!!!!!!!&&&&))))))#####)#)&!&)###$$$$'''####",
  "##############))))))))))))))))&&&&&!!!!!!!!!!&&&))&)&&!!!!!!!!!!!!!&!)!&!&!!!!!!&&!!!&&&&&&&&))#))))########)&!&)#####$$$''$####",
  "############))))))))))))))))&&&&&&!!!!!!!!!!!!&&)))&)&&&!!!!!!!!!!!&!&!&!!!!!!!!&&!&&&&&&&$)))))))########))&!!)))####$$$$$$$###",
  "#######))))))))))))))))&&&&&&&&&&!!!!!!!!!!!!!!&)))&&&!!&&&!!!!!!!!&&&!&&!!!!!&!!&&&&&))))#))))))#######))&&!!&))))###$$$$$$$###",
  "######))))))))))))&&&&&&&&&&&&&!!!!!!!!!!!!!!!!&)&&)&&!!!!&&!!!!!!&!&&&&!&!!!&&&&&&&))))))))))))########)&&!!!&))))###$$$$$$$###",
  "###))))))))))))&&&&&&&&&&&&&&&!!!!!!!!!!!!!!!!!&)&&!)&&!!!!!!!!!!&&!!!&&!!&&&&&)))##))))))#))))########))&&!!!&))))###$$$$$$####",
  "#))))))))))&&&&&&&&&&&&&&&&!!!!!!!!!!!!!!!!!!!!&))&&!!&!!!!&&!!!!!!!!!&&&&&&&))###))))))))#)))#########)&&!!!!!&)))###$$$$$#####",
  "))))))))&&&&&&&&&&&&&&&&!!!!!!!!!!!!!!!!!!!!!!!&&)&&&&&&!!!&!!!!!!!!&&&&&&))####)))))))))#))))########)&&&!!!!!&))))##$$$$###)))",
  "))))))&&&&&&&&!!!!&&!!!!!!!!!!!!!!!!!!!!!!!!!!!&))&&&&&&&!!!!!!!!!&&&&&)))#####)))))))###))))########))&&&!!&!!!,)))##$$$##)))))",
  ")))&&&&&&&&!!!!!!!!&!&!!!!!!!!!!!!!!!!!!!!!!!!!&))&&&!&&&!!!!!!!&&&&&)))###))))))######)))##########))&&&!!!&!!!!&)#######))))))",
  "&!!!!&&!!!!!!!!!!!!!&&&!!!!!!!!!!!!!!!!!!!!!!!&&)&&!&!&!&!!!!!&&&&)))))))))))))##)))))))))##########))&&&!!!&&!!!!&)####))))))))",
  "!!!!!!!!!!!!!!!!!!!!!!&&!!!!!!!!!!!!!!!!!!!!!!!&)&&!&!&!&!!!!&&&)))))))))))))##))))))##))##########))&)&&!!!!&!!!!!!)##)))))))&&",
  "!!!!!!!!!!!!!!!!!!!!!!!&&&!!!!!!!!!!!!!!!!!!!!!&)&!!&!&!!!!&&&))))))))))))##))))##################)))&)&&!!!!&&&!!!!!&)))))&&!!!",
  "!!!!!!!!!&!!&!!!!!!!!!!&&!&&&!!!!!!!!!!!!!!!!!!&&&!!!!!!&&&&)))))))#######))))))###################))&&&&!!!!!&)!!!!!!!!!!!&&!!!",
  "!!!!!!!!!!!!!&!&!!!!&!!!&!!!&&&!!!!!!!!!!!!!!!&&&&!&!&&&&))))))))))))))))))))))###########$#######))))&&!!!!!!&&&!!!!!!!!!&)&!!!",
  "!!!!!!!!!!!!!&&&&&!!!&!!!&!!!&&&&!!!!!!!!!!!!!&&&!!&&&))))))))))))))))))))))##############$#######)))&)&!!!!&!&&)!!!!!!!!!&&&&&!",
  "!!!!!!!!!!!!!!&&&&&!!&&!!!&&!!!&!&&&!!!!!!!!!&&&&&&&)$###))))))))))))))))#################$#######))&&&!!!!!!&!&)!!!!!!!!!&!&!&&",
  "&!!!!!!!!!!!&!!&&&&!!!!&!!!&&!!!&!!!&&&!!!!&&&&&&&))))#)))))))))))))))##################$$########))&&&!!!!!!!!&&!!!!&!!!!!!!&!&",
  "&&!!!!!!!!!!!!!!&&&!!!&!&!!!!&!!!!!!!!!!!!!!&&&)))))))))))##)))########################$$$########)))&!!!!!!!!!&&&&&!!&!!!!!!&!!",
  "!!!!!!!!!!!!!&!!&&&!!!!!!&!!!!&&!!!!!!!!!!!&))))))))))))####))))######################$$$#########)&)!!!!!!!!!!&&)&)!!!&!!!!!&!!",
  "!!!!!!!!!!!!!!&!!&!!!!!!!!&&!!!!!!!!!!!!!&)))))))))))#####)))))#######################$$$########))&&!!!!!!!!&!!&&&&&&!!&&!!!&&!",
  "!!!!!!!!!!!!!!!!&&&!!!&!!!!&&!!!!!!!!!!&)#)))))))))####))))))########################$$$$#######))&&&!!!!!!!!&!!)&&&&)&!!!&!!&&!",
  "!!!!!!!!!!!!!!!!!&&!!!!!!!!!!!!!!&!!!&)##)))))))))##)))))))##########################$$$########)&&&!!!!!!!!!!!!))&&&))&&&&&!&&!",
  "!!!!!!!!!!!!!!!!!&&!!!!!!!!!!!!!!!!&)))))))))#)))))))))))###########################$$$$#######))&)&!!!!!!!!!!&!&&&&&&)!&&&&!!!!",
  "!&&&&&&&!!!!!!!!!&&!!!!!!!!!!!!!!&)))))))))))))))))))))############################$$$#########)&&&!!!!!!!!!!!&&&&&!&&&&!!!!!!!!",
  "$))))))&&&&&!!!!!!&!!!!!!!!!!!&&))))))))###)))))))#########)&)###########)########$$$##########)&&!!!!!!!!!!!!&)&&&&&&!&!!!!!!,$",
  "))))))&&&&)&&!!!!!!!!!!!!!!!&))))))))))###)))))###########)!!)#########)&&)######$$$##########))&&!!!!&!!!!!!!&&!)&!&&!&!!!!++))",
  ")))&&&&!!&&&!!!!!!!!!!!!!!&))#)))))))))))))))##########)&&,!!)########)&!!&#####$$$$#########))&&!!!!!&!!!!&&&&&!&&!&&&&&,+##)))",
  "))&!!!!!!!!!!!!!!,,,,,,,,$$$##))))))))))##############)!!!(,,$#######)!!!&)#####$$$##########)&&&!!!!!&&!!!&&&&&&&!!&&!$#####)))",
  "&!!!!!!!!!!!&,,$$$$$$####$''$#)))))))))#############)&!!!&$&&)######)&!&&)######$$###########)&&!!!!!!!&!!!&&&)&&&!&&,$####)))))",
  "!!!!!!!!!!&$###$$''''$$$$$'$$####))))))))##########)&!!!&))!&)#####)&&!)#########$##########))&&!!!!!!&&!!!&&&)!&&!&,+##))))#))&",
  "!!!!!!!!!&##$$'''''''''$''$####$#################)&&!!&)##)!&)#####&!&)#####),&&))##########))&!!!!!!!&!!!!&&&&&&!&)###)))))&!!!",
  "!!!!!!!!,###$$#$$$$$$###$$$###$$$###############)&!!!)####)!&)##))))&)####)&&!!!!&)#########)&&!!!!!!!!!&!!&&&!&&)#####)))&!!!!!",
  "!!!!!!,$######################$################)&!!!&#####)&$##)&!)######)&!!!&&&!!&)######))&!!!!!!!!!!&!!&&&,,####$$##)&!!!!!!",
  "!!!!!,$#####################################)))&!&&)######)&$##&!&)####)&!!!,)$))&!!&)#####)&&!!!!!!!!!!!!!&!!,+###$'$#)!!!!!!!!",
  "!!!,,)######################################)!!&))########)&*+))&)#####&!!!)##$##)&!!)#####)&!!!!!!!!!!!!!!&!!$####$$##&!!!!!!!!",
  "!!,,######))################################&!&)##########)&,(&&$#####)!!!$##$$###$!!)####)&&!!!!!!!!&!!!!!&!!#####$$#$!!!!!!!!!",
  "!,+$####)))))###)))#########################)))###########)!,+,$######&!!$##$$####$&!)####)&&!!!!!!!!!!!!&!&!!####$''$#&!!!!!!!!",
  ",++###))))#))))))))##############)########################&&,*#######)!!&##$$#####$!!)####)&!!!!!!!!!!&!!!!&!&####$''$#)!!!!!!!!",
  "$$$####)####))))))))#######)####)))#######################))+########&!&$#$$#####+&!&)###)&&!!!!!!!!!!&!!!!!!&####$$$$##&!!!!!&,",
  "##+##########))))))))))))))))))))))########$$$$######################)&$##$#####+,!!)###)),&!!!!!!!!!!!&!!!!!&#####$$$#$$#$$$++#",
  "##################)))))))))))))))#########$%'''$$####################&!$#######$,&&&)##))&&&!!!!!!!!!!!&!!!!!&######$$#$$##$####",
  "######################))))))))#######$$$$$$''''$####################)&!$######)&&!&)###))&&!!!!!!!!!!!!&&!!!!&#########$$#######",
  "####################################$$$$$$$$'''$#####################&&+####))!&)&)###)))&!!!!!!!!!!!!!&!!!!!&##################",
  "###++($#####################$$$$$$$##$$$$$$$$$$#####################)&!,))))&!!&)####))))&!!!!!!!!!!!!!!!!!!!&##################",
  "#$,,,,,$$#################$$$$$$$########$$$$$#######################&&!!!!&!&&)####))))&&!!!!!!!!!!!!!&!&!!!&##################",
  "$,!!!!!!,,$##############################$$$$########################))&&!&&)))####)))))&&!!!!!!!!!!!!!!!!!!!)##################",
  "&!!!!!!!!!$$##############################$$$############################))########))))&&!!!!!!!!!!!!!!!!!!!&#########))#######)",
  "!!!!!!!!!!!&&$############################$$$########$############################))))&&!!!!!!!!!!!!!!!!!!!!$########))#######)!",
  "!!!!!!!!!!!!!!&,$##############))&&&)#####$$$#######$$$$$''$#####################))))&&&!!!!!!!!!!!!!!!!!!&,#####))#)))######)&!",
  "!!!!!!!!!!!!!!!!!!!&&&&&&&&&&&&&!!!!)####$$$#######$$$$'%%%'$####################)))&&&&!!!!!!!!!!!!!!!!!!&&#####)))))#######&!!",
  "!!!!!!!!!!!!!!!!!!!!!!!!!!!!!!!!!!!!)####$#######$$$$$$''''%$###################))))&&&!!!!!!!!!!!!!!!!!!!!&##))))))))######)!!!",
  "!!!!!!!!!!!!!!!&&&&!!!!!!!!!!!!!!!!&############$$$$$$$$$$''$##################))))&&&&!!!!!!!!!!!!!!!!!!!!&##)))))))#######&!!!",
  "!!!!!!!!!!!!!!&)#$$$&&!!!!!!!!!!!!!)###########$$$$$$$$$$'%'##################)))))&&&!!!!!!!!!!!!!!!!!!!!!&+#)))))#)######)!!!!",
  "!!!!!!!!!!!!!!&)#'$#)&&!!!!!!!!!!!&################$$##$$$'$#################))))))&&&!!!!!!!!!!!!!!!!!!!!!!+#)))))########)!!!!",
  "!!!!!!!!!!!!!&))###)&&&!!!!!!!!!!!)#####################$$$$#################)))))&&&!!!!!!!!!!!!!!!!!!!!!!!$#)))))########&&&&&",
  "&!!!!!!!!!!!!&)&))&&&&!!!,!!!!!!!&#)############$#######$$$$################))))))&&&!!!!)!!!!!!!!!!!!!!!!!!,#))))########)&&&&&",
  "&!!!!!!!!!!!!&&)&&&&&!!!!!!!!!!!!&#))##########$$#######$$$$###############)))))))&&&!!!!&!!!!!!!!!!!!!!!!!!&#)))))#######)&&&&&",
  "&&!!!!!!!!!!!!&&&&!!!!!!!!!!!!!!!)#)))#########$$$######$$$$##################))))&&!!!!!&!!!!!!!!!!!!!!!!!!&#))))########)!&&&&",
  "&&&!!!!!!!!!!!!!&!!!!!!!!!!!!!!!&##)))########$$$$######$$$$##################)))&&&!!!!!&!!!!!!!!!!!!!!!!!!&)))))######$#$!&)&&",
  "&&&&&!!!!!!!!!!!!!!!!!!!!!!!!!!!$#)))#########$$$#$$####$$$###################)))&&&!!!!!&&&!!!!!!!!!!!!!!!!&)))))######$$$&&)))",
  ")&&&&&&!!!!!!!!!!!!!!!!!!!!!!!!&)))))########$$$$$&&####$$$#################$$#)&&&!!!!!!!&&!!!!!!!!!!!!!!!!&))))#######$$#)&&))",
  "))&&&&&&!!!!!!!!!!!!!!!!!!!!!!&#))))))#######$$$$!!&####$$$###############$$$$$&&&!!!!!!!!&&&&!!!!!!!!!!!!!!!))#########$$$##)&)",
  "&))))&&&&&&&!!!!!!!!!!!!!!!!!&##)))))))######$$$!!!&####$$$##############$$$$$)&&&!!!!!!!!&&&)!!!!!!!!!!!!!!!))##########$$$###$",
  "#$))))&&&&&&&&!!!!!!!!!!!!!!&)##))))))))#))##$$!!!!&####$$$##############$$$$$&&&!!!!!!!!!&&&&!!!!!!!!!!!!!!!)############$$$$##",
  "$###)&&&&&&&&&&!!!!!!!!!!!!!)#####))))))))##$$!!!!!&####$$$#############$$$$$&&&&!!!!!!!!!&&!&&!!!!!!!!!!!!!!&###############$$$",
  "######)&&)))&!&&&&&&&&&!&!!&########)))))##$,!!!!!!+####$$$############$$$$$)&&&!!!!!!!!&!!&&&!&&!!!!!!!!!!!!&##################",
  "####$###))))&&&&&&&&&&&&&!&#########)))))$$,!!!!!!!+####$$############$$$$$$&&&!!!!!!!!!!&&!&)&&&&!!!!!!!!!!!!$#################",
  "#########))&))&&&&&&&&&&&&##########$)))$$,!!!!!!!!$####$$###########$$$$$#)&)&!!!!!!!!!!!&!&!&&&&&!!!!!!!!!!!&,&)$$)###########",
  "###########$&))))&&&&&&&&)############)$,!!!!!!!!!!$####$$###########$$$$$)&&&&&!!!!!!!!!!!!!&!&&!&&&!!!!!!!!!!!&&&&&&)####)))))",
  "))###########))&&&,&&&))#####)###$###)&!!!!!!!!!!!!$####$$##########$$$$$#)&&&&&!!!!!!!!!!!!!&!&&!&&&!!!!!!!!!&&&&&&&&&)###)))))",
  "))))###########)$$$#########))##$$##&!!!!!!!!!!!!!!$####$$#########$$$$$$))&&&&!!!!!!!!!!!!!!&!&&!&&!!!&!!!!!&&&&&&&&&!!$##)))))",
  "))))))#####$$$$#$$$########))###$##&!!!!!!!!!!!!!!!)###$$$#########$$''$#)&&&&!!!!!!!!!!!!!!!&!!&&&&!!!!!!!&&&&&&&&&&&&&&)##))))",
  ")))))))#####$$'$$'$########))#####&!!!!!!!!!!!!!!!!)###$$$#########$$'$$#)&&&!!!!!!!!!!!!!&!!!!!&&!&!!!!!!&&&&&&&&&&&&)&&&##))))",
  "))))))))######$############)#####&!!!!!!!!!!!!!!!!!)###$$$##########$$$$#)&&&!!!!!!!!!!!!!&!!!!!&&!!!!!!!!&&&&)&&&&&&&))&&##))))",
  ")))))))))#################)##$##&!!!!!!!!!!!!!!!!!&)###$$$##########$$$##)&&!!!!!!!!!!!!!!&!!!!&&&!!!!!!&&&&))))))))))))&&###)))",
  ")#####))##################)##$#$!!!!!!!!!!!!!!!!!!&)###$$$########$$$'$#)&&!!!!!!!!!!!!!!!!&!!&&&&!!!!!&&&&))))))$###)))&)###)))",
  "################))&&!!)##))#$$#&!!!!!!!!!!!!!!!!!!!)###$$$########$$$'$#)&&!!!!!!!!!!!!!!!!!!!&&!&!!!!&&&$$)))$$#$$$#)))))#####)",
  "#############)&!!!!!!!)##)$$$$$!!!!!!!!!!!&&&&!!!!&)###$$$#######$$$$'$)&&!!!!!!!!!!!!!!!!!!!!&&!&!!&&&&$$$$#$$$$$###))))#####)#",
  "##########))&!!!!&&&!!)##)$$$#$!!!!!!!!!!,&)))&!!!&)###$$########$$$$'#)&&!!!!!!!!!!!!!!!!!!&!!&!&!&&&&$#$$$$$$$$####))))#######",
  "#####))))&&!!!!!&))&!!)##$$$$#$!!!!!!!!!!&))$#&!!!&)#$###########$$$$'#)&&!!!!!!!!!!!!!!!!!!!!!&!&&&&&)####$''$$#####)))########",
  "###)&&&!!!!!!!&&)))&!!&)#$$$$#$&&&!!!!!!!&)$$$$!!!&)#$##########$$$$'$#)&&!!!!!!!!!!!!!!!!!!!!!&&&!&&&&$####$$##################",
  ")&&!!!!!!!!!!!&)))&!!!&)#$$$$$$&&&!!!!!!&)&$'$$!!!&)#$##########$$$$$$#)&!!!!!!!!!!!!!!!!!&!!&!&&!!&&&&&)#######################",
  "!!!!!!!!!!!!&&)))&!!!!))$$$$$$$&&&!!!!!!&)&$##&!!!&$$$#######$##$$$$$$))&!!!!!!!!!!!!!!!!!!!!!!&&&!&&&&&&######################)",
  "!&&!!!!!!!!&))$&!!!!!&#)$$$$$$$&&&&!!!!!&))&))&!!!&$$$######$$##$$#$$#)&&!!!!!!&!!!!!!!!!!!&!!!!&&!&&&&&)))####################&",
  "!&&&!!!!!&&))$&!!!!!!)#)$$$$$$$&&&&!!!!!!&&&&&!!!!&)$$$#####$$##$$$$$#)&&!!!!!!&!!!!!!!!!!!!&!!!&&!&&&&))))))#################+,",
  "&&)&,!!!)))))!!!!!!!&#)$$$$$$$$&&&&!!!!!!!!&&!!!!!!)$$$#####$$##$$$$$#)&&!!!!!!!!!!!!!!!!!!!&&!!&&&&&&&))))))##################$",
  "&&))&&&)###)&!!!!!!&)#)$$$$$$$$)&&&!!!!!!!!!!!!!!!!)$$$$####$$$#$$$$$#)&&!!!!&&&!!!!!!!!!!!!!&!!&&&&&&))))))))##################",
  "+&)))&))##)&!!!!!!!&)))##$$$$$))&&&&!!!!!!!!!!!!!!!&#$$$$$###$$$$$$$$#)&!!!!!&&&!!!!!!!!!!!!!&&!&&&&&&))))))))##################",
  "#$))))))),!!!!!!&!,)))#$#$$$$$))&&&&!!!!!!!!!!!!!!!&#$$$$$$$#$$$$$$$$#)&!!!!!&)&!!!!!!!!!!!!!&!&&&&&&))))))))###################",
  "#####)))&!!!!!!!!!,#))#$##$$$$$)&&&&&!!!!!!!!!!!!!!&#$$$$$$$#$$$$$$$$$)&!!!!!&)&!!!!!!!!!!!!!!!!&&&&&))))))))###################",
  "######)&!!!!!!!!!&)))#$###$$$$$)&&&&&&!!!!!!!!!!!!!,$$$$$$$$#$$$$$$$$$)&!!!!!&)&!!!!!!!!!!!!!!!!&&&&&)))))))####################",
  "######)&&&!!!!!,&)####$))#$$$$$))&&&&&!!,,!!!!!!!!!,$$$$$$$$##$$$$$$$$)&!!!!!&)&&!!!!!!!!!!!!!&!&&&&&))))))#####################",
  "######))&&&&!!!&))###$$))#$$$$$))&&&&&&!!!!!!!!!!!!,$$$$$$$$##$$$$$$$$)&!!!!!&))&!!!!!!!!!!!!!&!&&&&&)))))######################",
  "######)&))))&&))))##$$)))$$$$$#)))&&&&&&!!!!!!!!!!!&$$$$$$$$##$$$$$$$$)&!!!!!&))&!!!!!!!!!!&!!&!&&&&&))))#######################",
  "#######)))))))))))##$$)))$$$$$#)))&&&&&&&!!!!!!!!!!&$$$$##$##$$$$$$''$)&!!!!!&))&!!!!!!!!!!!&!&!&&&&)))))###########))&&&&&&&))#",
  ")########))))))))###$$))))##$$#))))&&&&&&&&!!!!!!!!$$$$$#####$$$$$$$'#)&!!!!&))))!!!!!!!!!!!&!&!&&&&))))##########)&&!!!!!!!!!&&",
  "&)#####))))))))))##$$))))))####))&)))&&&&&&&&&&!!!&$$$$#####$$$#$$#$$#)&!!!!&))))!!!!!!!!!!!&!&!&&&&))))########))&!!&,!!,$$)&!!",
  "!&)################$$))))))####$$&)))))&&&&&&&&&!&$$$$######$$##)$#$$#)&!!!&)))))!!!!!!!&!!!&!!&&&&&))))######)&&!!,$)$,!$#)))&!",
  "!!&)##############$$))))))))##$'$)))))))&&&&&&&!!)#$$$####$$$$#))##$$##)!!!))))),!!!!!!!!!!!&!!&&&&))))######)&!!&$#))$&&##$)&$&",
  "!&!)############$$$)))))))))###$$#$)&&&&&&&&&!!!&)#$$$##$$$$$#)))######&!!&$$))),!!!!!!!!!!!&!!&&&&))))####)&&!&,$####$!$#$$$)$!",
  ",$!&)#############)))))))))))##$$##$$)&&&&&&&&&&)#$$$###$$$$#))))######&!&$$$###,!!!!!!!!&!!&!!&&&&)))####)&!&&&&$###$&!$$''$#&!",
  "#)&&&############))))))))))))######$$#$$$)))######$$######$##))#######)!!$$$$##$!!!!!!!!!&!!&!!&&&&))####)&&&&&&&&$#$&!!&$$$$$!$",
  "#)&&!&###########)))))))))))))#######$$$############$$#$$####)########)&$$$$$##$!!!!!!!!!!!!!!&&&&)))####)&&&&&&&&)))&&&&$$#,!,#",
  "##$,!!)##########)))##)))))))))######$$$$$$########$$$$$#####)###########$$$$##,!!!!!!!!!!&!!!&&&&))######)))))#######))))$,!!$#",
  "#$&&&&&)###############)###))))#####$$$$########$$$$$$#####))###########$$$$##$!!!!!!!!!!!!!!&&&&&))#######################$,,$#",
  "&!,$)&!!)##################))))))###$$$#######$$$$$$$$####)))##########$$$$$##$!&!!!!!!!!!!!!&&&&))################))########$$,",
  "!!$$$$,!&)##################))))))##$$$$####$$$$$$$$$####)))#########$$$'$$$#$&!!&!!!!!!!!!!&&&&&))################))####)###))&",
  "$,$'$$,!!&##################))))))###$$$$$$$$$$$$$$$####))))##########$$''$#++!!!&!!!!!!!!!!&&&&)))################))###)))##)))",
  "#$$$$$&!&&&##)###############)))))###$$$$$$$$$$$$$#####))))###########$'''$#+,!!!&!!!!!!!!!&&&&))))#####################)))#####",
  "))&,&!&))&&)#))#########+&)###)))))##$$$$$$$$$$$$$$$$#)))))))#########$''$##+!!!&&&!!!!!!!!&&&&)))##############################",
  "))&&!&$#)&&&#))######))&&,,,$##))))##$$$$$$$$$$$$$$$$################$'''$#+,!!!&&!!!!!!!!!&&&))))####$$######################)#",
};
