/* XPM */
static char *background_5[] = {
  /* width height ncolors chars_per_pixel */
  "100 100 5 1 0 0",
  /* colors */
  "! c #000000",
  "# c #663300",
  "$ c #330000",
  "% c #666600",
  "& c #333300",
  /* pixels */
  "#################################################################&&########&##################&#&#&#",
  "####&&&&&&&&&&$&$!&!&!$!$!&!!!!!!!!!!!!!!!!&&&&#########&&&&$&$&&&#%%&&&$&&&&&&&&&&&&!!!!!!&&&##&##&",
  "#&&$$&&&&##############%%%%%%%%%%%%%%%%#######&!&####!!!&&#####%#&%######%%%%%%%%%%%%%%%%%###&!!&#&#",
  "#$&#%%#%%#######&!$&&&&&!!&######&&&!!!!!&&#########&&%%%%%##&&##&%#######&&######&&&!!&&&####%#&&##",
  "&!%%#&$&######&!&###%%##%#&&&###!!&&#%%%%#&&&###!%##!#%###&$&&#&&&%#########&&&&&&$&#%%%%&##########",
  "&&%##$&######!&&##&&#&!&#####&##!##%#&&&####&&##!%##$%###&&&%%#%%%%##&&#####%#&&&#%%#####&#!&&###&##",
  "#&###&#&####!&%##&&&##&&&!!#%###$&#%!&&##&&#####!%##!%##&&&%########&&&&&&####&#%%###########&!&#&##",
  "#&%########&$&#!&%%%%##%%#&##&######&#%%#&&&#&%#!###$%#&!&%#########&#%%%&&&#&&%################&&&%",
  "&&%#$!#######%##%###########&!&##!#######!&%#!##&###!%#!&%##########&#######&&&%####&&&##&&&&#####!%",
  "#&%#&#&&##%###!%###########&###&%&###!&&&##%#!##&###!%!&%###&&&$&&&##&#############&!&##!&&&&&##!%!%",
  "####!#&#&&##&&!#####&#######&&&#%&&#&&#&#&###!##&###!#&%###&&&&###&&&&#&&&&&&###&&&$#%&&&%#&###&!%!%",
  "#####%#%####&&%%%###&!&&##&!&#%%##&#!!#%%###&!######!#%#&&&&###%%%%%#&#&&#&&&!&#%#&&#&&#%#!%##%$&%$%",
  "############!########&&&!!!#&#####&&####&#&&!&&####&!%%#!&&&##%#&$&$&#%####%%%#####%%%%%#!#%!%#!%#!%",
  "###$&&&&###&$%#&####&!%%%#%#!##&###&#&#%#&&!&##%&##!#%#&&%###%##&#%%%######&&#&#########&&%&&%$#%&&%",
  "###!#&&&&##&!#!&#####&#!!!%######&#&##&!!!!#%#%#&&#&%##!&#&$&%###%##########&&!##&&####&!##&%&!%#&&%",
  "###$###%%%##&#!%#########%%!!!%####!!##%%%%%#&##&#&&###&&&&#%%###############%%#&&&!&&#&$#$#%$%%#&&%",
  "###&%%%########%##########&!%%%##&&!##&!&#&#&#&#&##&######%###&&&$$&$&&$&&&#####%%%%%#&&&#%%&!%##&#%",
  "##########&!$$&###########!!%#####&!##&&##!!##&&&##&####&&&!&!&&&&&###%%##&!&################&###&##",
  "########&!$&#%##&########&!&%######&#%&#&#!##&##&&##&&&#!&###&####&###%######&#########&#!%##&###&##",
  "######&$&&%#&###&&&######&!&%##&######&&##&&%#&#&##&!&#!&%##&&#&###%&####&&!&##########&#&%###&##&##",
  "####&&$&#%&&&#####&!!&&&&&####&###&###&#%#&#%###&##!##&#####&#%&%##%#%##&!&##&&########&#&####&##&##",
  "###&&&###&#%%##&##%%##&&&&&&##!!&##&&###########&#&&%#&%######&!&!!!!&&!!&%############&##&###&&#$##",
  "###&#%&&##%#####&&&&###&%%%%%&&##!!&#&#&#&#&#&&#&#&###!##&%##&!#%%%%%#####&!&#&#######&!%#&%###$%!##",
  "##&&%#$#&%#####&##&$!!&&%####!##&%#####!!!!!&###&##&#!!#!&%##&&&!&&#####&!####&#######&#%#&#&##&%&##",
  "##&##&&#&%######&##%%%%#####&!%##%#&##&!##%####&&######&#%#####%%#&!!!!!#%%#&#!######!&%##!#&&#&#&##",
  "#####&&#&#######&######&###&!&%####&##&!%##&&###&######!%####!&&&###%#%%%####&#%####&$%%##&%##&&####",
  "#####&&%&##########&&##!##&$&%######&#&&%###!%##&##&!!&!%#&#&!&#!#!&&!######&!%%###&!#%##&$%########",
  "#######%&############!&$#&!!%#######&&######!%##!##!#%######&&#&&#&#&&###&&!!#%###&!#%###&&%###&####",
  "######&%#&###########%%#%###%#####&!!#######!%##!##!%#!#&##&!&&&#&&&##&&!!&#%%###&$#%####$#%###&#&##",
  "######&%####&############&######&!!&%%&#####!%&#!##&#&!#&##!&###%#######%%%%###&&$#%####&!%###&$%&##",
  "######$#&&&##&&##########&&#&#&&!&#%##&#####!%##!##&&##%&&#&&###############&&&$!#%####&$#%###&#%&##",
  "#####&&####&&&&&&#########&#&#&&#%##&#&#####!%##!##!!&&&#!##&######&#######&!###%%###&$!#%###&$%#&##",
  "####&&#%%###%###&&&########&&&#%##&!!&&#####!%##!%&&%%###&&##&&&&#&########!#%####&&$!&%%###&&#%#&&#",
  "####&#%########%%#&&&&&&&&$!#%&&&#!#%#######!%##!%!###&&%#&#####&!!!&&&&##&!%#&&!!!&#%%###&$!##&#&&%",
  "####&%###############&&####%%&&%#%!%#!######!%#&!%&&&&!##!!&#&###%%#&&!!!!!!&!&&##%%%###&$&&%%###&&%",
  "&###&%#######################$##!#$%#&#####&!%#&&%###&##&#%##&#&#####%%%%%#%%%%%####&&&&!&%%###&##&%",
  "####&%##################&!$!$!&!&&&#$!#&&&!$&#!!#%###%#!#%#&##&&&&###&###&!%###&&&&!$!&#%%#####&&#&%",
  "###&&%#################&######%%%%%%%%%%%%%%#%#&######&!##&#&###&!!!!!!!!!!#!!!!&&##%##&&&!&!&$&#%&%",
  "###&&############&&#####&%################&&&&$&####&&&&&!!!!!!&#%%########%%%%%%%##!&########%###&%",
  "###&%##&&&&&&$&$&&#####&$%##############&!$&##%%####&!&&&%%%%##&&&&##########&&&!!!&#%######&%&&&#&%",
  "##&#####&&&&#&##%%%###&&#%############&!&#%##&&!&%##&&#&&%#####&&#&!!!!!!!!!!!&#####%#######&%$##%$%",
  "##&%####%%#%%#&###&&&$&%%############&&#%#&!&###&%##!&%#%######&&##%%%%%%%%%##%####&########&#&%&#&%",
  "##&%##&&&&&%##&#&#&&&###############&&%#&&#%%%##!%#&$&%########!&&%##&##&##&!%%!!!&#########&#%%&#&%",
  "######%%###%##&&#######&&&#########&&%#&#%%#####&%#!###########!#&%########&!##!#%###&#########&&%&%",
  "#####&&&&&%####%%##%####%##########&#%&#%#######!%&!%&&&&#####&!#&%#########&#&!##&####&#######&#%&%",
  "#####%%##################&#########&%#&%#######&&%!#%###&&&&&!!##&############%#%&!#####&&####&$%#&%",
  "#######&###&&&&&&&&&&&&&&&#########&%&#%#######&&%&########&&&#%#&#!!!!!!!!!!!!!&&#%#####&&&&&&%%&#%",
  "#####&&&######&&&&&#######%#######&&%&########&!#%&&&$!!!!&&##&!!!&################&&&&&&###&#%#&&%#",
  "#&&&&&&###&&#%%%%###&&&&&##&&&&&&&&&#&#&&$&$$!&#%####%%%%%#######################&&&&&&&&&&&##&&&#%#",
  "##%%%%%%##%%#######%%%##%%%%%%%%%%%%%#%###%%%%%%##################################%%%%%%%%%%%%%%%%##",
  "#######################################################&&&&&&&&&&&&&&&&&&&&&&&&&&&&&&&&&&&&&&#######",
  "######&&&&&&&&&&&&&&&&&&&&&&&&&&&&&&&&&&&&&&&#######&&!!!&&&&&&&&&&&&&&&&&&&&&&&&&&&&&&&&&&&&&&&####",
  "###&&&&&##%%%%%#&######&&#####%#%###%%%%#&#%#&#####&!&%%#%%%&%%%%%%%%%%%%%%%%%%%%#%%%%%%%%%%%%%#&###",
  "##&&###%%########%#######%#&#%########&&&#%%#######&&%#&&%##!%####&&&####&!!&###&!&####&&&&&########",
  "#&&%%#########&&#%#&&##&&%#&########&&&#%%#$&&#####&###&####!%###&!&&&###!&#&###!&#&###&#%#&&####&%#",
  "#&######&&&&&&&#%#&&#%##&%#&&%####&&&#%%#&&&%%#&###&#&$!####!%##&!#%#&###!%#!%#&!#%##&#&#########&%#",
  "#&#&&#####&&##%%##&#####&%#&&%##&&&#%%&&&#%%###&###$##%#####!%##&&%##&###!%#!%#&&%#####&&&#######&##",
  "#&#&######%%%#####&%&###&###&%&&&#%%&&&#%%#####&###$#%#&####!%#&!%####&##!%#$%&!####&&###########&##",
  "#&%&#####&&&&&&&#&&%&###&###&#&%%#&&&#%%#####&$&&%#&#%&!####!%#&!#####&&#!#&!%&&%##&&###&&####&##&##",
  "#&%&%&%&&&###%##&&#%&####&%#&#%#&&&#%%#####&&&#%#%#!##!&####!%#!######&!#&&&##!%##&&#%#&###%##&##&##",
  "#&%&##&&#%%#########&#%##&##&##&&#%%####&&&&#%%#&%#$%#%####&!%&!%&###&!####%%&&%#&&#%##&#%####&##&#%",
  "#&%#&&#%%###########&####&###&##%%####&&&&#%%###$%#&%##!###&&%!#%#&#&!#%&###&&%#&&#%###&&%####&##&##",
  "#&%&&%%##############%####&%#&#%####&&&&%%######&##$%##!###&&%!####&&&%#&&##$&%#$#%###&&#%#&&&&%#&##",
  "#&#&%%##############&#####&###&###&&$#%%########!##!##&$###&&%&#&#######!&##&%#&!####&&&#&$&&#%##&##",
  "#&&%%################&#####&##&#&&&#%%##########&##$&&&!###&&%###&####&!&%&&&%#$###&&&#%%#%%%%###&##",
  "#&#%#######################&###&##%%############$##$#%##%##&&%####&&###%%#&#%#&&%##&&%%####&&&&&#&##",
  "#&%##&&&&######&&&&&##&#####&###################&##&###!%##&!#######&#####&#%#&##&&%%#####&&%%#&&&##",
  "#&%#&&###&####&&###&&#&####&&######&#########&&$!##!##!$%##&&#####!&#&########&&&########&&%%####&##",
  "#&%&&%%#######&#%######&%##&########&&&&&&&&$&&##%#&##&&%##&&##&$!&%%#&&#####!&&%%##&&&&&&%%####&###",
  "#&%&#%####&%#&&%####&##&###&%#&#####%%######%%%#&##$#%%####&#%####%####&&####&&#######&&#%%######&##",
  "#&%&######&%#&#%####&#%&##&&%#&%#&&##########&$&$%#&###&###&#########&$&########&&####%%%########&##",
  "#&%&#####&&%#&&#####&#%&&%&&%&&%###&&&&&&&&&&&#%#%#$###&###&######&&!&#%%%####&&##&##############&##",
  "#&%#&###&&#%##&#&#&&&%#&&%&##&#%#&#%%##&&&##&%%#&##&###$%##&####&&$&##%###&###&#%&#&&############&##",
  "#&####&&&#%&&####&&&%%#&&%&%#&###&######%%##&%##&##&###&%##&##&&!##%#!%##&&###$%&&%%#&&##########&##",
  "#&####%%%%#&&%##%%%%%##&&%&%#&###&####&&%###&%##&##$###$%##&##&&%%##!#%#&&&###&#$#%###&##########&##",
  "#&#%######&&###########&##&%#&%##&####&&%###&###$##&###&%##&##&%##&&#%##&&%#####&%####&%#########&##",
  "##&#######&###%#####&&&&%&&%#&%##&%###&&%###&#&&&##&&&&$%##&##&##&$&%##&&%##&#####&##$&%#&&&&&###&##",
  "##&#&&#####%%%#####&&&#%%&#%#&%##&%###&&%&&&&&&#&%#&#%#&%##&##&#!&#%##&&%#&&#######&&&%#&&#%%####&##",
  "##&%###&####&&#&&##&%####&#%#&%##&%###&&#&#%%%%#&##&%##&%##$###&&%%##&&##&#&#&########%&&#%######&##",
  "##&%&##&##&#&#%#&%#&%&&%#&###&##&&%#&&&#%%%##&&$&##&%#&&%##!######&##&&%&#%###&####&&%#&#%###&&##&##",
  "##&%&&#&#&&#&&&&&&&&%&&%#&#%#&##&&%&&#%%##&&&&&##%#$#&&&%##$#######&!&%#&##&######&&%#&##&&#&&&&#&##",
  "##&%&&#&%#&%##%%#%%#%#&%#&&%##&#&##&%%##&&&&#%%%&%#&#%%#%##&########&%%#&##&#####&&#%&$#&#&&&%######",
  "##&%#&%&%#&%#&%#&%#&%#&%##&%######&%%##&&#%%####&##&###$%##$########%%##&&#!#####%%%#&###%&##%&#&###",
  "##&##&%&%#&%&&%#&%#&%#&%##&#####&#%%##&&%%######$##&###&%##!#####&$&!&###&&&%#&&!&&#&&##&&&%&&&#&###",
  "##&##&%&##&%#&%#&%&&%#&%###&###&&%%#&&&%%&&&####&##&###&%##$####&!#%%#&###%%%&&###&&&####%###%%#&###",
  "##&##&#&##&%&&%&&#&%%&&%######&&#%##&&%#&&#&&###&##&###&%##&###&!#%###&#####&!#%#####%&#&##&%#&&####",
  "###&%####&&#&&#&##%%#&&%########%##&&%#&#%%#####&##&&&&&%##&&#&$#%###&&&####$&%###########&#%&&%%&##",
  "###&%###%%%%%%%%%####&#%######&&%#&&%%#&%###&#%#&##&#%##%##!##&&#&&#&$!&###&&#&&#&&&&###&#&&&&&%#&##",
  "##&&################&&%#######&#%#&&%##&#&&&&#%#$##&###&%##&####&##&&%##&%#$&####&&##&%#&##%###%#&##",
  "#&&%##&&&#######&##&&&########&%##&#######&&#%##&##&##&&%##$#&&#&%&##%&#&%#&##%&#&%######&&#&&#%#&##",
  "#&&%###&&&#####&&#&&#%#&######&%#&&%######%%%###&##&&&$&%##&#&&#&&!%&#!#&##!%&#!###$######%%%%%%#&##",
  "#&#####%%#####&&#%%%%########&&%#&&%###&&&&&####$%#&#%%#%##$##&##%%&#%%#!#&&#####&#%%&###########&%#",
  "#&&###&##&###&&#%#######&%###&&%#&#%##&&&###&##&&%#&&%#$%##&##&#&##&%#&!#%%%#&##!###&&%#########&&%#",
  "##&#&&&&&&##&&#%###&&&&&&%###&&%#&####&#%######&&%##$%#!%##!#####&&&#&&%%#######&%&&&%%#########&&%#",
  "##&##&%%%#&##%%###&&####%#####&%#$####&#&&&&&#%&#%##&##$%##&####&#&&&&&%#####!#&&!&&%%##########$###",
  "#&&%%%%###%##&&&&&&%%#########&%#&###########%#&%###&&#&%##&####&&#####%#####$##%###%##########&&%##",
  "#&###########%%%#%%%####&&&&&&&#&&##&&&#######&#%####&#$###&#####&&&&&#%#####!#&#&&#%#########&&####",
  "##&&&&&######&&&#&&&&&&&&&&#########&&&&&$&$&&#%#######&#&&&#######%##%#&&&&&&####%%#&&&&&&&&$&%%###",
  "#####&&&&&&&&&&&&&####%%%%%##########%%%%%%%%%%#########%#&&&&$!$!$!&&&&&&&&&$!&&&&&$&&&&&&##%%#####",
  "#####%%%%%%%%%%%%%%########################################%%%%%%%%%%%%%%%%%%%%%%%%%%%%%%%%%########",
};
