/* XPM */
static char *background_1[] = {
  /* width height ncolors chars_per_pixel */
  "100 100 8 1 0 0",
  /* colors */
  "! c #000000",
  "# c #800000",
  "$ c #808000",
  "% c #663300",
  "& c #666666",
  "' c #330000",
  "( c #666600",
  ") c #550000",
  /* pixels */
  "#########$%##)##)''##)!''!!'''')####)########%(&&&&(###))'''''))####%#)''''#%%######)####%#))))))###",
  ")))######(##))######)''!!'))#)############)##(&(%%%##)))))''')))###%%#)'''!!##%%###))###%%###)')####",
  "))######%%##)######'!!'')######)''''########%(%#####)'')))''')))######)'!!!!')#%%%#####%##)########)",
  "#######)%%#########)''')%%%##)''')###)))###%(##)))))''''))'''))))##)##)'!!!!!!'##%##%(#######%##))))",
  "####)')#%###)))####((%#%((#)'')####'!!!!'##%#)''''''''''')))')))##))###)!!!!!!''####(#''!!'###)))'')",
  "#)))))#%%##)'!!'')##%#%&(((######''!!!!!!###)'''''''''''')))))))##)####))'!!!!'!!'#(#)!!!!!!)#))'')#",
  ")''))#%%#'!!!!!!!')##)#&(%%##))''!!!!!!!!##))'''''''''''''))))))##)####))'!!')'!!!##)'!!!!!!)#))))##",
  ")''')%(#'!!!!!!!''))##(%#))''!!!!!!!'!!!)#))))''')))''''')))))'######))''''))'!!!)###)!!!!!!'##)))))",
  "))))##%'!!!!!!!''''#((#'!!!!!!!!!!!!'!!'#)')))'')))))'''))))'))####%)!!!!'''!!!!#####)!!!!!!'#))))''",
  "))))#)#)'!!!''''''#$%)'!!!!!!!!!!!!!'''##))))))))###)''''''))##%#)#('!!!''!!!!'######'!!!!!!'#))))))",
  "######)#'''''))''#&#'!!!!!!!!!!!!!!!')#))))))))))))))'''')#####%#)##!!!!!!!!!'#######)!!!!!')#')))#)",
  "########)''')'!')(%)''!!!!!!'!!!!!!)##)))))))))')####''))##))###)#%#!!!!!!!')%#)))####!!!!')#)'')###",
  "''''''##))))'!)#(#)))'!!!!!''!!!!'###))))))))')'))##))))##))###))#$#!!!!!!)%#''''!')##%#)##(#'))))##",
  "!'''''))))'''#%#'''))!!!!!''!!!'#%#)))'''))')''')))##))##))####)%$$#!!!!))#)''!!!!!'##(&(&&&%)'')'''",
  "'''''')))))#%%)'!!!'))!!!!''))#%###))''''))''')''))#####))###))%###(#!)##'!''''!!!!!)#(&&((((%#)''''",
  "'''''))))))#(#)!!!!''#%##%%%%###))))''''''')))'')#############)!!!)%(%#)!!!''''''!'!'%&&(#))))##)'''",
  ")))))))))''#%#)'!!!!'#&&&(%%##))''')''''''''))'))#)#####)))#)'!!!!)#%)!!!!!!'''!!!!'#&&#!!!!!!'')))'",
  ")))))))''!'')#%)'!')#(%#'!'')))!!!!''))'!!''')'''))####))#)!!!!!!!#%)!!!!!!!!'!!!!)((%#!!!!!!!''')))",
  "))))'''!!'''')((((%%#'!!!!!'##)!!!!!!'))!!!!!!!''))#%#%%#'!!!!!!!%(#'!!!!!!!!!!!'#((#)!!!!!!!'''))))",
  "))'''!!!!''!')$$(%)!!!!!!!!!)#)!!!!!!!!''!!!!!!')###%%%#!!!!!!!)%(%#'!!!!!!!!!!)%%###)!!!!!!''''))))",
  ")''''!!!!'''''%%)!'''!!!!!!!'##!!!!!!!!!!!!!!!'))###((%)!!!!!'#%##(#'!!!!!!!!'#%#####)!!!!!''!'')###",
  "#))'''!!!'''')#)!!!!'''!!!!!'##'!!!!!!!'!!!''))'!')%$((#)'')####))(#)'!!!!!!#%#))))###!!!!!'''!#(%(#",
  "###)'''''''''##'!!!!!!'''!!!'#('!!!!!!!!'')##)'!!!'($####))'!)#)')%%#'!!!'#(('!!!!'))#'!!!!!!'#%(((%",
  "##)'''''))'''#)'!'!''''!!''!!%&(#)'')')###)'))))!!#$#'!'!!!!')'''#((%###(($#'!''''''')#)!!!!'####((%",
  "##)''''')))'!#''''''''''''')#(%%#)''')##)''')))''#(#!!!''!!''!!!!#%%%((((%)!'''''''!'#######%####%##",
  ")))''')'))#!''!'''''!!''')#%%))#'!!!!')')')'''!!)%)!!'!!''''!!!!)(#')#%%#'!'''!!')''')#)############",
  "')))))))))#)))''''''!')##))!')#)!!!!!'''''!!!'')#)!!!!'''''!!!!)()!'')(%'!!'!!!'')'))))))))#####%###",
  ")#)))'))))))#))''))###)''!!!!!#()!!!!'))!!!!!!'#)'!!!!!!!!!!!!'%#'!!'#()!!'!!!'''!')))')))))##%(%##)",
  "'''''))))))))#))#(&()'!!!!!!!!#$#'!!!''!!!!!!'#)!!!!!!!!!!!!')##!''!#&#!!'!!!!'''''!!'''')')#((##)))",
  "'))''))))#))###%&(((#'!!!!!!!)%(#)!'!!!!!!!!)%)!!!!''!!!!!!'#(#'!!!)()!!''!!!''''''!!'''''#%((%#))))",
  "')))))))###)#####))###))####)#)###))'!!!!!!)%)!!!!!''!!!!)#%%#)''#%&%)''''''''!!!!''!''')#%%##)))))'",
  "))#))))#########'!!!'')#%%(#'!''))#####))#%%))))############)))##(%(%'!!!''''!!!!!''')#####)))))''''",
  ")###)))########'!!!!''''))##'''''))))##(&((%%%(((%###########))))#%(%'!!''!!!!!!!!!#((##))'')))))'')",
  "#####))######)'!!!!!!!!'')###''')))##%(((((######)))''''!!!!!!!!!'#%#)!!!!!!!!''''#&&#)'''''')))))))",
  ")##)##)))#)#))'!!!!!!!!!'))#%#)')##%((%###)))'''''''!!!!!!!!!!!!!!'#%)!!!!!!!!!''%$(%#'''''))))))))#",
  "##)))##))))))'!!!!!!!!!!!')#%%(#%%%%##))''!''''')'''!!!!!!!!!!!!!!!#&%)!!!!!'!'#%&$%#''''')'')))))#)",
  "#)))###))))''!!!!!!!!'!!!'#(%(%%#))''!!!''''''''''''!!!!!!!!!!!!!!!)&%%'!!!'#%((%%%#'))''')))))#####",
  "))###)##)))))'!!!!''''')##%((%#)''!!!!!'''''''''))'''!!!!!!!!!!!!'')((%%####%%((##)))))'')))#####)##",
  "####)')###))))''!'!!'#%%%##((#)'!!!!!!!'''''''')))))'''!!!!!!!!!)'')(&(%#####((###)''))))))####%####",
  "##)')))))##))))'''')%%###)####'!!!!!!'')))'''''')'')')#'!!!!!!!))!!)&(#))')%$(%###''')))))#######%##",
  ")))))')''))))))'''#%#)))'')##)'!!!!!!!')#%#)''''''''))#)''''''''!!!)&%))')#(#######''')))')####))###",
  ")))')'))))'')''''##)'''''''##)!!!!!!!!'''#((##)))'''''###)''!!!!!'')$#'')##)'))####)')))))'##)''''))",
  "#)')''))))')''')##)''''''!!)#)!!!!!''!''!')#%$(##))'')'#%#'''''''')#(#)##'!!!!')####))))))))#))))'')",
  "))))'')))))))))))'')''''''')#)!!!!!'!!''''))###%%##)))))%##))'')))'#%##)'!!!!!!')##%#))))))##)))))))",
  ")'')''))))))))))))''''''''''#'!!!!!'')''''))))))##%###)'#%###)))')#(##'!!!!!!!!!)###%%#))#)#####)###",
  "#))))))'')))))))))''''''''''#!!!!!')))!!''!'))))))######)#%###)####)'!!!!!!!!!!!'#######)#)#########",
  "#))))#'''''')))''''''''''''')!!!!!!!''!!'!!')))))##)#####)%####%%#)'!!!!!!!!!!!!'#########))########",
  "#)#)##'''''')))''''''''''''))!!!!!!!!'!!''''))#####)######%%#%###)'!!!!!!!!!!!!!!)###%#%############",
  "######''''''''''''''''''!!!))!!!!!!!')'!'!'')#########)####%%%##)'!!!!!!!!!!!!!!!'########%(%#####)#",
  "&&((%#'''''''''''''''!!!!!!')''''!'')''!!!''))#########))##(%##))'!!!!!!!!!!!!!!!')#################",
  "&&(###''''''''''''''!!!!!!!'#)''!!'%'!!!'%'!'))#########))#(%#))))!!!!!!!!!!!!!!!!)############%&&&&",
  "(%#''')''''''))))))'!!!!!!!)('''!!!)%)')%)'''))#######)####%##))))'!!!!!!!!!!!!!!')#########)##$&&&&",
  "##)'''))'''''')))))'!!!!!!!)#'!'!!!!!)))'!')''))#)))#####)#%##))#))!!!'!''!''''''!!)##########(&&&&(",
  "#))''')))))))))))))'!!!!!!!'%)!'!!!!!!)'!!!'!'))))))#####)%##))###)''''''!!!!!!!!!!'########%$&&(%%%",
  "'))''')))))))))))))'!!!!!!!)()'!!!!!!'''!!!'''))))######)#%###)####)!!''!!!!'!!!!!!'#######(&$%)'!!'",
  "'))'')))))))))##)))'!!!!!!!)()'!!!!!))''!!!'')))######)'#(%######%#)''!!!!!!!!!!!!!'#####%&(#)!!!!!!",
  "!!)))'))))))))##)##'!!!!!!!#(#'!!!')'!')'!)')##%%##)))))((#))))##(%)'''!!!!!!''!!!!#####%&()'!!!!!!!",
  "'')))))))))))######'''!!!''%$('!!'!!!!!'%%##%&(##))'')'#&#)))))##%%)!!''''!!''')))'####%&&)!!!!!!!!!",
  "'!'##))))))))######))''')))%%(##'!!!!!!)##((##))''''''#$%))))))##%%)!!!!''!!')%)'!!')#(&&#!!!!!!!!!!",
  "!!'##))))))))%#)#%))))))))#%%%(%%#'!!!)#%%#)''''''''')%%)))'')##%(()!!!!!!!!')'!!!!')%&(#'!!!!!!!!')",
  "'''##)))))))#%))##)))#####%((%#)))'')###)''!!''''')''#%))))''')#%(()!!!!!'''''''''!)(&%#!!!!!!!!!)'!",
  "'!!#)))))))###)#%#))))###%(%)!!!!!))##)'!!!!'''')))))##)#))'!''#%(%'!!!!''''))''''#&&(#'!!!!!''')'!'",
  "'!')))))))###))#(#))#####%#'!!''')'!'!!'''''!!')))))###))'!!!!!)##%)!!!''))))''))#&&%#)!!!'''''')'''",
  "'')))))))####)#(%#))######'!!!!!'!!!!!!!!''!!'))))####'!!!!!!!!!!##)!!'''))))))))&&(%#'!!'')'!''')''",
  ")))))#))###)#############)!!!!!!!!!!!!!!!!!')))######'!!!!!!!!!!!'##!!''')))))))#(%##)!!''!!)))'))))",
  ")))#%########)))########)'!!!!''!!!!!!!!!'))'')###%()'!!!!!'''!!!'#)'!'))''!!!!!)%##)'!!'!!!))')))))",
  "##((#)#))####))####))''))'!!!'''!!!!!!!'')'!'))##%(#''!!!!!!!!!'''))))))'!!'''!!#%#'!!!!!!!'))))))))",
  "%(&(((##))))######'''')))'!!!!''!!!!!!%)!!!'))##%(%#)'!!!!!!!!!!'!'''##!!!!!!!'#(#'!!!!!!!!)))))#))#",
  "%%(&%##)))))####'''''))))'!!!!'%'!!')%)!!!'))###(%##)!!!!!!!!!!'!!!!')))))#%#((%#'!!!!!'!!''))###)##",
  "%%%%###)))))####))')))'')'!!!!!%%)')%'!!'')####%####'!!!!!!!!!''!!!!!!!)#%%#####)!!!!!!!!!!')######%",
  "#%###)))))))########)''!!!!!!!!%!!))''''')))#######)'!!!'''''!!''!!!!!!!''))###)'!!!!!'')))########%",
  "#%##)))))))))#''##%#))'!!!!!!!')!)'!'''')))##)!!!)#)'!!!!''''')'!!!!!!!!!!!'##)#)!!!'''))')#########",
  "%#)))))))#)))#'!!!')##)))'''!!))''!!'))))###)'!!!!#)'!!!!''!!!'!!!!''''!!!!!#####!!!'''!!')))#))####",
  "%#)))))))##))#'!!!!!!')##))'))'!!!'')))####!!!!!!!))'!!'''''!')''''')))'!!'!###%#!!!'!!!')))))#)####",
  "##'))'))))###)'!!!!!!!'')####)!!')))))##))!!!!!!!!'#'!''!!)'')'!)##)))))))))#####'!!!!''))))))######",
  "#))''')')'))##'!!!!!!!'''))###'')))###)!!!!!!''''!!))')'))'')'!!'########))######)!!''''''))))))####",
  "#))''''''')))#)!!!!!''!!')#####))##%#!!!!!!!'''''!'##)''''!)))'''#%############)##''))))))))))######",
  "#''''''''')))##'!!!!!!''')##%%###%#'!!!!!!''''''!!!##'''!'))'')'''%##)))))####)'###')))))))))#######",
  "##)''''''')))##)'!!'''''')##%(%%#'!!!!!'!''!!!!''!')#))'''')###)')%#))')))###)'')##))))#)))))######%",
  "#####)))'))))####'')''!')######)'!!!!!!!')!!!!!!''!)##))''''')#%##%#)''))####)'')#%))####))#########",
  "))####)))))))######)')))#####%)!!!!!!!!)%!!!!!!!)'!)##))'')''''#%(#)''''))##)''')#%#))###)#########)",
  "########################))))'!!!!!!'')##'!!!''!!))'####))')''''!)%(#''')))##)''')#%#))##########%##)",
  "')))))##################'!!!!!!!!)####%'!!!'')'')))####)'')))'''''#%#''))###'''')#%#))########%%####",
  "''''')))########%#####%'!!!!!!!!)%%#'''!!!'''''))))####)''')#)'''')###))###))))#%&%##########%%#)')'",
  "'''')))))######)))##)'!!!!!!!!!)%%%)''!!!'''''))%#######'''))##)'))#######)))##((%%########%%(#)))''",
  "''''''))))'!!!!!!')#)!!!!!!!!)#%%%)''!!!''''))))'')#####''')))#######)####))#(((%########%((((#))'''",
  "'''''''!!!!!!!!!!!')#'!!!!)#%%%##'!''!!'''''''')'''##))##''))###############%#)))'))#%%(&$((((#)''''",
  "'''''''''!!!!!!!''')###)###%(%#)'!!')'!'''''''')!)##)'))##)')############%(#)'''''')')##(((((%))''''",
  "''''''))''''!!''!!!##%###)#(%##)!!!'))!''))''')'!)###''')###))###%(%###%(%)'''''')))))))##%%%%)'''''",
  "'')))))#)''''''!!!'###)))#(%###)!!!'!))))))))')''))))'''')######%%#%%%(%)'!!!!'')))##)'))#####)'''''",
  "'''')###'''''!!!!!)##)))#%####))!!!!!!)))))))))))###)'''''')#####))###%#'!!!!!!')))##)))))))##)'''''",
  ")'')#%%#'''!!!!'''##)))###))#)))'!!!!!''#)))))))####)'''''''')))'''')%#'!!!!!!!!)#####)))))')#)))'''",
  ")))##%#''!!!''')'#(#)##))))))))''!!!')'!)#))))))####'''''')'')''')'))#)'!!!!!!!!!)####))))'')##)))))",
  "####%#''!!'')))))#%###)))))###)''!!''!!''##))))#####'''''')))))))))))%#''!!!!!''!!###)))))')###)))))",
  "#####)')))##))))#(##)'''))#######''!!!!!'###)))####)''''')))))))))#####)))'!'''!!)#%#))))))))#))))))",
  ")###)#######)#####)'''''))#)))))##)'!!!!'##########))''''))''')))))####))#))'!!'#%%#%#)##)####))))))",
  "##########)##(%##)''''')))###)'!!))##)))##########))))))))'''')))))####))##)!!'##%###########%#))###",
  "###########$(####'''')))#######)''''################)))#))'''')##))###)')###))###%##################",
  "##########$(##)))''')))##))))#######)##########))#)##)##'''''')###)###)'')#########)))###%###)')))##",
  "#######))%(##))))')))##)''''''))####))##################''''''))######)'')##%%####))))###%#)))'))))#",
};
