/* XPM */
static char *background_11[] = {
  /* width height ncolors chars_per_pixel */
  "128 128 6 1 0 0",
  /* colors */
  "! c #000000",
  "# c #666666",
  "$ c #333366",
  "% c #555555",
  "& c #663366",
  "' c #333300",
  /* pixels */
  "''''''''$$$$$$$$$$$$$'''''''''''''''''''''''$'''''''''''''''''''''$$''''''''''''''''''''''''''''''''''''''''''''''''$'''''''''''",
  "''''$$$$$$$$$$$$$$$$$$$$$$$'''''''''''''''''''''''''''''''''''''''''''''''''''''''''''''''''''''''''''''$$$$''''''''''''''''''''",
  "''$$$$$$$$$$$$$$$$$$$$$$$$$$$$''''''''''$''''$$''''''''''$'''''''''''''''''''''''''''''''''$'''''''''''$$$$$$'''$$''''''''''''''",
  "$$$$$$$$$$$$$$$$$%%%%%%$$$$$$$$$'''''''''$$'''''''$$''''''$''''''''''''''''''''''''''''''$$$$$'''''''''$$$$$$'''$$''''''''''''''",
  "$$$$$$$$$$$$$$$$$$%%%%%%%%%%$$$$$$'''''''''$$'''''$'$$'''''$''''''''''''''''''''$''''''''$$$$$$''''''''$$$$$$$''$$'''''''''''''$",
  "$$$$$$$$$$$$$$$$$$$$%%%%%%%%%%$$$$$$'''''''''$$$''''$$$$''''$''''''''''''''''''''$$''''''$$$$$$''''''''$$$$$$$''$$''''''''''''$$",
  "$$$$$$$$$$$$$$$$$$$$$$%%%%%%%%%%$$$$$$'''''''''$$'''''$$$$'''$'''''''''''''''''''''$'''''$$$$$$'''''''''$$$$$$'''''''$''''''''$$",
  "$$$$$$$$$$$$$$$$$$$$$$$$%%%%%%%%%%$$$$$''''''''''''''''$'$$$''$$'''''''''$$''''''''$'''''$$$$$$$''''''''$$$$$$'''''''$''''''''$$",
  "$$$$$$$$$$$$$$$$$$$$$$$$%%%%%%%%%%%$$$$$$'''''''''''''''$$'$$$''$'''''''$$$$''''''''$''''$$$$$$$''''''''$$$$$$$'''''$''''''''$$$",
  "$$$$$$$$$$$$$$$$$$$$$$$$$%%%%%%%%%%%$$$$$$$'''''''''''''''''''$''$'''''''$$$$''''''''''''$$$$$$$''''''''$$$$$$$'''''$'''''''$$$$",
  "$$$$$$$$$$$$$$$$$$$$$$$$$$%%%%%%%%%%%%$$$$$'''''''''''''''''''''''$''''''$$$$$''''''''''''$$$$$$$'''''''$$$$$$$''''$''''''''$$$$",
  "$$$$$$$$$$$$$$$$$$$$$$$$$%%%%%%%%%%%%%$$$$$$$'''''''''''''''''''''''''''''$$$$$'''''''''''$$$$$$$$$'''''$$$$$$$''''$'''''''$$$$$",
  "$$$$$$$$$$$$$$$$$$$$$$$$$%%%%%%%%%%%%%$$$$$$$$''''''''''''''''''''''''''''$$$$$$''''''''''$$$$$$$$$$''''$$$$$$$'''$'''''''$$$$$$",
  "$$$$$$$$$$$$$$$$$$$$$$$$$%%%%%%%%%%%%%%$$$$$$$$$''''''''''''''''''''''''''$$$$$$$'''''''''$$$$$$$$$$$'''$$$$$$$''''''''''$$$$$$$",
  "$$$$$$$$$$$$$$$$$$$$$$$$$%%$$$$%%%%%%%%%$$$$$$$$$'''''''''''''''''''$''''''$$$$$$$'''''''''$$$$$$$$$$$''$$$%$$$''''''''$$$$$$$$$",
  "$$$$$$$$$$$$$$$$$$$$$$$$$$$$$$$$$$$$%%%%$$$$$$$$$$$'''''''''''''''''$$'''''$$$$$$$$''''''''$$$$$$$$$$$''$$$$$$$'''''''$$$$$$$$$$",
  "$$$$$$$$$$$$$$$$$$$$$$$$$$$$$$$$$$$$$%%$$$$$$$$$$$$$$$$$$$''''''''''''$'''''$$$$$$$$''''''''$$$$$$$$$$$$$$$$$$$$''''$$$$$$$$$$$$",
  "$$$$$$$$$$$$$$$$$$$$$$$$$$$$$$$$$$$$$%$$$$$$$$$$$$$$$$$$$$$$$$$$'''''''$$'''$$$$$$$$$''''''''$$$$$$$$$$$$$%%$$$$'''$$$$$$$$$$$$$",
  "$$$$$$$$$$$$$$$$$$$$$$$$$$$$$$$$$$$$$$$$$$$$$$$$%$$$$$$$$$$$$$$$$'''''''$$'''$$$$$%$$$$''''''$$$$$$$$$$$$%%%$$$$$$$$$$$$$$$$$$$$",
  "$$$$$$$$$$$$$$$$$$$$$$$$$$$$$$$$$$$$$$$$$$$$$$$$$$$$%$$$$$$$$$$$$$$$''''''''''$$$$%$$$$$$''''$$$$$$$$$$$$$%$$$$$$$$$$$$$$$$$$$$$",
  "$$$$$$$$$$$$$$$$$$$$$$$$$$$$$$$$$$$$$$$$$$$$$$$$$$$$$$$$$$$$$$$$$$$$$'''''''''$$$$$$$$$$$$'''$$$$$$$$$$$$$%%$$$$$$$$$$$$$$$$$$$$",
  "$$$$$$$$$$$$$$$$$$$$$$$$$$$$$$$$$$$$$$$$$$$$$$$$$$$$$$$$$$$$$$$$$$$$$$'''''''''$$$$$$$$$$$$''$$$$$%%$$$$$$%%$$$$$$$$$$$$$$$$$$$$",
  "$$$$$$$$$$$$$$$$$$$$$$$$$$$$$$$$$$$$$$$$$$$$$$$$$$$$$$$$$$$$$$$$$$$$$$''''''''''$$$$$$%%$$$$'$$$$$%%$$$%$%%%$%$$$$$$$$$$$$$$$$$$",
  "$$$$$$$$$$$$$$$$$$$$$$$$$$$$$$$$$$$$$$$$$$$$$$$$$$$$$$$$$$$$$$$$$$$$$'''''''''''$$$$$%$$%$$$$$$$$$%%%$%%$%%%$$$$$$$$$$$$$$$$$$$$",
  "$$$$$$$$$$$$$$$$$$$$$$$$$$$$$$$$$$$$$$$$$$$$$$$$$$$$$$$$$$$$$$$$$$$$'''''''''''''$$$$$$$$$$$$$$$$$%%%%$%%%%%$$$$$$$$$$$$$$$$$$$$",
  "$$$$$$$$$$$$$$$$$$$$$$$$$$$$$$$$$$$$$$$$$$$$$$$$$$$$$$$$$$$$$$$$$$$$'''''''''''''$$$$$$$$%$$$$$$$$%%%%$%%%#$$$$$$$$$$$$$$$$$$$$$",
  "$$$$$$$$$$$$$$$$$$$$$$$$$$$$$$$$$$$$$$$$$$$$$$$$$$%%$$$$$$$$$$$$$$''''''''''''''''$$$$$$%%$$$$$$$%%%%%%%%%%$$$$$$$$$$$$$$$$$$$$$",
  "$$$$$$$$$$$$$$$$$$$$$$$$$$$$$$$$$$$$$$$$$$$$$%%%%%%%%%%%%$$$$$$$$'''''''''''''''''$$$$$$$$$$$$$$$$%%%%%%%%$$$$$$$$$$$$$$$$$$$$$$",
  "$$$$$$$$$$$$$$$$$$$$$$$$$$$$$$$$$$$$$$$$$$$%%%%%$%%%%%%%%%$$$$$$''''''''''''''''''$$$$$$$$$%$$$$$$%%%%%%%$$$$$$$$$$$$$$$$$$$$$$$",
  "%%%%$$$$$$$$$$$$$$$$$$$$$$$$$$$$$$$$$$$$$%%%%%%$$$%%%%%%%$$$$$$''''''''$''''''''''$$$$$$$$$%%%%$$$%%%%%%$$$$$$$$$$$$$$$$$$$$$$%%",
  "$%%%%$$$$$$$$$$$$$$$$$$$$$$$$$$$$$$$$$$%%%%%%%$$'$%%%%%%$$$$$$$'''''''''''$$$'''''$$$$$$$$$$%%%%$$%%%%%%$$$$$$$$$$$$$$$$$$$$$$$$",
  "$$$%%%%$$$$$$$$$$$$$$$$$$$$$$$$$$$$$$$%%%%%%%$$$'$%%%%%%$$$$$$$''''''''''$$$$$'''''$$$$$$$$%$$%%%%%%%%%$$$$$$$$$$$$$$$$$$$$$$$$'",
  "$'$$%%$$$$$$$$$$$$$$$$$$$$$$$$$$$$$$$%%%%%%%%$$$''%%%%$$$$$$$$$'''''''''$$$$$$$''''$$$$$$$$%%$$%%%%%%%%$$$$$$$$$$$$$$$$$$$$''$$$",
  "$''$%%$$$$$$$$$$$$$$$$$$$$$$$$$$$$$$$%%%%%%%$$$'''%%%$$$$$$$$$%$''''''''$$$$$$$$''''$$$$$$$$%%%%%%%%%%%$$$$$$$$$$$$$$$$$$$'$$$$$",
  "$'$$%%$$$$$$$$$$$$$$$$$$$$$$$$$$$$$$$%%%%%%%$$$'''%%%$$$$$$$$$$%$''''''''$$$$$$$$'''$$$$$$$$$%%%%%%%%#$$$$$$$$$$$$$$$$$$$'$$$$$$",
  "$$$%%%$$$$$$$$$$$$$$$$$$$$$$$$$$$$$$$%%%%%%%$$$'''%$$$$$$$$$$$$$%$$''''''$$$$$%$$$$'$$$$$$$$$$%$%%%%#%$$$$$$$$$$$$$$$$$$$$$$$$$'",
  "$$$$%%$$$$$$$$$$$$$$$$$$$$$$$$$$$$$$$%%%%%%%$$$''$$$$$$$$$$$$$$$$$$$''''''$$$$$$$$$$$$$$$$$$$$%%%%%%#$$$$$$$%%$$$$$$$$$$$$$$$$$$",
  "$$$$$$$$$$$$$$$$$$$$$$$$$$$$$$$$$$$$$$%%%%%%$$$$$$$$$$$$$$$$$$$$$$$$$''''''$$$$$$$$$$$$$$$$$$$$%%%%%%$$$$$$%%%$$$$$$$$$$$$$$$$$$",
  "$$!$$$%%$$$$$$$$$$$$$$$$$$$$$$$$$$$$$$%%%%%%%$$$$$$$$$$$$$$$$$$$$$$%%$$'''''$$$$$%$$$$$$$$$$$$$%%%%%%$$$$$%%%%$$$$$$$$$$$$$$$$$$",
  "$'$$$$%%$$$$$$$$$$$$$$$$$$$$$$$$$$$$$$$%%%%%%$$$$$$$$$$$$$$$$$$$$$%%%%$'''''''$$$$%%$$$$$$$$$$$%%%%%%$$$$%%%%$$$$$$$$$$$$$%$$$$'",
  "$'$$%%%$$$$$$$$$$$$$$$$$$$$$$$$$$$$$$$$$$$$$$$$$$$$$$$$$$$$$$$$$$%%%%$$'''''''$$$$%%%%%%%%%$$$$$%%%%%%%%%%%#$$$$$$$$$$$$$$$$$$''",
  "$$$%%$$$$$$$$$$$$$$$$$$$$$$$$$$$$$$$$$$$$$$$$$$$$$$$$$$$$$$$$$$$$$%%$$$'''''''$$$$$%%%%%%%%%%%$$%%%%%%%%%$$%$$$$$$$$$$$$$%$$$$''",
  "$$%%$$$$$$$$$$$$$$$$$$$$$$$$$$$$$$$$$$$$$$$$$$$$$$$$$$$$$$$$$$$$$$$%$$$'''''''$$$$$$$%%%%%%%%%$%%%%%%%%%%$$%$$$$$$$$'$$$$%%$$$''",
  "$$$%$$$$$$$$$$$$$$$$$$$$$$$$$$$$$$$$$$$$$$$$$$$$$$$$$$$$$$$$$$$$$$%$$$''''''$$$$$$$$$$$%%%%%%%%%%%%%%%%%%%%%%$$$$$$$$$$$$$$$%$'$",
  "$'$$$$$$$$$$$$$$$$$$$$$$$$$$$$$$$$$$$$$$$$$$$$$$$$$$$$$$$$$$$$$$$$$$$''''''$$$$$$$$$$$$%$%%%%%%%%%%%%%%%%%%%%%$$$$$$$'$$$$$$$$'$",
  "$''$%$$$$$$$$$$$$$$$$$$$$$$$$$$$$$$$$$$$$$$$$$$$$$$$$$$$$$$$'''$$$$$'''''$$$$$$$$$$$$$$$$%%%%%%%%%%%%%$%%%%%%%$$$$$$$'$$$$$'$$$$",
  "$$$$%$$$$$$$$$$$$$$$$$$$$$$$$$$$$$$$$$$$$$$$$$$$$$$$$$$$$$$$$$$$$$$''''''$$$$$$$$$$$$$$$$$%%%%%%%%%%%$$$%%%%%%$$$$$$$$'$$$''$$$$",
  "$$$%$$$$$$$$$$$$$$$$$$$$$$$$$$$$$$$$$$$$$$$$$$$$$$$$$$$$$$$$$$$$$$$'''''''$$$$$$$$$$$$$$$%%%%%%%%%%%%%$%%#%%%#%$$$$$$$$$$$$'$$$$",
  "$$%$$$$$$$$$$$$$$$$$$$$$$$$$$$$$$$$$$$$$$$$$$$$$$$$$$$$$$$$$$$$$$$'''''''''''''$$$$$$$$$$$%%%%%%%%%%%%%%%%$$%%%%$$$$$$$'$$$$$$$$",
  "$$$$$$$$$$$$$$$$$$$$$$$$$$$$$$$$$$$$$$$$$$$$$$$$$$$$$$$$$$$$$$$$$$'''''''''''''''$$$$$$$$$%%%%%%%%%%%%%#%$$$%%$%$$$$$$$$$$$$$$$$",
  "$$$$$$$$$$$$$$$$$$$$$$$$$$$$$$$$$$$$$$$$$$$$$$$$$$$$$$$$$$$$$$$$$$'''''''$$'''''$$$$$$$$$$%%%%%%%%%%%%#&$$$$$%$%$$$$$$$$$$$$$$$$",
  "$$$$$$$$$$$$$$$$$$$$$$$$$$$$$$$$$$$$$$$$$$$$$$$$$$$$$$$$$$$$$$$$$$'''''$$$$$$$$$$$$$$$$$$$%%%%%%%%%%%%#$$$$$$%%%$$$$$$$$$$$'$$$$",
  "$$$$$$$$$$$$$$$$$$$$$$$$$$$$$$$$$$$$$$$$$$$$$$$$$$$$$$$$$$$$$$$$$$'''''$$$$$$$$$$$$$$$$$$$$%%%%%%%%%%%#$$$$$$%%%$$$$$$$$$$$$$'$$",
  "$$$''$$$$$$$$$$$$$$$$$$$$$$$$$$$$$$$$$$$$$$$$$$$$$$$$$$$$$$$$$$$$$$''''$$$$$$$$$$$$$$$$$$$$$$%%%%%%%%%#%$$$$%%#$$$$$$$$$$$$$$$$$",
  "$$$'$$$$$$$$$$$$$$$$$$$$$$$$$$$$$$$$$$$$$$$$$$$$$$$$$$$$$$$$$$$$$$$''''$$$$$$$$$$$$$$$$%%%%%%%%%%%%%%%%&$$$%%%%$$$$$$$$$$$$$$$$$",
  "$$$$$$$$$$$$$$$$$$$$$$$$$$$$$$$$$$$$$$$$$$$$$$$$$$$$$$$$$$$$$$$$%$$'''''$$$$$$$$$$%$%%%%%%%%%%%%%%%%#%%#%$%%%#$$$$$$$$$$$$$$$$$$",
  "$$$$$$$$$$$$$$$$$$$$$$%$$$$$$$$$$$$$$$$$$$$$$$$$$$$$$%%%%$$$$$$$$$$'''''$$$$$$$$$$$%%%%%%%%%%%%%%%%$$#%%#&#%%%$$$$$$$$$$$$$$$$$$",
  "$$$$$$$$$$$$$$$$$$%$$$$%$$$$$$$$$$$$$$$$$$$$$$$$$$$$$$$$%%$$$$$$$$$''''''$$$$$$$$$$$$%%%%%%%%%%%%%%%$%#%%##%#$$$$$$$$$$$$$$$$$$$",
  "$$$$$$$$$$$$$$$$$$%$''$$$$%%%%%%$$$$$%%%%%%%%%%%%%%%%%%%%$$$$$$$$$'''''''''$$$$$$$$$$$%%%%%%%%%%%$$%$$%#%%%%%$$$$$$$$$$$$$$$$$$$",
  "$$$$$$$$$$$$$$$$$$%$$$$''$$$$$$$$$$$$$$$$$$$$$$$$$$$$$$$%%$$$$$$'''''''$'''''$$$$$$$$$%%%%%%%%%%$%$$$$$%#%%%%$$$$$$$$$$$$$$$$$$$",
  "$$$$$$$$$$$$$$$$$$%$$$$$'''''$''''''''''''''''''''$$$$$$$$%%%$$$''''''$''''''$$$$$$$$$%%%%%%%%%%$$$$$$$$#%%%%$$$$$$$$$$$$$$$$$$$",
  "$$$$$$$$$$$$$$$$$%$$$$$$$'''''''''''''''''''''''''''$$$$$$$%%$$'''''''''''''''$$$$$$$$$%%%%%%%%%%$$$$$$$$%%#%$$$$$$$$$$$$$$$$$$$",
  "$$$$$$$$$$$$$$$$$%$$$$$$$$$'''''''''''''''''''''''''''''$$$$$$'''''''''''''''''$$$$$$$$$%%%%%%%%%%%$$$$%$%%#%$$$$$$$$$$$$$$$$$$$",
  "$$$$$$$$$$$$$$$$$%$$$$%%%%$$$$$$''''$$$$$$$$$$$'''''''''''''''''''''''''''''''''$$$$$$$$$%%%%%%%%%$$$$$$$$%%#$$$$$$$$$$$$$$$$$$$",
  "$$$$$$$$$$$$$$$$$%$$$$%%%%%%%$$$$$$$$$$$$$$$$$$$$$'''''''''''''''''''''''''''''''''$$$$$$$%%%%%%%%%$$$$$$$%%%%$$$$$$$$$$$$$$$$$$",
  "$$$$$$$$$$$$$$$$$%%$$$%%%%%%%%%%%%%%%%%%%%%%%%%%%%$$'''''''''''''''''''''''''''''''$$$$$$$$%%%%%%%%$$$$$$$%%%%$$$$$$$$$$$$$$$$$$",
  "$$$$$$$$$$$$$$$$$%$$$$%%%%%%%%%%%%%%%%%%%%%%%%%%%%%%$''''''''''$$$$$$$$$$$$$$$$$$$$$$$%%%%%%%%%%%%%$$$$$$$%%%#$$$$$$$$$$$$$$$$$$",
  "$$$$$$$$$$$$$$$$$$$$$%%%%%%%%%%%%%%%%%%%%%%%%%%%%%%%%$'''''''$$$$$$$$$$$$$$$$$$$$%%%%%%%%%%%%%%%%%%$$$$$$$$#%#$$$$$$$$$$$$$$$$$$",
  "$$$$$$$$$$$$$$$$$$$$$%%%%%%%%%%%%%%%%%%%%%%%%%%%%%%%%%$$$$$$$$$$$$%%%%%%%%%%%%%%%%%%%%%%%%%%%%%%%%%%$$$$$$$%%%&$$$$$$$$$$$$$$$$$",
  "$$$$$$$$$$$$$$$$$$$$$%%%%%%%%%%%%%%%%%%%%%%%%%%%%%%%%%%$$$$$$$$%%%%%%%%%%%%%%%%%%%%%%%%%%%%%%%%%%%%#$$$$$$$%%%#%$$$$$$$$$$$$$$$$",
  "$$$$$$$$$$$$$$$$$$$$$%%%%%%%%%%%%%%%%%%%%%%%%%%%%%%%%%%%%%%%%%%%%%%%%%%%%%%%%%%%%%%%%%%%%%%%%%%%%%%%$$$$$$%%%%##$$$$$$$$$$$$$$$$",
  "$$$$$$$$$$$$$$$$$$$$$$%%%%%%%%%%%%%%%%'$'''''$'''$%%%%%%%%%%%%%%%%%%%%%%%%%%%%%%%%%%%%%%%%%%%%%%%%%%$$$$$$%%%%%%$$$$$$$$$$$$$$$$",
  "$$$$$$$$$$$$$$$$%%$$$$$$$%$$$$$%%%%%%%%$$%%%%%%%$''$%%%%%%$$$$$%%%%%%%%%%%%%%%%%%%%%%%$$'$$%%%%%%%%%$$$$$$%%%%##$$$$$$$$$$$$$$$$",
  "$$$$$$$$$$$$$$$$%$$$$$$$$$$$$$$$$$%%%%%%%%%%%%%%%%'''$$''''%%$'$$$''$$$$$$%%%%%%%%%%''''''''$%#%%%%%$$$%%%%%%%%#$$$$$$$$$$$$$$$$",
  "$$$$$$$$$$$$$$$%%$$$$$$$$$$$$$$$$$$$%%%%%%%%%%%%%%%%$''$$$%%%%$''$$$$''$'''$%%%%%%$'$$%%%%%%'%%%%%%%%%%%%%%%%%##$$$$$$$$$$$$$$$$",
  "$$$$$$$$$$$$$$$%%$$$$$$$$$$$$$$$$$$$$$$$%%%%%%%%%%%%%%%%%%%%%%%%%%%%%%%%%%%$''''''$%%%%%%%%%%%%%%%%%%%%%%%%%%%##$$$$$$$$$$$$$$$$",
  "$$$$$$$$$$$$$$%%%$$$$$$$$$$$$$$$$$$$$$$$$%%%%%%%%%%%%%%%%%%%%%%%%%%%%%%%%%%%%%$$$%%%%%%%%%%%%%%%%%%%%%%%%%%%%%#%$$$$$$$$$$$$$$$$",
  "$$$$$$$$$$$$$$%$$$$$$$$$$$$$%%%%%%$$$$$$%%%%%%%%%%%%%%%%%%%%%%%%%%%%%%%%%%%%%%%%%%%%%%%%%%%%%%%%%%%%%%%%%%%%%%%$$$$$$$$$$$$$$$$$",
  "$$$$$$$$$$$$$$%$$$$$$$$$%%#%%%%%%%%%$$$%%%%%%%%%%%%%%%%%%%%%%%%%%%%%%%%%%%%%%%%%%%%%%%%%%%%%%%%%%%%%%%%%%%%%%%%$$$$$$$$$$$$$$$$$",
  "$$$$$$$$$$$$$%$$$$$$$%%%%%%%%%%%%%%%%%%%%%%%%%%%$$$%%%%%%%%%%%%%%%%%%%%%%%%%%%%%%%%%%%%%%%%%%%%%%%%%%%%%%%%%%%$$$$$$$$$$$$$$$$$$",
  "$$$$$$$$$$$$$%$$$$%%%%$%%%%%%%%%%%%%%%%%%%$$$$$$$%%%%%%%$$$$$$$$$$$$%%%%%%%%%%%%%%%%%%%%%%%%%%%%%%%%%%%%%%%%%$$$$$$$$$$$$$$$$$$$",
  "$$$$$$$$$$$$%%$$$%%%%%%%%%%%%%%%%$$$$$$$$$$%%%%%%%%%%%%%%%%%%%%%%%%%%%$%%%%%%%%%%%%%%%%%%%%%%%%%%%%%%%%%%%%%$$$$$$$$$$$$$$$$$$$$",
  "$$$$$$$$$$$$%$$$%%%%%%%%%%%%%%%%%%%%%%%%%%%%%%%%%%%%%%%%%%%%%%%%%%%%%%%%%%%%%%%%%%%%%%%%%%%%%%%%%%%%%%%%%%%$$$$$$$$$$$$$$$$$$$$$",
  "$$$$$$$$$$$%$$$$%%%%%%%%%%%%%%%%%%%%%%%%%%%%%%%%%%%%%%%%%%%%%%%%%%%%%%%%%%%%%%%%%%%%%%%%%%%%%%%%%%%%%%%%%%%$$$$$$$$$$$$$$$$$$$$$",
  "$$$$$$$$$$%%$$$%%%%%%%%%%%%%%%%%%%%%%%%%%%%%%%%%%%%%%%%%%%%%%%%%%%%%%%%%%%%%%%%%%%%%%%%%%%$$$$%%%%%%%%%%%%%$$$$$$$$$$$$$$$$$$$$$",
  "$$$$$$$$$%%$$$$%%%%%%%%%%%%%%%%%%%%%%%%%%%%%%%%%%%%%%%%%%%%%%%%%%%%%%%%%%%%%%%%%%%%%%$$$$$$$$$%%%%%%%%%%%%$$$$$$$$$$$$$$$$$$$$$$",
  "$$$$$$$$$%%$$$%%%%%%%%%%%%%%%%%%%%%%%%%%%%%%%%%%%%%%%%%%%%%%%%%%%%%%%%%%%%%%%%%%%%%$$$$$$$$$%%%%%%%%%%%%%%$$$$$$$$$$$$$$$$$$$$$$",
  "$$$$$$$$%%$$$$%%%%%%%%%%%%%%%%%%%%%%%%%%%%%%%%%%%%%%%%%%%%%%%%%%%%%%%%%%%%%%%%%%%$$$$$$$$$%%$%%%%%%%%%%%%%$$$$$$$$$$$$$$$$$$$$$$",
  "$$$$$$$$%%$$$$%%%%%%%%%%%%%%%%%%%%%%%%%%%%%%%%%%%%%%%%%%%%%%%%%%%%%%$$$$$$$$$$$$$$$$$$$$$%%$$%%%%%%%%%%%%%$$$$$$$$$$$$$$$$$$$$$$",
  "$$$$$$$%%%$$$$%%%%%%%%%%%%%%%%%%%%%$$$$$$$$$$$$$$$$%%%%%%%%%%%%%%$$$$$$$$$$$$$$$$$$$$$$$$%%$%%%%%%%%%%%%%%$$$$$$$$$$$$$$$$$$$$$$",
  "$$$$$$$%%$$$$%%%%%%%%%%%%%%%%%%%$$$$$$$$$$$$$$$$$$$$$$$%%%$$$$$$$$$$$$$$$$$$$$$$$$$$$$$$$%%$%%%%%%%%%%%%%%$$$$$$$$$$$$$$$$$$$$$$",
  "$$$$$$$%%$$$$$%%%%%%%%%%%%%$$$$$$$$$$$$$$$$$$$$$$$$$$$$$$$$$$$$$$$$$$$$$$$$$$$$$$$$$$$$$%$$$%%%%%%%%%%%%%%$$$$$$$$$$$$$$$$$$$$$$",
  "$$$$$$$%%$$$$$$%%%%%%%%%%%$$$$$$$$$$$$$$$$$$$$$$$$$$$$$$$$$$$$$$$$$$$$$$$$$$$$$$$$$$$$$$$$$$%%%%%%%%%%%%%%$$$$$$$$$$$$$$$$$$$$$$",
  "$$$$$$$%%$$$$$$%%%%%%%%%%$$$$$$$$$$$$$'''''''''$$$$$$$$$$$$$$$$$$$$$'''$$$$$$$$$$$$$$$$$$$$%%%%%%%%%%%%%%%$$$$$$$$$$$$$$$$$$$$$$",
  "$$$$$$$%%$$$$$$$%%%%%%%%%$$$$$$$$$$''''''$''''''''$$$$$$$$$$$$$$$$'''''''$$$$$$$$$$$$$$$$$$%%%%%$%%%%%%%$%$$$$$$$$$$$$$$$$$$$$$$",
  "$$$$$$$$%%$$$$$$$$$%%%%%$$$$$$$$$$'''$$$$$$$''''''''$$$$$$$$$$$''''''''''$$$$$$$$$$$$$$$$$$%%%%$$%%%%%%%$%$$$$$$$$$$$$$$$$$$$$$$",
  "$$$$$$$$$%%$$$$$$$$%%%%%$$$$$$$$$$$$$$%%%%%$$''''''''''''''''''''''''''''$$$$$$$$$$$$$$$$$%%%%$$$%%%%%%$$$$$$$$$$$$$$$$$$$$$$$$$",
  "$$$$$$$$$$%%$$$$$$$$%%%$$$$$$$$$$$%%%%%%%%%%$''''''''''''''''''''''''''''$$$$$$$$$$$$$$$$%%%%$$$$%%%%%%$%$$$$$$$$$$$$$$$$$$$$$$$",
  "$$$$$$$$$$$%%$$$$$$$$$$$$$$$$$%%%%%%%%%%%%%%%$''''''''''''''''''''''''''$$$$$$$$$$$$$$$$$%%%%$$$$%%%%%$$$$$$$$$$$$$$$$$$$$$$$$$$",
  "$$$$$$$$$$$%%%%$$$$$$$$$$$$$%%%%%%%%%%%$%%%%%$'''''''''''''''''''''''''$$$$$$$$$$$$$$$$$%%%%$$$$%%%%%$$$$$$$$$$$$$$$$$$$$$$$$$$$",
  "$$$$$$$$$$$$%%%%$$$$$$%%%%%%%%%%%%%%$$$$$$$$%$$'''''''''''''''''''''''$$$$$$$$$$$$$$$$$$%%%$$$$$%%%%$$$$$$$$$$$$$$$$$$$$$$$$$$$$",
  "$$$$$$$$$$$$$$$%%%%%%%%%%%%%%%%%%%$$$$$$$$$$$%$''''''$$'''''''''''''$$$$$$$$$$$$$$$$$$$%%$$$$$$$%%%%$$$$$$$$$$$$$$$$$$$$$$$$$$$$",
  "$$$$$$$$$$$$$$$$$$$$%$%%$$$$$$$$$$$$$$$$$$$$$$$''''''''$'''''''''''$$$$$$$$$$$$$$$$$$$$$$$$$$$$%%%%$$$$$$$$$$$$$$$$$$$$$$$$$$$$$",
  "$$$$$$$$$$$$$$$$$$$$$$$$$$$$$$$$$$$$$$$$$$$$$$''''''$$$$$''''''''''$$$$$$$$$$$$$$$$$$$$$$$$$$$$%%%$$$$$$$$$$$$$$$$$$$$$$$$$$$$$$",
  "$$$$$$$$$$$$$$$$$$$$$$$$$$$$$$$$$$$$$$$$$$$$'''''$$$$'''''''''''''$$$$$$$$$$$$$$$$$$$$$$$$$$$$$%$$$$$$$$$$$$$$$$$$$$$$$$$$$$$$$$",
  "$$$$$$$$$$$$$$$$$$$$$$$$$$$$$$$$$$$$$$$$$$$'''''''''''''''''''''$$$$$$$$$$$$$$$$$$$$$$$$$$$$$$$$$$$$$$$$$$$$$$$$$$$$$$$$$$$$$$$$",
  "$$$$$$$$$$$$$$$$$$$$$$$$$$$$$$$$$$$$$$$$$$'''''''''''''''''''''$$$$$$%%$$$$$$''$$$$$$$$$$$$$$$$$$$$$$$$$$$$$$$$$$$$$$$$$$$$$$$$$",
  "$$$$$$$$$$$$$$$$$$$$$$$$$$$$$$$$$$$$$$$$$'''''''''''''''''''''$$$%$$$%%$$$$$''$$$$$$$$$$$$$$$$$$$$$$$$$$$$$$$$$$$$$$$$$$$$$$$$$$",
  "$$$$$$$$$$$$$$$$$$$$$$$$$$$$$$$$$$$$$$$''''''''''''''''''''''$$$$%$$$%$$$'''''$$$$$$$$$$$$$$$$$$$$$$$$$$$$$$$$$$$$$$$$$$$$$$$$$$",
  "$$$$$$$$$$$$$$$$$$$$$$$$$$$$$$$$$$$$$$''''''''$$''''''''''''$$$$$$$$$$$$''''$$$$$$$$$$$$$$$$$$$$$$$$$$$$$$$$$$$$$$$$$$$$$$$$$$$$",
  "$$$$$$$$$$$$$$$$$$$$$$$$$$$$$$$$$$$$$$'''''$$$$$$''''''''''''$$$$$$$$$$'''''$$$$$$$$$$$$$$$$$$$$$$$$$$$$$$$$$$$$$$$$$$$$$$$$$$$$",
  "$$$$$$$$$$$$$$$$$$$$$$$$$$$$$$$$$$$$$$''$$$$$$$$$'''''''''''''$$$$$$$''''''$$$$$$$$$$$$$$$$$$$$$$$$$$$$$$$$$$$$$$$$$$$$$$$$$$$$$",
  "$$$$$$$$$$$$$$$$$$$$$$$$$$$$$$$$$$$$$$'''$'''''''''''''''''''''$$$$''''''$$$$$$$$$$$$$$$$$$$$$$''$$$$$$$$$$$$$$$$$$$$$$$$$$$$$$$",
  "$$$$$$$$$$$$$$$$$$$$$$$$$$$$$$$$$$$$$$''''''$$$'''''''$$'''''''''''''''''$$$$$$$$$$$$$$$$$$$$$''$$$$$$$$$$$$$$$$$$$$$$$$$$$$$$$$",
  "$$$$$$$$$$$$$$$$$$$$$$$$$$$$$$$$$$$$$'''$$$$$$$'''$$$$'''''''''''''''''$$$$$$$$$$$$$$$$$$$$$'''$$$$$$$$$$$$$$$$$$$$$$$$$$$$$$$$$",
  "$$$$$$$$$$$$$$$$$$$$$$$$$$$$$$$$$$$$$'''''''''''$$'''''''''''''''''''''$$$$$$$$'$$$$$$$$$$$'''$$$$$$$$$$$$$$$$$$$$$$$$$$$$$$$$$$",
  "$$$$$$$$$$$$$$$$$$$$$$$$$$$$$$$$$$$$%$'''''''''''''''''''''''''''''''$$$$$$$$$''$$$$$$$$$''''$$$$$$$$$$$$$$$$$$$$$$$$$$$$$$$$$$$",
  "$$$$$$$$$$$$$$$$$$$$$$$$$$$$$$$$$$$$$$''''''''''''''''''''''''''$$$'$$$$$$$$$'''$$$$$$$$'''''$$$$$$$$$$$$$$$$$$$$$$$$$$$$$$$$$$$",
  "$$$$$$$$$$$$$$$$$$$$$$$$$$$$$$$$$$$$$$$'''''''''''''''''''''$$$$'''$$$$$$$$$''''$$$$$$$'''''$$$$$$$$$$$$$$$$$$$$$$$$$$$$$$$$$$$$",
  "$$$$$$$$$$$$$$$$$$$$$$$$$$$$$$$$$$$$$$$$''''''''''''''''$$$$$$$''''$$$$$$$''''''$$$$$$''''''$$$$$$$$$$$$$$$$$$$$$$$$$$$$$$$$$$$$",
  "$$$$$$$$$$$$$$$$$$$$$$$$$$$$$$$$$$$$$$$$'''''''''''''$$$$'''$$''''$$$$$$$'''''''$$$$$$''''''$$$$$$$$$$$$$$$$$$$$$$$$$$$$$$$$$$$$",
  "$$$$''''''''''''$$$$$$$$$$$$$$$$$$$$$$$$''''''''''''$'''''$$$'''''$$$$$$$'''''''$$$$$'''''''$$$$$$$$$$$$$$$$$$$$$$$$$$$$$$$$$$$$",
  "$'''''''''''''''''$$$$$$$$$$$$$$$$$$$$$'''''''''''''''''$$$''''''''$$$$$'''''''$$$$''''''''''$$$$$$$$$$$$$$$$$$$$$$$$$$$$$$$$$$$",
  "''''''''''''''''''''$$$$$$$$$$$$$$$$$$'''''''''''''''$$$$'''''''''''$$$'$$'''''$$$'''''$'''''$$$$$$$$$$$$$$$$$$$$$$$$$$$$$$$$'''",
  "'''''''''''''''''''''$$$$$$$$$$$$$$''''''''''''''''$$$''''''''''''''''''$$''''$$$$''''$'''''''$$$$$$$$$$$$$$$$$$$$$$$$$$$$''''''",
  "'''''''''''''''''''''''$$$$$$$$$$''''''''''''''''$$$'''''''''''''''''''''''''''$''''''''''''''''$$$$$$$$$$$$$$$$$$$$$$$$$'''''''",
  "'''''''''''''''''''''''''$$$$$$''''''''''''''''''$''''''''''''''''''''''''''''''''''''''''''''''''''''''''''''$$$$$'''''''''''''",
  "''''''''''''''''''''''''''''''''''''''''''''''''''''''''''''''''''''''''''''''''''''''''''''''''''''''''''''''''''''''''''''''''",
};
