/* XPM */
static char *background_8[] = {
  /* width height ncolors chars_per_pixel */
  "128 128 6 1 0 0",
  /* colors */
  "! c #000000",
  "# c #000080",
  "$ c #330066",
  "% c #663399",
  "& c #333399",
  "' c #666699",
  /* pixels */
  "#$$$!!!&%%!!!!!!!!!!!!!!!!!!!!!!!!!!!!!!!!!!!!!!!!!!!!!!!!!!!!!!!!!!!!!!!!!!!!!!!!!!!!!!!!!!!!!!!!!!!!!!!!!!!!!!!!!!!!%&%%######",
  "##$$$$#!&%%!!!!!!!!!!!!!!!!!!!!!!!!!!!!!!!!!!!!!!!!!!!!!!!!!!!!!!!!!!!!!!!!!!!!!!!!!!!!!!!!!!!!!!!!!!!!!!!!!!!!!!!!!!%%&&%%#####",
  "###$$!$!!&%%!!!!!!!!!!!!!!!!!!!!!!!!!!!!!!!!!!!!!!!!!!!!!!!!!!!!!!!!!!!!!!!!!!!!!!!!!!!!!!!!!!!!!!!!!!!!!!!!!!!!!!!!%%&!!&%%####",
  "####$$$!!!&%%!!!!!!!!!!!!!!!!!!!!!!!!!!!!!!!!!!!!!!!!!!!!!!!!!!!!!!!!!!!!!!!!!!!!!!!!!!!!!!!!!!!!!!!!!!!!!!!!!!!!!!%%&!!!$&%%###",
  "#####$$$!!!&%%!!!!!!!!!!!!!!!!!!!!!!!!!!!!!!!!!!!!!!!!!!!!!!!!!!!!!!!!!!!!!!!!!!!!!!!!!!!!!!!!!!!!!!!!!!!!!!!!!!!!%%&!!!$$$&%%##",
  "#&'###$$$!!!&%%!!!!!!!!!!!!!!!!!!!!!!!!!!!!!!!!!!!!!!!!!!!!!!!!!!!!!!!!!!!!!!!!!!!!!!!!!!!!!!!!!!!!!!!!!!!!!!!!!!%%&!!!$$$##&%%#",
  "#$&####$$$!!!&%%!!!!!!!!!!!!!!!!!!!!!!!!!!!!!!!!!!!!!!!!!!!!!!!!!!!!!!!!!!!!!!!!!!!!!!!!!!!!!!!!!!!!!!!!!!!!!!!!%%&!!!$$$####&%%",
  "%#######$$$!!!&%%!!!!!!!!!!!!!!!!!!!!!!!!!!!!!!!!!!!!!!!!!!!!!!!!!!!!!!!!!!!!!!!!!!!!!!!!!!!!!!!!!!!!!!!!!!!!!!%%&!!!$$$######&%",
  "%%#######$$$!!!&%%!!!!!!!!!!!!!!!!!!!!!!!!!!!!!!!!!!!!!!!!!!!!!!!!!!!!!!!!!!!!!!!!!!!!!!!!!!!!!!!!!!!!!!!!!!!!%%&!!!$$$#######%&",
  "&%%#######$$$!!!&%%!!!!!!!!!!!!!!!!!!!!!!!!!!!!!!!!!!!!!!!!!!!!!!!!!!!!!!!!!!!!!!!!!!!!!!!!!!!!!!!!!!!!!!!!!!%%&!!!$$$#######%%&",
  "!&%%#######$$$!!!&%%!!!!!!!!!!!!!!!!!!!!!!!!!!!!!!!!!!!!!!!!!!!!!!!!!!!!!!!!!!!!!!!!!!!!!!!!!!!!!!!!!!!!!!!!%%&!!!$$$#######%%&!",
  "!!&%%#######$$$!!!&%%!!!!!!!!!!!!!!!!!!!!!!!!!!!!!!!!!!!!!!!!!!!!!!!!!!!!!!!!!!!!!!!!!!!!!!!!!!!!!!!!!!!!!!%%&!!!$$$#######%%&!!",
  "!!!&%%#######$$$!!!&%%!!!!!!!!!!!!!!!!!!!!!!!!!!!!!!!!!!!!!!!!!!!!!!!!!!!!!!!!!!!!!!!!!!!!!!!!!!!!!!!!!!!!%%&!!!$$$#######%%&!!!",
  "!!!!&%%#######$$$!!!&%%!!!!!!!!!!!!!!!!!!!!!!!!!!!!!!!!!!!!!!!!!!!!!!!!!!!!!!!!!!!!!!!!!!!!!!!!!!!!!!!!!!%%&!!!$$$#######%%&!!!!",
  "!!!!!&%%#######$$$!!!&%%!!!!!!!!!!!!!!!!!!!!!!!!!!!!!!!!!!!!!!!!!!!!!!!!!!!!!!!!!!!!!!!!!!!!!!!!!!!!!!!!%%&!!!$$$#######%%&!!!!!",
  "!!!!!!&%%#######$$$!!!&%%!!!!!!!!!!!!!!!!!!!!!!!!!!!!!!!!!!!!!!!!!!!!!!!!!!!!!!!!!!!!!!!!!!!!!!!!!!!!!!%%&!!!$$$#######%%&!!!!!!",
  "!!!!!!!&%%#######$$$!!!&%%!!!!!!!!!!!!!!!!!!!!!!!!!!!!!!!!!!!!!!!!!!!!!!!!!!!!!!!!!!!!!!!!!!!!!!!!!!!!%%&!!!$$$#######%%&!!!!!!!",
  "!!!!!!!!&%%#######$$$!!!&%%!!!!!!!!!!!!!!!!!!!!!!!!!!!!!!!!!!!!!!!!!!!!!!!!!!!!!!!!!!!!!!!!!!!!!!!!!!%%&!!!$$$#######%%&!!!!!!!!",
  "!!!!!!!!!&%%#######$$$!!!&%%!!!!!!!!!!!!!!!!!!!!!!!!!!!!!!!!!!!!!!!!!!!!!!!!!!!!!!!!!!!!!!!!!!!!!!!!%%&!!!$$$#######%%&!!!!!!!!!",
  "!!!!!!!!!!&%%#######$$$!!!&%%!!!!!!!!!!!!!!!!!!!!!!!!!!!!!!!!!!!!!!!!!!!!!!!!!!!!!!!!!!!!!!!!!!!!!!%%&!!!$$$#######%%&!!!!!!!!!!",
  "!!!!!!!!!!!&%%#######$$$!!!&%%!!!!!!!!!!!!!!!!!!!!!!!!!!!!!!!!!!!!!!!!!!!!!!!!!!!!!!!!!!!!!!!!!!!!%%&!!!$$$#######%%&!!!!!!!!!!!",
  "!!!!!!!!!!!!&%%#######$$$!!!&%%!!!!!!!!!!!!!!!!!!!!!!!!!!!!!!!!!!!!!!!!!!!!!!!!!!!!!!!!!!!!!!!!!!%%&!!!$$$#######%%&!!!!!!!!!!!!",
  "!!!!!!!!!!!!!&%%#######$$$!!!&%%!!!!!!!!!!!!!!!!!!!!!!!!!!!!!!!!!!!!!!!!!!!!!!!!!!!!!!!!!!!!!!!!%%&!!!$$$#######%%&!!!!!!!!!!!!!",
  "!!!!!!!!!!!!!!&%%#######$$$!!!&%%!!!!!!!!!!!!!!!!!!!!!!!!!!!!!!!!!!!!!!!!!!!!!!!!!!!!!!!!!!!!!!%%&!!!$$$#######%%&!!!!!!!!!!!!!!",
  "!!!!!!!!!!!!!!!&%%#######$$$!!!&%%!!!!!!!!!!!!!!!!!!!!!!!!!!!!!!!!!!!!!!!!!!!!!!!!!!!!!!!!!!!!%%&!!!$$$#######%%&!!!!!!!!!!!!!!!",
  "!!!!!!!!!!!!!!!!&%%#######$$$!!!&%%!!!!!!!!!!!!!!!!!!!!!!!!!!!!!!!!!!!!!!!!!!!!!!!!!!!!!!!!!!%%&!!!$$$#######%%&!!!!!!!!!!!!!!!!",
  "!!!!!!!!!!!!!!!!!&%%#######$$$!!!&%%!!!!!!!!!!!!!!!!!!!!!!!!!!!!!!!!!!!!!!!!!!!!!!!!!!!!!!!!%%&!!!$$$#######%%&!!!!!!!!!!!!!!!!!",
  "!!!!!!!!!!!!!!!!!!&%%#######$$$!!!&%%!!!!!!!!!!!!!!!!!!!!!!!!!!!!!!!!!!!!!!!!!!!!!!!!!!!!!!%%&!!!$$$#######%%&!!!!!!!!!!!!!!!!!!",
  "!!!!!!!!!!!!!!!!!!!&%%#######$$$!!!&%%!!!!!!!!!!!!!!!!!!!!!!!!!!!!!!!!!!!!!!!!!!!!!!!!!!!!%%&!!!$$$#######%%&!!!!!!!!!!!!!!!!!!!",
  "!!!!!!!!!!!!!!!!!!!!&%%#######$$$!!!&%%!!!!!!!!!!!!!!!!!!!!!!!!!!!!!!!!!!!!!!!!!!!!!!!!!!%%&!!!$$$#######%%&!!!!!!!!!!!!!!!!!!!!",
  "!!!!!!!!!!!!!!!!!!!!!&%%#######$$$!!!&%%!!!!!!!!!!!!!!!!!!!!!!!!!!!!!!!!!!!!!!!!!!!!!!!!%%&!!!$$$#######%%&!!!!!!!!!!!!!!!!!!!!!",
  "!!!!!!!!!!!!!!!!!!!!!!&%%#######$$$!!!&%%!!!!!!!!!!!!!!!!!!!!!!!!!!!!!!!!!!!!!!!!!!!!!!%%&!!!$$$#######%%&!!!!!!!!!!!!!!!!!!!!!!",
  "!!!!!!!!!!!!!!!!!!!!!!!&%%#######$$$!!!&%%!!!!!!!!!!!!!!!!!!!!!!!!!!!!!!!!!!!!!!!!!!!!%%&!!!$$$#######%%&!!!!!!!!!!!!!!!!!!!!!!!",
  "!!!!!!!!!!!!!!!!!!!!!!!!&%%#######$$$!!!&%%!!!!!!!!!!!!!!!!!!!!!!!!!!!!!!!!!!!!!!!!!!%%&!!!$$$###'&##%%&!!!!!!!!!!!!!!!!!!!!!!!!",
  "!!!!!!!!!!!!!!!!!!!!!!!!!&%%#######$$$!!!&%%!!!!!!!!!!!!!!!!!!!!!!!!!!!!!!!!!!!!!!!!%%&!!!$$$####&$#%%&!!!!!!!!!!!!!!!!!!!!!!!!!",
  "!!!!!!!!!!!!!!!!!!!!!!!!!!&%%#######$$$!!!&%%!!!!!!!!!!!!!!!!!!!!!!!!!!!!!!!!!!!!!!%%&!!!$$$#######%%&!!!!!!!!!!!!!!!!!!!!!!!!!!",
  "!!!!!!!!!!!!!!!!!!!!!!!!!!!&%%##&'###$$$!!!&%%!!!!!!!!!!!!!!!!!!!!!!!!!!!!!!!!!!!!%%&!!!$$$#######%%&!!!!!!!!!!!!!!!!!!!!!!!!!!!",
  "!!!!!!!!!!!!!!!!!!!!!!!!!!!!&%%#$&####$$$!!!&%%!!!!!!!!!!!!!!!!!!!!!!!!!!!!!!!!!!%%&!!!$$$#######%%&!!!!!!!!!!!!!!!!!!!!!!!!!!!!",
  "!!!!!!!!!!!!!!!!!!!!!!!!!!!!!&%%#######$$$!!!&%%!!!!!!!!!!!!!!!!!!!!!!!!!!!!!!!!%%&!!!$$$#######%%&!!!!!!!!!!!!!!!!!!!!!!!!!!!!!",
  "!!!!!!!!!!!!!!!!!!!!!!!!!!!!!!&%%#######$$$!!!&%%!!!!!!!!!!!!!!!!!!!!!!!!!!!!!!%%&!!!$$$#######%%&!!!!!!!!!!!!!!!!!!!!!!!!!!!!!!",
  "!!!!!!!!!!!!!!!!!!!!!!!!!!!!!!!&%%#######$$$!!!&%%!!!!!!!!!!!!!!!!!!!!!!!!!!!!%%&!!!$$$#######%%&!!!!!!!!!!!!!!!!!!!!!!!!!!!!!!!",
  "!!!!!!!!!!!!!!!!!!!!!!!!!!!!!!!!&%%#######$$$!!!&%%!!!!!!!!!!!!!!!!!!!!!!!!!!%%&!!!$$$#######%%&!!!!!!!!!!!!!!!!!!!!!!!!!!!!!!!!",
  "!!!!!!!!!!!!!!!!!!!!!!!!!!!!!!!!!&%%#######$$$!!!&%%!!!!!!!!!!!!!!!!!!!!!!!!%%&!!!$$$#######%%&!!!!!!!!!!!!!!!!!!!!!!!!!!!!!!!!!",
  "!!!!!!!!!!!!!!!!!!!!!!!!!!!!!!!!!!&%%#######$$$!!!&%%!!!!!!!!!!!!!!!!!!!!!!%%&!!!$$$#######%%&!!!!!!!!!!!!!!!!!!!!!!!!!!!!!!!!!!",
  "!!!!!!!!!!!!!!!!!!!!!!!!!!!!!!!!!!!&%%#######$$$!!!&%%!!!!!!!!!!!!!!!!!!!!%%&!!!$$$#######%%&!!!!!!!!!!!!!!!!!!!!!!!!!!!!!!!!!!!",
  "!!!!!!!!!!!!!!!!!!!!!!!!!!!!!!!!!!!!&%%#######$$$!!!&%%!!!!!!!!!!!!!!!!!!%%&!!!$$$#######%%&!!!!!!!!!!!!!!!!!!!!!!!!!!!!!!!!!!!!",
  "!!!!!!!!!!!!!!!!!!!!!!!!!!!!!!!!!!!!!&%%#######$$$!!!&%%!!!!!!!!!!!!!!!!%%&!!!$$$#######%%&!!!!!!!!!!!!!!!!!!!!!!!!!!!!!!!!!!!!!",
  "!!!!!!!!!!!!!!!!!!!!!!!!!!!!!!!!!!!!!!&%%#######$$$!!!&%%!!!!!!!!!!!!!!%%&!!!$$$#######%%&!!!!!!!!!!!!!!!!!!!!!!!!!!!!!!!!!!!!!!",
  "!!!!!!!!!!!!!!!!!!!!!!!!!!!!!!!!!!!!!!!&%%#######$$$!!!&%%!!!!!!!!!!!!%%&!!!$$$#######%%&!!!!!!!!!!!!!!!!!!!!!!!!!!!!!!!!!!!!!!!",
  "!!!!!!!!!!!!!!!!!!!!!!!!!!!!!!!!!!!!!!!!&%%#######$$$!!!&%%!!!!!!!!!!%%&!!!$$$#######%%&!!!!!!!!!!!!!!!!!!!!!!!!!!!!!!!!!!!!!!!!",
  "!!!!!!!!!!!!!!!!!!!!!!!!!!!!!!!!!!!!!!!!!&%%#######$$$!!!&%%!!!!!!!!%%&!!!$$$#######%%&!!!!!!!!!!!!!!!!!!!!!!!!!!!!!!!!!!!!!!!!!",
  "!!!!!!!!!!!!!!!!!!!!!!!!!!!!!!!!!!!!!!!!!!&%%#######$$$!!!&%%!!!!!!%%&!!!$$$#######%%&!!!!!!!!!!!!!!!!!!!!!!!!!!!!!!!!!!!!!!!!!!",
  "!!!!!!!!!!!!!!!!!!!!!!!!!!!!!!!!!!!!!!!!!!!&%%#######$$$!!!&%%!!!!%%&!!!$$$#######%%&!!!!!!!!!!!!!!!!!!!!!!!!!!!!!!!!!!!!!!!!!!!",
  "!!!!!!!!!!!!!!!!!!!!!!!!!!!!!!!!!!!!!!!!!!!!&%%#######$$$!!!&%%!!%%&!!!$$$#######%%&!!!!!!!!!!!!!!!!!!!!!!!!!!!!!!!!!!!!!!!!!!!!",
  "!!!!!!!!!!!!!!!!!!!!!!!!!!!!!!!!!!!!!!!!!!!!!&%%#######$$$!!!&%%%%&!!!$$$#######%%&!!!!!!!!!!!!!!!!!!!!!!!!!!!!!!!!!!!!!!!!!!!!!",
  "!!!!!!!!!!!!!!!!!!!!!!!!!!!!!!!!!!!!!!!!!!!!!!&%%#######$$$!!!&%%&!!!$$$#######%%&!!!!!!!!!!!!!!!!!!!!!!!!!!!!!!!!!!!!!!!!!!!!!!",
  "!!!!!!!!!!!!!!!!!!!!!!!!!!!!!!!!!!!!!!!!!!!!!!!&%%#######$$$!!!&%%!!$$$#######%%&!!!!!!!!!!!!!!!!!!!!!!!!!!!!!!!!!!!!!!!!!!!!!!!",
  "!!!!!!!!!!!!!!!!!!!!!!!!!!!!!!!!!!!!!!!!!!!!!!!!&%%#######$$$$#!&%%$$$#######%%&!!!!!!!!!!!!!!!!!!!!!!!!!!!!!!!!!!!!!!!!!!!!!!!!",
  "!!!!!!!!!!!!!!!!!!!!!!!!!!!!!!!!!!!!!!!!!!!!!!!!!&%%#######$$!$!!&%%$#######%%&!!!!!!!!!!!!!!!!!!!!!!!!!!!!!!!!!!!!!!!!!!!!!!!!!",
  "!!!!!!!!!!!!!!!!!!!!!!!!!!!!!!!!!!!!!!!!!!!!!!!!!!&%%#######$$$!!!&%%######%%&!!!!!!!!!!!!!!!!!!!!!!!!!!!!!!!!!!!!!!!!!!!!!!!!!!",
  "!!!!!!!!!!!!!!!!!!!!!!!!!!!!!!!!!!!!!!!!!!!!!!!!!!!&%%#######$$$!!!&%%####%%&!!!!!!!!!!!!!!!!!!!!!!!!!!!!!!!!!!!!!!!!!!!!!!!!!!!",
  "!!!!!!!!!!!!!!!!!!!!!!!!!!!!!!!!!!!!!!!!!!!!!!!!!!!!&%%##&'###$$$!!!&%%##%%&!!!!!!!!!!!!!!!!!!!!!!!!!!!!!!!!!!!!!!!!!!!!!!!!!!!!",
  "!!!!!!!!!!!!!!!!!!!!!!!!!!!!!!!!!!!!!!!!!!!!!!!!!!!!!&%%#$&####$$$!!!&%%%%&!!!!!!!!!!!!!!!!!!!!!!!!!!!!!!!!!!!!!!!!!!!!!!!!!!!!!",
  "!!!!!!!!!!!!!!!!!!!!!!!!!!!!!!!!!!!!!!!!!!!!!!!!!!!!!!&%%#######$$$!!!&%%&!!!!!!!!!!!!!!!!!!!!!!!!!!!!!!!!!!!!!!!!!!!!!!!!!!!!!!",
  "!!!!!!!!!!!!!!!!!!!!!!!!!!!!!!!!!!!!!!!!!!!!!!!!!!!!!!%&%%#######$$$!!!&%%!!!!!!!!!!!!!!!!!!!!!!!!!!!!!!!!!!!!!!!!!!!!!!!!!!!!!!",
  "!!!!!!!!!!!!!!!!!!!!!!!!!!!!!!!!!!!!!!!!!!!!!!!!!!!!!%%&&%%#######$$$$#!&%%!!!!!!!!!!!!!!!!!!!!!!!!!!!!!!!!!!!!!!!!!!!!!!!!!!!!!",
  "!!!!!!!!!!!!!!!!!!!!!!!!!!!!!!!!!!!!!!!!!!!!!!!!!!!!%%&!!&%%#######$$!$!!&%%!!!!!!!!!!!!!!!!!!!!!!!!!!!!!!!!!!!!!!!!!!!!!!!!!!!!",
  "!!!!!!!!!!!!!!!!!!!!!!!!!!!!!!!!!!!!!!!!!!!!!!!!!!!%%&!!!!&%%#######$$$!!!&%%!!!!!!!!!!!!!!!!!!!!!!!!!!!!!!!!!!!!!!!!!!!!!!!!!!!",
  "!!!!!!!!!!!!!!!!!!!!!!!!!!!!!!!!!!!!!!!!!!!!!!!!!!%%&!!!!!!&%%#######$$$!!!&%%!!!!!!!!!!!!!!!!!!!!!!!!!!!!!!!!!!!!!!!!!!!!!!!!!!",
  "!!!!!!!!!!!!!!!!!!!!!!!!!!!!!!!!!!!!!!!!!!!!!!!!!%%&!!!$$!!!&%%##&'###$$$!!!&%%!!!!!!!!!!!!!!!!!!!!!!!!!!!!!!!!!!!!!!!!!!!!!!!!!",
  "!!!!!!!!!!!!!!!!!!!!!!!!!!!!!!!!!!!!!!!!!!!!!!!!%%&!!!$$$$!!!&%%#$&####$$$!!!&%%!!!!!!!!!!!!!!!!!!!!!!!!!!!!!!!!!!!!!!!!!!!!!!!!",
  "!!!!!!!!!!!!!!!!!!!!!!!!!!!!!!!!!!!!!!!!!!!!!!!%%&!!!$$$#$$!!!&%%#######$$$!!!&%%!!!!!!!!!!!!!!!!!!!!!!!!!!!!!!!!!!!!!!!!!!!!!!!",
  "!!!!!!!!!!!!!!!!!!!!!!!!!!!!!!!!!!!!!!!!!!!!!!%%&!!!$$$###$$!!%&%%#######$$$!!!&%%!!!!!!!!!!!!!!!!!!!!!!!!!!!!!!!!!!!!!!!!!!!!!!",
  "!!!!!!!!!!!!!!!!!!!!!!!!!!!!!!!!!!!!!!!!!!!!!%%&!!!$$$#####$$%%&&%%#######$$$!!!&%%!!!!!!!!!!!!!!!!!!!!!!!!!!!!!!!!!!!!!!!!!!!!!",
  "!!!!!!!!!!!!!!!!!!!!!!!!!!!!!!!!!!!!!!!!!!!!%%&!!!$$$#######%%&!!&%%#######$$$!!!&%%!!!!!!!!!!!!!!!!!!!!!!!!!!!!!!!!!!!!!!!!!!!!",
  "!!!!!!!!!!!!!!!!!!!!!!!!!!!!!!!!!!!!!!!!!!!%%&!!!$$$#######%%&!!!!&%%#######$$$!!!&%%!!!!!!!!!!!!!!!!!!!!!!!!!!!!!!!!!!!!!!!!!!!",
  "!!!!!!!!!!!!!!!!!!!!!!!!!!!!!!!!!!!!!!!!!!%%&!!!$$$#######%%&!!!!!!&%%#######$$$!!!&%%!!!!!!!!!!!!!!!!!!!!!!!!!!!!!!!!!!!!!!!!!!",
  "!!!!!!!!!!!!!!!!!!!!!!!!!!!!!!!!!!!!!!!!!%%&!!!$$$#######%%&!!!!!!!!&%%#######$$$!!!&%%!!!!!!!!!!!!!!!!!!!!!!!!!!!!!!!!!!!!!!!!!",
  "!!!!!!!!!!!!!!!!!!!!!!!!!!!!!!!!!!!!!!!!%%&!!!$$$#######%%&!!!!!!!!!!&%%#######$$$!!!&%%!!!!!!!!!!!!!!!!!!!!!!!!!!!!!!!!!!!!!!!!",
  "!!!!!!!!!!!!!!!!!!!!!!!!!!!!!!!!!!!!!!!%%&!!!$$$#######%%&!!!!!!!!!!!!&%%#######$$$!!!&%%!!!!!!!!!!!!!!!!!!!!!!!!!!!!!!!!!!!!!!!",
  "!!!!!!!!!!!!!!!!!!!!!!!!!!!!!!!!!!!!!!%%&!!!$$$#######%%&!!!!!!!!!!!!!!&%%#######$$$!!!&%%!!!!!!!!!!!!!!!!!!!!!!!!!!!!!!!!!!!!!!",
  "!!!!!!!!!!!!!!!!!!!!!!!!!!!!!!!!!!!!!%%&!!!$$$#######%%&!!!!!!!!!!!!!!!!&%%#######$$$!!!&%%!!!!!!!!!!!!!!!!!!!!!!!!!!!!!!!!!!!!!",
  "!!!!!!!!!!!!!!!!!!!!!!!!!!!!!!!!!!!!%%&!!!$$$#######%%&!!!!!!!!!!!!!!!!!!&%%#######$$$!!!&%%!!!!!!!!!!!!!!!!!!!!!!!!!!!!!!!!!!!!",
  "!!!!!!!!!!!!!!!!!!!!!!!!!!!!!!!!!!!%%&!!!$$$#######%%&!!!!!!!!!!!!!!!!!!!!&%%#######$$$!!!&%%!!!!!!!!!!!!!!!!!!!!!!!!!!!!!!!!!!!",
  "!!!!!!!!!!!!!!!!!!!!!!!!!!!!!!!!!!%%&!!!$$$#######%%&!!!!!!!!!!!!!!!!!!!!!!&%%#######$$$!!!&%%!!!!!!!!!!!!!!!!!!!!!!!!!!!!!!!!!!",
  "!!!!!!!!!!!!!!!!!!!!!!!!!!!!!!!!!%%&!!!$$$#######%%&!!!!!!!!!!!!!!!!!!!!!!!!&%%#######$$$!!!&%%!!!!!!!!!!!!!!!!!!!!!!!!!!!!!!!!!",
  "!!!!!!!!!!!!!!!!!!!!!!!!!!!!!!!!%%&!!!$$$#######%%&!!!!!!!!!!!!!!!!!!!!!!!!!!&%%#######$$$!!!&%%!!!!!!!!!!!!!!!!!!!!!!!!!!!!!!!!",
  "!!!!!!!!!!!!!!!!!!!!!!!!!!!!!!!%%&!!!$$$#######%%&!!!!!!!!!!!!!!!!!!!!!!!!!!!!&%%#######$$$!!!&%%!!!!!!!!!!!!!!!!!!!!!!!!!!!!!!!",
  "!!!!!!!!!!!!!!!!!!!!!!!!!!!!!!%%&!!!$$$#######%%&!!!!!!!!!!!!!!!!!!!!!!!!!!!!!!&%%#######$$$!!!&%%!!!!!!!!!!!!!!!!!!!!!!!!!!!!!!",
  "!!!!!!!!!!!!!!!!!!!!!!!!!!!!!%%&!!!$$$#######%%&!!!!!!!!!!!!!!!!!!!!!!!!!!!!!!!!&%%#######$$$!!!&%%!!!!!!!!!!!!!!!!!!!!!!!!!!!!!",
  "!!!!!!!!!!!!!!!!!!!!!!!!!!!!%%&!!!$$$#######%%&!!!!!!!!!!!!!!!!!!!!!!!!!!!!!!!!!!&%%#######$$$!!!&%%!!!!!!!!!!!!!!!!!!!!!!!!!!!!",
  "!!!!!!!!!!!!!!!!!!!!!!!!!!!%%&!!!$$$#######%%&!!!!!!!!!!!!!!!!!!!!!!!!!!!!!!!!!!!!&%%#######$$$!!!&%%!!!!!!!!!!!!!!!!!!!!!!!!!!!",
  "!!!!!!!!!!!!!!!!!!!!!!!!!!%%&!!!$$$#######%%&!!!!!!!!!!!!!!!!!!!!!!!!!!!!!!!!!!!!!!&%%#######$$$!!!&%%!!!!!!!!!!!!!!!!!!!!!!!!!!",
  "!!!!!!!!!!!!!!!!!!!!!!!!!%%&!!!$$$#######%%&!!!!!!!!!!!!!!!!!!!!!!!!!!!!!!!!!!!!!!!!&%%#######$$$!!!&%%!!!!!!!!!!!!!!!!!!!!!!!!!",
  "!!!!!!!!!!!!!!!!!!!!!!!!%%&!!!$$$#######%%&!!!!!!!!!!!!!!!!!!!!!!!!!!!!!!!!!!!!!!!!!!&%%##&'###$$$!!!&%%!!!!!!!!!!!!!!!!!!!!!!!!",
  "!!!!!!!!!!!!!!!!!!!!!!!%%&!!!$$$#######%%&!!!!!!!!!!!!!!!!!!!!!!!!!!!!!!!!!!!!!!!!!!!!&%%#$&####$$$!!!&%%!!!!!!!!!!!!!!!!!!!!!!!",
  "!!!!!!!!!!!!!!!!!!!!!!%%&!!!$$$###'&##%%&!!!!!!!!!!!!!!!!!!!!!!!!!!!!!!!!!!!!!!!!!!!!!!&%%#######$$$!!!&%%!!!!!!!!!!!!!!!!!!!!!!",
  "!!!!!!!!!!!!!!!!!!!!!%%&!!!$$$####&$#%%&!!!!!!!!!!!!!!!!!!!!!!!!!!!!!!!!!!!!!!!!!!!!!!!!&%%#######$$$!!!&%%!!!!!!!!!!!!!!!!!!!!!",
  "!!!!!!!!!!!!!!!!!!!!%%&!!!$$$#######%%&!!!!!!!!!!!!!!!!!!!!!!!!!!!!!!!!!!!!!!!!!!!!!!!!!!&%%#######$$$!!!&%%!!!!!!!!!!!!!!!!!!!!",
  "!!!!!!!!!!!!!!!!!!!%%&!!!$$$#######%%&!!!!!!!!!!!!!!!!!!!!!!!!!!!!!!!!!!!!!!!!!!!!!!!!!!!!&%%#######$$$!!!&%%!!!!!!!!!!!!!!!!!!!",
  "!!!!!!!!!!!!!!!!!!%%&!!!$$$#######%%&!!!!!!!!!!!!!!!!!!!!!!!!!!!!!!!!!!!!!!!!!!!!!!!!!!!!!!&%%#######$$$!!!&%%!!!!!!!!!!!!!!!!!!",
  "!!!!!!!!!!!!!!!!!%%&!!!$$$#######%%&!!!!!!!!!!!!!!!!!!!!!!!!!!!!!!!!!!!!!!!!!!!!!!!!!!!!!!!!&%%#######$$$!!!&%%!!!!!!!!!!!!!!!!!",
  "!!!!!!!!!!!!!!!!%%&!!!$$$#######%%&!!!!!!!!!!!!!!!!!!!!!!!!!!!!!!!!!!!!!!!!!!!!!!!!!!!!!!!!!!&%%#######$$$!!!&%%!!!!!!!!!!!!!!!!",
  "!!!!!!!!!!!!!!!%%&!!!$$$#######%%&!!!!!!!!!!!!!!!!!!!!!!!!!!!!!!!!!!!!!!!!!!!!!!!!!!!!!!!!!!!!&%%#######$$$!!!&%%!!!!!!!!!!!!!!!",
  "!!!!!!!!!!!!!!%%&!!!$$$#######%%&!!!!!!!!!!!!!!!!!!!!!!!!!!!!!!!!!!!!!!!!!!!!!!!!!!!!!!!!!!!!!!&%%#######$$$!!!&%%!!!!!!!!!!!!!!",
  "!!!!!!!!!!!!!%%&!!!$$$#######%%&!!!!!!!!!!!!!!!!!!!!!!!!!!!!!!!!!!!!!!!!!!!!!!!!!!!!!!!!!!!!!!!!&%%#######$$$!!!&%%!!!!!!!!!!!!!",
  "!!!!!!!!!!!!%%&!!!$$$#######%%&!!!!!!!!!!!!!!!!!!!!!!!!!!!!!!!!!!!!!!!!!!!!!!!!!!!!!!!!!!!!!!!!!!&%%#######$$$!!!&%%!!!!!!!!!!!!",
  "!!!!!!!!!!!%%&!!!$$$#######%%&!!!!!!!!!!!!!!!!!!!!!!!!!!!!!!!!!!!!!!!!!!!!!!!!!!!!!!!!!!!!!!!!!!!!&%%#######$$$!!!&%%!!!!!!!!!!!",
  "!!!!!!!!!!%%&!!!$$$#######%%&!!!!!!!!!!!!!!!!!!!!!!!!!!!!!!!!!!!!!!!!!!!!!!!!!!!!!!!!!!!!!!!!!!!!!!&%%#######$$$!!!&%%!!!!!!!!!!",
  "!!!!!!!!!%%&!!!$$$#######%%&!!!!!!!!!!!!!!!!!!!!!!!!!!!!!!!!!!!!!!!!!!!!!!!!!!!!!!!!!!!!!!!!!!!!!!!!&%%#######$$$!!!&%%!!!!!!!!!",
  "!!!!!!!!%%&!!!$$$#######%%&!!!!!!!!!!!!!!!!!!!!!!!!!!!!!!!!!!!!!!!!!!!!!!!!!!!!!!!!!!!!!!!!!!!!!!!!!!&%%#######$$$!!!&%%!!!!!!!!",
  "!!!!!!!%%&!!!$$$#######%%&!!!!!!!!!!!!!!!!!!!!!!!!!!!!!!!!!!!!!!!!!!!!!!!!!!!!!!!!!!!!!!!!!!!!!!!!!!!!&%%#######$$$!!!&%%!!!!!!!",
  "!!!!!!%%&!!!$$$#######%%&!!!!!!!!!!!!!!!!!!!!!!!!!!!!!!!!!!!!!!!!!!!!!!!!!!!!!!!!!!!!!!!!!!!!!!!!!!!!!!&%%#######$$$!!!&%%!!!!!!",
  "!!!!!%%&!!!$$$#######%%&!!!!!!!!!!!!!!!!!!!!!!!!!!!!!!!!!!!!!!!!!!!!!!!!!!!!!!!!!!!!!!!!!!!!!!!!!!!!!!!!&%%#######$$$!!!&%%!!!!!",
  "!!!!%%&!!!$$$#######%%&!!!!!!!!!!!!!!!!!!!!!!!!!!!!!!!!!!!!!!!!!!!!!!!!!!!!!!!!!!!!!!!!!!!!!!!!!!!!!!!!!!&%%#######$$$!!!&%%!!!!",
  "!!!%%&!!!$$$#######%%&!!!!!!!!!!!!!!!!!!!!!!!!!!!!!!!!!!!!!!!!!!!!!!!!!!!!!!!!!!!!!!!!!!!!!!!!!!!!!!!!!!!!&%%#######$$$!!!&%%!!!",
  "!!%%&!!!$$$#######%%&!!!!!!!!!!!!!!!!!!!!!!!!!!!!!!!!!!!!!!!!!!!!!!!!!!!!!!!!!!!!!!!!!!!!!!!!!!!!!!!!!!!!!!&%%#######$$$!!!&%%!!",
  "!%%&!!!$$$#######%%&!!!!!!!!!!!!!!!!!!!!!!!!!!!!!!!!!!!!!!!!!!!!!!!!!!!!!!!!!!!!!!!!!!!!!!!!!!!!!!!!!!!!!!!!&%%#######$$$!!!&%%!",
  "%%&!!!$$$#######%%&!!!!!!!!!!!!!!!!!!!!!!!!!!!!!!!!!!!!!!!!!!!!!!!!!!!!!!!!!!!!!!!!!!!!!!!!!!!!!!!!!!!!!!!!!!&%%#######$$$!!!&%%",
  "%&!!!$$$#######%%&!!!!!!!!!!!!!!!!!!!!!!!!!!!!!!!!!!!!!!!!!!!!!!!!!!!!!!!!!!!!!!!!!!!!!!!!!!!!!!!!!!!!!!!!!!!!&%%#######$$$!!!&%",
  "%%!!$$$#######%%&!!!!!!!!!!!!!!!!!!!!!!!!!!!!!!!!!!!!!!!!!!!!!!!!!!!!!!!!!!!!!!!!!!!!!!!!!!!!!!!!!!!!!!!!!!!!!!&%%#######$$$!!!&",
  "&%%$$$#######%%&!!!!!!!!!!!!!!!!!!!!!!!!!!!!!!!!!!!!!!!!!!!!!!!!!!!!!!!!!!!!!!!!!!!!!!!!!!!!!!!!!!!!!!!!!!!!!!!!&%%#######$$$$#!",
  "!&%%$#######%%&!!!!!!!!!!!!!!!!!!!!!!!!!!!!!!!!!!!!!!!!!!!!!!!!!!!!!!!!!!!!!!!!!!!!!!!!!!!!!!!!!!!!!!!!!!!!!!!!!!&%%#######$$!$!",
  "!!&%%######%%&!!!!!!!!!!!!!!!!!!!!!!!!!!!!!!!!!!!!!!!!!!!!!!!!!!!!!!!!!!!!!!!!!!!!!!!!!!!!!!!!!!!!!!!!!!!!!!!!!!!!&%%#######$$$!",
  "!!!&%%####%%&!!!!!!!!!!!!!!!!!!!!!!!!!!!!!!!!!!!!!!!!!!!!!!!!!!!!!!!!!!!!!!!!!!!!!!!!!!!!!!!!!!!!!!!!!!!!!!!!!!!!!!&%%#######$$$",
  "$!!!&%%##%%&!!!!!!!!!!!!!!!!!!!!!!!!!!!!!!!!!!!!!!!!!!!!!!!!!!!!!!!!!!!!!!!!!!!!!!!!!!!!!!!!!!!!!!!!!!!!!!!!!!!!!!!!&%%##&'###$$",
  "$$!!!&%%%%&!!!!!!!!!!!!!!!!!!!!!!!!!!!!!!!!!!!!!!!!!!!!!!!!!!!!!!!!!!!!!!!!!!!!!!!!!!!!!!!!!!!!!!!!!!!!!!!!!!!!!!!!!!&%%#$&####$",
  "$$$!!!&%%&!!!!!!!!!!!!!!!!!!!!!!!!!!!!!!!!!!!!!!!!!!!!!!!!!!!!!!!!!!!!!!!!!!!!!!!!!!!!!!!!!!!!!!!!!!!!!!!!!!!!!!!!!!!!&%%#######",
};
