/* XPM */
static char *block_3[] = {
  /* width height ncolors chars_per_pixel */
  "32 32 5 1 0 0",
  /* colors */
  "! c #000000",
  "# c #333366",
  "$ c #555555",
  "% c None",
  "& c #333300",
  /* pixels */
  "!!&$&!!!&$$$&&&&&!!!!!!&&!!!&!&!",
  "!&$$!!!&&$$$&#$!!&!!!!!&&!!!!!&&",
  "&&&!!!!&$$$$#&&!!&!!!!!!&&!!!!&&",
  "&&&!!!&&$$$$$&&&!!!!!!!!&!!!!!$$",
  "$&!!&&&$$$$$$&&&!!!!!!!!&!!!!!&&",
  "&&&&&&&&$$&$$&!&!!!!!!!!!!!!!!!!",
  "!!&&&&#$$#&&$&!&!!!!!!!!!&!!!!!&",
  "!!&&&#&&$&&#&!!&!!!!&&!!!!!!&&!&",
  "!!&&&$$&$&&#!!&!!!!!!&!!!!!!&&!!",
  "!!!&$$&&&!&&!&&!!!!!!!!!!!!&&&!!",
  "#!!&$&&!!$&!!&!!!!!!!&!!!!&&$!!!",
  "#&&!&&&&&#&!!!!!!!!&&#!!!!!$&!!!",
  "&$&!&&&&&&&!!!&!!!!!&&!!!!!&$!!&",
  "&$#!!&!!&&&!!&&!!!!&$&!!!!!&&!!&",
  "&$$!!&&&&&!!&&&!!!!$$!!!&&&&&&!!",
  "#$$&&&&&&&!!&&&!!!&&&!!!&&&&&&!&",
  "$$$&&&!!&&!!!$&!!!&$&!!!&$&!!&&&",
  "&$&&&&!!&&!!&#!!!!$$&!!&$#!!!!&$",
  "#&&&$&!!&!!!!&!!&&&&!!!&$&!!&&$$",
  "&&&&$$!!!&!!!&&&$&!!!&&$$&!!!&$$",
  "!&&$$&&!!&!!!!&$#!!!!&&$&!!&&&&&",
  "!!&&&&&!&!!!!!&$&!!!!&#$#!!&&&&&",
  "!!!!&&&&$!!&&!&&&!!&&&&&$&&&&&&&",
  "!!!!&$&$$!!&&&&&!!!&&&&$$&&&&!&$",
  "!!!!!&&&#!!&&&&&&!!&&&&&$&!!&&&$",
  "!!!!!&$$&!!&$#&&&!!&!!&&$&!&&&&&",
  "!!!!!!$$!!!!&&&&&&&&&!&&&&&&!&&#",
  "!!!!!!&$&!!&&&&&&&&&&&&&&&&!!&$$",
  "&!!!!!&$&&!!#$&!!&&&&$&&&!!!!!$$",
  "!!!!!!&&&&!!&&&!!&&&$$$&&!!!!&$$",
  "!!!!!!&&&!!!&$&!!!&&$$$$&!!!!&&$",
  "!!!!!!&&!!&&$&!&&!!#$$$$&!!!&&&#",
};
