/* XPM */
static char *block_21[] = {
  /* width height ncolors chars_per_pixel */
  "32 32 12 1 0 0",
  /* colors */
  "! c #d49f55",
  "# c #c0c0c0",
  "$ c #d47f00",
  "% c #663300",
  "& c #333366",
  "' c #555555",
  "( c #aa5f00",
  ") c #aa3f00",
  "* c #808080",
  "+ c None",
  ", c #ffbf55",
  "- c #333300",
  /* pixels */
  "!,,,,,,,,,,,,,,,!,,,,,,,,,,,,,,!",
  ",,,,!!!!!!!!!!,%%,,,!!!!!!!!!!,%",
  "$,,!!!!!!!!!,,%%-,,!!!!!!!!!!,%-",
  "$$,,,,,,,,,,%,%--$,,!,,!!!!!,,--",
  "$$$,%%%%%%%%%,--%$$,,%%,!!!,%,-%",
  "$$$,%%%%()))%,--%$$,!%%%,,,%%,-%",
  "$$$!%())))()%,-%%$$!%))%%%%%%,-%",
  "$$$!%((())((),-%%$!!%)))))))%,-%",
  "$!$!($((()($),-%%!$!%))())))(,-%",
  "!$$!$($)$$$$),-%%$$!%((((($($,-%",
  "$$$!($$()($$%!-%%!$!%)$$$($$!!-%",
  "$$!!%)$$())%-$-%%$!!%$(%%----$-%",
  "$!,)-%%)))%-%(%-%$,)----%---%(%-",
  "!,)-----------(%-,)-----%%%---(%",
  ",)--%%%%%%%%%--(%)--%%%%%%%%%--(",
  ",)--%%%%%%%%%%-%)%-%%%%%%%%%%%--",
  "&&&&&&&-&&&&&&&&-&&&&&&-&&&&&&&&",
  "*''''&&-**''***'*-&&&&&-**''***'",
  "''''&&&-***''#''''&'&&&-***''#''",
  "&'#'&&&-#''#***''*#&'&&-#**#***'",
  "'''&'&&-#''''*''***'&&&-#''''*''",
  "**'&&&'-#'''*'''**'&&&'-#'''*'''",
  "''&&'''-#&&'''&'''&&''&-#&&'''&'",
  "&&--&&&-&--&&&-&&&--&&&-&--&&&-&",
  "########*'*''&&-########*'*''&&-",
  "##**###*#****'&-##**###*#****'&-",
  "###**#******'''-###**#******'''-",
  "#**#***''*#*'''-#**#***''*#*'''-",
  "#''''*''***''&&-#''''*''***''&&-",
  "#'''*'''**'&&&'-#'''*'''**'&&&'-",
  "#&&'''&'''&&'''-#&&'''&'''&&'''-",
  "&--&&&-&&&--&&&-&--&&&-&&&--&&&-",
};
