/* XPM */
static char *block_9[] = {
  /* width height ncolors chars_per_pixel */
  "32 32 12 1 0 0",
  /* colors */
  "! c #000000",
  "# c #d49f55",
  "$ c #d45f55",
  "% c #330066",
  "& c #330000",
  "' c #660066",
  "( c #550000",
  ") c #555555",
  "* c #aa5f55",
  "+ c #aa3f55",
  ", c None",
  "- c #d4bfaa",
  /* pixels */
  "********************************",
  "**!%%%%%%&%%&%%%%%%%&%%%%%%&&!)*",
  "*!**)*##-#-----------#-##*)*-#*#",
  "*%*'-#*$****************%!#*+*%#",
  "*%+#-*'-*******))*******!-#*)-&-",
  "*%*+'!*-*****$))-)******%*)&'-&#",
  "*%#*-#-*****$)&-#-&*******#*--&-",
  "*&#********$)&-#**-&******###*&#",
  "*%#*******$)&-#****-&*********&-",
  "*%#******$)&-#******-&********&-",
  "*%#******)&-#********-&*******&-",
  "*&#****$)&-#**********-&******&-",
  "*%#****)&-#**********$)-&*****&-",
  "*%#****&-#&(********)(&)-*****&-",
  "*%#****)#---(*)&&**)(---#*****&-",
  "*%#*****))))-*&**-*(-*********&-",
  "*&#********&-*&**-*&-*********&-",
  "*%-*****)&&&-**--#*)-)&)******&-",
  "*%#****)#---********)---#*****&-",
  "*%-****)-&***********)(&-*****&-",
  "*%-******-&*********$)&-#*****&-",
  "*&#*******-&********)&-#******&-",
  "*&-********-&*****$)&-#*******&-",
  "*&-*********-&****)&-#********&-",
  "*&-**********-)$$)&-#****)&!'*&-",
  "*&-)&%'*******-)))-#*****&--*-&-",
  "*&-&--*-*******-)-#******+-+&-&-",
  "*%-&-+!-********-#*******)+!)-&-",
  "*&#)$%*-******************---#&-",
  "*&#*#-##*********************)&-",
  "**$'&&&&&&&&&&&&&&&&&&&&&&&&&&*#",
  "***#--------------------------##",
};
