/* XPM */
static char *block_0[] = {
  /* width height ncolors chars_per_pixel */
  "32 32 6 1 0 0",
  /* colors */
  "! c #000000",
  "# c #330066",
  "$ c #333366",
  "% c #555555",
  "& c None",
  "' c #333300",
  /* pixels */
  "$%$$$!!#!!$$!!!!!$''$!$%$$$!!!''",
  "$%%$$!!!!$!$!!!!!''!!'$%$$$!!!!'",
  "$%$$$!!!$$$$$$'$$$$$$$%$$$$!!$$%",
  "$%$$$!!!!!!!!!!!!!!!!!$%$$$!!!!!",
  "'%$$$!!!!!!!!!!!!!$!!!$%$$$!!!''",
  "'%$$$!!!!!!'!!!!!!'!!!$$$$$!!!''",
  "'%%$$!!!'!!'!!!!!''$$!%%$$$!!!''",
  "'%$$$!!!!!!'!!!!!''!!!%$$$$!!!''",
  "$%$$$!!!!!!!!!!!!!!!!!%%$$$!!!''",
  "'%%$$!!!!!!'!!!!!!'!!!$$$$$!!!'!",
  "'%$$$!!!!!!$!!!!!!'!!!$$$$$!!!!'",
  "'%$$$'!!!!!'!!!!!!'!!!$$$$$!!!''",
  "'%$$$!!!!!$'!!!!!$''$$$$$$$!!!''",
  "$%$$$!!!!!!'!!!!!''!!'$$$$$!!!''",
  "'%$$$!!!!!!'!!!!!!''!'$$$$$'!!'!",
  "'%$$$!!!!!!'!!!!!!'!!$$$$$$$!'''",
  "'%$$$!!!!!!'!!!!!!!!$$$$$$$$''''",
  "%%%%%%%%%%%%%%%%%%%%$$$$$$$$$$$$",
  "%%%%%%%%%%%%%%%%%%%$$$$$$$$$$$$$",
  "$$$$$$$$$$$$$$$$$$$$$$$$$$$$$$$$",
  "$$$$$$$$$$$$$$$$$$$$$$$$$$$$$$''",
  "''''''''''''''''''''''$$$$$$''!!",
  "!!!!!!!!!!!!!!!!!!!!!!$$$$$'!!!!",
  "!'!!!!!!!!!'!!!!!!'!!!$$$$'!!!!!",
  "!$''!!!$'$'$!!!!!''$'$%%$$'!!!!!",
  "!$$$'!!'$'$$!!!!!'$$$$$%$$'!!!!!",
  "!%%$$!!'$'$$!!!!!'$$'$%$$$$!!!'!",
  "!%$$$!!!!!'$'!!!!$$!!!$%$$$!!'!'",
  "!%%$$!!!!!$$'!!!!$$!!!%%$$$!!!'!",
  "!%$$$!!!!!'$'!!!!''!!!%$$$$!!!''",
  "!%%$$!!$$$$$'!!!!'$$$$$%$$$!!'!'",
  "!%$$$!!$$$$$'!!!!'$$$$%%$$$!!!''",
};
