/* XPM */
static char *block_17[] = {
  /* width height ncolors chars_per_pixel */
  "32 32 8 1 0 0",
  /* colors */
  "! c #000080",
  "# c #d47fff",
  "$ c #330066",
  "% c #663399",
  "& c #550000",
  "' c #333399",
  "( c None",
  ") c #666699",
  /* pixels */
  "#!'%#((((((((((((((((((((#!'%#&&",
  "#!'%#((((((((((((((((((((#!'%#&&",
  "#!'%#((((((((((((((((((((#!'%#&&",
  "#!'%#'%%%%%%%%%%%%%%%%%%%#!'%#&&",
  "#!'%#$!''''''''''''''''''#!'%#&&",
  "#!'%#%))##################!'%#&&",
  "#!'%#'%%)))))))))))))))))#!'%#&&",
  "#!'%#((((((((((((((((((((#!'%#&&",
  "#!'%#((((((((((((((((((((#!'%#&&",
  "#!'%#((((((((((((((((((((#!'%#&&",
  "#!'%#((((((((((((((((((((#!'%#&&",
  "#!'%#((((((((((((((((((((#!'%#&&",
  "#!'%#((((((((((((((((((((#!'%#&&",
  "#!'%#((((((((((((((((((((#!'%#&&",
  "#!'%#'%%%%%%%%%%%%%%%%%%%#!'%#&&",
  "#!'%#$!''''''''''''''''''#!'%#&&",
  "#!'%#%))##################!'%#&&",
  "#!'%#'%%)))))))))))))))))#!'%#&&",
  "#!'%#((((((((((((((((((((#!'%#&&",
  "#!'%#((((((((((((((((((((#!'%#&&",
  "#!'%#((((((((((((((((((((#!'%#&&",
  "#!'%#((((((((((((((((((((#!'%#&&",
  "#!'%#((((((((((((((((((((#!'%#&&",
  "#!'%#((((((((((((((((((((#!'%#&&",
  "#!'%#((((((((((((((((((((#!'%#&&",
  "#!'%#'%%%%%%%%%%%%%%%%%%%#!'%#&&",
  "#!'%#$!''''''''''''''''''#!'%#&&",
  "#!'%#%))##################!'%#&&",
  "#!'%#'%%)))))))))))))))))#!'%#&&",
  "#!'%#((((((((((((((((((((#!'%#&&",
  "#!'%#((((((((((((((((((((#!'%#&&",
  "#!'%#((((((((((((((((((((#!'%#&&",
};
