/* XPM */
static char *block_8[] = {
  /* width height ncolors chars_per_pixel */
  "32 32 4 1 0 0",
  /* colors */
  "! c #555555",
  "# c #d5ccbb",
  "$ c #a0a0a4",
  "% c None",
  /* pixels */
  "%#!!#%#$################$#%#!!#%",
  "%#$$#%%$#!!!!!!!!!!!!!!#$%%#$$#%",
  "%#!!#%#$$$$$%%%%%%%%$$$$$#%#!!#%",
  "%#$$#%%#!!$%%%%%%%%%%$!!#%%#$$#%",
  "%#!!#%#$################$#%#!!#%",
  "%#$$#%%$#!!!!!!!!!!!!!!#$%%#$$#%",
  "%#!!$%#$$$$$%%%%%%%%$$$$$#%$!!#%",
  "%#$$#%%##!$%%%%%%%%%%$!##%%#$$#%",
  "%#!!#$####################$#!!#%",
  "%#$$#$###!!!!!!!!!!!!!!###$#$$#%",
  "%#!!#%#$$$$$%%%%%%%%$$$$$#%#!!#%",
  "%#$$$%%#$!$%%%%%%%%%%$!$#%%$$$#%",
  "%#!!#%#$################$#%#!!#%",
  "%#$$#%%$#!!!!!!!!!!!!!!#$%%#$$#%",
  "%#!!#%#$$$$$%%%%%%%%$$$$$#%#!!#%",
  "%#$$#%%#!!$%%%%%%%%%%$!!#%%#$$#%",
  "%#!!#%#$################$#%#!!#%",
  "%#$$#%%$#!!!!!!!!!!!!!!#$%%#$$#%",
  "%#!!#%#$$$$$%%%%%%%%$$$$$#%#!!#%",
  "%#$$#%%#!!$%%%%%%%%%%$!!#%%#$$#%",
  "%#!!#%#$################$#%#!!#%",
  "%#$$#%%$#!!!!!!!!!!!!!!#$%%#$$#%",
  "%#!!$%#$$$$$%%%%%%%%$$$$$#%$!!#%",
  "%#$$#%%##!$%%%%%%%%%%$!##%%#$$#%",
  "%#!!#$####################$#!!#%",
  "%#$$#$###!!!!!!!!!!!!!!###$#$$#%",
  "$#!!#%#$$$$$%%%%%%%%$$$$$#%#!!#$",
  "##$$$%%#$!$%%%%%%%%%%$!$#%%$$$##",
  "##!!#%#$################$#%#!!##",
  "##$$#%%$#!!!!!!!!!!!!!!#$%%#$$##",
  "$#!!#%#$$$$$%%%%%%%%$$$$$#%#!!#$",
  "!#$$#%%#!!$%%%%%%%%%%$!!#%%#$$#!",
};
