/* XPM */
static char *block_23[] = {
  /* width height ncolors chars_per_pixel */
  "32 32 12 1 0 0",
  /* colors */
  "! c #66cc66",
  "# c #000000",
  "$ c #d49f55",
  "% c #d47f00",
  "& c #663300",
  "' c #336600",
  "( c #330066",
  ") c #aa5f00",
  "* c #aa3f00",
  "+ c None",
  ", c #333300",
  "- c #699900",
  /* pixels */
  "++(%&###+++####&&,#+++##*%&#++++",
  "+('*####+++###,%&,#+++##%&,#++++",
  "+''&&###++###,&%&#+++###%&#+++++",
  "++#)*&###+###&&&##+++###),#+++++",
  "++#&&*&##+##'*&##+++####*&#+++++",
  "+++#&%&,#+#''),##+++##''&*,#++++",
  "++++#&&,#+###%&##+++#'-'&*&,#+++",
  "+++++#&,++###%&###+++###&%*),#++",
  "++++#&&,#+###*%&###++###,*)%,#++",
  "+++#&*&,#++##&*%,###+++##&%),#++",
  "++#,&%&,#++##,&%&,###++##&%&#+++",
  "++#&*%,##+++##&*&,-###+#&))#++++",
  "++'*%&####+++##&&,''##+#*%#+++++",
  "+''%&#####+++###&,##'++#%&#+++++",
  "++#%&'-####+###&&,##+##'%&#+++++",
  "++#),''-##+###&%&,####''),,#++++",
  "++#*&##'#++##&&*&##+####*&&#++++",
  "++#&&&######'),&###+####&&*&'-++",
  "++#,&%&####-'&&##+++++##&&%&-!'+",
  "+++#,%&,##''#*###+++++##,*%&,'-+",
  "++++#)&,#####%&###++++###&%&,#++",
  "++++#*&&##+##&%&###++++###*&,#++",
  "++++#%&,#+++##$%&###+++##,%&#+++",
  "++++#%&##+++##&$*,##+++##&%&#+++",
  "++++#&,,#+++#,&&),#+++##,))#++++",
  "++++#&&*,#++#)&&&##+++##&%)#++++",
  "+++++#*%&#++#$*&###+++##$*&#++++",
  "+++++#,%&,#+#&%)###+++##)&&&#+++",
  "++++++#%&,++#,))###++###,&&),#++",
  "+++++#&%&#++##&%&##++####&$*,#(+",
  "+++##,%*##++##,%&##++####$%&#(++",
  "++#,&%&##++####*&,#+++##&%&#++++",
};
