/* XPM */
static char *block_24[] = {
  /* width height ncolors chars_per_pixel */
  "32 32 8 1 0 0",
  /* colors */
  "! c #d49f55",
  "# c #d47f00",
  "$ c #663300",
  "% c #aa5f00",
  "& c #aa3f00",
  "' c None",
  "( c #ffbf55",
  ") c #333300",
  /* pixels */
  "#(#&##&#(!&#!#(!&###!#(!&###!#!&",
  "#($$#%$#!($&(&!($#%%(&!($#%%(&($",
  "#!$&(&$#&(&%(&%($!%%(&%($!%%(&($",
  "))))))))))))))))))))))))))))))))",
  "))$&)$$)$$$)$$$$$$)&$$$$$$)$&$))",
  ")$$$$$$$$&#$%#$%$&$$%#$%&&$$$$$)",
  ")$$)$&$$$&#$$#$#$&$&$#$#&&$$)$$)",
  ")$)($&)$%&%$$#&#$&$&$#&#$$$$($$)",
  ")$))$&$$#&&&$%&%$&$&$%&%$$$#)($)",
  ")$$)$&$&#&&%$%&&$&$&$%&&$$$%$!$)",
  "))))))))))))))))))))))))))))))))",
  ")((#%!$(&()((!(%##!(%)((!##%%%%)",
  ")!$#&!!$&!)(&&($!%%($)(&$#$$&$$)",
  ")#$&$#$$&%)!&$($!&&(%)!$$#$$&&&)",
  ")#)&$#&)&%)#&$&!#&$&%)!&$&)$&$&)",
  ")%($$%$($&)%$($(#$($%)#$($$$$!$)",
  ")#$&$&&$&&)%&)&(%&)&%)#&)&$%&)&)",
  ")%!#$%#$(&)%!$&(&&$(%)#&$%$%&$$)",
  ")%(%$%#$(&)%($$#%&$(&)!#$#&%&$!)",
  ")!%&$#&#%%)%(&$#%$%$&)(&($#%%(()",
  ")(!&&!$(&!)%%$#!#$&!%)(&($!%%(()",
  ")((%%!$(&()!&$($!&&(%)!&($!&&!()",
  ")((%%#$(&()(&%($!%%($)%%#&#$&%!)",
  ")!$&%&!$&!)(&!($#%%($)#($#%$%($)",
  ")%$&%$$$&#)!&&!$&%#!$)#($#%$#!$)",
  ")#)&%$&)&&)#&$$$$%(#$)#&$&&$#&$)",
  ")%#$$$$($&)%&$&$$&$&&)#$($%$%$()",
  ")#$&$)&$&&)%$($&$$!$%)%&)&#$&&))",
  ")#&&$$#$$&)%&)&%)&)&%)%&$$#$&&$)",
  ")%$&$$#$&$)%$$$#$&$$%)!&$!!&&&$)",
  ")#%%%##%#%)#&$$#$$&$&)(&($!%%(()",
  "))))))))))))))))))))))))))))))))",
};
