/* XPM */
static char *door_2[] = {
  /* width height ncolors chars_per_pixel */
  "32 32 13 1 0 0",
  /* colors */
  "! c #000000",
  "# c #d49f55",
  "$ c #d47fff",
  "% c #d47f55",
  "& c #663300",
  "' c #663399",
  "( c #aa5fff",
  ") c #333399",
  "* c #aa5f00",
  "+ c #aa3f00",
  ", c #ffbfff",
  "- c None",
  ". c #ffbfaa",
  /* pixels */
  "!!!!+....##%%*%**********+&&!!!!",
  "!!&..%**********************+&!!",
  "!&.%........................*+&!",
  "!.%,%**********************%.*+!",
  "+..%*%....................**%.*&",
  ".%.*%,#%*****************%.**.*&",
  ".*.*.#%**&&&&&&&&&&&&&&***%.*.*+",
  ".*.*.%*&&#############%&&**.*.**",
  ".*.*.*&%.%*************#+&*.*.**",
  ".*.*.*&.%('!('!('!('!('*#&*.*.**",
  ".*.*.&#%&$(!$(!$(!$(!$(&*%&.*.**",
  ".*.*.&#*!$(!$(!$(!$(!$(!*#&.*.**",
  ".*.*.&.*!$(!$(!$(!$(!$(!*.&.*.**",
  ".*.*.&.*!$(!$(!$(!$(!$(!*.&.*.**",
  ".*.*.&.*!$(!$(!$(!$(!$(!*.&.*.**",
  ".*.*.&.*!$(!$(!$(!$(!$(!*.&.*.**",
  ".*.*.&.*!$(!$(!$(!$(!$(!*.&.*.**",
  ".*.*.&.*!$(!$(!$(!$(!$(!*.&.*.**",
  ".*.*.&.*!$(!$(!$(!$(!$(!*.&.*.**",
  ".*.*.&#+!$(!$(!$(!$(!$(!+#&.*.**",
  ".*.*.&%#................#%&.*.**",
  ".*.*.&&&&&&&&&&&&&&&&&&&&&+.*.**",
  ".*.*.%%#######%#%%%%%%%%%%%.*.**",
  ".*.*.+********************+.*.**",
  ".*.*.+*******************+)))%**",
  ".*.*,...****************.)$(')**",
  ".*.*.&&&.*++********++*.&)('')**",
  ".*.*.&&&+.%+++****+++%.+&)''()**",
  ".*.*.&&&&+..%++++++%..+&&&)))%**",
  ".*.*.&&&&&+%.%++++%.%+&&&&&%*%**",
  ".*.*.&&&&&&&%.%++%.%&&&&&&&%*.**",
  ".*.*.&&&&&&&&%.++.%&&&&&&&&.*.**",
};
