/* XPM */
static char *door_5[] = {
  /* width height ncolors chars_per_pixel */
  "32 32 15 1 0 0",
  /* colors */
  "! c #000000",
  "# c #d49f55",
  "$ c #000080",
  "% c #d47f00",
  "& c #663300",
  "' c #330066",
  "( c #663399",
  ") c #333399",
  "* c #aa5f00",
  "+ c #aa3f00",
  ", c #ffbfff",
  "- c None",
  ". c #ffbf55",
  "/ c #666699",
  "0 c #333300",
  /* pixels */
  "0*&*#//#%**+++''''&!'&!!!!!!!!&&",
  "0*&*#//%*$$$''$$$$&!'&!!!!!!!!&0",
  "0*&*#//*%$$$$$$$$$&!'&!!!!!!!!&0",
  "0*&*#//*%$)))$$$$$&!'&!!!!!!!!&0",
  "0*&*#//*%$)))$$$$$&!'&!!!!!!!!&0",
  "0*&*#//*%$)))$$$$$&!'&!!!!!!!!&0",
  "0*&*#//*%$)))$$$$$&!'&!!!!!!!!&0",
  "0*&*#//*%$)))$$$$$&!'&!!!!!!!!&0",
  "0*&*#//*%$)))$$$$$&!'&!!!!!!!!&0",
  "0*&*#//*%$)))$$$$$&!'&!!!!!!!!&0",
  "0*&*#//*%$)))$$$$$&!'&!!!!!!!!&0",
  "0*&*#//*%$)))$$$$$&!'&!!!!!!!!&0",
  "0*&*#//*%$)))$$$$$&!'&!!!!!!!!&0",
  "0*&*#//*%$)))$$$$$&!'&!!!!!!!!&0",
  "0*&*#//*%$)))$$$$$&!'&!!!!!!!!&0",
  "0*&*#//*%$)))$$$$$&!'&!!!!!!!!&0",
  "0*&*#//*%$)))$$$$$&!'&!!!!!!!!&0",
  "0*&*#//*%$)))$$$$$&!'&!!!!!!!!&0",
  "0*&*#//*%$)))$$$$$&!'&!!!!!!!!&0",
  "0%%,.//*%$)))$$$$$&!'&!!!!!!!!&0",
  "0&*..//*%$)))$$$&&&!'&!!!!!!!!&0",
  "0&*#.//*%$$*++&&'''!'&!!!!!!!!&0",
  "0+&+#//*.#%&$$$$$$$''&!!!!!!!!&0",
  "0*&*#///())))))$$$$''&!!!!!!!!&0",
  "0*&*#////((()))$$$$''&!!!!!!!!&0",
  "0*&*#////((()))$$$$''&!!!!!!!!&0",
  "0*&*#////((()))$$&&&&&!!!!!!!!&0",
  "0*&*#////((()++&&&&&&0!!!!!!!!&0",
  "0*&*#////**+++&&&&!!!!!!!!!!!!&0",
  "0++%..#%***++&0!!!!!!!!!!!!!!!&0",
  "0&&%.##%*&0!!!!!0&&&&&&&&&&&&&&0",
  "00000000000000000000000000000000",
};
