/* XPM */
static char *door_4[] = {
  /* width height ncolors chars_per_pixel */
  "32 32 16 1 0 0",
  /* colors */
  "! c #000000",
  "# c #d49f55",
  "$ c #000080",
  "% c #d47f00",
  "& c #663300",
  "' c #330066",
  "( c #663399",
  ") c #333399",
  "* c #aa5f00",
  "+ c #aa3f00",
  ", c #808080",
  "- c #ffbfff",
  ". c None",
  "/ c #ffbf55",
  "0 c #666699",
  "1 c #333300",
  /* pixels */
  "11111111111111111111111111111111",
  "1+%%//#%*&1!!!!!1&&&&&&&&&&&&&&1",
  "1&&%/##%***++&1!!!!!!!!!!!!!!!&1",
  "1+&+#()))**+++&&&&!!!!!!!!!!!!&1",
  "1*&*#(((($$$'++&&&&&&1!!!!!!!!&1",
  "1*&*#0((()))$''!!&&&&&!!!!!!!!&1",
  "1*&*#00(()))$$$''!!!!&!!!!!!!!&1",
  "1*&*#000()))$$$''''!!&!!!!!!!!&1",
  "1*&*#0000)))$$$''''!!&!!!!!!!!&1",
  "1*&*#0000())$$$''''!!&!!!!!!!!&1",
  "1%%-/0000(()$$$''''!!&!!!!!!!!&1",
  "1&*//0000((($$$''''!!&!!!!!!!!&1",
  "1&*#/00,+**+)$$''''!!&!!!!!!!!&1",
  "1+&+#00%&!!&+)$&&1'!!&!!!!!!!!&1",
  "1*&*#00%!!!!+)+&!&&!!&!!!!!!!!&1",
  "1*&*#00%!!!!+)+!!!&!!&!!!!!!!!&1",
  "1*&*#00%!!!!+)+!!!&!!&!!!!!!!!&1",
  "1*&*#00%!!!!+)+!!!&!!&!!!!!!!!&1",
  "1*&*#00%!!!!+)+!!!&!!&!!!!!!!!&1",
  "1*&*#00%!!!!+)+!!!&!!&!!!!!!!!&1",
  "1*&*#00%!!!!+)+!!!&!!&!!!!!!!!&1",
  "1*&*#00%!!!!+)+!!!&!!&!!!!!!!!&1",
  "1*&*#00%!!!!+)+&!&&!!&!!!!!!!!&1",
  "1*&*#00%&!!&+))&&&$!!&!!!!!!!!&1",
  "1*&*#00,+**+)))$$$$'!&!!!!!!!!&1",
  "1*&*#0000((()))$$$$''&!!!!!!!!&1",
  "1*&*#0000((()))$$$$''&!!!!!!!!&1",
  "1*&*#0000((()))$$$+&1&1!!!!!!!&1",
  "1*&*#0000((()))$$$+&1&1!!!!!!!&1",
  "1*&*#0000((()))$$$'!!&!!!!!!!!&&",
  "1*&*#0000((()))$$$$''&!!!!!!!!&&",
  "1*&*#0000((())&&&&&''&!!!!!!!!&1",
};
