/* XPM */
static char *door_7[] = {
  /* width height ncolors chars_per_pixel */
  "32 32 18 1 0 0",
  /* colors */
  "! c #000000",
  "# c #d49f55",
  "$ c #d47fff",
  "% c #000080",
  "& c #d47f00",
  "' c #663300",
  "( c #330066",
  ") c #663399",
  "* c #333366",
  "+ c #555555",
  ", c #333399",
  "- c #aa5f00",
  ". c #aa3f00",
  "/ c #808080",
  "0 c #ffbfff",
  "1 c None",
  "2 c #666699",
  "3 c #333300",
  /* pixels */
  "&#!2*+3**++++&#3'#-++++**3+*2!&#",
  "&#!2*+3/////+&#3'#-+/////3+*2!&#",
  "&#!2*+3++///+&#3'#-+///++3+*2!&#",
  "&#!2333++///+&#3'#-+///++3332!&#",
  "&#!2+/3++///+&#3'#-+///++3/+2!&#",
  "&#!2*+3++///+&#3'#-+///++3+*2!&#",
  "&#!2*+3**++++&#3'#-++++**3+*2!&#",
  "&#!2*+///////&#3'#-///////+*2!&#",
  "&#!2**++++//+&#3'#-+//++++**2!&#",
  "&#!2*+*++/+/*&#3'#-*/+/++*+*2!&#",
  "&#!2**++++//*&#3'#-*//++++**2!&#",
  "&#!2*+*++/+/*&#3'#-*/+/++*+*2!&#",
  "&#!2**++++//*&#3'#-*//++++**2!&#",
  "&#!2*+*++/+/*&#3'#-*/+/++*+*2!&#",
  "&#!2**++++//*&#3'#-*//++++**2!&#",
  "&#!2*+*++/+/*&#3'#-*/+/++*+*2!&#",
  "&#!2**++++//*&#3'#-*//++++**2!&#",
  "&#!2*+*++/+/*&#3'#-*/+/++*+*2!&#",
  "&#!2**++++//*&#3'#-*//++++**2!&#",
  "&#!2*+*++/+/*&#3'#-*/+/++*+*2!&#",
  "&#!2**++++//*&#3'#-*//++++**2!&#",
  "&#!2*+*++/+/*&#3'#-*/+/++*+*2!&#",
  "&#!2**++++//*&#3'#-*//++++**2!&#",
  "&#!2*+*++/+/*&#3'#-*/+/++*+*2!&#",
  "&#!2**++++//*&#3'#-*//++++**2!&#",
  "&#!2*+*++/+/*&#3'#-*/+/++*+*2!&#",
  "&#!2**++++//*&#3'#-*//++++**2!&#",
  "&#!2*+*++/+/*&#3'#-*/+/++*+*2!&#",
  "&#!2**++++//*&#3'#-*//++++**2!&#",
  "&#!2*+*++/+/*&#3'#-*/+/++*+*2!&#",
  "&#!%3333**++*-&3'&.*++**3333%!&#",
  "!!(%,2$000$$22,,,%%%(((!(%,,),%(",
};
