/* XPM */
static char *door_11[] = {
  /* width height ncolors chars_per_pixel */
  "32 32 11 1 0 0",
  /* colors */
  "! c #000000",
  "# c #d49f55",
  "$ c #000080",
  "% c #d47f00",
  "& c #663300",
  "' c #330066",
  "( c #333399",
  ") c #aa5f00",
  "* c #aa3f00",
  "+ c None",
  ", c #ffbf55",
  /* pixels */
  "+++++!!*%###%%)%%%%#,%%%))&)!+++",
  "+++++!!)%#%%%)%%%%%,%%%)))*#!+++",
  "+++++!&)#%%%))%%%%#%%%))))%#!+++",
  "+++++!*%%%%))%%%%%%%%%))%)#)!+++",
  "+++++!)%%%))%%%%%%%%%)%%%##!++++",
  "+++++!%%%%))%%%%%%%%)%%%%#)!++++",
  "+++++!%%%))%%%%%%%%%%%%%,#!+++++",
  "+++++!%%))%%%)%%%)%%%%%#,)!+++++",
  "+++++!%%))%%)%%%)%%%%%%,,)!+++++",
  "+++++!%))%%)%%%)%%%%%%%,,)!+++++",
  "++++!)%))%)%%%)%%%%%%%#,,)!+++++",
  "+!!!)%)*%))%%))%%%%%%#,#,)!+++++",
  "!)%%%)&)*)%%)))))%%%%,#%,)!+++++",
  "+!!)*&*&)%))))))))%%#%%%,)!+++++",
  "+++!&&&*%%))%)))#))%%%%%,)!+++++",
  "++++!&&)%))%)&!&),)))%%%,)!+++++",
  "+++++!&)))%)!!!!!),)))%%,)!+++++",
  "+++++!*))))&!!!!!&#,)))%#)!+++++",
  "+++++!)%)%)!!!!!!!),#))%%%)!++++",
  "+++++!%%)%&!!!!!!!&#,%))%%#)!+++",
  "+++++!))%%!!!!!!!!!%,%))%#)!++++",
  "++++!&))#%!!!!!!!!!%,#%))%!+++++",
  "++++!))),%!!!!!!!!!%#,%))%!+++++",
  "++++!%%%,#&!!!!!!!&%#,#%%)!+++++",
  "++++!)%%#,)!!!!!!!)#,,,,#%)!++++",
  "++++!&)%),#)!!!!&)#,)))))%%!++++",
  "+++!**&)%#,#)&!&)#,)%#,#))#)!+++",
  "++!)%%)*%%#,,%)&*))%#,))))%#)!++",
  "+!)%%%)))%%%#,,#%%%#,),#))%#,)!+",
  "+!%%))!!!))%%%%%)%%))%#,#)%%#,)!",
  "!)%)!!'$'!!)%%%)!))!)%%#,!)%%#)!",
  "!!!!'$+++$'!!!!!(!!(!!!!!(!!!!!!",
};
