/* XPM */
static char *mover_square_2[] = {
  /* width height ncolors chars_per_pixel */
  "32 32 9 1 0 0",
  /* colors */
  "! c #000000",
  "# c #000080",
  "$ c #d47fff",
  "% c #330066",
  "& c #663399",
  "' c #333399",
  "( c #ffbfff",
  ") c None",
  "* c #666699",
  /* pixels */
  "$$$$$$$$$$$$$$(((($$$$$$$$$$$$$$",
  "&&&&&&&&&&&&&&&&&&&&&&&&&&&&&&&&",
  "($$*&'#))#'&*$$(($$*&'#))#'&*$$(",
  "&&&&&&&&&&&&&&&&&&&&&&&&&&&&&&&&",
  "################################",
  ")))'*%*#))))))))))))))))'$%*#)))",
  "))))'*%*#))))))))))))))'$%*#))))",
  ")))))'*%*#))))))))))))'$%*#)))))",
  "))))))'*%&#))))))))))'$%*#))))))",
  ")))))))'*%*#))))))))'$%*#)))))))",
  "))))))))'*%*#))))))'$%*#))))))))",
  ")))))))))'$%*#))))'$%*#)))))))))",
  "))))))))))'$%*#))'$%*#))))))))))",
  ")))))))))))'$%&#'(%*#)))))))))))",
  "))))))))))))'*%'(%*#))))))))))))",
  ")))))))))))))''(%*#)))))))))))))",
  ")))))))))))))'(%$#%)))))))))))))",
  "))))))))))))'(%$#!&%))))))))))))",
  ")))))))))))'$%*#%&!&%)))))))))))",
  "))))))))))'$%*#))%&!*#))))))))))",
  ")))))))))'$%*#))))%$%*#)))))))))",
  "))))))))'$%*#))))))'$%*#))))))))",
  ")))))))'$%*#))))))))'$%*#)))))))",
  "))))))'*%*#))))))))))#$%*#))))))",
  ")))))'*%*#))))))))))))'$%*#)))))",
  "))))'*%&#))))))))))))))'$%*#))))",
  ")))'*%&#))))))))))))))))'$%*#)))",
  "$$$$$$$$$$$$$$(((($$$$$$$$$$$$$$",
  "&&&&&&&&&&&&&&&&&&&&&&&&&&&&&&&&",
  "($$*&'#))#'&*$$(($$*&'#))#'&*$$(",
  "&&&&&&&&&&&&&&&&&&&&&&&&&&&&&&&&",
  "################################",
};
