/* XPM */
static char *mover_square_5[] = {
  /* width height ncolors chars_per_pixel */
  "32 32 12 1 0 0",
  /* colors */
  "! c #000000",
  "# c #000080",
  "$ c #d47fff",
  "% c #c0c0c0",
  "& c #333366",
  "' c #555555",
  "( c #333399",
  ") c #808080",
  "* c #ffbfff",
  "+ c None",
  ", c #666699",
  "- c #333300",
  /* pixels */
  "+($,#++%)!---&&&-''''''%)++($,#+",
  "+$,#,++%)!---&&&-''''''%)++$,#,+",
  "+*!($++%)!---&&&-''''''%)++*!($+",
  "+*!($++%)!'--&&&-'''')'%)++*!($+",
  "+*!($++%)!-!-&&&-'''''&%)++*!($+",
  "+*!($++%)!---&&&-''''''%)++*!($+",
  "+$,#,++%)!---&&&-''''''%)++$,#,+",
  "+($,#++%)!---&&&-''''''%)++($,#+",
  "+#,$(++%)!---&&&-''''''%)++#,$(+",
  "+,#,$++%)!---&&&-''''''%)++,#,$+",
  "+$(!*++%)!---&&&-''''''%)++$(!*+",
  "+$(!*++%)!---&&&-''''''%)++$(!*+",
  "+$(!*++%)!---&&&-''''''%)++$(!*+",
  "+$(!*++%)!---&&&-''''''%)++$(!*+",
  "+,#,$++%)!---&&&-''''''%)++,#,$+",
  "+#,$(++%)!'--&&&-'''')'%)++#,$(+",
  "+($,#++%)!-!-&&&-'''''&%)++($,#+",
  "+$,#,++%)!---&&&-''''''%)++$,#,+",
  "+*!($++%)!---&&&-''''''%)++*!($+",
  "+*!($++%)!---&&&-''''''%)++*!($+",
  "+*!($++%)!---&&&-''''''%)++*!($+",
  "+*!($++%)!---&&&-''''''%)++*!($+",
  "+$,#,++%)!---&&&-''''''%)++$,#,+",
  "+($,#++%)!---&&&-''''''%)++($,#+",
  "+#,$(++%)!---&&&-''''''%)++#,$(+",
  "+,#,$++%)!---&&&-''''''%)++,#,$+",
  "+$(!*++%)!'--&&&-'''')'%)++$(!*+",
  "+$(!*++%)!-!-&&&-'''''&%)++$(!*+",
  "+$(!*++%)!---&&&-''''''%)++$(!*+",
  "+$(!*++%)!---&&&-''''''%)++$(!*+",
  "+,#,$++%)!---&&&-''''''%)++,#,$+",
  "+#,$(++%)!---&&&-''''''%)++#,$(+",
};
