/* XPM */
static char *mover_2[] = {
  /* width height ncolors chars_per_pixel */
  "64 32 16 1 0 0",
  /* colors */
  "! c #000000",
  "# c #000080",
  "$ c #d47fff",
  "% c #c0c0c0",
  "& c #330066",
  "' c #666666",
  "( c #663399",
  ") c #333366",
  "* c #555555",
  "+ c #663366",
  ", c #333399",
  "- c #aa5faa",
  ". c #ffbfff",
  "/ c None",
  "0 c #666699",
  "1 c #333300",
  /* pixels */
  ".%%%%%%%%%%%%%%%%%%%%%.....%%%%%%%%%%%%%%%%%%%%%%%%%%%%%%%%%%%%%",
  "%*''''''''''''''''''''..''''''''''''''''%)''''''''''''''''''''*%",
  "%'1!!!!!!!!)11111111)!.'.''''''''''''''%))!)11111111)!!!!!!!!1'%",
  "%'111111111*))))))))*1.''...%%%%%%%%%%%)1)1*))))))))*111111111'%",
  "%'111111111*))))))))*1.''.'*)))))))))**11)1*))))))))*111111111'%",
  "%'1))))))))'*********1%''.*)))))))))))*11))'*********11)))))))'%",
  "%'1))))))))'*********1%''%))))))))))))*11))'*********11)))))))'%",
  "%'1))))))))'*********1%''%))))))))))))*11))'*********11)))))))'%",
  "%'1)*******%''''''''*)%''%))))))))))))*11)*%''''''''*))*******'%",
  "%'1)*******%''''''''*)%''%)))))001))))*11)*%''''''''*))*******'%",
  "%'1)*******%''''''''*)%''%))))0$(01)))*11)*%''''''''*))*******'%",
  "%'1)*******%''''''''*)%''%)))0%$((01))*11)*%''''''''*))*******'%",
  ".'''''''''''''''''''''%''%))0%.$(((01)*11)*'''''''''''''''''''''",
  "'*********************%''%)0%..$((((01*11))*********************",
  "*)!!!!!!-%.$+++-!!!!!!%''%0%...$(((((0)11)!!!!!!!-%.$+++-!!!!!*)",
  "%'!!!!!-%..$++++-!!!!!%''0$$$$$$0(((((011)!!!!!!-%..$++++-!!!!%'",
  "%'!!!!-%...$+++++-!!!!%''0(((((0(,####(11)!!!!!-%...$+++++-!!!%'",
  "%'!!!-$$$$$$-+++++-!!!%''%0(((((,##&#()11)!!!!-$$$$$$-+++++-!!%'",
  "%'%%%%%%%%%%%%%%%%%%%%%''%10((((,#&#(1)11)'%%%%%%%%%%%%%%%%%%%%'",
  "%'''''''''''''''''''''%''%)10(((,##(11)11)*'''''''''''''''''''%'",
  "%'!!!!!!!!!)11111111)!%''%))10((,#(111*11)!)11111111)!!!!!!!!!%'",
  "%'111111111*))))))))*1%''%)))10(,(111)*11)1*))))))))*111111111%'",
  "%'111111111*))))))))*1%''%))))10(111))*11)1*))))))))*111111111%'",
  "%'1))))))))'*********1%''%)))))1111)))*11))'*********11)))))))%'",
  "%'1))))))))'*********1%''%))))))11))))*11))'*********11)))))))%'",
  "%'1)*******%''''''''*)%''%))))))))))))*11)*%'''''''*)))*******%'",
  "/%'1)*******%'''''''*)%''%))))))))))))*11)*%''''''*)))*******%'/",
  "//%'1)*******%''''''*)%''%*))))))))))**11)*%'''''*)))*******%'//",
  "///%'1)*******%'''''*)%''%*************)1)*%''''*)))*******%'///",
  "////%'''''''''''''''''%'%)111111111111)*))*%%'''''''''''''''////",
  "/////%****************%%)11111111111111)*))'***************/////",
  "//////////////////////%)))))))))))))))))))//////////////////////",
};
