/* XPM */
static char *mover_square_6[] = {
  /* width height ncolors chars_per_pixel */
  "32 32 11 1 0 0",
  /* colors */
  "! c #000080",
  "# c #d47fff",
  "$ c #330066",
  "% c #663399",
  "& c #660066",
  "' c #663366",
  "( c #aa5faa",
  ") c #333399",
  "* c #ffbfff",
  "+ c None",
  ", c #666699",
  /* pixels */
  "##############****##############",
  "%%%%%%%%%%%%%%%%%%%%%%%%%%%%%%%%",
  "*##,%)!++!)%,##**##,%)!++!)%,##*",
  "%%%%%%%%%%%%%%%%%%%%%%%%%%%%%%%%",
  "!!!!!!!!!!!!!!!!!!!!!!!!!!!!!!!!",
  "++++++++++++++++++++++++++++++++",
  "++++++++++++++++++++++++++++++++",
  "!!!!!!!!!!!!!!!!!!!!!!!!!!!!!!!!",
  "$$$$$$$$$$$$$$$$$$$$$$$$$$$$$$$$",
  ",,,,,,,,,,,,,,,,,,,,,,,,,,,,,,,,",
  "++++++++++++++++++++++++++++++++",
  "++++++++++++++++++++++++++++++++",
  "++++++++++++++++++++++++++++++++",
  "++++++++++++++++++++++++++++++++",
  "'&#((((('&#((((('&#((((('&#(((((",
  "#('*#####('*#####('*#####('*####",
  "(('&#((((('&#((((('&#((((('&#(((",
  "''''&(''''''&(''''''&(''''''&(''",
  "++++++++++++++++++++++++++++++++",
  "++++++++++++++++++++++++++++++++",
  "++++++++++++++++++++++++++++++++",
  "++++++++++++++++++++++++++++++++",
  ",,,,,,,,,,,,,,,,,,,,,,,,,,,,,,,,",
  "$$$$$$$$$$$$$$$$$$$$$$$$$$$$$$$$",
  "!!!!!!!!!!!!!!!!!!!!!!!!!!!!!!!!",
  "++++++++++++++++++++++++++++++++",
  "++++++++++++++++++++++++++++++++",
  "##############****##############",
  "%%%%%%%%%%%%%%%%%%%%%%%%%%%%%%%%",
  "*##,%)!++!)%,##**##,%)!++!)%,##*",
  "%%%%%%%%%%%%%%%%%%%%%%%%%%%%%%%%",
  "!!!!!!!!!!!!!!!!!!!!!!!!!!!!!!!!",
};
