/* XPM */
static char *mover_square_9[] = {
  /* width height ncolors chars_per_pixel */
  "32 32 6 1 0 0",
  /* colors */
  "! c #d47f00",
  "# c #663300",
  "$ c #aa5f00",
  "% c #aa3f00",
  "& c None",
  "' c #333300",
  /* pixels */
  "&#####&&&&&&&&&&&&&&&&&&&&'#%##&",
  "&#####'&&&&&&&&&&&&&&&&&&######&",
  "&%###%'#&&&&&&&&&&&&&&&&'''#'%#&",
  "&%'#$%'##&&&&&&&&&&&&&&'####'$#&",
  "&%##!%'#%#&&&&&&&&&&&&#'####'!#&",
  "&%#%!%'##%#&&&&&&&&&&###''###!#&",
  "&##%!#'###%#&&&&&&&&###''##$#!#&",
  "&##%$#''!####&&&&&&##%#'%##!#!$&",
  "&#$%%#'''!###%&&&&%%$##%##%!#$!&",
  "&#!%%#'###!$!#%&&%%$##$###%!##!&",
  "&%!##%'#$##$!!%$'%$##$$###%$##!&",
  "&%$##%&##!###!!%%'###$$##&%%%#$&",
  "&%%##%&&#%!###$$%%'#$$#%&&%%$#$&",
  "&%%##%&&&%%$#%#$%%#'$%%&&&##!#%&",
  "&%#'#%&&&&%%%$$#####'%&&&&##!##&",
  "&##'##&&&&&%%%!!#####&&&&&##!##&",
  "&##'##&&&&''%##!!#####&&&&##!##&",
  "&#####&&&##''###!!%##'#&&&'#$%#&",
  "&#####&&'###''###$#%####&&'##%#&",
  "&'#'#'&''####''#'###%##'#&'##%#&",
  "&##'%#''%##%##''''###%%%#####%#&",
  "&##'%#'####%###&&'#####%%####%#&",
  "&'#%%''###%%'#&&&&######%#'###%&",
  "&#$#%#'##%%##&&&&&&''%####'%##%&",
  "&#%#%#''%$#%&&&&&&&&''%#%''%##%&",
  "&#%###'#%#%&&&&&&&&&&''%%#'%##$&",
  "&#%###'##%&&&&&&&&&&&&''%#'%%'%&",
  "&#$###'#$&&&&&&&&&&&&&&''#'%%'%&",
  "&%$##%'#&&&&&&&&&&&&&&&&'''#%'#&",
  "&%%#'%'&&&&&&&&&&&&&&&&&&''#%##&",
  "&%###%&&&&&&&&&&&&&&&&&&&&'#%##&",
  "&%###%&&&&&&&&&&&&&&&&&&&&'#%##&",
};
