/* XPM */
static char *mover_square_3[] = {
  /* width height ncolors chars_per_pixel */
  "32 32 8 1 0 0",
  /* colors */
  "! c #000000",
  "# c #d47fff",
  "$ c #330066",
  "% c #663399",
  "& c #aa5fff",
  "' c #333399",
  "( c #ffbfff",
  ") c None",
  /* pixels */
  ")#%(%'))))))))))))))))))))#%(%'&",
  "&#%#%'))))))))))))))))))))#%#%''",
  "'#%#%'))))))))))))))))))))#%#%''",
  ")#%&%'))))))))))))))))))))#%&%')",
  ")#%%%''))))))))))))))))))'#%%%')",
  ")#%'%'&'))))))))))))))))'&#%'%')",
  ")#%'%'$&'))))))))))))))'&$#%'%')",
  ")#%)%'&$&'))))))))))))'&$%#%)%')",
  ")#%)%''&$&'))))))))))'#$&'#%)%')",
  ")#%'%')'%$&'))))))))'#$&')#%'%')",
  ")#%'%'))'&$#'))))))'#$&'))#%'%')",
  ")#%%%')))'&$#'))))'#$&')))#%%%')",
  ")#%&%'))))'&$#'))'#$&'))))#%&%')",
  "%#%#%')))))'&$&''($&')))))#%#%'%",
  "&(%#%'))))))'%$'($&'))))))(%#%'&",
  ")(%(%')))))))''($#')))))))(%(%')",
  ")(%(%')))))))'($#'$)))))))(%(%')",
  "%(%#%'))))))'($&'!%$))))))(%#%'%",
  "'#%#%')))))'#$&'$%!%$)))))#%#%''",
  ")#%&%'))))'#$&'))$%!%'))))#%&%')",
  ")#%%%')))'#$&'))))$%$#')))#%%%')",
  ")#%'%'))'#$&'))))))'&$#)))#%'%')",
  ")#%'%')'#$&'))))))))'&$#')#%'%')",
  ")#%)%''#$&'))))))))))'&$#'#%)%')",
  ")#%)%'#$&'))))))))))))'&$##%)%')",
  ")#%'%'$&'))))))))))))))'&$#%'%')",
  ")#%'%'&'))))))))))))))))'&#%'%')",
  ")#%%%''))))))))))))))))))'#%%%')",
  ")#%&%'))))))))))))))))))))#%&%')",
  "'#%#%'))))))))))))))))))))#%#%''",
  "'#%#%'))))))))))))))))))))#%#%'#",
  "##%(%'))))))))))))))))))))#%(%'$",
};
