/* XPM */
static char *outside_0[] = {
  /* width height ncolors chars_per_pixel */
  "100 100 7 1 0 0",
  /* colors */
  "! c #000000",
  "# c #663300",
  "$ c #666666",
  "% c #330000",
  "& c #333366",
  "' c #555555",
  "( c #333300",
  /* pixels */
  "'((&(!((((((((((((('$'&(((((!%(((%((%!%(%!((''(((('('(((''''$''''(((!!!!!!%((&'(''(!!(!('''(((((((((",
  "(''&(((((((((((#'''&(((((((((((((%(((((('(((((('''((('$'$''''''&(((!!!!!!(((('''((!((!!(''''((((((''",
  "&'''((((((((#(('(''((((&&'(((!(((((((('&!!!!!('&(((((''''''(((!!!(!!!!!!((((('((!(!!!((&''''''''''((",
  "(''((!!!!(''(((((''&((&''&&'(((((''''((!!!((&((((((''''(((((!!!!!%!!!!!%((((('&((!!!!!!!#''&''''((((",
  "!((((!!(('((((!%('''(((((((''''(''''!!!!(''((!!!!(&''&(!!!!!!!!!!!(%!!!!!((%('&((!!!!!!((('''''((!!(",
  "(((!!((((((((((''&((!!!((((''''$''''''''&(((!!!!!!(''(!!!!!!!!!!!!!(((((((((('((((!!!!!(!!('''(!!!!!",
  "('((((((!!!!('''(%!!!!!!!((((('$''''(((!!!!!!!!!!'((!!!!!!!!!!!!!!((((((&((('((((!!!(((!!!('((!!!!!!",
  "%'(!(!!!!!!!(''((!!!!!!(((((('''(((!!!!!!!!!(!!!('(((!!!!(((!!!!!!!!!(!(&(('&((((((((%!!%(''((!!!!!!",
  "(((!%((((!(((('(!!!!!!!(((((''(!!!!!!!(!!!!!(%!('(!!((!!%(((!!!!!!%!!!((&(('(!!!!(((!!!!('((((!!!!!!",
  "((!!(((((((((((((!!!(((((((''%!!!!!!!!!!!!!!((((((((!!!!((((!!!!!!!(((('((('(!!(((!!!!((((((&(!!!!!!",
  "'(!!((((&(((((((((((((((((''!!!!!!!!!(!!!!!!(('(((((%(!!(((((!!!!(((((('((''!!!!!!!!!!('(((''(!!!!!%",
  "'!!!!(((&&((((((((((((!((''(!(!!!!!!(!!!!!!('((((((%!!(!(((((!!!(((((('((('(!!!!!!!(('((((('(#!!!!%(",
  "'(!!%!%!!!!!!!(((((((!(#'(((((!!!!!((!!!!(('(((!((%!(!(!(((((((((((%('(%(&'(!!!!!!('(!!!!!((#''&((''",
  "'((!%!!!!!!!!(((((%(('((((((!!!!!((!!%(('(((%!!!!(!((!!(((((((((%!(&((('$''!!!!((((((!!!!!((''$''$'$",
  "((((!!!!!!!!((((((''(!!!!(((!!!!((((''#(((!!!!!((!!((!!((((((((((&((('&(''(!(&((!%((((!!!!(''$'$''''",
  "!((((!!!!!!!((((('''(!!%(((('''''''''(((((!!!!!!!(((!!((((('((((((((((!!('''&(!!!%((%%((((('$''(((((",
  "!(!(((((!((((&(((#'((((!(((('$''''((((%((((!!!!!!((((((((('''(((((((!!!!(&'(!!!!!%(((!((!('$''!!!!!!",
  "(((((((((((%(((%!%(''((((('''(((((((((!!%(((((!!!!!(!!((((''(((((!!!!!!!''(!!!!!!!%(((!!('''((!!!!!!",
  "(!(((((('&(!!!(((((('''''''(%!!!%((((!!!!!!((((!!!!!!!!(((''''&(!!!!!!!''((!!!!!!!%((!(#'''(%!!!!!%(",
  "%%(('''&(((!!!!((!((''''(!!!!!(!!((((!!!!!!!!((!!!!!!!(((('''(!!!!!!!('''((!!!!!!!%%!(''''((!!!!!!((",
  "!('''''(!!!!!!!!((((''(!(((!!!(!!!(((!!!!!!!!!(((!!!(((((''''(!!!!!(('(#'((!!!!!!!!(#''#((((!!!!!((%",
  "(''''''(((!!!!!%(((('((!!%(((%!%!!((((%!!!!!!(!!!(((((!!(''''&(((((''((('(((!!!!!!('((((((((!!!%((((",
  "'((''''(((!!(%((((%('(!!!%!%((((%((('(!!!!!!!((((((((!!!!'''&'((((!(((((''(%!!!((''(%((((((((!!!!%((",
  "((('&('&(!!!%((((%%(((%((((((!%((!%'$''((((((##((((((((!''((!((!!!(((((('''((''''((%(((((((((((!!!('",
  "((''(&(((!!!!((((%!((((((((((((((((''''((((((((((((((((('((!!((!!((!!!!'''''''''(!(((((((!(((((((''(",
  "#'''&((((!!!%((((!((!(((((%!%(((#''((((!!!!((((((((%!!('(%!(((((((%!!!('((((''&(((((%(((((((((((''((",
  "''''((%((((!%(!(((((((((((!((((((%((((!!!!!(((((%!%(%('(!!!!(((((%!!!('(((((''(!%(!!((((((((((((((#'",
  "''(((((((((!((((((((((!((((((((%%(!!('(!!!!(((%%((%%%'((%!%!(%!!!!!!('#(!((&'(!!(!!%(((!((((!((((%((",
  "'(((((!!!!!!(((((%((((('''((!!%%%!%(('&(!!!((!!%%%%(#(%%!!!!!!!!!!(('(!(((('(!((%!!!(((((!!!!!!(!(''",
  "(((((!!((!!!(((((!((('''''((!!!!!!(('''(((((!!!!!!('((%(%((%!!!!!(''((!((('(!%((!!!((((((%!!!!!!('''",
  "%(!!!%!(((!((((((((('''(((((((#&''(((((((((!!!!!!('(!!!%%((%!(((&''((((('''((((%(((((!!!((!!!!(''''(",
  "(((!!(((((((((((((((''!!!!!!(('''(!!!!((('('&(((''(((((('(('(('''((((('''''((!!(((%!!!!!((!(('''(((!",
  "((!((((((((!((((((((((!(!(!(((((('(!!!!(((((''$''''''''''((((((((((((((('''(!((((!!!%%%!!''''(((!%(%",
  "(((!((((((((((((((((!!!!!!!!!%((('(!!(((((&'''''''''(((((((((%!!!!%!!!(('''(!%(!!!!!(((%#'''(!!!!(%(",
  "((((((((((((((((((((!!!!!!!!!((((''&(!((''''''&((((%!!((%(!!!!!!!!!!!!!!(''(!!!!!(%!%%(''''(!!!!!(((",
  "(((((((((%((((((((((!!!!!!!!!(!!(''''''''''(((!!!!!!!((!!!!!!!!!!!!!!%!!!'''(!!!%(%%(('$''((!!!!((!(",
  "((((((((%(((((!((((!!!!!!!%(%!!%'''''''(((!!!!!!!!!!!!(!!!!!!!!!!!%!!!!%!($''(!!!((''''''((((!!!((((",
  "'''(((((((((''(!(((%!!!!(((((((''''''(!!!!!!!!!!!!!!!!((!(!!!(%((((!%!((((''''&(''''''&((((((!((((((",
  "'(''''#'(((!(((((!(!!!!(!(((''''('''(!!!!!!!!!!!!!!!!%(((((((!((%(%%%!(((('$''''((''''(((!((((((((((",
  "(!!(''(((!!!!((((((((!!!!(''''(((''(!!!!!!!(((((!!!!!((!(!!((%((!%%(!((!!('''(%!('$''((((!!(((((('''",
  "!!!!!(!!%!!!!!!!((((!!!!(''((!!!((((!!!!!!!!((''((!!!!!!!!!(((!(((((((!%((''(!!('''(('(((!!!(((((&''",
  "(!!!!!((!!!!!!(!!!!!!!!(((!!!!!!!('(!!!!!!!!(((('''(((!!!!!!('((((!!!%!((($(!!(&((((((((((!(((((%('(",
  "((((((((!!!!(!((!!!!!(((!!!!!!!!!('(!!!!!((%((!!(('$''(((!!!!''(!!!!(%!((('(((((!!!!(((('&(((((((('(",
  "(((((((((!!!!(!((((((((!!(!!!!!!!(((!!!!((!!((((((((''''((((%!''((((((((('''&((!!!!!!!(''''((((((('(",
  "(((((((!!!!!!(((((((((((!!!!!!!!!(((!!!!!%(((%(((((((((''#(((!(''(((((%('''((!!!!!!!!!('''''((((((((",
  "(((((((((!((!!!!!(!(((!!!!!!!!!!!!((!!!!((((!%((!((((((((''(((!('(((((''&((!!!!!!!!!!!!(((''((((((((",
  "(((((&(((!((!!!!!!(((!!!!!!!!!!!!((!!!!!!!%(!!%!!(((((((((((((((''((&''(((!!!!!!!!!!!!((((((('((((((",
  "'(((((((((((!!!!!!!!!!!!!!!!!!!!!((!!!!!!!!(!!(%(((((((((((((('(''('''(((!!!!!!!!!!%!%!(&''''''''&((",
  "''''((((((((!!!!!!!!!!!!!!!!!!!!!((!(!!!!!%((!%(((((((((((((((('''''((((!!!!!!!!!!!!!!!(((('((((''''",
  "'$'$$$$'''''!!!!!!!!!!!!!!!!!!!!!((((((!((((%(!!%((((((((((((((((''((((!!!!!!!!!!!!!!!!(((((((((((('",
  "$$$$$$'&((!!!!!!!!!!!!!!!!!!!!!('((((!(((!!!(&(%(((((((((((((((''&((((!!!(!!(%!!!!!!!!((((((((((((('",
  "'''''(!!!!!!!!!!!!!!!!!!!!!!!!('(((!!!(((((&((((((((((((((((((''((((((%!!!!!(!!!!!%!((((((((&'(((''$",
  "'''((!!!!%!!!!!!(((((!!!!!!!!(&(!(!!!!%(((((((((((((((((((((''((((((((%!(!(((((%(((!!(((((('(((($'$$",
  "!((((!!!!!!!!!!!%((((!!!!!!!!('(%(!!!%!!((!!!(%!((((((((((((''(((((((((((((!!!!!(%!!!(((((''((''$'''",
  "!!(((!!!!%!%!!!!(((((!!!!!!!!('((!!!!!!(((!!!(((((((('&(((!('(((((('((!%(%!!!!%(%!!!!((((&('''$''((!",
  "!(((!!!(!%!(!%(((((((!!!!!!!('((!!!!%((((!!!((((((''((((!(''&((((('(((!%!!!!!%!%!%!!(''''('$''((!!!!",
  "!!!(((!(%(((%!((((((%!!!!!!!('((!!!(((!(((((((('''&(((((!'''(((((&''((((!!!!!%((%!!!('''''''(!!!!!!!",
  "((((!((!!!(!(&((((!!!!!!%('''(!!(%!!!!(&&(''$'''(((!!!!'$&(((((('''((!((((%%((((((((''''$''(!!!!!!!!",
  "((((((((((!('(('((!!!((((''''((!!!!!!(&'''''(%(!!!!!(''(!!(((('''(!!!!(%(!(((((!!((''$''&!!!!!!!!!%(",
  "((((((((((('((('((((((((&'''''''(!!%((''((%!!!!!!!!(''(((((((&'''(!!!!!!!%(((!!((((''''(!!!!!!!!(((!",
  "(((((((%!('((''(!((((((''''((((((((''((!!!((%(!((!('((((((((''''(!!!!%((((((((((('$''((!!!!!!!!((!!!",
  "((((((((('((('(((((((('''(!(!!!((('((!!!!(((((((((''(((((((('''(!!!!!(((((((((((''''(!!(!!(%(((!((((",
  "(((((((('(((('((((((('''(!!(((((!((!((((((((((((((&((((!!!!!(((((!!!((((((((((('$''(!!(((((((((((%!!",
  "(((((((&((('''((((((''((!!(!!(%!!%!(((((((((((((((((!!!!!!!!!!!((!!%(((((((((('$''#(!!((((!((%((((!(",
  "(((((((((('&(('((('''((!!!!!((!!!!!!!!!!(((((((''(!!!!!!!!!!!!!((!%((((((((((('''((%!((!!(((!(((%(((",
  "'''''((((((%((('''((((!!!!!((!!!!!!!!!((((!('''''(!!!!!!(((!!!(((!!(((((((%(%(''((((%(!!!((!((((((((",
  "'((((((((((((('&(!!!(((!!!(((!!!%!!!((((!!((('''((!!!!!!!!!(((((((((((!((((!!('((!!!(!!!((((((((((((",
  "'$'((((((((((&(!!!!(((!!!!!((!!%!!!((!!!((((('''(((!!!!!!!!!!%!(((((!!!!!!((('(!!!!!!%!%((((((((((''",
  "'((((((((((!!!!!(((((!!!!%&(!!((((!!%(((((''''(((!!!!!!!!!%!!!!(((((((''''''!!!!!!(!((((((((((''''$'",
  "((((((((((((!!!(!(!(((!!!!(((((((!!(((((('''((((!!!!!!%!!%(%!!!!!%(('''''(((!!!!!((!!!((((((('''''''",
  "(((((((((((&&(((!!!!!!!!!!(!!((((%(((((('((((((((!!((((%!%%%!!%!!!!((((((((!!!!!%(((((((((##''''''''",
  "(((((((((!!(&'&(((!!!!(!!%(!((!(((((((('((!!((((!!!!(((((((%!!%%(!!!!!((((((!!!((((((((((((((((''''(",
  "(((((((((!!!!((((((((!(!!((((!!(((((('(((!!!!((((!!!((!!!%!(%(((((%!!!!((('(!!!((((!%((((((((((''(((",
  "%((((((((!!!!!!!!(((((((((!!!((((((''(%!!!!!!((((!((((%!((((((((((((%(%(#''(!!(((!!((((((((((((''(((",
  "!%(!(((((!!!!!!!!!(((((((!!!((((('#(((!!!!!!!(((%((!!(((((%((((((((((((('''((!!!%(((((((((((((('#(((",
  "!!!!!%(((!!!!!!%%((%((('((!(((('(((!!!!((((((((((((((((((!!((''(((((((((''#((!!(((((((((((((((('(!%!",
  "!!!!!!%(&(!!!!!((%!((((((((((''(!!!((!!(((((%(((((((%!((((((('''(((((((('((((!!(((((((((((((((#'(%!!",
  "!!!!!!!(((!!!!!!!(((((('''&''&(!!((((((((((!!%(((((!(((((((((''(((((((((((!('(!((((((((((((((#'(%!!!",
  "!!!!!%(((&(!!!((((%!(('''''((!!!!!(((((!!!((!((((((!!(((''((('(((%((((('(!!(('!((((((((((((((''(!!!!",
  "(!!!!!((((((((((%!!((('''(((!!!!!!(((%!!%!(((!(((((!(!!!(('(('((!!(((((((!!(('((((((((((((((('''((!!",
  "'((!((((((''(((((((((((('(!!!!!!!!(((!(%((!((!((((((!%!!!!('''(!!!((((((!!!(('(((((((((((((''((('''(",
  "('('((((((#'''''(((((((((!!!!!(((&&(!%(((%!(((('((((!(!!!!!!''(!!!(((('(!!!((''((((((((((''''(((((''",
  "!(((((((((((('''''(((!!!!!!!(('((&(!%%%%(((((((#(&(!!((%!!!!%''(!(((('(!!!!('''((((((((#''''((((((((",
  "((((((((('''''(((((!!!!!!!%(''((((!(%(((((((((('''(!!!(((%!!!(('(((('(%((!('''((((((((''''&(!%!!((!(",
  "!((((((((((((((((!!!!!!!!!('''(((!!!(%(((((((((''((!!!(((((!((''#(((&(!(('''''((((((('''''(!!!!!!!!!",
  "!(((((!!!!!!!(((!!!!!!!((#'''(((!!!%((((((((((((((&(!!(((((((('(((''((((''''&&((&('''''''&!(!!!!!!!!",
  "!(((!!!!!!!!!((((!!!((''''''(!((%!%%((((((((((((((((!!(((((((#(((''&(('''((%!%(&'''$'''''(!!!!!!!!!!",
  "!!!((!!!!!!((((&&&(('''''((((%(((!(((((((((%(((((((&'(!(((((('#&''(''''(!!!!!!!!((&''''''((!!!!!!!!!",
  "!!(((((!!((%!!(''''(('''(((%!!(((!((((((((((((((!!!((&(((((('''''''''(!!!!!!!((((!(('''''(!!!!!!!!!!",
  "!%((((((((!!%(('((!(''''(((!!!(!((((((((((((((((!!!!((''#''''&'''''(!!!!!!(((((((!(!(&(&'(!!!!!!!!!!",
  "((&(((((!!!!%((((!('''((((((!%!!%(((((((((((((((!!!!!!(((''((!('''(!!!!!!!(((((((!(!(((('(!!!!!!!!!!",
  "''((((!!!!%((''(!(&(((((((((!(!!(((#((((((((((((!!!!(!!!!(!!!!!('(!!!!!!!!!(((((((((!!!('(%!!!!!!!!(",
  "''(%!!!(((((('((((((!!(((((((!!(((!((((((((((((!!!!!!(!!(!!!!!!('(!!!!!!!!!!('((((((!!!('(((((%!!!!(",
  "(!!!(((((((%''''((((((((((!!!!((%!(('((((((((((!!!!!!((((((((%(('(!!!!!!!((!!('(((((!!!(((!(((((((('",
  "(!(((((((%('''&(!!!(((((&''(((!!!!!('(((((((((((!!!!(((((((((((('(!(((!(((!%(&''(((((!(((((!%(((((''",
  "(((((((((''&((!!!!!(((((!%(''((!!%%(('(((((((((!(!!!((!!!((((((('(!(((((!!%(''''((((((&''((((((((('(",
  "((((((('''(((!!!!!(((((((!!!(((((((((((((((((((((((((!!!!((((((('(!((&(!!((''('''(((('''''((((((((((",
  "((((($'''(((!!!!((((((((&(!!!!!('&(((((((((((((((((((!!!!((((((''(!(('((((''''((((&'((('((((((((((((",
  "(((($''((((!!!%((((((((((&(((((((('''''&(((((((((((!!!!!((((((('(!!(&'&'&&(((((((('''(&(!(((((((((((",
  "(((''&((((((((((((!!!!!!!((&'((((((((''''''&((((((!!!!!!((((((''(!!!(''''(((((((((''(((!!!((((((((((",
};
