/* XPM */
static char *outside_2[] = {
  /* width height ncolors chars_per_pixel */
  "100 100 5 1 0 0",
  /* colors */
  "! c #000000",
  "# c #666666",
  "$ c #333366",
  "% c #555555",
  "& c #333300",
  /* pixels */
  "!!&%&!!!&%%%&&&&&!!!!!!&&!!!&!&!!!$&!&&%%%%&!!!!&!!&%%&!!&&&&!&$!&%&!!$%&&&&&!!!!!!!!!&!!!!!&%%&!!%&",
  "!&%%!!!&&%%%&$%!!&!!!!!&&!!!!!&&!&%!!&&&&%%%!!!!!!!&%%&!!&%&!!&%&&&!!!&%&&&!&!!!!!!!!!!&&!!&&%%&&!&&",
  "&&&!!!!&%%%%$&&!!&!!!!!!&&!!!!&&!!&!!&&%&&%%&!!!!!&&%%&&!&%&!!&&%$!!!!%%%&&&&&!!&!!!!!!!&!!&&&&&&!&&",
  "&&&!!!&&%%%%%&&&!!!!!!!!&!!!!!%%!!&!!&&%&&%%&!!!!!!&%&%%!&&!!!!&%&!!!!&%%&&&&&!!&&!!!!!!!&&&&&&&!!&&",
  "%&!!&&&%%%%%%&&&!!!!!!!!&!!!!!&&!!!&!&%%&!%%&&!!!!&!!%%&!&&!!!!&$&&&&&&%%&!&&&&!!&!!!!!!!&&&&&&!!!!!",
  "&&&&&&&&%%&%%&!&!!!!!!!!!!!!!!!!&!&&!&%%&!$%&&!!!!&!!%%&!&&!!!!&%&&&!&&%%&!&&!!!!&!!!!!!!&&&&&&&&!!!",
  "!!&&&&$%%$&&%&!&!!!!!!!!!&!!!!!&&&&&&%%&!&%&&%&!!&&!!&%&!&%!!!!!&%%&!&&%%&!&!!!!!&!!!!!!!!&&!&&&&&&!",
  "!!&&&$&&%&&$&!!&!!!!&&!!!!!!&&!&%%&&&%%!&&&&%%!!!&&&&&&&&&&!!!!&%%&&&&&%%&&!!!!!&&!&!!!!!!!!!!!!&%%!",
  "!!&&&%%&%&&$!!&!!!!!!&!!!!!!&&!!%%&!&%%&&&!&%%!!!&&&&&!&&&!!!!!&&&$&&&&&%&!&!!!!&&&!!!!!!!&&!!!!&%%&",
  "!!!&%%&&&!&&!&&!!!!!!!!!!!!&&&!!%%&&&&%!!&&&%%!!!&&&!!&!&&!!%&!&&&&$!!&%&&&!!!!!&&%&!!!!!!!&!!!&&&%&",
  "$!!&%&&!!%&!!&!!!!!!!&!!!!&&%!!!&%%%&&&!&&&&%%&!!!&&!!&&&!!&$&!!&&!&&!!&&%&!!!!!&&&&!!!!!!&&!!!!&&&$",
  "$&&!&&&&&$&!!!!!!!!&&$!!!!!%&!!!&%%%&&&!!&&&&%&!&!!&&&&!&&&&&&&&&!!&&!&&&&!!!!!&&%&!!!!!!!!!!!!!!&%%",
  "&%&!&&&&&&&!!!&!!!!!&&!!!!!&%!!&&%%%&&&&!&&!&%%%!!!!&&!&&!&&&&&!!!!&&&&&!&!!!!!&%&&!!!!&&!!!!&!!!&&&",
  "&%$!!&!!&&&!!&&!!!!&%&!!!!!&&!!&&%%%%&&&!!!&&%%$&!&!!&&&&!!%&&&!!!!!!&%&!!!!!!!&%&!!!!&&&!!!!&!!!&&&",
  "&%%!!&&&&&!!&&&!!!!%%!!!&&&&&&!!%%&&%%&!!!!&&&&%&&&!!&&%&!!&&&&!!!!!!%%!&&!!!&&&&!!!&&&&!!!!!&!!&!!!",
  "$%%&&&&&&&!!&&&!!!&&&!!!&&&&&&!&&%&&%%&&!!!&&&$%%&&!!&%&!!!&&%&!!!!!&%%&&!!!!&&&!!!!&&&&!!!!!&&!!&&&",
  "%%%&&&!!&&!!!%&!!!&%&!!!&%&!!&&&!!&%%&&&!!!&&&&%$&!!&&&&!!!!&%&!!!!!&%&!&&!!!!&&&!!&!&&!!!!!!&&!!!!&",
  "&%&&&&!!&&!!&$!!!!%%&!!&%$!!!!&%!!&&%&%%!!&&&!&%&&!!&&&!!&!!&%$!!!!!&&!!&&!!!!&%%!!!&&&!!!!!!&&&!!&&",
  "$&&&%&!!&!!!!&!!&&&&!!!&%&!!&&%%!!&&&&&%!!&&!!&%&!!&&&!!!&!!$%&!!!!&!!!!&&!!!!&%%!!!&&%!!!!!!$&!!!!&",
  "&&&&%%!!!&!!!&&&%&!!!&&%%&!!!&%%&&&!&&&%&!!!!&&&&&&&&!!!!!!&%%&&!!!&!!!&!&&!!&%%&!!!!&&!!!!!&%&!!!!!",
  "!&&%%&&!!&!!!!&%$!!!!&&%&!!&&&&&%&&&&&&&!&!!!%%%%!!&&!!!!!&%%%&&!!!!!!!&&&&!&&&&!!!!!&&!!!!!&&!!!!!!",
  "!!&&&&&!&!!!!!&%&!!!!&$%$!!&&&&&&&$%&!!!&!!!!%%%%%!!!!!!!&&&&&&&!!!!!!!&&&&!&&&&&&&&!&&!!!&&&!!!&!!!",
  "!!!!&&&&%!!&&!&&&!!&&&&&%&&&&&&&&!%%&&!!!!!!!%%&%&&&&!!!!&&%%&!&&!!!!!!&!&&!!&&$&&&!!&&!!!&!&&!&&!!!",
  "!!!!&%&%%!!&&&&&!!!&&&&%%&&&&!&%%&&%!&&!!!!!&&&%&&&&&!!!!&&%&!!&%!!!!!!!!&&&&&&&&&&!!!&&!!!&&!!&&!!!",
  "!!!!!&&&$!!&&&&&&!!&&&&&%&!!&&&%%%&&&&!!!!!&&&&&&&&%%!!!!!&%&&!&&!!!!!!!!&&&&!&&&&!!!!&&!!!&!!!!&%!!",
  "!!!!!&%%&!!&%$&&&!!&!!&&%&!&&&&&%%&!&&!!!!!%%!!&&&!&&&!!!&&%&&!!&!!!!&&!!!&&&&&!&%&!&&&&!!!&!!&!!%&!",
  "!!!!!!%%!!!!&&&&&&&&&!&&&&&&!&&$%%%!&&!!!!!&%&!&&&!!&&!!!&&&&!!&&!!!!!&!!&&&&&&&&&&%&!&&!!!&&&!!!&&&",
  "!!!!!!&%&!!&&&&&&&&&&&&&&&&!!&%%&%%&!!!!!!!&%&!&&&!!!!!!!!!&&&&&!!!!!!%!!!&!&&&&%%%%&!&&!!!&%&&!!%&!",
  "&!!!!!&%&&!!$%&!!&&&&%&&&!!!!!%%%%%&!&!!!!&%&&&&&!!&!!!!!!&&&&&&!!!!!&%!!!!!&&&%&%%%&&&&!!!%%&!!!&&!",
  "!!!!!!&&&&!!&&&!!&&&%%%&&!!!!&%%%%%&!!!!!!&%%&!&!!!&!!!!&&!&%&&!!!!!!&%&!!!!&&&%&%%%&&&&!!!&%&!&&!!&",
  "!!!!!!&&&!!!&%&!!!&&%%%%&!!!!&&%%%%&!!!!!!&%%&&&!!!!!!!!&!!&&!&&!!!!&&&!!!!&&!&%&&%%$&&!!!!&%&&&&&!!",
  "!!!!!!&&!!&&%&!&&!!$%%%%&!!!&&&$%%%&!!!!!&&%&&&!!!!!!!&&&!!&&!&!&&&!!&!!!!!&!!&$&%&%%&!!!!!&&&%&&&&!",
  "!!!!!!&&!!!&%%!!&!!&%%%%&!!!!&&%%%&!!!!!!$%$&&!!&!!!!&&&&&!&&!!&&&&&&!!!!!!&!!!%%%%%&!!!!!&%&!&&&&&!",
  "!!!!!&!!!&!&%%!!&!!!&%%%&!!&&!&$$%%!!!!!!&$&&&!!!!!!&&&&&&&&!!!&&&&&&&!!!!&$!!!&%%%%&!!!!!%%%!!&&$&!",
  "!!!!!&&!!!!!%%&&!!!&&%%%!!!&&&&&&%&!!!!!&$%&&&!!!!!&&&&&&&&&!!!!&%&!!&&!!!&&!!!&%%%&&!!!!&%#%!!&%&&!",
  "!!!!&&!!!!!!%%%&!!&$&&%%!!!!&&&&$&!!!!!!&&$$&&&!!!!&&&&&&!&&!!!&&%%!!&&!!&&&!!!&%%&%&!!!!&%%%!!&%&!!",
  "!!!&&&!!!!!&%%$&&!%%&&%%!!!!!%&&!!&!!!!&&&&&&&!!!!!&&$&&&&&&!!!&&%%!!&&!!&&&!!!&%%&&&!!&&&%%$!&&&&!!",
  "!!!&&!!!!!!!%%%%!!&%&%%$&&&!!%&!!!!!&&%$&!&&&!!!!!&&&%&&&!&!!!!!&%&!!&!&&&&&&!!!&%&&&!!&&&%%%&!!!&!!",
  "!!!&&!!!!!!!%$%%&&&&&%%&&&&!&&!!!!!&%&%%!!!&&!!!!!%&!%&&&!!!!!!!!%&!&&!&&!!&&!!!&%!&%&&&&!&&%%!!!!!!",
  "&!!&&!!!!!!!&%%%&&&&$%&&&&!!&!!!!!!&%&%%&!!&&!!!!!%&!!&%&&&!!!!!!&&!!!!&&!!&&&!!&&&&$%%&!&&&!&!!!!!&",
  "$!!&!!!!!!!!!&%%&!&&&$&&%&&&!!!!!!&&%%%%&!!&!!!!!!&%&!&&!&!!!&!!!!!!&&!&&&!&&&&&&&&&&%%%&!&!!!!!!!!%",
  "&&&!!!!!!!!!!&&&&!&&&&&&%&&&!!!!!&&&&&&%%!!!!!!!!!&%&!!!!!&!!&!!!!!&!!!!!&&&&&&&&&&&&%%%%!!!!!!!!!%%",
  "!&&&!!!!!!!!!!&&!!&%&&&&&$%&!!!!&%%&$&&%%&!!!!!!!!&&&&&!!!&&&!!!!!!&!!!!!&&&&&&!&&&&&%%%%!!!!!!!!&%%",
  "!&%%&!!!!!!!!!&&!!&&&&&&&%&&&!!!&%%&&&&%&&!!!!&!!!&!&!!!!!!!&&&!!!&&!!!&&&!!%%&&&&&%%%%%&!!!!!!!!&%&",
  "&&&%&&!&!!!!!!!!!!&%%&!!&$&&&!!&&&%%&&&!&%!!!&&!!!!!&!!!!!!&&&!!&&&&!!!&&&!!&&%&&&&&%%%%&!!!!!!!&%&&",
  "&&%%&&$&!!!&!!!!!!&%$&&&&!!&&!&%&&%%&&&!!&!&!!&!!!&&!!!!&&&&&!!!&!&&!!!&&&!!&%&&%%&&$%%&!!!!!!!!&$&&",
  "&$%&%%%&!!!!!!!!!!&%%&&&!&&&!&&&&&&&&&&!!!&&&!!!!!!!&&!!&&&&!!!!!!&%!!!&&&!!&%&&%%%&&%&&&!!!!!!!!&%&",
  "&&&%%%%&!!!!!!!!!!&&%&&!!!&$&&!&&&%&!&%!!!!&&&!!!!!!&&!!&&!&&&!!!!!&!!!!&&!!&&&%%%%%&%&!!!!!!!!!!&&&",
  "&&&%&&&&&&!!!!!!!!%%%&!!!!&&&&!!&&%&!&%!!&&&&&!!!!!!&&&!!!&&&&!!!!!!!!!&!!&&&&!$%%%%%%!!!!!!!!!!!%&!",
  "$&&%&&%%&&!!!!!!!!&%%&!!!!&&!&&!&&$&!&&!!%&!!!&!!!&&&&&!!&!&!!!!!!!!!!&%!!&%&&&&$%%%%&!!!!!!&!!!&&&&",
  "&!&%$&%%&&!!!!!!!!&%%&!!!!&!!%&!!&%%&&&&&&&!&&!!!!!&%&!&&&&!!!!!!!!!!&%&!!&%%&&&&%&%%&!!!!!&!!!!!&&&",
  "&&&%%&$&&&!!!!!!&&&%%&!!!!!!&%&!!&%&&&!&%&!&&&!!!!!&%&!&&&!&!!!!!!!!!&%%&!!%%!&%%%$%%&!!!!!&&!!!!&&&",
  "!&%%&&&%%%&!!!!!&%&&&&&&!!!!&&&!!&%!!&!&&&&&&&!!!!&&&&!&&&&!!!!!!!!!!!&&&!!%&&&%%%&&%&!!!!!!!!!!!&&&",
  "!%&%&&%%&%&!!!!!!%&!&&&&!!!!&&!!!&%!!&&&&!&&&&!!!&!&$&!&&&&!!!!!!!!!!!!&$&&&!!$%%%%%&&!!!!!!!!!!!&&&",
  "!!&%&&%&%%!!!!!!!%&&&&$&!!!!!&&!!&%&!!&&&!&%&!!!!!!&$!!&%&&!!!!!!&!!!!!&%%&&&&%%%%%&&&!!!!!!!!!!!&%&",
  "!!&%%&$%%%%&!!!!&&&&&%%!!!!!!&&!&&%&!&&!!!&&&!!&!!!&%&&&&%&!!!!!!&!!!!!&&&&!&%%$%%&%&!!!!!!!!!!!&&&!",
  "!!&$%%&%%%%&!!!!!&&!&%%&!!!!&%%&&&&!!&&!!!&!!!&!!!&&&&&&$%&!!!!!!!!!!!!&&&&!&%%%%%&&&!!!!!!!!!!!&&$&",
  "&&&&%%&&%%&!!&!!!!&!%%%&!!!&&&&%$&&!&&!!&!!!!!&&!!&&&&%&%%&!!!!!!!!!!!!&&&&&&%%%%%%&&!!!!!!!!&!!&&&&",
  "&&&!%%&&%%&!!&!!!!!&&&&&!!&&&&&&%&&!&&&!!!!!!!&&!!&%&&%&%%!!!!!!!!!!!!!%&&&&&%%&%%%&!!!!!!&%&!!!&&&&",
  "&&!!%%&%%&&!!&!!!!!%%&&&!!!&&&&%&&&!&&&!!!!!!!&!!!&%%%&&$&&&!!!!!&!!!!!$%&&&&%&&%%%&!!!!!!&%&!!!!!&&",
  "%!!&%%%%&&&&!!!&&!&&&&&&&!!&%&&&&&%&&&!!!!!!!!&!!!&%%&&&&&&!!!!!!!!!!!!%%&&$$%&!$%%&!!!!!!&&!!!!&!!%",
  "%&&&&&%%&&&&!!!&&&&&&&&&!!!&%&&&&&%%&&!!!!!!!!&!!&&%%&&&&&&!!!!!!!!!!!&%&!&&&%%%&$%!!!!!!!&&!!!!&!!&",
  "$%&&&&&&%&&&!!!&&$&&&&&!!!!&%&!&&&%%&&&!!!!!!!&!!&&%%&&&%!&&!!!!!!!!!!&&&!&&%&&%&&&!!!!!!&&!!&!!&!!&",
  "%%&&&&&%%&&&!!!!&&&&&&&!!!!&%&!&&&%%$%&!!!!!!!!!!&%%%&&&%&&&!!!&!!!!!!$%&!&&%%&%%&!!!!!!!&&!&&!!!!!&",
  "%%&!!&&%%!&&&!!&&&&&&&!!!!!&%&!&&&%$%%&!!!!!!!!!&%&&&&&&&&&!!!!!!!!!!!%%&&&&&%&%%!!!!!!!&&!!&&!!!!!%",
  "%%&&!&&&&!!&&&&&&&&&%&!!!!!&&%!&&!$&%%!!&!!!!!!!&&%%%&&&&&&&&!!!!!!!!!&%&!%%&&&&&&!!!!!!!!!&&&!!!!!&",
  "%%$&!&%&!!!!&&%&&&&!&%!!!!!!%&!&!!%%%&&&!!!!!!!!&$%%&&&!&&&&!!!!!!!!!!&%&&%%&&%&&&!!!!!!!!&&&&&!!!!&",
  "%!&%!&%&!!!!&&%&&&&&&%!!!!!&&&&&!!%%&&&&!!!!!!!!&%%%&&!!&&&!!!!&!!!!!&$%&%&&%&%&!&!!!!!!!!&!&&&!!!!%",
  "%&!&&&%&!!!!&!&%&&&&&&&!!!!&&!&&!&%&&&&&!!!!!!!!%%%%&!!&!!&&!!!&&!!!&&&&%%$&%%%&&!!!!!&&!!!&&&!!&!!%",
  "%&!&&&&!&!!&%!&&&&&&%%!!!!!!!!&&&&&&&!!!!!!!!!!&$%%%&&!!!&&&!!&&!!!!&&%$&&&&%%%&!&!!!!!!!!&&&&&&!!!%",
  "%&&&&&!!!!!&&!&%&&$&&%!!!!!!&&!&&%&&&!!!&!!!!!!&&%&&&%&!!&&!!!!!!!!!!&%&!&%%%%%&!!!!!!!!!!&&!!&&!!&%",
  "%%&&&!!!!&!&&!&%&&%&&&!!!!!!!&&&&&&&!!&&!!!&!!!!%%&&&%&!&&!!!!!!!&&&!&&&&&&%%%%&!!&!!!!!!!&&&&&!!!&%",
  "%&&&&&&!!!&&&&&%%!&%&&!!!!!!!!&&&%&&!!!!!!&&!!!!%%&&&&&&&!!!!!&&%$!!&&&&&&&&&%&!!&&!!!!&!!!!!&&&!!&%",
  "%&&&&&!!!&&&&&&%%&&&&&!!!!!!!!&&&%&&&!!!!&&!!!!!&$&&&&!&%!!!!!%&%%&!!&&&&&&&&&!!!&&!!!!!!!!&!&&!!&&&",
  "&&&&&&!!&&&&&&&&%&&!&!!&!!!!&!!!&%&&&!!!!&!!!!!!&&&!&!!$%!!!!$%&&%%&!!&&!&&&!!!!&&&&&!!!!!!&$&!!&&&&",
  "!&$&&&&!&&&&&&&&&&&&&&!!!!!&!!!!&%&&&&!!!!!!!&&!&&&!!!&%%!!!!&$&&%%&!!&&!!&&&!!!&%&%&!!!!!!&&&&&&&!!",
  "!%%&&&&!!&&&&&&&&$&&$&!!!!!&&!!!&%&&!&&!!!!!!!!&&&&!!&&&!!!&&&$&&$%&!&&&&&&$&!!!%%&%&!!!!!!&&&!&&&!!",
  "&&%&&!!!&&!!&&&&%%&%&!!!!!&&!!!!&%&!!!&!!!!!&!&&!!&&&&&&!!&&&&&&%%&!!&&&&&&&&!!!&&&$&!!!!!!&&!!&&&!!",
  "!&%%&!!&&&&&&&&&&&&$&!!!!!!!&&!!&%&!!!!&!!!!&&&&!!!&&&&&!!&&%&&&&&&&&%&!!&&&!!!!!&&%%!!!&!!&&!!&&&&&",
  "!&%&&!!!&$&&&&!&%!&&!!!&!!!!&!!!&%%&!!!&&!!!&&&!!!!&%&&&!!&%%&&&&&&&$%&!!&&&!!!!!&$%$&!!!&&&!!!!!&&!",
  "!&&&&&&!&%&&&&&&!&%&!!!&&!!!&!!!&%&&!!!%&!!!!&&!!!!&&&!&&%&&&&&&&&&!&%&&!!!&&!!!!&%%&&!!&&&!!!!!!&&!",
  "!&&&&&&&&&&&&&!&!&%&!!!&&!!!!!&&&&%&!!!&&&!!!&%&!!!&&!&&&%%&&&&&$&&&&&%&!&!!%!!!!&%%&&!&&&&!!!!!!%&!",
  "&&&&&&&&&&&&&&!!!&%&!!&&!&!!!&&&&&%&!!!&&&!!!&&!!!!&!!&&&&$!&%&&!!&&!&%&!!!&%&!!!!%%&&!&&&!!!!!!!&!!",
  "&%%!&&&&&&&!&&&&!&%&!!!&&&!!!!!!&%&&!!!!!&!!&!!&!&&!!!&&&%%!&%&!!&&!&&&&&!!&&&!!!!&%&&!&&!!!!!!!!&!!",
  "&%&!!&&&&&&&&&!!!!&&!!!!%!!!!!&&&%&!!!!!!%&!&&&&!!&!!!!!&%%!%%&!!$&!!&&&!!!&&&!!!!!&&&!&&&!!!!!!&&&!",
  "&%%&!&&&%&!&&!!!!&&&!!&&!!&&!!!%&&&&!!!!&&!&&&&&!!!!!!!!&&&&%%&&&&!!!!&&&!&%&!!!!&!&&&&!&&!!!!&!&&&!",
  "%%%&!!&%%&!&&!!!!&&&&&&!!!&&!!!%%!&&!!!&&&!!&&&&&!!&&!!!&&&$%&%&&!!!!!&&%!!&!!!!!!!&&&&!!&!!!!!!&&!&",
  "%%&&&!&&&&&&&&!!!!&&&!!!!&&!!!!%%&&$!!!!&!!!&&&&&!!!!!&!!&&&&%$!&&!!!!!&%!!&!&&!!!!&$&&&!!!!!!!!&&&&",
  "%&&%%&!&&&&&&!!!!&&&&!!!!&&&&!!&&&&&!!&!!!!!%$&&!!&!&&!!!&&&&&&!&%!!!!!!&&&!!&&%&!!!&%&&!&&!!!!!&&&&",
  "%%%%&&&&&&&&!!!!&&&&!!&!&&&&!!&&&&&&&!!!!&!!&%&!&&!!&&!!&!!&&!!!&&!!!!!!&&!!&&%&!!!&&&!!!&&!!!!!&&&&",
  "%%%%&&&&&&&!!!!!&&&&&!!&&&&!!!!&&&&&&!!!!&!!&$!!&!&&&&!!&&&&!!!!!&%&!!!&&&&!!&&&&!!!&&!!!&&!!!!!&&&&",
  "&&%&&&$&&%!!!!!!&&&%%&!&&&&!!!!&%&!&&!!!!&&&&&!!!!&&&!!&!&&&!!!!&&&!!!!&&%&!!!&&&&!!&&!!!&!!!!!!&%%&",
  "!&%&&%&&&&!!!!!!&&%%%&&!&&!!!!!%&&!$%&&!!&&&&!!!!!&!!!!&&!&&&&!!&&!!!&&&&&&!!&&&&!!!&!!!!!&&!!!!%%&&",
  "!&%&%%&&&&!!!!!!&&%%%&!&&&!!!!!%&&&&&&&&!!%&!!!!!!!!!!!!!&$&%%&&&&&!!!!&&&&!!!&&!!!%%!!!&!&!!!!!&%%!",
  "!&%%%%&&&&!!!!!!&&%$%%!!&&!!!!!$&&!&&&&&&&&&!!!!!!!&&!!!&&&&%%&!&$&!!!&%&&&!!!&&!!!&%!!!!!!!!!&&%%&&",
  "!!&%%%$&&&!!!!!!&&&%$&&&&!!!!!!&&&!!&&&&&&&&&!!!&&!!!!!!&!&%%%%&&&&!!!!&&&&!!!&!!!!&&!!!!&!!!&&&&%%!",
  "!!&&%%%&&&!!&&!&&!!!&$&&&!!!!!!!&%&!!&&&%&&%&!!!&&!!!!!!&&&%%%%&&&&!!!&&&&&!&&&!!!!!&!!!!!!!!$&!&%%!",
  "&!!&%%%&&&!!&&!&!!!!!$&&&!!!!!!!!&&!!!&%%%%&!!!!!&!!!!!!!&&%%&$&&&&&!!!&%%!&&&!!!!!!&&!!!!!!!%&&&$&&",
  "&&&&&$&&&&&&&&&!!!!!!&&!!!!!&!!!!&&!&&!%%%&!!!!!&&!&&&!!!&$%%&&&&&&&!!&&&&!&%%!!!!!!&&&!!!!!&&%$&&&&",
  "!&&&&&&!&%%%&&&&&!!!!!&&&!!!&!!!!!&&!!&%%%&!&!!!&!!&%%!!!&&%&!&&!&%&!!&%!&&&&&!!!!!!!&&!!!!!&%&&&&&&",
};
