/* XPM */
static char *outside_3[] = {
  /* width height ncolors chars_per_pixel */
  "128 128 10 1 0 0",
  /* colors */
  "! c #d49f55",
  "# c #c0c0c0",
  "$ c #d47f00",
  "% c #663300",
  "& c #333366",
  "' c #555555",
  "( c #aa5f00",
  ") c #aa3f00",
  "* c #808080",
  "+ c #333300",
  /* pixels */
  "!!!!$!!!!!!!$!!!!!$!$!!!!!!!$$(%&&&&&&&+########*'*''&&+########*'*''&&+########*'*''&&+########!!!!$!!!!!!!$!!!!!$!$!!!!!!!$$(%",
  "!!!$$$$!!!!$$$$!!$$$$$$!!!!$$$$%*''''&&+##**###*#****'&+##**###*#****'&+##**###*#****'&+##**###*!!!$$$$!!!!$$$$!!$$$$$$!!!!$$$$%",
  "!$$!$$$$$!!!$$$$!$$$$$$$$!!!$$(%''**'''+###**#******'''+###**#******'''+###**#******'''+###**#**!$$!$$$$$!!!$$$$!$$$$$$$$!!!$$(%",
  "!$$$$($$$$$$!$$$$$$$$$$$$$$$!$(%'*#*'''+#**#***''*#*'''+#**#***''*#*'''+#**#***''*#*'''+#**#***'!$$$$($$$$$$!$$$$$$$$$$$$$$$!$(%",
  "!$$!$$($$$$$$!$$$$$!$$$$$$$$$!(%***''&&+#''''*''***''&&+#''''*''***''&&+#''''*''***''&&+#''''*''!$$!$$($$$$$$!$$$$$!$$$$$$$$$!(%",
  "!$$$!!!$($$$$$$($$$$!!!$(($$$$(%**'&&&'+#'''*'''**'&&&'+#'''*'''**'&&&'+#'''*'''**'&&&'+#'''*'''!$$$!!!$($$$$$$($$$$!!!$(($$$$(%",
  "!$$$$$!!$((($$$$$$$$$$!!$((($$(%''&&'''+#&&'''&'''&&'''+#&&'''&'''&&'''+#&&'''&'''&&'''+#&&'''&'!$$$$$!!$((($$$$$$$$$$!!$((($$(%",
  "!($$($$$!$$(($$!$($$($$$!$$((((%&&++&&&+&++&&&+&&&++&&&+&++&&&+&&&++&&&+&++&&&+&&&++&&&+&++&&&+&!($$($$$!$$(($$!$($$($$$!$$((((%",
  "!$$$$($$$$$$$($$!$$$$($$$$$$(((%&&&&&&&&&&&&&&&+########*'*''&&+########*'*''&&+########*'*''&&+!$$$$($$$$$$$($$!$$$$($$$$$$(((%",
  "!$!!$(($$$$((($$($!!$(($$$$((((%**''***'*''''&&+##**###*#****'&+##**###*#****'&+##**###*#****'&+!$!!$(($$$$((($$($!!$(($$$$((((%",
  "$($!$((($($$((($$((!$((($($$(((%***''#''''''&&&+###**#******'''+###**#******'''+###**#******'''+$($!$((($($$((($$((!$((($($$(((%",
  "$(($$$((()($$()(())($$((()(((()%#**#***'&'#'&&&+#**#***''*#*'''+#**#***''*#*'''+#**#***''*#*'''+$(($$$((()($$()(())($$((()(((()%",
  "$)%))$($())%)))())%))$($())%)))%#''''*'''''&'&&+#''''*''***''&&+#''''*''***''&&+#''''*''***''&&+$)%))$($())%)))())%))$($())%)))%",
  "$%%%)%%))))%%%)))%%%)%%))))%%%)%#'''*'''**'&&&'+#'''*'''**'&&&'+#'''*'''**'&&&'+#'''*'''**'&&&'+$%%%)%%))))%%%)))%%%)%%))))%%%)%",
  "(%%%%%%%%)%%%%%%%%%%%%%%%)%%%%%%#&&'''&'''&&'''+#&&'''&'''&&'''+#&&'''&'''&&'''+#&&'''&'''&&'''+(%%%%%%%%)%%%%%%%%%%%%%%%)%%%%%%",
  "%%%%%%%%%%%%%%%%%%%%%%%%%%%%%%%%&++&&&+&&&++&&&+&++&&&+&&&++&&&+&++&&&+&&&++&&&+&++&&&+&&&++&&&+%%%%%%%%%%%%%%%%%%%%%%%%%%%%%%%%",
  "!!$!$!!!!!!!$$(%&&&&&&&+&&&&&&&&&&&&&&&+########*'*''&&+########*'*''&&+########*'*''&&+&&&&&&&&&&&&&&&+&&&&&&&&!!!!$!!!!!!!$!!!",
  "!$$$$$$!!!!$$$$%*''''&&+**''***'*''''&&+##**###*#****'&+##**###*#****'&+##**###*#****'&+**''***'*''''&&+**''***'!!!$$$$!!!!$$$$!",
  "!$$$$$$$$!!!$$(%''''&&&+***''#''''**'''+###**#******'''+###**#******'''+###**#******'''+***''#''''**'''+***''#''!$$!$$$$$!!!$$$$",
  "$$$$$$$$$$$$!$(%&'#'&&&+#''#***''*#*'''+#**#***''*#*'''+#**#***''*#*'''+#**#***''*#*'''+#''#***''*#*'''+#**#***'!$$$$($$$$$$!$$$",
  "$$$!$$$$$$$$$!(%'''&'&&+#''''*''***''&&+#''''*''***''&&+#''''*''***''&&+#''''*''***''&&+#''''*''***''&&+#''''*''!$$!$$($$$$$$!$$",
  "$$$$!!!$(($$$$(%**'&&&'+#'''*'''**'&&&'+#'''*'''**'&&&'+#'''*'''**'&&&'+#'''*'''**'&&&'+#'''*'''**'&&&'+#'''*'''!$$$!!!$($$$$$$(",
  "$$$$$$!!$((($$(%''&&'''+#&&'''&'''&&'''+#&&'''&'''&&'''+#&&'''&'''&&'''+#&&'''&'''&&'''+#&&'''&'''&&'''+#&&'''&'!$$$$$!!$((($$$$",
  "$($$($$$!$$((((%&&++&&&+&++&&&+&&&++&&&+&++&&&+&&&++&&&+&++&&&+&&&++&&&+&++&&&+&&&++&&&+&++&&&+&&&++&&&+&++&&&+&!($$($$$!$$(($$!",
  "!$$$$($$$$$$(((%&&&&&&&&&&&&&&&+########*'*''&&+########*'*''&&+########*'*''&&+########*'*''&&+########*'*''&&+!$$$$($$$$$$$($$",
  "($!!$(($$$$((((%**''***'*''''&&+##**###*#****'&+##**###*#****'&+##**###*#****'&+##**###*#****'&+##**###*#****'&+!$!!$(($$$$((($$",
  "$((!$((($($$(((%***''#''''''&&&+###**#******'''+###**#******'''+###**#******'''+###**#******'''+###**#******'''+$($!$((($($$((($",
  "())($$((()(((()%#**#***'&'#'&&&+#**#***''*#*'''+#**#***''*#*'''+#**#***''*#*'''+#**#***''*#*'''+#**#***''*#*'''+$(($$$((()($$()(",
  "))%))$($())%)))%#''''*'''''&'&&+#''''*''***''&&+#''''*''***''&&+#''''*''***''&&+#''''*''***''&&+#''''*''***''&&+$)%))$($())%)))(",
  ")%%%)%%))))%%%)%#'''*'''**'&&&'+#'''*'''**'&&&'+#'''*'''**'&&&'+#'''*'''**'&&&'+#'''*'''**'&&&'+#'''*'''**'&&&'+$%%%)%%))))%%%))",
  "%%%%%%%%%)%%%%%%#&&'''&'''&&'''+#&&'''&'''&&'''+#&&'''&'''&&'''+#&&'''&'''&&'''+#&&'''&'''&&'''+#&&'''&'''&&'''+(%%%%%%%%)%%%%%%",
  "%%%%%%%%%%%%%%%%&++&&&+&&&++&&&+&++&&&+&&&++&&&+&++&&&+&&&++&&&+&++&&&+&&&++&&&+&++&&&+&&&++&&&+&++&&&+&&&++&&&+%%%%%%%%%%%%%%%%",
  "!!!!$!!!!!!!$!!!!!$!$!!!!!!!$$(%&&&&&&&+########*'*''&&+########*'*''&&+########*'*''&&+########!!!!$!!!!!!!$!!!!!$!$!!!!!!!$$(%",
  "!!!$$$$!!!!$$$$!!$$$$$$!!!!$$$$%*''''&&+##**###*#****'&+##**###*#****'&+##**###*#****'&+##**###*!!!$$$$!!!!$$$$!!$$$$$$!!!!$$$$%",
  "!$$!$$$$$!!!$$$$!$$$$$$$$!!!$$(%''**'''+###**#******'''+###**#******'''+###**#******'''+###**#**!$$!$$$$$!!!$$$$!$$$$$$$$!!!$$(%",
  "!$$$$($$$$$$!$$$$$$$$$$$$$$$!$(%'*#*'''+#**#***''*#*'''+#**#***''*#*'''+#**#***''*#*'''+#**#***'!$$$$($$$$$$!$$$$$$$$$$$$$$$!$(%",
  "!$$!$$($$$$$$!$$$$$!$$$$$$$$$!(%***''&&+#''''*''***''&&+#''''*''***''&&+#''''*''***''&&+#''''*''!$$!$$($$$$$$!$$$$$!$$$$$$$$$!(%",
  "!$$$!!!$($$$$$$($$$$!!!$(($$$$(%**'&&&'+#'''*'''**'&&&'+#'''*'''**'&&&'+#'''*'''**'&&&'+#'''*'''!$$$!!!$($$$$$$($$$$!!!$(($$$$(%",
  "!$$$$$!!$((($$$$$$$$$$!!$((($$(%''&&'''+#&&'''&'''&&'''+#&&'''&'''&&'''+#&&'''&'''&&'''+#&&'''&'!$$$$$!!$((($$$$$$$$$$!!$((($$(%",
  "!($$($$$!$$(($$!$($$($$$!$$((((%&&++&&&+&++&&&+&&&++&&&+&++&&&+&&&++&&&+&++&&&+&&&++&&&+&++&&&+&!($$($$$!$$(($$!$($$($$$!$$((((%",
  "!$$$$($$$$$$$($$!$$$$($$$$$$(((%&&&&&&&&&&&&&&&+########*'*''&&+########*'*''&&+########*'*''&&+!$$$$($$$$$$$($$!$$$$($$$$$$(((%",
  "!$!!$(($$$$((($$($!!$(($$$$((((%**''***'*''''&&+##**###*#****'&+##**###*#****'&+##**###*#****'&+!$!!$(($$$$((($$($!!$(($$$$((((%",
  "$($!$((($($$((($$((!$((($($$(((%***''#''''''&&&+###**#******'''+###**#******'''+###**#******'''+$($!$((($($$((($$((!$((($($$(((%",
  "$(($$$((()($$()(())($$((()(((()%#**#***'&'#'&&&+#**#***''*#*'''+#**#***''*#*'''+#**#***''*#*'''+$(($$$((()($$()(())($$((()(((()%",
  "$)%))$($())%)))())%))$($())%)))%#''''*'''''&'&&+#''''*''***''&&+#''''*''***''&&+#''''*''***''&&+$)%))$($())%)))())%))$($())%)))%",
  "$%%%)%%))))%%%)))%%%)%%))))%%%)%#'''*'''**'&&&'+#'''*'''**'&&&'+#'''*'''**'&&&'+#'''*'''**'&&&'+$%%%)%%))))%%%)))%%%)%%))))%%%)%",
  "(%%%%%%%%)%%%%%%%%%%%%%%%)%%%%%%#&&'''&'''&&'''+#&&'''&'''&&'''+#&&'''&'''&&'''+#&&'''&'''&&'''+(%%%%%%%%)%%%%%%%%%%%%%%%)%%%%%%",
  "%%%%%%%%%%%%%%%%%%%%%%%%%%%%%%%%&++&&&+&&&++&&&+&++&&&+&&&++&&&+&++&&&+&&&++&&&+&++&&&+&&&++&&&+%%%%%%%%%%%%%%%%%%%%%%%%%%%%%%%%",
  "!!$!$!!!!!!!$$(%&&&&&&&+&&&&&&&&&&&&&&&+########*'*''&&+########*'*''&&+########*'*''&&+&&&&&&&&&&&&&&&+&&&&&&&&!!!!$!!!!!!!$!!!",
  "!$$$$$$!!!!$$$$%*''''&&+**''***'*''''&&+##**###*#****'&+##**###*#****'&+##**###*#****'&+**''***'*''''&&+**''***'!!!$$$$!!!!$$$$!",
  "!$$$$$$$$!!!$$(%''''&&&+***''#''''**'''+###**#******'''+###**#******'''+###**#******'''+***''#''''**'''+***''#''!$$!$$$$$!!!$$$$",
  "$$$$$$$$$$$$!$(%&'#'&&&+#''#***''*#*'''+#**#***''*#*'''+#**#***''*#*'''+#**#***''*#*'''+#''#***''*#*'''+#**#***'!$$$$($$$$$$!$$$",
  "$$$!$$$$$$$$$!(%'''&'&&+#''''*''***''&&+#''''*''***''&&+#''''*''***''&&+#''''*''***''&&+#''''*''***''&&+#''''*''!$$!$$($$$$$$!$$",
  "$$$$!!!$(($$$$(%**'&&&'+#'''*'''**'&&&'+#'''*'''**'&&&'+#'''*'''**'&&&'+#'''*'''**'&&&'+#'''*'''**'&&&'+#'''*'''!$$$!!!$($$$$$$(",
  "$$$$$$!!$((($$(%''&&'''+#&&'''&'''&&'''+#&&'''&'''&&'''+#&&'''&'''&&'''+#&&'''&'''&&'''+#&&'''&'''&&'''+#&&'''&'!$$$$$!!$((($$$$",
  "$($$($$$!$$((((%&&++&&&+&++&&&+&&&++&&&+&++&&&+&&&++&&&+&++&&&+&&&++&&&+&++&&&+&&&++&&&+&++&&&+&&&++&&&+&++&&&+&!($$($$$!$$(($$!",
  "!$$$$($$$$$$(((%&&&&&&&&&&&&&&&+########*'*''&&+########*'*''&&+########*'*''&&+########*'*''&&+########*'*''&&+!$$$$($$$$$$$($$",
  "($!!$(($$$$((((%**''***'*''''&&+##**###*#****'&+##**###*#****'&+##**###*#****'&+##**###*#****'&+##**###*#****'&+!$!!$(($$$$((($$",
  "$((!$((($($$(((%***''#''''''&&&+###**#******'''+###**#******'''+###**#******'''+###**#******'''+###**#******'''+$($!$((($($$((($",
  "())($$((()(((()%#**#***'&'#'&&&+#**#***''*#*'''+#**#***''*#*'''+#**#***''*#*'''+#**#***''*#*'''+#**#***''*#*'''+$(($$$((()($$()(",
  "))%))$($())%)))%#''''*'''''&'&&+#''''*''***''&&+#''''*''***''&&+#''''*''***''&&+#''''*''***''&&+#''''*''***''&&+$)%))$($())%)))(",
  ")%%%)%%))))%%%)%#'''*'''**'&&&'+#'''*'''**'&&&'+#'''*'''**'&&&'+#'''*'''**'&&&'+#'''*'''**'&&&'+#'''*'''**'&&&'+$%%%)%%))))%%%))",
  "%%%%%%%%%)%%%%%%#&&'''&'''&&'''+#&&'''&'''&&'''+#&&'''&'''&&'''+#&&'''&'''&&'''+#&&'''&'''&&'''+#&&'''&'''&&'''+(%%%%%%%%)%%%%%%",
  "%%%%%%%%%%%%%%%%&++&&&+&&&++&&&+&++&&&+&&&++&&&+&++&&&+&&&++&&&+&++&&&+&&&++&&&+&++&&&+&&&++&&&+&++&&&+&&&++&&&+%%%%%%%%%%%%%%%%",
  "!!!!$!!!!!!!$!!!!!$!$!!!!!!!$$(%&&&&&&&+########*'*''&&+########*'*''&&+########*'*''&&+########!!!!$!!!!!!!$!!!!!$!$!!!!!!!$$(%",
  "!!!$$$$!!!!$$$$!!$$$$$$!!!!$$$$%*''''&&+##**###*#****'&+##**###*#****'&+##**###*#****'&+##**###*!!!$$$$!!!!$$$$!!$$$$$$!!!!$$$$%",
  "!$$!$$$$$!!!$$$$!$$$$$$$$!!!$$(%''**'''+###**#******'''+###**#******'''+###**#******'''+###**#**!$$!$$$$$!!!$$$$!$$$$$$$$!!!$$(%",
  "!$$$$($$$$$$!$$$$$$$$$$$$$$$!$(%'*#*'''+#**#***''*#*'''+#**#***''*#*'''+#**#***''*#*'''+#**#***'!$$$$($$$$$$!$$$$$$$$$$$$$$$!$(%",
  "!$$!$$($$$$$$!$$$$$!$$$$$$$$$!(%***''&&+#''''*''***''&&+#''''*''***''&&+#''''*''***''&&+#''''*''!$$!$$($$$$$$!$$$$$!$$$$$$$$$!(%",
  "!$$$!!!$($$$$$$($$$$!!!$(($$$$(%**'&&&'+#'''*'''**'&&&'+#'''*'''**'&&&'+#'''*'''**'&&&'+#'''*'''!$$$!!!$($$$$$$($$$$!!!$(($$$$(%",
  "!$$$$$!!$((($$$$$$$$$$!!$((($$(%''&&'''+#&&'''&'''&&'''+#&&'''&'''&&'''+#&&'''&'''&&'''+#&&'''&'!$$$$$!!$((($$$$$$$$$$!!$((($$(%",
  "!($$($$$!$$(($$!$($$($$$!$$((((%&&++&&&+&++&&&+&&&++&&&+&++&&&+&&&++&&&+&++&&&+&&&++&&&+&++&&&+&!($$($$$!$$(($$!$($$($$$!$$((((%",
  "!$$$$($$$$$$$($$!$$$$($$$$$$(((%&&&&&&&&&&&&&&&+########*'*''&&+########*'*''&&+########*'*''&&+!$$$$($$$$$$$($$!$$$$($$$$$$(((%",
  "!$!!$(($$$$((($$($!!$(($$$$((((%**''***'*''''&&+##**###*#****'&+##**###*#****'&+##**###*#****'&+!$!!$(($$$$((($$($!!$(($$$$((((%",
  "$($!$((($($$((($$((!$((($($$(((%***''#''''''&&&+###**#******'''+###**#******'''+###**#******'''+$($!$((($($$((($$((!$((($($$(((%",
  "$(($$$((()($$()(())($$((()(((()%#**#***'&'#'&&&+#**#***''*#*'''+#**#***''*#*'''+#**#***''*#*'''+$(($$$((()($$()(())($$((()(((()%",
  "$)%))$($())%)))())%))$($())%)))%#''''*'''''&'&&+#''''*''***''&&+#''''*''***''&&+#''''*''***''&&+$)%))$($())%)))())%))$($())%)))%",
  "$%%%)%%))))%%%)))%%%)%%))))%%%)%#'''*'''**'&&&'+#'''*'''**'&&&'+#'''*'''**'&&&'+#'''*'''**'&&&'+$%%%)%%))))%%%)))%%%)%%))))%%%)%",
  "(%%%%%%%%)%%%%%%%%%%%%%%%)%%%%%%#&&'''&'''&&'''+#&&'''&'''&&'''+#&&'''&'''&&'''+#&&'''&'''&&'''+(%%%%%%%%)%%%%%%%%%%%%%%%)%%%%%%",
  "%%%%%%%%%%%%%%%%%%%%%%%%%%%%%%%%&++&&&+&&&++&&&+&++&&&+&&&++&&&+&++&&&+&&&++&&&+&++&&&+&&&++&&&+%%%%%%%%%%%%%%%%%%%%%%%%%%%%%%%%",
  "!!$!$!!!!!!!$$(%&&&&&&&+&&&&&&&&&&&&&&&+########*'*''&&+########*'*''&&+########*'*''&&+&&&&&&&&&&&&&&&+&&&&&&&&!!!!$!!!!!!!$!!!",
  "!$$$$$$!!!!$$$$%*''''&&+**''***'*''''&&+##**###*#****'&+##**###*#****'&+##**###*#****'&+**''***'*''''&&+**''***'!!!$$$$!!!!$$$$!",
  "!$$$$$$$$!!!$$(%''''&&&+***''#''''**'''+###**#******'''+###**#******'''+###**#******'''+***''#''''**'''+***''#''!$$!$$$$$!!!$$$$",
  "$$$$$$$$$$$$!$(%&'#'&&&+#''#***''*#*'''+#**#***''*#*'''+#**#***''*#*'''+#**#***''*#*'''+#''#***''*#*'''+#**#***'!$$$$($$$$$$!$$$",
  "$$$!$$$$$$$$$!(%'''&'&&+#''''*''***''&&+#''''*''***''&&+#''''*''***''&&+#''''*''***''&&+#''''*''***''&&+#''''*''!$$!$$($$$$$$!$$",
  "$$$$!!!$(($$$$(%**'&&&'+#'''*'''**'&&&'+#'''*'''**'&&&'+#'''*'''**'&&&'+#'''*'''**'&&&'+#'''*'''**'&&&'+#'''*'''!$$$!!!$($$$$$$(",
  "$$$$$$!!$((($$(%''&&'''+#&&'''&'''&&'''+#&&'''&'''&&'''+#&&'''&'''&&'''+#&&'''&'''&&'''+#&&'''&'''&&'''+#&&'''&'!$$$$$!!$((($$$$",
  "$($$($$$!$$((((%&&++&&&+&++&&&+&&&++&&&+&++&&&+&&&++&&&+&++&&&+&&&++&&&+&++&&&+&&&++&&&+&++&&&+&&&++&&&+&++&&&+&!($$($$$!$$(($$!",
  "!$$$$($$$$$$(((%&&&&&&&&&&&&&&&+########*'*''&&+########*'*''&&+########*'*''&&+########*'*''&&+########*'*''&&+!$$$$($$$$$$$($$",
  "($!!$(($$$$((((%**''***'*''''&&+##**###*#****'&+##**###*#****'&+##**###*#****'&+##**###*#****'&+##**###*#****'&+!$!!$(($$$$((($$",
  "$((!$((($($$(((%***''#''''''&&&+###**#******'''+###**#******'''+###**#******'''+###**#******'''+###**#******'''+$($!$((($($$((($",
  "())($$((()(((()%#**#***'&'#'&&&+#**#***''*#*'''+#**#***''*#*'''+#**#***''*#*'''+#**#***''*#*'''+#**#***''*#*'''+$(($$$((()($$()(",
  "))%))$($())%)))%#''''*'''''&'&&+#''''*''***''&&+#''''*''***''&&+#''''*''***''&&+#''''*''***''&&+#''''*''***''&&+$)%))$($())%)))(",
  ")%%%)%%))))%%%)%#'''*'''**'&&&'+#'''*'''**'&&&'+#'''*'''**'&&&'+#'''*'''**'&&&'+#'''*'''**'&&&'+#'''*'''**'&&&'+$%%%)%%))))%%%))",
  "%%%%%%%%%)%%%%%%#&&'''&'''&&'''+#&&'''&'''&&'''+#&&'''&'''&&'''+#&&'''&'''&&'''+#&&'''&'''&&'''+#&&'''&'''&&'''+(%%%%%%%%)%%%%%%",
  "%%%%%%%%%%%%%%%%&++&&&+&&&++&&&+&++&&&+&&&++&&&+&++&&&+&&&++&&&+&++&&&+&&&++&&&+&++&&&+&&&++&&&+&++&&&+&&&++&&&+%%%%%%%%%%%%%%%%",
  "!!!!$!!!!!!!$!!!!!$!$!!!!!!!$$(%&&&&&&&+########*'*''&&+########*'*''&&+########*'*''&&+########!!!!$!!!!!!!$!!!!!$!$!!!!!!!$$(%",
  "!!!$$$$!!!!$$$$!!$$$$$$!!!!$$$$%*''''&&+##**###*#****'&+##**###*#****'&+##**###*#****'&+##**###*!!!$$$$!!!!$$$$!!$$$$$$!!!!$$$$%",
  "!$$!$$$$$!!!$$$$!$$$$$$$$!!!$$(%''**'''+###**#******'''+###**#******'''+###**#******'''+###**#**!$$!$$$$$!!!$$$$!$$$$$$$$!!!$$(%",
  "!$$$$($$$$$$!$$$$$$$$$$$$$$$!$(%'*#*'''+#**#***''*#*'''+#**#***''*#*'''+#**#***''*#*'''+#**#***'!$$$$($$$$$$!$$$$$$$$$$$$$$$!$(%",
  "!$$!$$($$$$$$!$$$$$!$$$$$$$$$!(%***''&&+#''''*''***''&&+#''''*''***''&&+#''''*''***''&&+#''''*''!$$!$$($$$$$$!$$$$$!$$$$$$$$$!(%",
  "!$$$!!!$($$$$$$($$$$!!!$(($$$$(%**'&&&'+#'''*'''**'&&&'+#'''*'''**'&&&'+#'''*'''**'&&&'+#'''*'''!$$$!!!$($$$$$$($$$$!!!$(($$$$(%",
  "!$$$$$!!$((($$$$$$$$$$!!$((($$(%''&&'''+#&&'''&'''&&'''+#&&'''&'''&&'''+#&&'''&'''&&'''+#&&'''&'!$$$$$!!$((($$$$$$$$$$!!$((($$(%",
  "!($$($$$!$$(($$!$($$($$$!$$((((%&&++&&&+&++&&&+&&&++&&&+&++&&&+&&&++&&&+&++&&&+&&&++&&&+&++&&&+&!($$($$$!$$(($$!$($$($$$!$$((((%",
  "!$$$$($$$$$$$($$!$$$$($$$$$$(((%&&&&&&&&&&&&&&&+########*'*''&&+########*'*''&&+########*'*''&&+!$$$$($$$$$$$($$!$$$$($$$$$$(((%",
  "!$!!$(($$$$((($$($!!$(($$$$((((%**''***'*''''&&+##**###*#****'&+##**###*#****'&+##**###*#****'&+!$!!$(($$$$((($$($!!$(($$$$((((%",
  "$($!$((($($$((($$((!$((($($$(((%***''#''''''&&&+###**#******'''+###**#******'''+###**#******'''+$($!$((($($$((($$((!$((($($$(((%",
  "$(($$$((()($$()(())($$((()(((()%#**#***'&'#'&&&+#**#***''*#*'''+#**#***''*#*'''+#**#***''*#*'''+$(($$$((()($$()(())($$((()(((()%",
  "$)%))$($())%)))())%))$($())%)))%#''''*'''''&'&&+#''''*''***''&&+#''''*''***''&&+#''''*''***''&&+$)%))$($())%)))())%))$($())%)))%",
  "$%%%)%%))))%%%)))%%%)%%))))%%%)%#'''*'''**'&&&'+#'''*'''**'&&&'+#'''*'''**'&&&'+#'''*'''**'&&&'+$%%%)%%))))%%%)))%%%)%%))))%%%)%",
  "(%%%%%%%%)%%%%%%%%%%%%%%%)%%%%%%#&&'''&'''&&'''+#&&'''&'''&&'''+#&&'''&'''&&'''+#&&'''&'''&&'''+(%%%%%%%%)%%%%%%%%%%%%%%%)%%%%%%",
  "%%%%%%%%%%%%%%%%%%%%%%%%%%%%%%%%&++&&&+&&&++&&&+&++&&&+&&&++&&&+&++&&&+&&&++&&&+&++&&&+&&&++&&&+%%%%%%%%%%%%%%%%%%%%%%%%%%%%%%%%",
  "!!$!$!!!!!!!$$(%&&&&&&&+&&&&&&&&&&&&&&&+########*'*''&&+########*'*''&&+########*'*''&&+&&&&&&&&&&&&&&&+&&&&&&&&!!!!$!!!!!!!$!!!",
  "!$$$$$$!!!!$$$$%*''''&&+**''***'*''''&&+##**###*#****'&+##**###*#****'&+##**###*#****'&+**''***'*''''&&+**''***'!!!$$$$!!!!$$$$!",
  "!$$$$$$$$!!!$$(%''''&&&+***''#''''**'''+###**#******'''+###**#******'''+###**#******'''+***''#''''**'''+***''#''!$$!$$$$$!!!$$$$",
  "$$$$$$$$$$$$!$(%&'#'&&&+#''#***''*#*'''+#**#***''*#*'''+#**#***''*#*'''+#**#***''*#*'''+#''#***''*#*'''+#**#***'!$$$$($$$$$$!$$$",
  "$$$!$$$$$$$$$!(%'''&'&&+#''''*''***''&&+#''''*''***''&&+#''''*''***''&&+#''''*''***''&&+#''''*''***''&&+#''''*''!$$!$$($$$$$$!$$",
  "$$$$!!!$(($$$$(%**'&&&'+#'''*'''**'&&&'+#'''*'''**'&&&'+#'''*'''**'&&&'+#'''*'''**'&&&'+#'''*'''**'&&&'+#'''*'''!$$$!!!$($$$$$$(",
  "$$$$$$!!$((($$(%''&&'''+#&&'''&'''&&'''+#&&'''&'''&&'''+#&&'''&'''&&'''+#&&'''&'''&&'''+#&&'''&'''&&'''+#&&'''&'!$$$$$!!$((($$$$",
  "$($$($$$!$$((((%&&++&&&+&++&&&+&&&++&&&+&++&&&+&&&++&&&+&++&&&+&&&++&&&+&++&&&+&&&++&&&+&++&&&+&&&++&&&+&++&&&+&!($$($$$!$$(($$!",
  "!$$$$($$$$$$(((%&&&&&&&&&&&&&&&+########*'*''&&+########*'*''&&+########*'*''&&+########*'*''&&+########*'*''&&+!$$$$($$$$$$$($$",
  "($!!$(($$$$((((%**''***'*''''&&+##**###*#****'&+##**###*#****'&+##**###*#****'&+##**###*#****'&+##**###*#****'&+!$!!$(($$$$((($$",
  "$((!$((($($$(((%***''#''''''&&&+###**#******'''+###**#******'''+###**#******'''+###**#******'''+###**#******'''+$($!$((($($$((($",
  "())($$((()(((()%#**#***'&'#'&&&+#**#***''*#*'''+#**#***''*#*'''+#**#***''*#*'''+#**#***''*#*'''+#**#***''*#*'''+$(($$$((()($$()(",
  "))%))$($())%)))%#''''*'''''&'&&+#''''*''***''&&+#''''*''***''&&+#''''*''***''&&+#''''*''***''&&+#''''*''***''&&+$)%))$($())%)))(",
  ")%%%)%%))))%%%)%#'''*'''**'&&&'+#'''*'''**'&&&'+#'''*'''**'&&&'+#'''*'''**'&&&'+#'''*'''**'&&&'+#'''*'''**'&&&'+$%%%)%%))))%%%))",
  "%%%%%%%%%)%%%%%%#&&'''&'''&&'''+#&&'''&'''&&'''+#&&'''&'''&&'''+#&&'''&'''&&'''+#&&'''&'''&&'''+#&&'''&'''&&'''+(%%%%%%%%)%%%%%%",
  "%%%%%%%%%%%%%%%%&++&&&+&&&++&&&+&++&&&+&&&++&&&+&++&&&+&&&++&&&+&++&&&+&&&++&&&+&++&&&+&&&++&&&+&++&&&+&&&++&&&+%%%%%%%%%%%%%%%%",
};
