/* XPM */
static char *outside_1[] = {
  /* width height ncolors chars_per_pixel */
  "100 100 4 1 0 0",
  /* colors */
  "! c #000000",
  "# c #333366",
  "$ c #555555",
  "% c #333300",
  /* pixels */
  "##%%%%%%%%%%%%%%%%%$$#%%%%%%%%%%%%%%%!%%%!!%%!!%%%%%$%%%%%%$$#$$$$$#%%!%!%%!!!!!!%!!!!!!!!!%%%%%%%#$",
  "%%%%%%%%%%%%%%%!%%%#$$%%%%%!%%%%%%%$%%%%%%%%%%%%%%%%%$%%%%#$$%#%%%%%%%%!%%%%!!!!!%!!!!!!!%%%%#%%%%%%",
  "%%%%%%%%%%%%%%!%%##%%%%%%%!%%!%%!%%%%%%!%!!%%%%%%%%%%######%%%%%%%%%%%%!%!!%!!!!%!!!!!!!%!%%%%#%%%%%",
  "%%%%%%%%%%%%!!%$#%%#%%%%%!%!%!%!%%%%%%%!!%%%%!%%%#%%%%%#$%%%%%%%%%%%%!%!!%!!!!!!%!!!!!!%!%%%%#$%%%%%",
  "%%%%%%%%%!%!%%$#%%%%%%%%%%!%!!!%$%%%%!!!%!%%%%%%#$#%%%%#%%%%%%%%%%%%!%!!%!%!!!!%!!!!!%!%%%%%%#%#%%%%",
  "%%%%%%%%%%%%$#$$#%%%%%%%!%!!!%%!!!!!!!!!%%%%%!%%$$%%%%%%%%%%%%%%%%%!%!!%!!!!!%%!!!!!!%%!%%%%%#%#%%%%",
  "%%%%%%%%%%%#$$$$%%%!%%%%!!!!%!!!!!!!!!!%!%%%%%%$$%%%%%%%%%%%%%%%%!!%!%!!!!!!%!!!!!!!!!%%%%%%%%#%%%%%",
  "%%%%%%%##%%$$$%%%%%!!%!!!!%%!!!!!!!!!!!%%%%!%%#$#%%%%%%%%%%%%%%%%!%!%!!!!!%%!!!!!!!!%%%%%%%%#%#%%%%%",
  "%%%%%$$#%%%$#%%%%!%!%%%!%$!!!!!!!!!!!!!%%%!%%%$###%%%%%%%%!%%!%!!%%!%!%%%%!!!!!!!!!!%%%%%%###%%%%%%%",
  "%%%%$$#%%%%#%%%%%%!!%%%#%!!!!!!!!!!!!!!!%!%!%%$%#%%%%!%%!%%!%%%%%%%%#%!!!!!!!!!!!!!%%%%%%#$$#%%%%%%%",
  "%%%%%%%%%%%%%%%%%!%!%%%!!!!!!!!!!!!!!!!!%%%%%##%%%%%!%!%!%!%%%#%!!!!!!!!!!!!!!!!!!%!%%%%####%%%%%%%%",
  "##%%%%%%%%%%%%%%%%%%!!!!!!!!!!!!!!!!!!!!%!%%##%%%%%!%!%!%%%%!!!!!!!!!!!!!!!!!!!!!%!%%%$$#%%%%%%%%%%%",
  "$$#%%%%%%%%%%%%%%!!!!!!!!!!!!!!!!!!!!!!!%%%%$#%%%%!!%!!%%!!!!!!!!!!!!!!!!!!!!!!!!!%%%%$$#%%%%%%%%##$",
  "$$$#%%%%%%%%%$!!!!!!!!!!!!!!!!!!!%!!!!!!%%%%$%%%%!%!!%%%!!!!!!!!!!!!!!!!!!!!!!!%%%%%%%%$$$$%%%%%$$$$",
  "##%#%%%%%%%%!!!!!!!!!!!!!!!!!!!%%%%%!!!!!%%$%%%%%%!%!%%!!!!!!!!!!!!!!!!!!!!!!!!%!%%%%%%%%%##%%%%#$$$",
  "%%%%%%%%%$!!!!!!!!!!!!!!!!!!!!!%%%%!%!!!%#$$%%%!%!!%$!!!!!!!!!!!!!!!!!!!!!!!!!!!%%!%%%%!%%%%%!%%%##%",
  "%%%%%%%$!!!!!!!!!!!!!!!!!!!!!!%%%%%%!!!!%#$%%%%%!!%%!!!!!!!!!!!!!!!!!!!!!!!!!%!%%!%%!!%!%%%%%%%%%%%%",
  "%%%%%$%!!!!!!!!!!!!!!!!!!!!!%%%%%%!%!!!!%#$%%%%!%!%!!!!!!!!!!!!!!!!!!!!%%!%!%!%!%%%%%%%%%%%%%%%%%%%%",
  "%%%%%!!!!!!!!!!!!!!!!!!!!!!!!%%%%%%%!%!!%#%%%%!%!#!!!!!!!!!!!!!!!!!!!!!!%%%%%%%%%%%%%%%%%%%%%%%%%%%%",
  "%%#%!!!!!!!!!!!!!!!!!!!!!!!!%!%%#%%!!!%!!%%%%%!!%%!%!!!!!!!!!!!!!!!!!!!!%##%%%!%!!%%%%%%%%%%%%%!%%%%",
  "%#%!!!!!%%!%%%!%!!!!!!!!!!!%!!%%$#%%%!!!%%%%!!%%$%!%!!!!!!!!!!!!!!!!!!!!!%%%%%%!%%%%%%%%%%%%%!%%%!%%",
  "%!%%!!%%!%!%!%%!!!!!!!!!%%%%%%!%%%%%%%!!!!%%%!!%%!!!!!!!!!!!!%!!!!!!!!!!!!%%%%%%%!%%%%%%%%%%%%!%%%!%",
  "!%!%!%!!%!%!%!!!!!!!!!!%!%%%%%%!%%%%!!%%!!!!!!%%!!!!!!!!!!%!%!%!!!!!!!!!!!!!%%%%%%%%%%%!%!%!%%%%%%%!",
  "!!!!!%!%%!%!%!!!!!!!%%%%%%%%%%%%%%%!%%%!!!!!!!#!!!!!!!!!!!!%!!!%%%!%!!!!!!%!%!%%%%%%%%%!!!!%%%%%%%!!",
  "!!!!!!!!!%!%!!!!!!!!%!%%%%%#$%%%%%!%!!!!!!!!%%!!!!!!!!!!!%!!!!%%%%%%%!%!%%!%%%%%%%%%%%%%%!!!!%%%%%!!",
  "!!!!!!!%%!!%%%!!%%%!!%%%%##$$#%%%%%!%!!%%!!!!%!!!!!!!!%%!!!!%%%###$$%%%%%%%%%%%%%%%%%%%%!!!%!%%%$!%!",
  "!!!!!!!!!%%%!!%%!%!%%%%%%#$$$%%%%%%%!%%!%!!!%!!!!!!!!!%!%!%!%%%$$$$#%%%%%%%%%%%%%%%%%%%%%!!!%!%$%%!!",
  "!!!!!!!!%!%!%%%!%%%!%%%%#$$$$%%%%%%!%!!%!%!!%!!!!!!!%%%!!!!%%%$$$##%%%%%%%%%%%%%%%%%%%%%!!!%%%%$%!!!",
  "!%!%%!!!!%%!%!%%%%%%%%####$$%%%%%!!%%%%!!!%!%!!!!!%%!%%%!%%%%#$%%%%%%%%%%%!%%%%%%%%%%%%%!!%%%%%%!!!!",
  "!%%%!!!!%!%%!%%%%$$#%%%%##%%%%%%!%%%%!%!%%!%!!!!!%!%%%%!%!%%%%%%%%%%%%%%%%%%%%%%%%%%%%%!!!!%%%%%!!!%",
  "%%%%%!%!%%%!%%%%%$$$$$##%#%%%%%%!%!%!%!%%!%%!!!!%!%%%%%%!%%#%%%%%%%%%%%%%%%%%%%%%%%%%%!%!!!%%%$%!!%!",
  "%%#%%%%%%%%!%%%%%%%%$$$$#%%%%%%%%%%%!%!%%%%%!!%%!%%%%%%%%%%%%%%%%%%%%%%%%%%%%%%%##%%%!!!!%%%%%$!%%!%",
  "%#$%%!%%%%%%%%$$$####$$#%%%%%!%%!%%%%!%%%%$!%%!%%%%%%%%%%%%%%%%#$$$###$#%%%%%%%%###%%%!!!!%!%%#%!%%%",
  "%##%%%%%%%%%%%#%%#$#$$$#%%%%%%%%%%!!%!%%%%%%!%%%%%%%%%%%%%%%%#$$$$$#%#$%%%%%%%%%#%%%%!%!!%!%!%%%%!%%",
  "%#%%%%%%%%%%%#%%%%%$$$#%%%%!%%%!%%%%!%%%%%%!%!%%%%%%%%%$#%%%#$$$$$$$##%%%%%%##%###%%%%!!!!%!!%%%!%%%",
  "%%#%%%%%%%%%%%%%$$%$$#%%%%%%%%%%%%!!!%!%!$%!!%%!%%%%%%%$###%%%$$$$$#%%%%%%%$$####%#%%!%!!!!!!!%%%%%%",
  "%%%%%%%%%%%%%%%#$$%%###%%%%%%%%%%%%%%%%!%!!!%!%%%%%%%%%%%$$$%%#$$$$#%%%%%%%$$$$$$##%%%!!!!!!!!%%%%%%",
  "%%%%%%%%%%%%%%%#$%%%#$%%%%%%%%%%%%!!!%%%%!!!%%!%%%%!!!%%%#%$$%%%$$#%%%%%%%%#$$$$$$#%%%%!!!!!!!%%%%%%",
  "%%%%%%%%%%%%%%%#%%!%#$%%%%%%%%%%%%%%!%%!%!!!%!%%%%!%%%%%%%%%$#%%%#%%%%%%%%#$$$$$$%%%%%%%!!!!!!!$%%%%",
  "%%%%%%%%%%%%%%%%%%%##%%%%%%%%%%%%%%%%!%%%!!%%!%!!%!%!%%%%%%%%$%%%%%%%%%%%%$$$$$$#%%%%%%%%!!!!!!!$%%%",
  "%%%%%%%%%%%%%%%%%%%%#%%%%%%%%%%%$#%!!%%%%%%!!%%%%%%%%%%%%%%%%%$%%%%%%%%%%#$$#$#$$$%%%%%%!!!!!!!!!#%%",
  "%%%%%%%%%%%%%%%%%%%%%%%%%%%%%%%#$$%%%%!%%!%%%%%%%%%%%%%%%%%%%!%%$%%%%%%%$##$$$$$$$#%%%%%%!!%%!!!!!$%",
  "%%%%%%%%%%%%%%%%%%%%%%%%%%%%%%%$$$%%%%%%%%%%%%%%%%%%%%%%%%%%%%%%%%%%%#$$$$$$$$$$$$$###%%%!%!%!!!!!!#",
  "%%%%%%%%%%%%%%%%%%%%%%%%%%%%%#$#$#%%%%!%%%%%%%%%%%%%%%%%%%%%!%!!%!%!%%%#$$$$$$$$$$$%##%%!%!%%!!!!!!!",
  "!%$%%%%%%%%%%%%%%%%%%%%%%%%%%%#$#%%!!%%%%%%%%%%%%%%%%%%%#%%!%!%%!%!%!%%#$$##$$$$$$$%%%%%%%%%!!!!!!!!",
  "!!!#%%%%%%%%%%%%%%%%%%%%%%%#######%%%!%%%%%%%%%%%%%%%%%%#%%%%%!%!%!%%%%%#%#$$$$$$$#%%%%%%%!!!!!!!!!!",
  "!!!!!$%%%%%%%%%%%%%%%%%%%%%%%%#%##%%!%!%#%%%%%%%%%%%%%%%%%%%%%%%%!%%!!%%%%#$$#%%#%%%%%%%%!!!!!!!!!!!",
  "!!!!!!$%%%%%%%%%%%%%%%%%#$##%%%%%%%%%!!%$%%%%%%%%%%%%%%%%%$%%%%%%%%!%%%%%%%%%%%##$$$%%!!!!!!!!!!!!!!",
  "!!!!!!!%%%%%%%%%%%%%##$#$$$$#%%%%%%%%!!%%%%%%%%%%%%%%%%%%%$$%%%%%%%%!!%%%%%%%%$$##%%%!!!!!%!%%%!!!!!",
  "!!!!!!!!!%%%%%%#%#$$%#$$$$$$##%%%%%%%%!!%%%%%%%%%%%%%!%%%%$$#%%%%%%%%%%%%%%%%$%%%%%%%!%!%%!%%!%%!!!!",
  "!!!!!!!!!!%%%%%#%#$$$%#$$$$####%%%%%%!%!%%%%%%%%##%%%%%%%%$$$%%%%%%%!%%%%%%%%$%%#%%%%%%%%%%%%%%%%%!!",
  "!!!!!!!!!!!%%%%#$##$$#%$$$#$###%%%%%%%!%%%%%%%%%%#%%%%%%%%$$$#%%%%%%%%%%%%%%$%%%%#$$$$###$#%%%%%%!%!",
  "!!!!!!!!!!!!%$%%$####%%%#$$$#%%%%%%%!!!%!%%%%%%%#%%%%%%%%%$$$#%%%%%%%%%%%%%$%%%#$$$####$$$$$#%%%%%!!",
  "!!!!!!!!!!%!!!$#$$#%%%%%%#$%%%%%%%%%%!!!%%%%%%%%%%%%%%%%%%$$$%%%%%%%%%%%%%%#%##$$##$%%%##$$$$%%%!!!!",
  "!!!!!!!!!!%%%!!%$$##%#%%%%#%%#%%%%%%%%!!%%%%%%%%%%%%%%%%%%$$$#%%%%%!%%%%%%$#$$$$#%%#%%%%##%#%$%!!!!!",
  "%!!!!!!!!%%!!!!!!%$##%%%%%%%%%%%%#%#%%!!%%%%%%%%%%%%%%%%%%#$$#%%%!%%%%%%%$$$$$$#%%%%%%%%#$$$$%%!!!!!",
  "!%%!!!!!!%!!!!!!!!%$#%%%%%%%%#%%%$#$$%!!!%%%%%%%%%%%%%%%%%$$$#%%%%!%!%%%$$$$$$#%%$$$$%%%%%%%!!!!!!!!",
  "!%!%!!!!!%!!!!!!!!!!%#%%%%%###%%#$$$$%%%!%!%%%%%%%!!%!%%%%$$$$%%!%!%!%%#$$$$$##$$%%%!%!%!!%!!!%%%%!%",
  "%%%!%!!!%!%%%!!!!!!!!#%%%%%%##%%%$$$$$%%%%%%!%!%!%!%!%%%%%$$$%%%%!%%%%##$$$$##$#%%%%%!%!%%!%!!%%!%%%",
  "%%%%!%!!%%%%%%%!!!!!!!%%%%%%%%%%%%%%%#%%%%%%%!%!!%!%%%%##%$$$%%%%!%!%%%%%$$#%$$#%%%%%!%!%!%%%%%%%%$$",
  "#%%!%!%!%%%%%%%%%!!!%%%%%%%%%%%%%%%%%%%%$%%%!%!%%!%%%##$$#$$#%%%%%!%%%%%%%$#%$#%%%%%%%%%%%%%%%%%%#$#",
  "#%%%!%!%%%%%#%%%!%!%!%%!%%%%%%%%%%%%%%%%$%%%%%%!%%%%$$$$##$$#%%%!%%%#%%%%%%%##%%%%%%%%%%##%%#$$#$$$$",
  "#%%%%%!%#%%$$#%%%%!%!%!%!%#$%%%%%%%%%%%%%%%%%%%%%%%$$$$#%$$#%%%%%%!%%%%%%%%%$%%%%%%%#%%#%%%%%#$$$$$$",
  "#%%%!!%%$%$$$$%%%!%!%%%%%%%%$#%%%%%%%%%%%%%%%%%%%$$$$#%%#$$%%%%%%!%%%%%%%%%%#%%%%%%%#%%%%%%%%##$$$$$",
  "%%%%%%!%$#$$$$%%%%%%%%%%%%%%%%##%%%%%%%%%%%%%%%%%%#%%%%#$$#%%%%%%%!%%%%%%%%%#%%%%%%%%%%%%%%%#$#%%#$#",
  "%%%!!%%$%#$$$$#%%%!%!%%%%%%%%%%!%#$$#%%%!%%%%%%%%%%%%#$$$#%%%%%%%%%!%%%%%%%%$%%%%%%%%%%%%%%%#$#%%%%%",
  "%%%%%%%$%$$$$##%%!%%%%%%%%%%%%%!!!!!!%%!%!%%%%%%%%%#$$$#%%%#$%%%%%%!!!%%%%%%$#%%%%%%%%%%%%%%%%%%%%%%",
  "%%%!%%%#%##$$$%%%!%!%%%%%%%%%!!!!!!!!!!%!%%%%%%%%$$$$$#%%%%$$#%%%%%%%!!%%%#%%%%%%##%%%%%%%%%%%%%%%%%",
  "%%%%%%%%%%#$$$#$%%!%%!%%%%%!!!!!!!!!!!%!%!%%%%%%#$$##%%%%%#$$%%%%%%!!!%!%%!!!!!%%##$$#%%%%%%%%%%%%%#",
  "%%%%!%%#%%%%#$$$%%%!%%!%!%!!!!!!!!!!!!!!%%%%%%%%$%%%#%%%%%###%%%%%%%%!!!!!!!!!!!!%%%%%$%%%%%%%%%%#$#",
  "%%%%%!%$%%%%#%#$#%%%!%!%!!!!!!!!!!!!!!!%!%%%%%%$#%%%%%%%%%%%%%%%%%%%!!!!!!!!!!!!!!!!%%%#%%%%%%%%%$$$",
  "%%%%%%!%$%%%%%#$$#%%%%!!!!!!!!!!!!!!!!!!%%%%%%#$#%%%%%%%%%%%%%%%%%%!!!!!!!!!!!!!!!!!!!!!%%%%%%%%%$$$",
  "#%%%%!!!%%%%%%$$$##%!!!!!!!!!!!!!!!!!!!%%%%%%%#%%%%%%%%%%%%%%%%%#%!!!!!!!!!!!!!!!!!!!!!!!%$%%%%%%#$$",
  "#%%%%%%!!%%#%%#$%%!!!!%!!!!!!!!!!!!%!!%%%%%!%%#%%%%%%%%%%%%%%%$!!!!!!!!!!!!!!!!!!!!!!!!!!!!#%!%%%#$$",
  "$%#%%!!%!!%%%%%%%!!!!%!%!!!!!!!!!!!!%%!%%!%%%%%%%%%%%%%%%%%#%!!!!!!!!!!!!!!!!!!!!!!!!!!!!!!!#%%%%%$$",
  "$##%%%%%%%!%%!%%!!!!!!%!%!!!!!!!!!!!!!%%!%!%%%%%%%%%%%%%%$%!!!!!!!!!!!!!!!!!!!!!!!!!!!!!!!!!!%%%%%#$",
  "$#%%%%%%!!%!!%!!!!!!%!!%!!!!!!!!!!!!!%!!%!%%%%%!%%%%%%%$!!!!!!!!!!!!!!!!!!!!!!!!!!!!!!!!!!!!%!%%%%%$",
  "%%%%%%%!%%!!!!!!!!%%!!%%!!!!%!%!%!%!!%%%%%%%%%%%!%%%%$!!!!!!!!!!!!!!!!!!!!!!!!!!%!%!!!!!!!!!!%!%%%%#",
  "%%%%%%!%!!!!!!!%!%!%%%!%!%%!%%%%%%!%!%!!%%#%%%%!%%!%%!!!!!!!!!!!!!!!!%!!!!!!%%%%!%!%%!!!!!!%%!%%%%%%",
  "%!!%!%!%!!%!!%%%!!%%%%%%!%!%%%#%!%!!%!%%%%%%%%!%%!%%!!!!!!!!!!!!!!!!!!!!!!!!!%%!%!%!!%%!!!!%!%%%%%%%",
  "%%%!%!%!!!!!%!%%%%%%%%%!%!%%%##%%!%%%!%%%%%%!%%!%%!!!!!!!!!!!!!!!!!!!!!!!!!!%%%%%!%%%!!!!!%!%%!%!%%!",
  "!!%!%!!!!!!!%%%!%%%%%%%%!%%%%$#%%!%%!%%%%%%%%!%!%%!!!!!!!!!!!!!!!!!!!!!!!!!!!%%%%%%!!%%!!!%%%%!%!!%%",
  "%%!%!%%!!!!%!%%!%%%%%%%!%%%%%#%%%%%%%%%%#%%%%!!%%!!!!!!!!!!!!!!!!!%%!!!!!!%!%%%%%%%%%!%!!%%%!!%!!!!!",
  "!%!%!%!%%!%%!%%%%%%%%%!%%%%%%%%%!%%%#$##%%%!%!%%!%!!!!!!!!!%!!!!!!%!%!!!!!%%%%##%%%!!%!!%%!%%!!!!!!%",
  "!%%%%!%%%%%!%%%!%%%%%%!%%%%#$%%%%%%#$$#%%%!%!%#%!%!!!%!!!%!!!!!!%%%!%!%!!%%%%%$%%!%%%!!%%%%!!!!!!!%!",
  "%%!%%%%%%%%%%!!!!!!!%!%%%%#$$%%%%%%%#$#%%%%!!%!%%!%%!!!!!!%!!!!%!%%%%!%%%%%%!%%%%%!!%%!%%!!!!%!!!%%%",
  "%%%%%%%%%%%%!!!!!!!!!%%%%$$#%%%%%%%%%%%%%!!!%%!!%!!!!!!!!!!!%%%!%%%%%%!%%%%%%!%%%!%%!!%%%%%!!!!!!!%!",
  "%%%%#%%%%%!!!!!!!!!!%%%$$$%%%%%%%%%%%%%%%%!!%!!%!%!!!!!!!!!!!%!%%%%%%%!%%%%%!%!%!%!!%%!$!!!!!!!!!!%%",
  "%%%$###%!!!!!!!!!%!%!%%##%%#$%%%%%%%%%%%!!%%!!!%!!!!!!!!!!!!!%%%%%#%%!!!%%%%%%!%%!%%!!%%!!!!%!!!!!!!",
  "!!%!%%%!!!!!!!!%%%%%%%%%%$$#%%%%%%%%%%%%%!%%!!!%%!!!!!!!!!!!!%%%%%$%%%%!%%%%%!%!!%!%%%$!!!!!!!!!!!!!",
  "!!!!!!!!!!!!!!%!%%%%%%%!%%%%%%%%%%%%%%%%!!%!!!%!!!!!!!!!!%!%!%!%%#$#%%%!!!%!%!%!!!!!!%%!!!!!!!!!!!!!",
  "!!!!!!!!!!!!!!%%%%%%%%%%%%%#%%%%%#%%%%!!!%!!!!%!!!!!!!!%!%%%%%%%$$$#%%%%%%!%%%%!!!%%!$!!!!!!!!!!!!!!",
  "!!!!!!!!!!!!%%%%%%%%%%%%%%###%%%%#%%%%%!%%!!!!!%!!!!!!!%%%%%%%#$$$$#%%%%!!%!%!!!!!!%%!!!!!!!!!!!!!!!",
  "!!!!!!!!!!%!!%%%%%%%!%%%%%###%%%#%%%%!%!%!!!!!!%!!!!!%%!%%%%%#$#$$#%%%%%%!%%!%%!!!!!#!!!!!!!!!!!!!!!",
  "!!!!!!!!!%!%%%%%%%%%%%%%#####%%%%%%%%%!%!!!!%!%!%!!!%!%%%%##$##%#$##%%%%%%!%!%!!!!!%!!!!!!!!!!!!!!!!",
  "!%%%%!!!%!%%%%%%%%%!%%%####$#%%%%%%%%!%%!!!%!%%!%!!!%%%%##$$#%%%$$$$%%%%%!!!%%!!!!!$!!!!!!!!!!!!!!%!",
  "!%!!!!!%%%%%%%%%%%!%%%%#%##$%%%%%%%%%%$!%%%!%!%%!%!%%%%%#$$%%%%$$$$$#%%%%!%%!!!!!!!%!!!!!!!!!!%!%!!!",
  "!!!%!%!%%%#$#%%%%%!%%%#%%%##%%%%%%%%!%!%!%!%%%%%!!%%%%%%%%%%%%#$$$$$%%%%!%!%%%!!!!%!!!!!!!!!!%!%!!!!",
  "%!%%%%%%%%%##%%%%%%%##%%%%%%%%!%%%%%%%%!%%!%%%!%!!%%%%%%%%%%%#$$$$$$%%%%!%%!!!!!!!#!!!!!!!!!!%%!%%%%",
  "%%%%###%%%#%%%%%%%%#$##%%%%%%%%%%%%%$!!%%%%%!%%!%%%%%%%%%%%%$#$$$$$$%%%!%%%%!!!!!!%!!!!!!!!%%%%%%%##",
};
