/* XPM */
static char *outside_4[] = {
  /* width height ncolors chars_per_pixel */
  "128 128 6 1 0 0",
  /* colors */
  "! c #000000",
  "# c #d47f00",
  "$ c #663300",
  "% c #aa5f00",
  "& c #aa3f00",
  "' c #333300",
  /* pixels */
  "!'$$$$$$$$$$$'!'!'&$$$$$$$$$$'!'!'$$$$$$$$$$$'!'!'&$$$&$$$$$$'!'!'$$$$$$$$$$$'!'!'&$$$$$$&$$$'!'!'$$$$$$$$$$$'!'!'&$$$$$$$$$$'!'",
  "'!'$$$$$$$$$'!'&'!'&$$$&$$$$'!'&'!'$$$$$$$$$'!'&'!'&$$$&$$$$'!'&'!'$$$$$$$$$'!'&'!'&$$$$$$&&'!'&'!'$$$$$$$$$'!'&'!'&$$$$$$$$'!'&",
  "$'!'$$$$$$$'!'&$$'!'&$$$&$&'!'&$$'!'$$$$$$$'!'&$$'!'&&$$&$$'!'&$$'!'$$$$$$$'!'&$$'!'&$$$$$&'!'&$$'!'$$$$$$$'!'&$$'!'&$$$$$$'!'&$",
  "$$'!'$$$$$'!'&$$$$'!'&$$$&'!'&$$$$'!'$$$$$'!'&$$$$'!'&$$$&'!'&$$$$'!'$$$$$'!'&$$$$'!'&$$$&'!'&$$$$'!'$$$$$'!'&$$$$'!'&$$$$'!'&$$",
  "$$$'!'$$$'!'&$$$$$$'!'&&&'!'&$$$$$$'!'$$$'!'&$$$$$$'!'&$&'!'&$$$$$$'!'$$$'!'&$$$$$$'!'&&&'!'&$$$$$$'!'$$$'!'&$$$$$$'!'&$$'!'&$$$",
  "$$$$'!'$'!'%$&$$$$$$'!'&'!'%$&$$$$$$'!'$'!'%$&$$$$$$'!'&'!'%$$$$$$$$'!'$'!'%$&$$$$$$'!'&'!'%$&$$$$$$'!'$'!'%$&$$$$$$'!'&'!'%$$$$",
  "$$$$$'!'!'%$$$&$$$$$$'!'!'%$$$&$$$$$$'!'!'%$$$&$$$$$$'!'!'%$$$$$$$$$$'!'!'%$$$&$$$$$$'!'!'%$$$&$$$$$$'!'!'%$$$&$$$$$$'!'!'%$$$$$",
  "$$$$$$'!'%&$$$$$$$$$$$'!'%&$$$$$$$$$$$'!'%&$$$$$$$$$$$'!'%$$$$$$$$$$$$'!'%&$$$$$$$$$$$'!'%&$$$$$$$$$$$'!'%&$$$$$$$$$$$'!'%$$$$$$",
  "$$$$$$$'!'%$$$$$$$$$$$$'!'%$$$$$$$$$$$$'!'%$$$$$$$$$$$$'!'%$$$$$$$$$$$$'!'%$$$$$$$$$$$$'!'%$$$$$$$$$$$$'!'%$$$$$$$$$$$$'!'%$$$$$",
  "$$$$$$$$'!'&$$$$$$$$$$$$'!'&$$$$$$$$$$$$'!'&$$$$$$$$$$$$'!'&$$$$$$$$$$$$'!'&$$$$$$$$$$$$'!'&$$$$$$$$$$$$'!'&$$$$$$$$$$$$'!'&$$$$",
  "$$$$$$$$$'!'&$$$$$$$$$$$$'!'&$$$$$$$$$$$$'!'&$$$$$$$$$$$$'!'&$$$$$$$$$$$$'!'&$$$$$$$$$$$$'!'&$$$$$$$$$$$$'!'&$$$$$$$$$$$$'!'&$$$",
  "$$$$$$$$$$'!'%$$$$$$$$$$$$'!'%$$$$$$$$$$$$'!'%$$$$$$$$$$$$'!'&$$$$$$$$$$$$'!'%$$$$$$$$$$$$'!'%$$$$$$$$$$$$'!'%$$$$$$$$$$$$'!'&$$",
  "$$$$$$$$$$$'!'%$$$$$$$$$$$$'!'%$$$$$$$$$$$$'!'%$$$$$$$$$$$$'!'&$$$$$$$$$$$$'!'%$$$$$$$$$$$$'!'%$$$$$$$$$$$$'!'%$$$$$$$$$$$$'!'&$",
  "$$$$$$$$$$$$'!'&$$$$$$$$$$$$'!'&$$$$$$$$$$$$'!'&$$$$$$$$$$$$'!'&$$$$$$$$$$$$'!'&$$$$$$$$$$$$'!'&$$$$$$$$$$$$'!'&$$$$$$$$$$$$'!'&",
  "$$$$$$$$$$$$$'!'$$$$$$$$$$$$$'!'$$$$$$$$$$$$$'!'$$$$$$$$$$$$$'!'$$$$$$$$$$$$$'!'$$$$$$$$$$$$$'!'$$$$$$$$$$$$$'!'$$$$$$$$$$$$$'!'",
  "'$$$$$$$$$$$$$'!'&$$$$$$$$$$$''!'&$$$$$$$$$$$''!'&$$$$$$$$$$$''!'$$$$$$$$$$$$$'!'&$$$$$$$$$$$''!'&$$$$$$$$$$$''!'&$$$$$$$$$$$''!",
  "!'$$$$$$$$$$$'!'!'$$$$$$$$$$$'!'!'$$$$$$$$$$$'!'!'$$$$$$$$$$$'!'!'$$$$$$$$$$$'!'!'$$$$$$$$$$$'!'!'$$$$$$$$$$$'!'!'$$$$$$$$$$$'!'",
  "'!'$$$$$$$$$'!'%'!'$$$$$$$$$'!'&'!'$$$$$$$$$'!'%'!'$$$$$$$$$'!'&'!'$$$$$$$$$'!'%'!'$$$$$$$$$'!'&'!'$$$$$$$$$'!'%'!'$$$$$$$$$'!'&",
  "$'!'$$$$$$$'!'%&&'!'$$$$$$$'!'&$$'!'$$$$$$$'!'%&&'!'$$$$$$$'!'&$$'!'$$$$$$$'!'%&&'!'$$$$$$$'!'&$$'!'$$$$$$$'!'%&&'!'$$$$$$$'!'&$",
  "$$'!'$$$$$'!'#%&$&'!'$$$$$'!'&$$$$'!'$$$$$'!'#%&$&'!'$$$$$'!'&$$$$'!'$$$$$'!'#%&$&'!'$$$$$'!'&$$$$'!'$$$$$'!'#%&$&'!'$$$$$'!'&$$",
  "$$$'!'$$$'!'##&&$$&'!'$$$'!'&$$$$$$'!'$$$'!'##&&$$&'!'$$$'!'&$$$$$$'!'$$$'!'##&&$$&'!'$$$'!'&$$$$$$'!'$$$'!'##&&$$&'!'$$$'!'&$$$",
  "$$$$'!'$'!'#%&%$&$$&'!'$'!'%$&$$$$$$'!'$'!'#%&%$&$$&'!'$'!'%$$$$$$$$'!'$'!'#%&%$&$$&'!'$'!'%$&$$$$$$'!'$'!'#%&%$&$$&'!'$'!'%$$$$",
  "$$$$$'!'!'#%&$$&$$$$&'!'!'%$$$&$$$$$$'!'!'#%&$$&$$$$&'!'!'%$$$$$$$$$$'!'!'#%&$$&$$$$&'!'!'%$$$&$$$$$$'!'!'#%&$$&$$$$&'!'!'%$$$$$",
  "$$$$$$'!'#%&$$$$&$$$$&'!'%&$$$$$$$$$$$'!'#%&$$$$&$$$$&'!'%$$$$$$$$$$$$'!'#%&$$$$&$$$$&'!'%&$$$$$$$$$$$'!'#%&$$$$&$$$$&'!'%$$$$$$",
  "$$$$$$$'!'#%$$$$$&$$$$&'!'%$$$$$$$$$$$$'!'#%$$$$$&$$$$&'!'%$$$$$$$$$$$$'!'#%$$$$$&$$$$&'!'%$$$$$$$$$$$$'!'#%$$$$$&$$$$&'!'%$$$$$",
  "$$$$$$$''!'%&$$$$$&$$$$&'!'&$$$$$$$$$$$$'!'%&$$$$$&$$$$$'!'&$$$$$$$$$$$''!'%&$$$$$&$$$$&'!'&$$$$$$$$$$$$'!'%&$$$$$&$$$$$'!'&$$$$",
  "$$$$$$$'!'!'%&$$$$$&$$$$&'!'&$$$$$$$$$$$$'!'%&$$$$$&$$$$$'!'&$$$$$$$$$$'!'!'%&$$$$$&$$$$&'!'&$$$$$$$$$$$$'!'%&$$$$$&$$$$$'!'&$$$",
  "$$$$$$'!'&'!'%&$$&$$$$$$$&'!'%$$$$$$$$$$$$'!'%&$$&$$$$$$$$'!'&$$$$$$$$'!'&'!'%&$$&$$$$$$$&'!'%$$$$$$$$$$$$'!'%&$$&$$$$$$$$'!'&$$",
  "$$$$$'!'&$$'!'%&$$&$$$$$$$$'!'%$$$$$$$$$$$$'!'%&$$&$$$$$$$$'!'&$$$$$$'!'&$$'!'%&$$&$$$$$$$$'!'%$$$$$$$$$$$$'!'%&$$&$$$$$$$$'!'&$",
  "$$$$'!'&$$$$'!'%$$$&$$$$$$$$'!'&$$$$$$$$$$$$'!'%$$$&$$$$$$$$'!'&$$$$'!'&$$$$'!'%$$$&$$$$$$$$'!'&$$$$$$$$$$$$'!'%$$$&$$$$$$$$'!'&",
  "$$$'!'&$$$$$$'!'&$$$&$$$$$$&$'!'$$$$$$$$$$$$$'!'&$$$&$$$$$$$$'!'$$$'!'&$$$$$$'!'&$$$&$$$$$$&$'!'$$$$$$$$$$$$$'!'&$$$&$$$$$$$$'!'",
  "'$'!'%$&$$$$$$'!'&$$$&$$$$$$$$'!'&$$$$$$$$$$$''!'&$$$&$$$$$$$$'!'$'!'%$&$$$$$$'!'&$$$&$$$$$$$$'!'&$$$$$$$$$$$''!'&$$$&$$$$$$$$'!",
  "!'!'%$$$&$$$$'!'!'&$$$$$$$$$$'!'!'$$$$$$$$$$$'!'!'$$$$&$$$$$$'!'!'!'%$$$&$$$$'!'!'&$$$$$$$$$$'!'!'$$$$$$$$$$$'!'!'$$$$&$$$$$$'!'",
  "'!'%&$$$$$$$'!'&'!'&$$$$$$$$'!'&'!'$$$$$$$$$'!'&'!'$$$$$$$$$'!'&'!'%&$$$$$$$'!'&'!'&$$$$$$$$'!'&'!'$$$$$$$$$'!'&'!'$$$$$$$$$'!'&",
  "$'!'%$$$$$$$!'&$$'!'&$$$&$$'!'&$$'!'$$$$$$$'!'&$$'!'$$$$&$$'!'&$$'!'%$$$$$$$!'&$$'!'&$$$&$$'!'&$$'!'$$$$$$$'!'&$$'!'$$$$&$$'!'&$",
  "$$'!'&$$$$'!'&$$$$'!'&$$$&'!'&$$$$'!'$$$$$'!'&$$$$'!'$$$$&'!'&$$$$'!'&$$$$'!'&$$$$'!'&$$$&'!'&$$$$'!'$$$$$'!'&$$$$'!'$$$$&'!'&$$",
  "$$$'!'&$$'!'&$$$$$$'!'&$$'!'&$$$$$$'!'$$$'!'&$$$$$$'!'$$$'!'&$$$$$$'!'&$$'!'&$$$$$$'!'&$$'!'&$$$$$$'!'$$$'!'&$$$$$$'!'$$$'!'&$$$",
  "$$$$'!'$'!'%$&$$$$$$'!'$'!'%$&$$$$$$'!'$'!'%$&$$$$$$'!'$'!'%$$$$$$$$'!'$'!'%$&$$$$$$'!'$'!'%$&$$$$$$'!'$'!'%$&$$$$$$'!'$'!'%$$$$",
  "$$$$$'!'!'%$$$&$$$$$$'!'!'%$$$&$$$$$$'!'!'%$$$&$$$$$$'!'!'%$$$$$$$$$$'!'!'%$$$&$$$$$$'!'!'%$$$&$$$$$$'!'!'%$$$&$$$$$$'!'!'%$$$$$",
  "$$$$$$'!'%&$$$$$$$$$$$'!'%&$$$$$$$$$$$'!'%&$$$$$$$$$$$'!'%$$$$$$$$$$$$'!'%&$$$$$$$$$$$'!'%&$$$$$$$$$$$'!'%&$$$$$$$$$$$'!'%$$$$$$",
  "$$$$$$$'!'%$$$$$$$$$$$$'!'%$$$$$$$$$$$$'!'%$$$$$$$$$$$$'!'%$$$$$$$$$$$$'!'%$$$$$$$$$$$$'!'%$$$$$$$$$$$$'!'%$$$$$$$$$$$$'!'%$$$$$",
  "$$$$$$$$'!'&$$$$$$$$$$$$'!'&$$$$$$$$$$$$'!'&$$$$$$$$$$'!'!'$$$$$$$$$$$$$'!'&$$$$$$$$$$$$'!'&$$$$$$$$$$$$'!'&$$$$$$$$$$'!'!'$$$$$",
  "$$$$$$$$$'!'&$$$$$$$$$$$$'!'&$$$$$$$$$$$$'!'&$$$$$$$$'!'%'!'&$$$$$$$$$$$$'!'&$$$$$$$$$$$$'!'&$$$$$$$$$$$$'!'&$$$$$$$$'!'%'!'&$$$",
  "$$$$$$$$$$'!'%$$$$$$$$$$$$'!'%$$$$$$$$$$$$'!'%$$$$$$'!'%&&'!'&$$$$$$$$$$$$'!'%$$$$$$$$$$$$'!'%$$$$$$$$$$$$'!'%$$$$$$'!'%&&'!'&$$",
  "$$$$$$$$$$$'!'%$$$$$$$$$$$$'!'%$$$$$$$$$$$$'!'%$$$$'!'#%&$&'!'&$$$$$$$$$$$$'!'%$$$$$$$$$$$$'!'%$$$$$$$$$$$$'!'%$$$$'!'#%&$&'!'&$",
  "$$$$$$$$$$$$'!'&$$$$$$$$$$$$'!'&$$$$$$$$$$$$'!'&$$'!'##&&$$&'!'&$$$$$$$$$$$$'!'&$$$$$$$$$$$$'!'&$$$$$$$$$$$$'!'&$$'!'##&&$$&'!'&",
  "$$$$$$$$$$$$$'!'$$$$$$$$$$$$$'!'$$$$$$$$$$$$$'!'$'!'#%&%$&$$$'!'$$$$$$$$$$$$$'!'$$$$$$$$$$$$$'!'$$$$$$$$$$$$$'!'$'!'#%&%$&$$$'!'",
  "'&$$$$$$$$$$$''!'&$$$$$$$$$$$''!'&$$$$$$$$$$$''!'!'#%&$$&$$$$$'!'&$$$$$$$$$$$''!'&$$$$$$$$$$$''!'&$$$$$$$$$$$''!'!'#%&$$&$$$$$'!",
  "!'$$$$$$$$$$$'!'!'$$$$$$$$$$$'!'!'$$$$$$$$$$$'!'!'#%&$$$$&$$$'!'!'$$$$$$$$$$$'!'!'$$$$$$$$$$$'!'!'$$$$$$$$$$$'!'!'#%&$$$$&$$$'!'",
  "'!'$$$$$$$$$'!'%'!'$$$$$$$$$'!'&'!'$$$$$$$$$'!'%'!'#%$$$$$$&'!'&'!'$$$$$$$$$'!'&'!'$$$$$$$$$'!'&'!'$$$$$$$$$'!'%'!'#%$$$$$$&'!'&",
  "$'!'$$$$$$$'!'%&&'!'$$$$$$$'!'&$$'!'$$$$$$$'!'%&&'!'%&$$$$&'!'&$$'!'$$$$$$$'!'&$$'!'$$$$$$$'!'&$$'!'$$$$$$$'!'%&&'!'%&$$$$&'!'&$",
  "$$'!'$$$$$'!'#%&$&'!'$$$$$'!'&$$$$'!'$$$$$'!'#%&$&'!'%&$$&'!'&$$$$'!'$$$$$'!'&$$$$'!'$$$$$'!'&$$$$'!'$$$$$'!'#%&$&'!'%&$$&'!'&$$",
  "$$$'!'$$$'!'##&&$$&'!'$$$'!'&$$$$$$'!'$$$'!'##&&$$&'!'&&&'!'&$$$$$$'!'$$$'!'&$$$$$$'!'$$$'!'&$$$$$$'!'$$$'!'##&&$$&'!'&&&'!'&$$$",
  "$$$$'!'$'!'#%&%$&$$&'!'$'!'%$&$$$$$$'!'$'!'#%&%$&$$&'!'&'!'%$$$$$$$$'!'$'!'%$&$$$$$$'!'$'!'%$&$$$$$$'!'$'!'#%&%$&$$&'!'&'!'%$$$$",
  "$$$$$'!'!'#%&$$&$$$$&'!'!'%$$$&$$$$$$'!'!'#%&$$&$$$$&'!'!'%$$$$$$$$$$'!'!'%$$$&$$$$$$'!'!'%$$$&$$$$$$'!'!'#%&$$&$$$$&'!'!'%$$$$$",
  "$$$$$$'!'#%&$$$$&$$$$&'!'%&$$$$$$$$$$$'!'#%&$$$$&$$$$&'!'%$$$$$$$$$$$$'!'%&$$$$$$$$$$$'!'%&$$$$$$$$$$$'!'#%&$$$$&$$$$&'!'%$$$$$$",
  "$$$$$$$'!'#%$$$$$&$$$$&'!'%$$$$$$$$$$$$'!'#%$$$$$&$$$$&'!'%$$$$$$$$$$$$'!'%$$$$$$$$$$$$'!'%$$$$$$$$$$$$'!'#%$$$$$&$$$$&'!'%$$$$$",
  "$$$$$$$$'!'%&$$$$$&$$$$$'!'&$$$$$$$$$$$$'!'%&$$$$$&$$$$$'!'&$$$$$$$$$$$$'!'&$$$$$$$$$$$$'!'&$$$$$$$$$$$$'!'%&$$$$$&$$$$$'!'&$$$$",
  "$$$$$$$$$'!'%&$$$$$&$$$$$'!'&$$$$$$$$$$$$'!'%&$$$$$&$$$$$'!'&$$$$$$$$$$$$'!'&$$$$$$$$$$$$'!'&$$$$$$$$$$$$'!'%&$$$$$&$$$$$'!'&$$$",
  "$$$$$$$$$$'!'%&$$&$$$$$$$$'!'%$$$$$$$$$$$$'!'%&$$&$$$$$$$$'!'&$$$$$$$$$$$$'!'%$$$$$$$$$$$$'!'%$$$$$$$$$$$$'!'%&$$&$$$$$$$$'!'&$$",
  "$$$$$$$$$$$'!'%&$$&$$$$$$$$'!'%$$$$$$$$$$$$'!'%&$$&$$$$$$$$'!'&$$$$$$$$$$$$'!'%$$$$$$$$$$'!'!'%$$$$$$$$$$$$'!'%&$$&$$$$$$$$'!'&$",
  "$$$$$$$$$$$$'!'%$$$&$$$$$$$$'!'&$$$$$$$$$$$$'!'%$$$&$$$$$$$$'!'&$$$$$$$$$$$$'!'&$$$$$$$$'!'$'!'&$$$$$$$$$$$$'!'%$$$&$$$$$$$$'!'&",
  "$$$$$$$$$$$$$'!'&$$$&$$$$$$$$'!'$$$$$$$$$$$$$'!'&$$$&$$$$$$$$'!'$$$$$$$$$$$$$'!'$$$$$$$'!'$$$'!'$$$$$$$$$$$$$'!'&$$$&$$$$$$$$'!'",
  "$&$$$$$$$$$$$''!'&$$$&$$$$$$$$'!'&$$$$$$$$$$$''!'&$$$&$$$$$$$$'!$&$$$$$$$$$$$''!'&$$$$'!'$$$$''!'&$$$$$$$$$$$''!'&$$$&$$$$$$$$'!",
  "!'$$$$$$$$$$$'!'!'&$$$$$$$$$$'!'!'$$$$$$$$$$$'!'!'&$$$$$$$$$&'!'!'$$$$$$$$$$$'!'!'$$$'!'$$$$$'!'!'$$$$$$$$$$$'!'!'$$$$&$$$$$$'!'",
  "'!'$$$$$$$$$'!'&'!'&$$$$$$$$'!'&'!'$$$$$$$$$'!'&'!'&&&$$&&&$'!'&'!'$$$$$$$$$'!'&'!'$'!'$$$$$'!'&'!'$$$$$$$$$'!'&'!'$$$$$$$$$'!'&",
  "$'!'$$$$$$$'!'&$$'!'&$$$&$&'!'&$$'!'$$$$$$$'!'&$$'!'''$&''''!'&$$'!'$$$$$$$'!'&$$'!'!'$$$$$'!'&$$'!'$$$$$$$'!'&$$'!'$$$$&$$'!'&$",
  "$$'!'$$$$$'!'&$$$$'!'&$$$&'!'&$$$$'!'$$$$$'!'&$$$$'!'$''$''!'&$$$$'!'$$$$$'!'&$$$$'!'$$$$$'!'&$$$$'!'$$$$$'!'&$$$$'!'$$$$&'!'&$$",
  "$$$'!'$$$'!'&$$$$$$'!'&$&'!'&$$$$$$'!'$$$'!'&$$$$$$'!'$'''!'&$$$$$$'!'$$$'!'&$$$$$$'!'$$$'!'&$$$$$$'!'$$$'!'&$$$$$$'!'$$$'!'&$$$",
  "$$$$'!'$'!'%$&$$$$$$'!'&'!'%$&$$$$$$'!'$'!'%$&$$$$$$'!'$'!'%$$$$$$$$'!'$'!'%$$$$$$$$'!'$'!'%$&$$$$$$'!'$'!'%$&$$$$$$'!'$'!'%$$$$",
  "$$$$$'!'!'%$$$&$$$$$$'!'!'%$$$&$$$$$$'!'!'%$$$&$$$$$$'!'!'%$$$$$$$$$$'!'!'%$$$$$$$$$$'!'!'%$$$&$$$$$$'!'!'%$$$&$$$$$$'!'!'%$$$$$",
  "$$$$$$'!'%&$$$$$$$$$$$'!'%&$$$$$$$$$$$'!'%&$$$$$$$$$$$'!'%$$$$$$$$$$$$'!'$$$$$$$$$$$$$'!'%&$$$$$$$$$$$'!'%&$$$$$$$$$$$'!'%$$$$$$",
  "$$$$$$$'!'%$$$$$$$$$$$$'!'%$$$$$$$$$$$$'!'%$$$$$$$$$$$$'!'%$$$$$$$$$$$$'!'$$$$$$$$$$$$$'!'%$$$$$$$$$$$$'!'%$$$$$$$$$$$$'!'%$$$$$",
  "$$$$$$$$'!'&$$$$$$$$$$$$'!'&$$$$$$$$$$$$'!'&$$$$$$$$$$$$'!'&$$$$$$$$$$$$'!'$$$$$$$$$$$$$'!'&$$$$$$$$$$$$'!'&$$$$$$$$$$$$'!'&$$$$",
  "$$$$$$$$$'!'&$$$$$$$$$$$$'!'&$$$$$$$$$$$$'!'&$$$$$$$$$$$$'!'&$$$$$$$$$$$$'!'$$$$$$$$$$$$$'!'&$$$$$$$$$$$$'!'&$$$$$$$$$$$$'!'&$$$",
  "$$$$$$$$$$'!'%$$$$$$$$$$$$'!'%$$$$$$$$$$$$'!'%$$$$$$$$$$$$'!'&$$$$$$$$$$$$'!'$$$$$$$$$$$$$'!'%$$$$$$$$$$$$'!'%$$$$$$$$$$$$'!'&$$",
  "$$$$$$$$$$$'!'%$$$$$$$$$$$$'!'%$$$$$$$$$$$$'!'%$$$$$$$$$$$$'!'&$$$$$$$$$$$$'!'$$$$$$$$$$$$$'!'%$$$$$$$$$$$$'!'%$$$$$$$$$$$$'!'&$",
  "$$$$$$$$$$$$'!'&$$$$$$$$$$$$'!'&$$$$$$$$$$$$'!'&$$$$$$$$$$$$'!'&$$$$$$$$$$$$'!'$$$$$$$$$$$$$'!'&$$$$$$$$$$$$'!'&$$$$$$$$$$$$'!'&",
  "&$$$$$$$$$$$$'!'$$$$$$$$$$$$$'!'$$$$$$$$$$$$$'!'$$$$$$$$$$$$$'!'$$$$$$$$$$$$$'!'$$$$$$$$$$$$$'!'$$$$$$$$$$$$$'!'$$$$$$$$$$$$$'!'",
  "'&$$$$$$$$$$$$'!'&$$$$$$$$$$$''!'&$$$$$$$$$$$''!'&$$$$$$$$$$$''!'$$$$$$$$$$$$$'!'$$$$$$$$$$$$''!'&$$$$$$$$$$$''!'&$$$$$$$$$$$''!",
  "!'$$$$$$$$$$$'!'!'$$$$$$$$$$$'!'!'$$$$$$$$$$$'!'!'$$$$$$$$$$$'!'!'$$$$$$$$$$$'!'!'$$$$$$$$$$$'!'!'$$$$$$$$$$$'!'!'$$$$$$$$$$$'!'",
  "'!'$$$$$$$$$'!'%'!'$$$$$$$$$'!'&'!'$$$$$$$$$'!'%'!'$$$$$$$$$'!'&'!'$$$$$$$$$'!'%'!'$$$$$$$$$'!'&'!'$$$$$$$$$'!'%'!'$$$$$$$$$'!'&",
  "$'!'$$$$$$$'!'%&&'!'$$$$$$$'!'&$$'!'$$$$$$$'!'%&&'!'$$$$$$$'!'&$$'!'$$$$$$$'!'%&&'!'$$$$$$$'!'&$$'!'$$$$$$$'!'%&&'!'$$$$$$$'!'&$",
  "$$'!'$$$$$'!'#%&$&'!'$$$$$'!'&$$$$'!'$$$$$'!'#%&$&'!'$$$$$'!'&$$$$'!'$$$$$'!'#%&$&'!'$$$$$'!'&$$$$'!'$$$$$'!'#%&$&'!'$$$$$'!'&$$",
  "$$$'!'$$$'!'##&&$$&'!'$$$'!'&$$$$$$'!'$$$'!'##&&$$&'!'$$$'!'&$$$$$$'!'$$$'!'##&&$$&'!'$$$'!'&$$$$$$'!'$$$'!'##&&$$&'!'$$$'!'&$$$",
  "$$$$'!'$'!'#%&%$&$$&'!'$'!'%$&$$$$$$'!'$'!'#%&%$&$$&'!'$'!'%$$$$$$$$'!'$'!'#%&%$&$$&'!'$'!'%$&$$$$$$'!'$'!'#%&%$&$$&'!'$'!'%$$$$",
  "$$$$$'!'!'#%&$$&$$$$&'!'!'%$$$&$$$$$$'!'!'#%&$$&$$$$&'!'!'%$$$$$$$$$$'!'!'#%&$$&$$$$&'!'!'%$$$&$$$$$$'!'!'#%&$$&$$$$&'!'!'%$$$$$",
  "$$$$$$'!'#%&$$$$&$$$$&'!'%&$$$$$$$$$$$'!'#%&$$$$&$$$$&'!'%$$$$$$$$$$$$'!'#%&$$$$&$$$$&'!'%&$$$$$$$$$$$'!'#%&$$$$&$$$$&'!'%$$$$$$",
  "$$$$$$$'!'#%$$$$$&$$$$&'!'%$$$$$$$$$$$$'!'#%$$$$$&$$$$&'!'%$$$$$$$$$$$$'!'#%$$$$$&$$$$&'!'%$$$$$$$$$$$$'!'#%$$$$$&$$$$&'!'%$$$$$",
  "$$$$$$$''!'%&$$$$$&$$$$&'!'&$$$$$$$$$$$$'!'%&$$$$$&$$$$$'!'&$$$$$$$$$$$''!'%&$$$$$&$$$$&'!'&$$$$$$$$$$$$'!'%&$$$$$&$$$$$'!'&$$$$",
  "$$$$$$$'!'!'%&$$$$$&$$$$&'!'&$$$$$$$$$$$$'!'%&$$$$$&$$$$$'!'&$$$$$$$$$$'!'!'%&$$$$$&$$$$&'!'&$$$$$$$$$$$$'!'%&$$$$$&$$$$$'!'&$$$",
  "$$$$$$'!'&'!'%&$$&$$$$$$$&'!'%$$$$$$$$$$$$'!'%&$$&$$$$$$$$'!'&$$$$$$$$'!'&'!'%&$$&$$$$$$$&'!'%$$$$$$$$$$$$'!'%&$$&$$$$$$$$'!'&$$",
  "$$$$$'!'&$$'!'%&$$&$$$$$$$$'!'%$$$$$$$$$$$$'!'%&$$&$$$$$$$$'!'&$$$$$$'!'&$$'!'%&$$&$$$$$$$$'!'%$$$$$$$$$$$$'!'%&$$&$$$$$$$$'!'&$",
  "$$$$'!'&$$$$'!'%$$$&$$$$$$$$'!'&$$$$$$$$$$$$'!'%$$$&$$$$$$$$'!'&$$$$'!'&$$$$'!'%$$$&$$$$$$$$'!'&$$$$$$$$$$$$'!'%$$$&$$$$$$$$'!'&",
  "&$$'!'&$$$$$$'!'&$$$&$$$$$$&$'!'$$$$$$$$$$$$$'!'&$$$&$$$$$$$$'!'$$$'!'&$$$$$$'!'&$$$&$$$$$$&$'!'$$$$$$$$$$$$$'!'&$$$&$$$$$$$$'!'",
  "'$'!'%$&$$$$$$'!'&$$$&$$$$$$$$'!'&$$$$$$$$$$$''!'&$$$&$$$$$$$$'!'$'!'%$&$$$$$$'!'&$$$&$$$$$$$$'!'&$$$$$$$$$$$''!'&$$$&$$$$$$$$'!",
  "!'!'%$$$&$$$$'!'!'&$$$$$$$$$$'!'!'$$$$$$$$$$$'!'!'$$$$&$$$$$$'!'!'!'%$$$&$$$$'!'!'&$$$$$$$$$$'!'!'$$$$$$$$$$$'!'!'$$$$&$$$$$$'!'",
  "'!'%&$$$$$$$'!'&'!'&$$$$$$$$'!'&'!'$$$$$$$$$'!'&'!'$$$$$$$$$'!'&'!'%&$$$$$$$'!'&'!'&$$$$$$$$'!'&'!'$$$$$$$$$'!'&'!'$$$$$$$$$'!'&",
  "$'!'%$$$$$$$!'&$$'!'&$$$&$$'!'&$$'!'$$$$$$$'!'&$$'!'$$$$&$$'!'&$$'!'%$$$$$$$!'&$$'!'&$$$&$$'!'&$$'!'$$$$$$$'!'&$$'!'$$$$&$$'!'&$",
  "$$'!'&$$$$'!'&$$$$'!'&$$$&'!'&$$$$'!'$$$$$'!'&$$$$'!'$$$$&'!'&$$$$'!'&$$$$'!'&$$$$'!'&$$$&'!'&$$$$'!'$$$$$'!'&$$$$'!'$$$$&'!'&$$",
  "$$$'!'&$$'!'&$$$$$$'!'&$$'!'&$$$$$$'!'$$$'!'&$$$$$$'!'$$$'!'&$$$$$$'!'&$$'!'&$$$$$$'!'&$$'!'&$$$$$$'!'$$$'!'&$$$$$$'!'$$$'!'&$$$",
  "$$$$'!'$'!'%$&$$$$$$'!'$'!'%$&$$$$$$'!'$'!'%$&$$$$$$'!'$'!'%$$$$$$$$'!'$'!'%$&$$$$$$'!'$'!'%$&$$$$$$'!'$'!'%$&$$$$$$'!'$'!'%$$$$",
  "$$$$$'!'!'%$$$&$$$$$$'!'!'%$$$&$$$$$$'!'!'%$$$&$$$$$$'!'!'%$$$$$$$$$$'!'!'%$$$&$$$$$$'!'!'%$$$&$$$$$$'!'!'%$$$&$$$$$$'!'!'%$$$$$",
  "$$$$$$'!'%&$$$$$$$$$$$'!'%&$$$$$$$$$$$'!'%&$$$$$$$$$$$'!'%$$$$$$$$$$$$'!'%&$$$$$$$$$$$'!'%&$$$$$$$$$$$'!'%&$$$$$$$$$$$'!'%$$$$$$",
  "$$$$$$$'!'%$$$$$$$$$$$$'!'%$$$$$$$$$$$$'!'%$$$$$$$$$$$$'!'%$$$$$$$$$$$$'!'%$$$$$$$$$$$$'!'%$$$$$$$$$$$$'!'%$$$$$$$$$$$$'!'%$$$$$",
  "$$$$$$$$'!'&$$$$$$$$$$$$'!'&$$$$$$$$$$$$'!'&$$$$$$$$$$'!'!'$$$$$$$$$$$$$'!'&$$$$$$$$$$$$'!'&$$$$$$$$$$$$'!'&$$$$$$$$$$'!'!'$$$$$",
  "$$$$$$$$$'!'&$$$$$$$$$$$$'!'&$$$$$$$$$$$$'!'&$$$$$$$$'!'%'!'&$$$$$$$$$$$$'!'&$$$$$$$$$$$$'!'&$$$$$$$$$$$$'!'&$$$$$$$$'!'%'!'&$$$",
  "$$$$$$$$$$'!'%$$$$$$$$$$$$'!'%$$$$$$$$$$$$'!'%$$$$$$'!'%&&'!'&$$$$$$$$$$$$'!'%$$$$$$$$$$$$'!'%$$$$$$$$$$$$'!'%$$$$$$'!'%&&'!'&$$",
  "$$$$$$$$$$$'!'%$$$$$$$$$$$$'!'%$$$$$$$$$$$$'!'%$$$$'!'#%&$&'!'&$$$$$$$$$$$$'!'%$$$$$$$$$$$$'!'%$$$$$$$$$$$$'!'%$$$$'!'#%&$&'!'&$",
  "$$$$$$$$$$$$'!'&$$$$$$$$$$$$'!'&$$$$$$$$$$$$'!'&$$'!'##&&$$&'!'&$$$$$$$$$$$$'!'&$$$$$$$$$$$$'!'&$$$$$$$$$$$$'!'&$$'!'##&&$$&'!'&",
  "$$$$$$$$$$$$$'!'$$$$$$$$$$$$$'!'$$$$$$$$$$$$$'!'$'!'#%&%$&$$&'!'$$$$$$$$$$$$$'!'$$$$$$$$$$$$$'!'$$$$$$$$$$$$$'!'$'!'#%&%$&$$$'!'",
  "'&$$$$$$$$$$$''!'&$$$$$$$$$$$''!'&$$$$$$$$$$$''!'!'#%&$$&$$$$&'!'&$$$$$$$$$$$''!'&$$$$$$$$$$$''!'&$$$$$$$$$$$''!'!'#%&$$&$$$$$'!",
  "!'$$$$$$$$$$$'!'!'$$$$$$$$$$$'!'!'$$$$$$$$$$$'!'!'#%&$$$$&$$&'!'!'$$$$$$$$$$$'!'!'$$$$$$$$$$$'!'!'$$$$$$$$$$$'!'!'#%&$$$$&$$$'!'",
  "'!'$$$$$$$$$'!'%'!'$$$$$$$$$'!'&'!'$$$$$$$$$'!'%'!'#%$$$$$$&'!'&'!'$$$$$$$$$'!'%'!'$$$$$$$$$'!'&'!'$$$$$$$$$'!'%'!'#%$$$$$$&'!'&",
  "$'!'$$$$$$$'!'%&&'!'$$$$$$$'!'&$$'!'$$$$$$$'!'%&&'!'%&$$$$&'!'&$$'!'$$$$$$$'!'%&&'!'$$$$$$$'!'&$$'!'$$$$$$$'!'%&&'!'%&$$$$&'!'&$",
  "$$'!'$$$$$'!'#%&$&'!'$$$$$'!'&$$$$'!'$$$$$'!'#%&$&'!'%&$$&'!'&$$$$'!'$$$$$'!'#%&$&'!'$$$$$'!'&$$$$'!'$$$$$'!'#%&$&'!'%&$$&'!'&$$",
  "$$$'!'$$$'!'##&&$$&'!'$$$'!'&$$$$$$'!'$$$'!'##&&$$&'!'&&&'!'&$$$$$$'!'$$$'!'##&&$$&'!'$$$'!'&$$$$$$'!'$$$'!'##&&$$&'!'&&&'!'&$$$",
  "$$$$'!'$'!'#%&%$&$$&'!'$'!'%$&$$$$$$'!'$'!'#%&%$&$$&'!'&'!'%$&$$$$$$'!'$'!'#%&%$&$$&'!'$'!'%$&$$$$$$'!'$'!'#%&%$&$$&'!'&'!'%$$$$",
  "$$$$$'!'!'#%&$$&$$$$&'!'!'%$$$&$$$$$$'!'!'#%&$$&$$$$&'!'!'%$$$&$$$$$$'!'!'#%&$$&$$$$&'!'!'%$$$&$$$$$$'!'!'#%&$$&$$$$&'!'!'%$$$$$",
  "$$$$$$'!'#%&$$$$&$$$$&'!'%&$$$$$$$$$$$'!'#%&$$$$&$$$$&'!'%&$$$$$$$$$$$'!'#%&$$$$&$$$$&'!'%&$$$$$$$$$$$'!'#%&$$$$&$$$$&'!'$$$$$$$",
  "$$$$$$$'!'#%$$$$$&$$$$&'!'%$$$$$$$$$$$$'!'#%$$$$$&$$$$&'!'%$$$$$$$$$$$$'!'#%$$$$$&$$$$&'!'%$$$$$$$$$$$$'!'#%$$$$$&$$$$&'!'$$$$$$",
  "$$$$$$$$'!'%&$$$$$&$$$$$'!'&$$$$$$$$$$$$'!'%&$$$$$&$$$$$'!'&$$$$$$$$$$$$'!'%&$$$$$&$$$$$'!'&$$$$$$$$$$$$'!'%&$$$$$&$$$$$'!'$$$$$",
  "$$$$$$$$$'!'%&$$$$$&$$$$$'!'&$$$$$$$$$$$$'!'%&$$$$$&$$$$$'!'&$$$$$$$$$$$$'!'%&$$$$$&$$$$$'!'&$$$$$$$$$$$$'!'%&$$$$$&$$$$$'!'$$$$",
  "$$$$$$$$$$'!'%&$$&$$$$$$$$'!'%$$$$$$$$$$$$'!'%&$$&$$$$$$$$'!'%$$$$$$$$$$$$'!'%&$$&$$$$$$$$'!'%$$$$$$$$$$$$'!'%&$$&$$$$$$$$'!'$$$",
  "$$$$$$$$$$$'!'%&$$&$$$$$$$$'!'%$$$$$$$$$$$$'!'%&$$&$$$$$$$$'!'%$$$$$$$$$$$$'!'%&$$&$$$$$$$$'!'%$$$$$$$$$$$$'!'%&$$&$$$$$$$$'!'$$",
  "$$$$$$$$$$$$'!'%$$$&$$$$$$&$'!'&$$$$$$$$$$$$'!'%$$$&$$$$$$&$'!'&$$$$$$$$$$$$'!'%$$$&$$$$$$&$'!'&$$$$$$$$$$$$'!'%$$$&$$$$$$$$'!'$",
  "$$$$$$$$$$$$$'!'&$$$&$$$$$$&&'!'$$$$$$$$$$$$$'!'&$$$&$$$$$$&&'!'$$$$$$$$$$$$$'!'&$$$&$$$$$$&&'!'$$$$$$$$$$$$$'!'&$$$&$$$$$$$$'!'",
  "$$$$$$$$$$$$$$'!'&$$$$$$$$$$$$'!'&$$$$$$$$$$$''!'&$$$&$$$$$$$$'!'&$$$$$$$$$$$$'!'&$$$&$$$$$$$$'!'&$$$$$$$$$$$''!'&$$$&$$$$$$$$'!",
};
