/* XPM */
static char *poster_10[] = {
  /* width height ncolors chars_per_pixel */
  "96 96 3 1 0 0",
  /* colors */
  "! c #c0c0c0",
  "# c #0000ff",
  "$ c None",
  /* pixels */
  "$$$$$$$$$$$$$$$$$$$$$$$$$$$$$$$$$$$$$$$$$$$$$$$$$$$$$$$$$$$$$$$$$$$$$$$$$$$$$$$$$$$$$$$$$$$$$$$$",
  "$$$$$$$$$$$$$$$$$$$$$$$$$$$$$$$$$$$$$$$$$$$$$$$$$$$$$$$$$$$$$$$$$$$$$$$$$$$$$$$$$$$$$$$$$$$$$$$$",
  "$$$$$$$$$$$$$$$$$$$$$$$$$$$$$$$$$$$$$$$$$$$$$$$$$$$$$$$$$$$$$$$$$$$$$$$$$$$$$$$$$$$$$$$$$$$$$$$$",
  "$$$$$$$$$$$$$$$$$$$$$$$$$$$$$$$$$$$$$$$$$$$$$$$$$$$$$$$$$$$$$$$$$$$$$$$$!!$$$$$$$$$$$$$$$$$$$$$$",
  "$$$$$$$$$$$$$$$$$$$$$$$$$$$$$$$$$$$$$$$$$$$$$$$$$$$$$$$$$$$$$$$$$$$$$$!!##!$$$$$$$$$$$$$$$$$$$$$",
  "$$$$$$$$$$$$$$$$$$$$$$$$$$$$$$$$$$$$$$$$$$$$$$$$$$$$$$$$$$$$$$$$$$$$$!####!$$$$$$$$$$$$$$$$$$$$$",
  "$$$$$$$$$$!!!!$$$$$$$$$$$$$$$$$$$$$$$$$$$$$$$$$$$$$$$$$$$$$$$$$$$$$$$!####!$$$$$$$$$$$$$$$$$$$$$",
  "$$$$$$!!!!!###!!$$$$$$$$$$$$$$$$$$$$$$$$$$$$$$$$$$$$$$$$$$$$$$$$$$$$$!#####!$$$$$$$$$$$$$$$$$$$$",
  "$$$$$$!#########!$$$$$$$$$$$$$$$$$$$$$$$$$$$$$$$$$$$$$$$$$$$$$$$$$$$$!#####!$$$$$$$$$$$$$$$$$$$$",
  "$$$$$$!##########!$$$$$$$$$$$$$$$$$$$$$$$$$$$$$$$$$$$$$$$$$$$$$$$$$$$$!!!##!$$$$$$$$$$$$$$$$$$$$",
  "$$$$$!!###!!!!###!$$$$$$$$$$$$$$$$$$$$$$$$$$$$$$$$$$$$$$$$$$$$$$$$$$$$$$!##!$$$$$$$$$$$$$$$$$$$$",
  "$$$$$!###!$$$$!##!$$$$$$$$$$$$$$$$$$$$$$$$$$$$$$$$$$$$$$$$$$$$$$$$$$$$$$!##!$$$$$$$$$$$$$$$$$$$$",
  "$$$$$!###!$$$$!##!$$$$$!!!!$$$$$$$$$$$$$$$$$$$$$$$$$$$$$$$$$$$$$$$$$$$$$!###!$$$$$$$$$$$$$$$$$$$",
  "$$$$$!###!$$$$$!!$$$$$$!##!$$$$$$$$$$$$$$$$$$$$$$$$$$$$$$$$$$$$$$$$$$$$$!###!$$$$$$$$$$$$$$$$$$$",
  "$$$$$!###!$$$$$$$$$$$$$!##!$$$$$$$$$$$$$$$$$$$$$$$$$$$$$$$$$$$$$$$$$$$$$!###!$$$$$$$$$$$$$$$$$$$",
  "$$$$$$!###!$$$$$$$$!!!!!##!$$$$$$$$$$$$$$$$$$$$$$$$$$$$$$$$$$$$$$$$$$$$$!###!$$$$$$$$$$$$$$$$$$$",
  "$$$$$$!####!$$$$$!!###!###!$$$$$$$$$$$$$$$$$$$$$$$$$$$$$$$$$$$$$$$$$$$$$!####!$$$$$$$$$$$$$$$$$$",
  "$$$$$$$!####!$$$!#########!$!!!!!$$$$$$$$$$$$$$$$$$$$$$$$$$$$$$$$$$$$$$$$!###!$$$$$$$$$$$$$$$$$$",
  "$$$$$$$$!####!$$!########!!!##!##!!!!!$$$$$$$$$$$$$$$$$$$$$$$$$$$$$$$$$$$!###!$$$$$$$$$$$$$$$$$$",
  "$$$$$$$$$!####!$!###!#########!#######!!$!!!!!!$$$!!!$!!!!!$$$$$$$!!!$$$$!####!$$$$!!!!!!!$$$$$$",
  "$$$$$$$$$$!####!!!!!!!########!########!!!#####!$!###!#####!$$$$$!###!!$$!####!$$!!!######!$$$$$",
  "$$$$$$$$$$!!####!$$$$$!##!!!!!!####!###!!######!!###########!$$$!#####!$$!####!$$!#########!$$$$",
  "$$$$$$$$$$$$!###!$$$$!###!$$$$!###!!!##!####!##!!#######!####!$$!######!!$!###!$!#####!!###!$$$$",
  "$$$$$$$$$$$$$!##!$$$$!###!$$$$!###!$!#!!###!!##!!##!####!!###!$$!##!####!$!###!$!###!!!!###!$$$$",
  "$$$$$$$$$$$$$!###!$$$!##!$$$$$!##!!$!!!###!$!##!!!!!####!$!##!$!###!!###!$$!##!!!##!!!####!$$$$$",
  "$$$$!!$$$$$$$!###!$$$!##!$$$$$!##!!$$$!###!$!##!$$$$!###!$!##!$!###!$!##!$$!###!!#########!$$$$$",
  "$$$!##!$$$$$$!###!$$$!##!$$$$$!##!$$$$!##!$$!##!$$$$!##!$$!##!$!##!$$!##!$$!###!!#######!!$$$$$$",
  "$$$!##!$$$$$$!###!$$$!##!$$$$$!##!$$$!###!$$!##!$$$$!##!$$!##!$!##!$$!##!$$!###!!##!!!!!!$$$$$$$",
  "$$$!###!$$$$$!###!$$$!##!$$$$$!##!$$$!###!$$!##!$$$$!##!$$!##!$!###!$!##!$$!###!!##!$$$$$$$$$$$$",
  "$$$!####!!$$$!##!$$$$!##!!!!!$!##!$$$!##!$$!!##!$$$$!##!$$!##!$!###!$!##!$$!###!!##!$$$$$!!$$$$$",
  "$$$!######!!!###!$$$$!##!###!!!##!$$$!###!!!###!$$$$!##!$$!##!$!####!!##!$$!###!!##!$$$$!##!$$$$",
  "$$$$!###########!$$$$!##!###!!###!$$$!###!######!!$$!##!$$!##!$!####!!##!$!####!!##!$$!!###!$$$$",
  "$$$$$!#########!$$$$$!#####!!!###!$$$!!###########!$!##!$$!##!$$!!######!$!####!!###!!#####!$$$$",
  "$$$$$$!!######!$$$$$$!#####!!!##!!$$$$!###########!!!##!$$!##!$$$!######!$!#####!#########!$$$$$",
  "$$$$$$$$!!!!!!$$$$$$$$!!!!!$!###!$$$$$!!#####!####!!###!$$!##!!$$$!#####!$!#####!!######!!$$$$$$",
  "$$$$$$$$$$$$$$$$$$$$$$$!!$$$!###!$$$$$$$!!!!!$!!!!$!###!$$!####!$$$!!!##!$!#####!$!!!!!!$$$$$$$$",
  "$$$$$$$$$$$$$$$$$$$$$$$$$$$$!##!$$$$$$$$$$$$$$$$$$$!##!!$$!####!$$$$$!##!$$!!###!$$$$$$$$$$$$$$$",
  "$$$$$$$$$$$$$$$$$$$$$$$$$$$$$!!!$$$$$$$$$$$$$$$$$$$!##!$$$!####!$$$$$!##!$$$$!!!$$$$$$$$$$$$$$$$",
  "$$$$$!!$$$$$$!!!$$$$$$$$$$$$$$$$$$$$$$$$$$$$$$$$$$$$!!$$$$$!###!$$$$$!##!$$$$$$$$$$$$$$$$$$$$$$$",
  "$$$$!##!$$$$!###!$$$$$$$$$$$$$$$$$$$$$$$$$$$$$$$$$$$$$$$$$$$!!!!$$$$$!##!$$$$$$$$$$$$$$$$$$$$$$$",
  "$$$$!##!$$$$!###!$$$$$$$$$$$$$$$$$$$$$$$$$$$$$$$$$$$$$$$$$$$$$$$$$$$$!##!$$$$$$$$$$$$$$$$$$$$$$$",
  "$$$$!###!$$!###!$$$$$$$$$$$$$$$$$$$$$$$$$$$$$$$$$$$$$$$$$$!!!!$$$$$$$!##!$$$$$$$$$$$$$$$$$$$$$$$",
  "$$$$!!##!$!####!$!!!$$$$$$$$$$$$$$$$!!!$$$$$$$$$$$$$$$$$$$!###!$$$$$!###!$$$$$$$$$$$$$$$$$$$$$$$",
  "$$$$$!###!!###!$!###!$$$$$$$$$$$!!$$!##!!!!!!!$$$$$$$$$$$$!###!$$$$!!###!$$$$$$$$$$$$$$$$$$$$$$$",
  "$$$$$!####!##!$!#####!!$$!!!$$$!##!$!#########!$$$$$$$$$$$!####!!!!####!$$$$$$$$$$$$$$$$$$$$$$$$",
  "$$$$$$!######!$!#######!$!##!$$!##!$$!#########!$$$$$$$$$$!!####!!#####!$$$$$$$$$$$$$$$$$$$$$$$$",
  "$$$$$$$!#####!!###!####!$!##!$$!##!$!!####!!###!$$$$$$$$$$$!!!#######!!!$$$$$$$$$$$$$$$$$$$$$$$$",
  "$$$$$$$$!!###!!###!!!##!$!##!$$!###!!####!$$!!!$$$$$$$$$$$$$$!######!!$$$$$$$$$$$$$$$$$$$$$$$$$$",
  "$$$$$$$$$!##!$!##!$$!##!!###!$$!###!!####!$$$$$$$$$$$$$$$$$$$$!!!!!!!$$$$$$$$$$$$$$$$$$$$$$$$$$$",
  "$$$$$$$$!###!$!##!$$!##!!###!$$!###!!###!$$$$$$$$$$$$$$$$$$$$$$$$$$$$$$$$$$$$$$$$$$$$$$$$$$$$$$$",
  "$$$$$$$$!###!$!##!$$!##!!###!$$!###!!###!$$$$$$$$$$$$$$$$$$$$$$$$$$$$$$$$$$$$$$$$$$$$$$$$$$$$$$$",
  "$$$$$$$!!##!$$!##!$!###!!###!$$!###!!###!$$$$$$$$$$$$$$$$$$$$$$$$$$$$$$$$$$$$$$$$$$$$$$$$$$$$$$$",
  "$$$$$$!####!$$!###!!###!$!##!!!!##!!!###!$$$$$$$$$$$$$$$$$$$$$$$$$$$$$$$$$$$$$$$$$$$$$$$$$$$$$$$",
  "$$$$$$!###!$$$!#######!$$!########!$!###!$$$$$$$$$$$$$$$$!!!!!!!!$$$$$$$$$$$$$$$$$$$$$$$$$$$$$$$",
  "$$$$$$!##!$$$$$!######!$$!#######!$$$!##!$$$$$$$$$$$$$$$!########!$$$$$$$$$$$$$$$$$$$$$$$$$$$$$$",
  "$$$$$!###!$$$$$$!!!!!!$$$$!!!!!!!$$$$!##!$$$$$$$$$$$$$$$!#########!$$$$$$$$$$$$$$$$$$$$$$$$$$$$$",
  "$$$$$!###!$$$$$$$$$$$$$$$$$$$$$$$$$$$$!!$$$$$$$$$$$$$$$$!#########!$$$$$$$$$$$$$$$$$$$$$$$$$$$$$",
  "$$$$$!##!$$$$$$$$$$$$$$$$$$$$$$$$$$$$$$$$$$$$$$$$$$$$$$$!!######!!$$$$$$$$$$$$$$$$$$$$$$$!!$$$$$",
  "$$$$$$!!$$$$$$$!!!!!!!!!!$$$$$$$$$$$$$$$$$$$$$$$$$$$$$$$$!######!$$$$$$$$$$$$$$$$$$$$$$$!##!$$$$",
  "$$$$$$$$$$$$$$!##########!!$$$$$$$$$$$$$$$$$$$$$$$$$$$$$$!#####!$$$$$$$$$$$$$$$$$$$$$$$!###!$$$$",
  "$$$$$$$$$$$$$$!############!$$$$$$$$$$$$$$$$$$$$$$$$$$$$$!#####!$$$$$!$$$$$$$$$$$$$$$$!####!$$$$",
  "$$$$$$$$$$$$$!#####!!######!$$$$$$$$$$$$$$$$$$$$$$$$$$$$$!#####!$$$$!#!!$$$$$$$$$$$$$!###!#!$$$$",
  "$$$$$$$$$$$$!####!!$$!!####!$$$$$$$$$$$$$$$$$$!!$$$$$$$$$!#####!$$$$!###!!$$$$$$$$$$!##!!!#!$$$$",
  "$$$$$$$$$$$$!###!$$$$$$!###!$$$$$$$$$$$$$$$$!!##!$$$$$$$$!####!$$$$$!#####!!!$$$$$$!!##!!!#!$$$$",
  "$$$$$$$$$$$$!###!$$$$$$!###!$$$$$$$$$$$$$$$$!####!$$$$$$$$!###!$$$$$!##!#####!!$$$!###!!!!#!$$$$",
  "$$$$$$$$$$$!###!$$$$$$$$!!!$$$$$$$$$$$$$$$$$!####!$$$$$$$$!###!$$$$$!##!!!!####!$$!##!!!!!#!$$$$",
  "$$$$$$$$$$$!###!$$$$$$$$$$$$$$$$$$$$$$$$$$$$!###!$$$$$$$$$!###!$$$$$!##!!!!!####!!!##!!!!!#!$$$$",
  "$$$$$$$$$$$!##!$$$$$$$$$$$$$$$$$$$$$$$$$$$$$!###!$$$$$$$$$!###!$$$$$!##!!!!!!##########!!##!$$$$",
  "$$$$$$$$$$!###!$$$$$$$$$$$$$$$$$$$$$$$$$$$$$!###!$$$$$$$$!####!$$$$$!##!!!#################!$$$$",
  "$$$$$$$$$$!###!$$$$$$$$$$$$$$$$$$$$$$$$$$$$$!###!$$$$$$$$!###!$$$$$$!##!!!####!!!!!!!!####!$$$$$",
  "$$$$$$$$$!####!$$$$$$$$$$$$$$$$$$$$$$$$$$$$$!###!$$$$$$$$!###!$$$$$$!###!##!!!!!!!!!!!!!##!$$$$$",
  "$$$$$$$$$!####!$$$$$$$$$$$$$$$!!!!!!$$$$!!!!!###!$$$$$$$$!###!$$$$$$$!#####!#!!#!#!!!#!!##!$$$$$",
  "$$$$$$$$$!####!$$$$$$$$$$$$$$!######!$$!####!###!!!$$$$$$!###!$$$$$$$$!!##!!##!#!!#!#!!!##!$$$$$",
  "$$$$$$$$!#####!$$$$$$$$$$$$$!#######!$!############!$$$$$!###!$$$$$$$$!###!!!!#!!!!#!!!!##!$$$$$",
  "$$$$$$$$!####!$$$$$$$$$$$$$!####!!##!$!############!$$$$$!###!$$$!!!!!!###!!!#!#!!#!#!!!##!$$$$$",
  "$$$$$$$$!####!$$$$$$$$$$$$$!###!$!##!$!##!!########!$$$$$!###!$$!########!!!#!!#!!#!!#!!##!$$$$$",
  "$$$$$$$$!####!$$$$$$$$$$$$$!##!$$!###!$!!!$!!!##!!!$$$$$$!###!$$$!!########!!!!!!!!!!!!!#!!$!!!$",
  "$$$$$$$$!####!$$$$$$$$$$$$!###!$$!###!$$$$$$$!##!$$$$$$$$!###!$$$$$!!!##!!!##!!####!!!!!###!###!",
  "$$$$$$$$!####!$$$$$$$$$$$$!###!$$!###!$$$$$$$!##!$$$$$$$$!###!$!!!!!!!##!!!!!!!####!!########!!$",
  "$$$$$$$$!####!$$$$$$$$$$$$!##!$$$!###!$$$$$$$!##!$$$$$$$$!###!$!########!!!!!!!!##!!!!!!#!!!!$$$",
  "$$$$$$$$!###!$$$$$$$$$$$$$!##!$$$!###!$$$$$$$!##!$$$$$$$$!###!$$!!###!########!!##!!!####!$$$$$$",
  "$$$$$$$$!###!$$$$$$$$$$$$!###!$$$!###!$$$$$$$!##!$$$$$$$$!###!$$$$!!!!##!!!!!!!!!!!!!!!###!$$$$$",
  "$$$$$$$$!###!$$$$$$$$$!!!!###!$$$!###!$$$$$$!###!$$$$$$$$!##!$$$$$$$!!!#######!!!!!!!!!#!##!!$$$",
  "$$$$$$$$!###!!$$$$$$$!##!!##!$$$$!###!$$$$$$!###!$$$$$$$$!##!$$$$$$$!#####!!!!!!##!!#!!#!!!#!!$$",
  "$$$$$$$$!#####!$$$$$!###!!##!$$$$!###!$$$$$!####!$$$$$$$$$!!$$$$$$$!##!!###!!!#####!!###!$$!#!$$",
  "$$$$$$$$!#####!$$$$$!###!!##!$$$$!####!$$$$!####!$$$$$$$$$$$$$$$$$!##!$$!##!!##!!!#!!!###!$$!$$$",
  "$$$$$$$$!#####!$$$$!####!!##!$$!!#####!$$$$!####!$$$$$$$$$$!!!$$$!##!$$$!###!!!!!!!!###!##!$$$$$",
  "$$$$$$$$!######!$$!!###!$!##!!!!######!$$$$!#####!$$$$$$$!!##!$$$$!!$$$$$!#############!!##!$$$$",
  "$$$$$$$$!######!!!#####!$!#########!##!$$$$!#####!$$$$$$!####!$$$$$$$$$$$$!!##########!$$!#!$$$$",
  "$$$$$$$$!#############!$$!########!!##!!$$$!#####!$$$$$$!####!$$$$$$$$$$$$$$!!!!!!!!!!$$$$!#!$$$",
  "$$$$$$$$$!###########!$$$$!!####!!$!####!$$!#####!$$$$$$!####!$$$$$$$$$$$$$$$$$$$$$$$$$$$$$!$$$$",
  "$$$$$$$$$$!!########!$$$$$$$!!!!$$$!####!$$$!!!!!$$$$$$$!####!$$$$$$$$$$$$$$$$$$$$$$$$$$$$$$$$$$",
  "$$$$$$$$$$$$!!!!!!!!$$$$$$$$$$$$$$$$!###!$$$$$$$$$$$$$$$$!!!!$$$$$$$$$$$$$$$$$$$$$$$$$$$$$$$$$$$",
  "$$$$$$$$$$$$$$$$$$$$$$$$$$$$$$$$$$$$$!!!$$$$$$$$$$$$$$$$$$$$$$$$$$$$$$$$$$$$$$$$$$$$$$$$$$$$$$$$",
  "$$$$$$$$$$$$$$$$$$$$$$$$$$$$$$$$$$$$$$$$$$$$$$$$$$$$$$$$$$$$$$$$$$$$$$$$$$$$$$$$$$$$$$$$$$$$$$$$",
  "$$$$$$$$$$$$$$$$$$$$$$$$$$$$$$$$$$$$$$$$$$$$$$$$$$$$$$$$$$$$$$$$$$$$$$$$$$$$$$$$$$$$$$$$$$$$$$$$",
};
