/* XPM */
static char *poster_11[] = {
  /* width height ncolors chars_per_pixel */
  "128 64 10 1 0 0",
  /* colors */
  "! c #000000",
  "# c #d49f55",
  "$ c #d47f00",
  "% c #663300",
  "& c #aa5f00",
  "' c #aa3f00",
  "( c None",
  ") c #00ffff",
  "* c #ffbf55",
  "+ c #333300",
  /* pixels */
  "(((((((((((((((%%%%%%%%%%%%%%%%%%%%%%%%%%%%%%%%%%%%%%%%%%%%%%%%%%%%%%%%%%%%%%%%%%%%%%%%%%%%%%%%%((((((((((((((((((((((((((((((((",
  "(((((((((((((((%'&$##$$#$$$$$$$%'&##$$$$$##$$$$%'&$##$$#$$$$$$$%'&##$$$$$##$$$$%'&$##$$#$$$$$$$%((((((((((((((((((((((((((((((((",
  "(((((((((((((((%'$&&$#$$*#$$$$$%'$&&##$$$$$##$$%'$&&$#$$*#$$$$$%'$&&##$$$$$##$$%'$&&$#$$*#$$$$$%((((((((((((((((((((((((((((((((",
  "(((((((((((((((%'####**#**##*##%'####**#####**#%'####**#**##*##%'####**#####**#%'####**#**##*##%((((((((((((((((((((((((((((((((",
  "(((((((((((((((%%%%%%%''%%%%%''%%%%%%%''%'%%'%%%%%%%%%''%%%%%''%%%%%%%''%'%%'%%%%%%%%%''%%%%%''%((((((((((((((((((((((((((((((((",
  "(((((((((((((((%%&&'''&&'%'&&'$%%'&'''&&'%%%'%$%%&&'''&&'%'&&'$%%'&'''&&'%%%'%$%%&&'''&&'%'&&'$%((((((((((((((((((((((((((((((((",
  "(((((((((((((((%%&&&'&&&%%&&&'$%%'&&'&&&&%'&&'$%%&&&'&&&%%&&&'$%%'&&'&&&&%'&&'$%%&&&'&&&%%&&&'$%((((((((((((((((((((((((((((((((",
  "(((((((((((((((%%&&&'&&&%'&&&&$%%&&&'&&&&'&&&'$%%&&&'&&&%'&&&&$%%&&&'&&&&'&&&'$%%&&&'&&&%'&&&&$%((((((((((((((((((((((((((((((((",
  "(((((((((((((((%%%%%%%%%%%%%%%%%%%%%%%%%%%%%%%%%%%%%%%%%%%%%%%%%%%%%%%%%%%%%%%%%%%%%%%%%%%%%%%%%((((((((((((((((((((((((((((((((",
  "((((((((%%%%%%%%%%%%%%%%%%%%%%%%%%%%%%%%%%%%%%%%%%%%%%%%%%%%%%%%%%%%%%%%+%%%%%%%%%%%%%%%%%%%%%%%%%%%%%%%%%%%%%%%%%%%%%%%((((((((",
  "(((((((('###$$$$####$$$%'&##$$$$$##$$$$%'###$$$$####$$$%'&##$$$$$##$$$$%**###$$#$#$$$&&%'&##$$$$$##$$$$%'###$$$$####$$$%((((((((",
  "(((((((('#$$##$$$$###$$%'$&&##$$$$$##$$%'))$##$$$$###$$%'$&&##$$$$$##$$%*#$$$#$$*#$$#&&%'$&&##$$$$$##$$%'#$$##$$$$###$$%((((((((",
  "(((((((('###**######**)))))))))))###**#%'))#**######**#%'####**#####**#%*####**#**##*#$%'####))#####**#%'###**######**#%((((((((",
  "((((((((%%%%%%%%%%%%%''%))))%%''%%))))'%%))%))))%%%%%))%%%%%%%''%%%%%''%$&'%%%''%%%%%%%+%%%%%))'%%%%%''%%%%%%%%%%%%%%''%((((((((",
  "((((((((%'''&'&%''''%'$%%&))%'&&'))&&))%%))))'&))'''))))%&&'%'&&'%'&&'$%&'''''&&''&%%%&+%&&'%))&'%'&&'$%%'''&'&%''''%'$%((((((((",
  "((((((((%'&&&&&'&&&&''$%%&))'&&&&))&&))%%)))&&&))&&))))%%&&&'&&&&%&&&'$))))&'&&&%&&''%&+%&)))))&&))&&'$%%'&&&&&'&&&&''$%((((((((",
  "((((((((%'&&&&&'&&&&'&$%%&))'&&&&))&)))%%))&&&))&&&)))$%%&&&'&&&)))&&&))&'))'&))%&))''&+%))&))&&&))&&&$))'&&&&&'&&&&'&$%((((((((",
  "((((((((%%%%%%%%%%%%%%%%%))%%%%%%))))))%%))))))%%%%))%%%%%%%%%%))%))%%))&&))%%))%)))%%%+))%%))%%%))%%%%))%%%%%%%%%%%%%%%((((((((",
  "%%%%%%%%%%%%%%%%%%%%%%%%%))%%%%%%))))))%%))%))%%%%%))%%%%%%%%%%))%%%%%))%)))%%))))%))+++))%%))%%%))%%%)))%%%%%%%%%%%%%%%%%%%%%%%",
  "'&##$$$$$##$$$$%'&$##$$#$))$$$$%')))$))$$))$$))%))$)))))$$$$$$$))&#))$))))))$$))))$))$$#))$))))%'))#$))))##$$$$%'&$##$$#$$$$$$$%",
  "'$&&##$$$$$##$$%'$&&$#$$*#$$$$$%'$&&##$$$$$##$)))$&&))$$*#$$$$$))$))##))))))#$)))$&))))$))))$))%'))&))$))$$##$$%'$&&$#$$*#$$$$$%",
  "'####**#####**#%'####**#**##*##%'####**#####**#%'####**#**##*##))))##*)))#))**))'###))*#)))#*))%'))))**))###**#%'####**#**##*##%",
  "%%%%%%''%'%%'%%%%%%%%%''%%%%%''%%%%%%%''%'%%'%%%%%%%%%''%%%%%''%%%%%%%''%'%%'%%%%%%%%%''%%%%%''%%%))%%'))'%%'%%%%%%%%%''%%%%%''%",
  "%'&'''&&'%%%'%$%%&&'''&&'%'&&'$%%'&'''&&'%%%'%$%%&&'''&&'%'&&'$%%'&'''&&'%%%'%$%%&&'''&&'%'&&'$%%'))''&))%%%'%$%%&&'''&&'%'&&'$%",
  "%'&&'&&&&%'&&'$%%&&&'&&&%%&&&'$%%'&&'&&&&%'&&'$%%&&&'&&&%%&&&'$%%'&&'&&&&%'&&'$%%&&&'&&&%%&&&'$%%))&'&&))%'&&'$%%&&&'&&&%%&&&'$%",
  "%&&&'&&&&'&&&'$%%&&&'&&&%'&&&&$%%&&&'&&&&'&&&'$%%&&&'&&&%'&&&&$%%&&&'&&&&'&&&'$%%&&&'&&&%'&&&&$%%))&'&&))'&&&'$%%&&&'&&&%'&&&&$%",
  "%%%%%%%%%%%%%%%%%%%%%%%%%%%%%%%%%%%%%%%%%%%%%%%%%%%%%%%%%%%%%%%%%%%%%%%%%%%%%%%%%%%%%%%%%%%%%%%%%))%%%))%%%%%%%%%%%%%%%%%%%%%%%%",
  "((((((((%%%%%%%%%%%%%%%%%%%%%%%%%%%%%%%%%%%%%%%%%%%%%%%%%%%%%%%%%%%%%%%%%%%%%%%%%%%%%%%%%%%%%%%%%%)))))%%%%%%%%%%%%%%%%%((((((((",
  "(((((((('###$$$$####$$$%'&##$$&&#$$$$$$%'###$$$$####$$$%'&##$$$$$##$$$$%'###$$$$####$$$%'&##$$$$$##$$$$%'###$$$$####$$$%((((((((",
  "(((((((('#$$##$$$$###$$%'$&&#&'#$$$##$$%'#$$))))$$###$$%'$&&##$$$$$##$$%'#$$##$$$$###$$%'$&&##$$$$$##$$%'#$$##$$$$###$$%((((((((",
  "(((((((('###**######**#%'###%%*#####**#%'##))*######**#%'####**#####**#%'###**######**#%'####**#####**#%'###**######**#%((((((((",
  "((((((((%%%%%%%%%%%%%''%%%%%!%''%%%%%''%%%%))%%%%%%%%''%%%%%%%''%%%%%''%%%%%%%%%%%%%%''%%%%%%%''%%%%%''%%%%%%%%%%%%%%''%((((((((",
  "((((((((%'''&'&%''''%'$%%&%!!'$&'%'&&'$%%''))'&%''''%'$%%&&'%'&&'%'&&'$%%'''&'&%''''%'$%%&&'%'&&'%'&&'$%%'''&'&%''''%'$%((((((((",
  "((((((((%'&&&&&'&&%$''$%%%!!%$&&&%&&&'$%%'))&&&'))&)))$%))))'&))&)))&'))%'&&&&&'&&&&''$%%&&&'&&&&%&&&'$%%'&&&&&'&&&&''$%((((((((",
  "((((((((%'&&&&&'&%!+$&$%!!!!'$&&&'&&&&$%)))))))'))))'&$))&))'&))&)))&&))%'&&&&&'&&&&'&$%%&&&'&&&&'&&&&$%%'&&&&&'&&&&'&$%((((((((",
  "%%%%%%%%%%%%%%%%%!!!+%+!!!!!!%%%%%%%%%%%%%))%%%%)))%%%%))%))%%))))))%)))%%%%%%%%%%%%%%%%%%%%%%%%%%%%%%%%%%%%%%%%%%%%%%%%%%%%%%%%",
  "'&##$$$$$##$$$&%!!!!!!!!!!!!!!!+%&##$$$$$#))$$$%))$##$$))$))$$)))&))))))$##$$$$%'&$##$$#$$$$$$$%'&##$$$$$##$$$$%'&$##$$#$$$$$$$%",
  "'$&&##$$$$$##&%!!!!!!!!!!!!!!!!!!!%&##$$$$))#$$%))&&$#$))#))$$))'$))))))$))##$$%'$&&$#$$*#$$$$$%'$&&##$$$$$##$$%'$&&$#$$*#$$$$$%",
  "'####**#####$%!!!!!!!!!!!!!!!!!!!!!!+%&$##))**#%))###**))))#*#))'##))**)))##**#%'####**#**##*##%'####**#####**#%'####**#**##*##%",
  "%%%%%%''%'%%!!!!!!!!!!!!!!!!!!!!'%%%%%''%'))'%%%%%%%%%''))%%%''%%%%%%%''%'%%'%%%%%%%%%''%%%%%''%%%%%%%''%'%%'%%%%%%%%%''%%%%%''%",
  "%'&'''&&'%+!!!!!!!!!!!!!!!!!!!!!%$&'''&&'%))'%$%%&&'''&&'%'&&'$%%'&'''&&'%%%'%$%%&&'''&&'%'&&'$%%'&'''&&'%%%'%$%%&&'''&&'%'&&'$%",
  "%'&&'&&&%!!+%&$+!!!!!!!!!!!!!!!!%&&&'&&&&%))&'$%%&&&'&&&%%&&&'$%%'&&'&&&&%'&&'$%%&&&'&&&%%&&&'$%%'&&'&&&&%'&&'$%%&&&'&&&%%&&&'$%",
  "%&&&'&&'!!%&$$&%!!!!!!!!!!!!!!!!+$&&'&&&&'))&'$%%&&&'&&&%'&&&&$%%&&&'&&&&'&&&'$%%&&&'&&&%'&&&&$%%&&&'&&&&'&&&'$%%&&&'&&&%'&&&&$%",
  "%%%%%%%!+%%%%%%%!!!!!!!!!!!!!!!!!+%%%%%%%%%%%%%%%%%%%%%%%%%%%%%%%%%%%%%%%%%%%%%%%%%%%%%%%%%%%%%%%%%%%%%%%%%%%%%%%%%%%%%%%%%%%%%%",
  "((((((((%%%%%%%%+!!!!!!!!!!!!!!!!!%%%%%%%%%%%%%%%%%%%%%%%%%%%%%%%%%%%%%%%%%%%%%%%%%%%%%%%%%%%%%%%%%%%%%%%%%%%%%%%%%%%%%%((((((((",
  "(((((((('###$$$$####$+!+'&#%+!!!!!!$$$$%'###$$$$####$$$%'&##$$$$$&%&&%%%'###$$$$####$$$%'&##$$$$$##$$$$%'###$$$$####$$$%((((((((",
  "(((((((('#$$##$$$$###$!%'$&&##$%+!!!#$$%'#$$##$$$$###$$%'$&&##$$&%&#&%&%'#$$##$$$$###$$%'$&&##$$$$$##$$%'#$$##$$$$###$$%((((((((",
  "(((((((('###**######**%%'####**##$&!+*#%'###**######**#%'####**#$##&%%&%'###**######**#%'####**#####**#%'###**######**#%((((((((",
  "((((((((%%%%%%%%%%%%%''%%%%%%%''%%%%!&'%%%%%%%%%%%%%%''%%%))%%''%%%%%''%%%%%%%%%%%%%%''%%%%%%%''%%%%%''%%%%%%%%%%%%%%''%((((((((",
  "((((((((%'''&'&%''''%'$%%&&'%'&&'%''+!$%%'''&'&%''''%'$%%&))%'&''%%'&'$%%'''&'&%''''%'$%%&&'%'&&'%'&&'$%%'''&'&%''''%'$%((((((((",
  "((((((((%'&&&&&'&&&&''$%%&&&'&&&&%&&'+&%%'&&&&&'&&&&)))%%&))'&&&&%&&&'$%))))&&&'&&&&''$%%&&)))&&&%&&&))%%'&&&&&'&&)))'$%((((((((",
  "((((((((%'&&&&&'&&&&'&$%%&&&'&&&&'&&&'%%%'&&&&&'&&)))&$%%))))))&))&)))$))'&))&&))&&))&$%%&))')))&'&&)&&)%))&)))')))&'&$%((((((((",
  "((((((((%%%%%%%%%%%%%%%%%%%%%%%%%%%%%%%%%%%%%%%%%%))%%%%%%))%%%%))))%%%))%%))%%))%)))%%%%))%%%))%%%)%%)%%))))%%%))%%%%%%((((((((",
  "((((((((((((((((((((((((((((((%%%%%%%%%%%%%%%%%%%%))%%%%%%))%%%%)))%%%%))%%))%%))))%))%%%))%%)))%%%)))%%%)))%%%%))%%%%%%%%%%%%%%",
  "(((((((((((((((((((((((((((((((%'&##$$$$$##$$$$%'&$))))#$$))$$$%))##$$$))%)))$$))))#))$#$))$$)))'&#))$$$$))$$$$%'))))$$#$$$$$$$%",
  "(((((((((((((((((((((((((((((((%'$&&##$$$$$##$$%'$&&$#))*#))$$$%))&&##$))))))$$)))&&))))*)))))))'$&))#$$$))##$$%'$&&))$$*#$$$$$%",
  "(((((((((((((((((((((((((((((((%'####**#####**#%'))))))#**#))))%))###**)))#))*#))####))#*)))*#))'##)))))#))#**#))))))**#**##*##%",
  "(((((((((((((((((((((((((((((((%%%%%%%''%'%%'%%%%%%%%%''%%%%%''%%%%%%%''%'%%'%%%%%%%%%''%%%%%'))%%%%))''%'%%'%%%%%%%%%''%%%%%''%",
  "(((((((((((((((((((((((((((((((%%'&'''&&'%%%'%$%%&&'''&&'%'&&'$%%'&'''&&'%%%'%$%%&&'''&&'%'&&'))%'&'''&&'%%%'%$%%&&'''&&'%'&&'$%",
  "(((((((((((((((((((((((((((((((%%'&&'&&&&%'&&'$%%&&&'&&&%%&&&'$%%'&&'&&&&%'&&'$%%&&&'&&&%))&&'))%'&&'&&&&%'&&'$%%&&&'&&&%%&&&'$%",
  "(((((((((((((((((((((((((((((((%%&&&'&&&&'&&&'$%%&&&'&&&%'&&&&$%%&&&'&&&&'&&&'$%%&&&'&&&%')))))%%&&&'&&&&'&&&'$%%&&&'&&&%'&&&&$%",
  "(((((((((((((((((((((((((((((((%%%%%%%%%%%%%%%%%%%%%%%%%%%%%%%%%%%%%%%%%%%%%%%%%%%%%%%%%%%%%%%%%%%%%%%%%%%%%%%%%%%%%%%%%%%%%%%%%",
  "(((((((((((((((((((((((((((((((((%%%%%%%%%%%%%%%%%%%%%%%%%%%%%%%%%%%%%%%%%%%%%%%%%%%%%%%%%%%%%%%%%%%%%%%%%%%%%%%%%%%%%%%%%%%%%%%",
  "((((((((((((((((((((((((((((((((((((((((((((((((((((((((((((((((((((((((((((((((((((((((((((((((((((((((((((((((((((((((((((((((",
};
