/* XPM */
static char *poster_2[] = {
  /* width height ncolors chars_per_pixel */
  "32 32 4 1 0 0",
  /* colors */
  "! c #000000",
  "# c #800000",
  "$ c #ff0000",
  "% c None",
  /* pixels */
  "%%%%%%%%%%%%!!!!!!!%%%%%%%%%%%%%",
  "%$$%%%%%%!!!!!!!!!!!!!!%%%%%%%%%",
  "%$$%%%%!!!!!%%$$%%%!!!!!%%%%%%%%",
  "%%$%%%!!!!!%%%$$%%!!!!!!!%%%%$$%",
  "%%$%!!!!!!!!!%$%%!!!!!$!!!%%%$$%",
  "%%%%!!!%!!!!!%%%!!!%!!$%!!!%%$$%",
  "%%%!!!%%!!%!!!!!!!%%!!$%%!!!%%$%",
  "%%!!!%%%!!%%!!!!!%%%!!$%%%!!!%$%",
  "%%!!%%%%!!!%%!!!!%%%!!%%#%%!!%%%",
  "%!!%%%%%%!!%!!!!!!%!!$%%#%%%!!%%",
  "%!!%%%%%%!!!!!%%!!!!!$%%#%%%!!%%",
  "%!!%%%%%%!!!!%%%%!!!!$%%%%%%!!%%",
  "!!$$%%%%!!!!!%%%%%!!!$%%%%%%!!!%",
  "!!$$%%%!!!!!%%%%%%$!!!%%%%%%%!!%",
  "!!$%%%!!!%!!%%%%%$!!!!!%%%%%%!!%",
  "!!%%%!!!%%!!!%%%%$!!%!!!!%%%%!!%",
  "!!%%!!!%%%%!!%%%%$!!%%!!!!%%%!!%",
  "!!%!!!%%%%%!!%%%%$!!%%%%!!!%%!!%",
  "!!!!!%%%$$$$!!%%%$!!%%%%%!!!%!!%",
  "!!!!!!!!!!!!!!!!!!!!!!!!!!!!!!%%",
  "!!!!!!!!!!!!!!!!!!!!!!!!!!!!!!%%",
  "%!!%%%%%%%%%!!%%%!!%%%%%%%%%!!%%",
  "%%!!%%%%%%%%!!!%%!!%%%%%%%%!!%%%",
  "%%!!!%%%%$%%%!!%%!!%%%%%%%!!!%%%",
  "%%%!!!%%!$$%%!!%!!%%%%%%!!!!%%%%",
  "%%%%!!!%%%$%%!!!!!%%%%%%!!!%%%%%",
  "%%%%%!!!%%$%%%!!!!%%%%%!!!$%%%%%",
  "%%$%%%!!!%%%%%!!!!%%!!!!!%$$%%%%",
  "%$$$$%%!!!!!!%!!!!%!!!!%%%%$%%%%",
  "%$$$%%%%%!!!!!!!!!!!!!%%%%%%%%%%",
  "$%%$%%%%%%%%!!!!!!!%%%%%%%%%%%%%",
  "%%%%%%%%%%%%%%%%%%%%%%%%%%%%%%%%",
};
