/* XPM */
static char *poster_3[] = {
  /* width height ncolors chars_per_pixel */
  "96 96 3 1 0 0",
  /* colors */
  "! c #c0c0c0",
  "# c #ff0000",
  "$ c None",
  /* pixels */
  "$$$$$$$$$$$$$$$!!!$$$$$$$$$$$$$$$$$$$$$$$$$$$$$$$$$$$$$$$$$$$$$$$$$$$$$$$$$$$$$$$$$$$$$$$$$$$$$$",
  "$$$$$$$$$$$$$$$###!$$$$$$$$$$$$$$$$$$$$$$$$$$$$$$$$$$$$$$$$$$$$$$$$$$$$$$$$$$$$$$$$$$$$$$$$$$$$$",
  "$$$$$$$$$$$$$$$###!$$$$$$$$$$$$$$$$$$$$$$$$$$$$$$$$$$$$$$$$$$$$$$$$$$$$$$$$$$$$$$$$$$$$$$$$$$$$$",
  "$$$$$$$$$$$$$$$##!$$$$$$$$$$$$$$$$$$$$$$$$$$$$$$$$$$$$$$$$$$$$$$$$$$$$$$$$$$$$$$$$$$!!$$$$$$$$$$",
  "$$$$$$$$$$$$$$###!$$$$$$$$$$$$$$$$$$$$$$$$$$$$$$$$$$$$$$$$$$$$$$$$$$$$$$$$$$$$$$$$$!##!$$$$$$$$$",
  "$$$$$$$$$$$$$$###!$$$$$$$$$$$$$$$$$$$$$$$$$$$$$$$$$$$$$$$$$$$$$$$$$$$$$$$$$$$$!!!$$!##!$$$$$$$$$",
  "$$$$$$$$$$$$$###!$$$$$$$$$$$$$$$$$$$$$$$$$$$$$$$$$$$$$$$$$$$$$$$$$$$$$$$$$$$$!###!!!###!$$$$$$$$",
  "$$!!!!!!$$$!####!$$$$$$$$$$$$$$$$$$$$$$$$$$$$$$$$$$$$$$$$$$$$$$$$$$$$$$$$$$$$!#########!$$$$$$$$",
  "$!######!!!!###!$$$$$$$$$$$$$$$$$$$$$$$$$$$$$$$$$$$$$$$$$$$$$$$$$$$$$$$$$$$$$$!########!!!!!$$$$",
  "!##############!$!!!!!!!!$$$$$$$$$$$$$$$$$$$$$$$$$$$$$$$$$$$$$$$$$$$$$$$$$$$$$$!!!##########!$$$",
  "!###!!########!$!########!$$$$$$$$$$$$$$$$$$$$$$$$$$$$$$$$$$$$$$$$$$$$$$$$$$$$$$$$!!########!$$$",
  "!##!$$!!!####!$$!#########!$$$$$$$$$$$$$$$$$$$$$$$$$$$$$$$$$$$$$$$$$$$$$$$$$$$$$$$$!###!!!##!$$$",
  "!##!$$$$!####!$!###!!!####!$$$$$$$$$$$$!!!$!!!!!!$$$$$$$$$$$$!!!$$$$$$$$$$!!$$$$$$$!##!$$$!!$$$$",
  "!##!$$$$!####!$!###!$!###!$$$$!!!!!!!!!###!######!$$$$$$$$$$!###!!!!!!!!!!##!$$$$$$!##!$$$$$$$$$",
  "!##!$$$!#####!$!##!$!###!$$$$!###################!$$$$$$$$$!################!$!!!!$!##!$$$$$$$$$",
  "!###!$!######!$!##!$!###!$$$!################!!##!$$$$$$$$!#################!$!##!$!##!$$$$$$$$$",
  "!###!!######!!!###!!###!$$$!########!!!!!###!$!##!$$$$$$$$!###!!####!!!!!###!$!##!$!##!$$$$$$$$$",
  "$!#######!##!!!###!!###!$$!#####!!##!$$!!###!$!###!$$$$$$$!##!$$!!###!$$!###!$!##!$!##!$$$$$$$$$",
  "$!######!!#######!$!##!$$$!####!$!##!$$!####!$!####!$$$$$$!##!$$$!###!$$!##!$$!##!$!##!$$$$$$$$$",
  "$$!!!!!!$!#######!$!##!$$!!###!$$!##!$$!###!!$$!###!$$$$$$!##!$$$$!##!$$!##!$$!##!$!##!$$$$$$$$$",
  "$$$$$$$$$$!!####!$$!###!!#####!!!###!$!######!$$!##!$$$$$$!##!$$$$!##!$$!##!$!###!$!##!$$$$$$$$$",
  "$$$$$$$$$$$$!!!!$$$!################!$!#######!!###!$$$$$$!##!$$$$!##!$$!##!$!####!!##!!$$$$$$$$",
  "$$$$$$$$$$$$$$$$$$$$!######!#######!$$!###!########!$$$$$$!##!$$$$!##!$$!##!$!####!!###!$!!!$$$$",
  "$$$$$$$$$$$$$$$$$$$$$!!!!!!!!!####!$$$!###!!######!!$$$$$$!##!!$$$!##!$$!###!###########!###!$$$",
  "$$$$$$$$$$$$$$$$$$$$$$$$$$$$!!!!!!$$$$!##!$!!!!!!!!$$$$$$$!####!!!###!$$!####################!$$",
  "$$$$$$$$$$$$$$$$$$$$$$$$$$$$$$$$$$$$$!###!$$$$$$$$$$$$$$$$!##########!$$!!#####!!####!#######!$$",
  "$$$$$$$$$$$$$$$$$$$$$$$$$$$$$$$$$$$$$!###!$$$$$$$$$$$$$$$$$!!#######!$$$$$!!!!!$$!!!!$!!!!!!#!$$",
  "$$$$$$$$$$$$$$$$$$$$$$$$$$$$$$$$$$$$$!###!$$$$$$$$$$$$$$$$$$$!!!!!!!$$$$$$$$$$$$$$$$$$$$$$$!!!$$",
  "$$$$$$$$$$$$$$$$$$$$$$$$$$$$$$$$$$$$!####!$$$$$$$$$$$$$$$$$$$$$$$$$$$$$$$$$$$$$$$$$$$$$$$$!##!$$",
  "$$$$$$$$$$$$$$$$$$$$$$!$$$$$$$$$$$$$!###!$$$$$$$$$$$$$$$$$$$$$$$$$$$$$$$$$$$$$$$$$$$$$$$$$$!!$$$",
  "$$$$$$$$$$$$$$$$$$$$$!!!!$$$$$$$$$$$!###!$$$$$$$$$$$$$$$$$$$$$$$$$$$$$$$$$$$$$$$$$$$$$$$$$$!#!$$",
  "$$$$$$$$$$$$$$$$$$$$!####!$$$$$$$$$$!##!$$$$$$$$$$$$$$$$$$$$$$$$$$$$$$$$$$$$$$$$$$$$$$$$$$!##!$$",
  "$$$$$$$$$$$$$$$$$$$$!#####!$$$$$$$$$!##!$$$$$$$$$$$$$$$$$$$$$$$$$$$$$$$$$$$$$$$$$$$$$$$$$$!#!$$$",
  "$$$$$$$$$$$$$$$$$$$$!##!##!$$$$$$$$$$!!$$$$$$$$$$$$$$$$$$$$$$$$$$$$$$$$$$$$$$$$$$$$$$$$$$$$!$$$$",
  "$$$$$$$$$$$$$$$$$$$$!##!##!$$$$$$$$$!##!$$$$$$$$$$$$$$$$$$$$$$$$$$$$$$$$$$$$$$$$$$$$$$$$$$$!$$$$",
  "$$$$$$$$$$$$$$$$$$$$!##!##!$$$$$$$$$!##!$$$$$$$$$$$$$$$$$$$$$$$$$$$$$$$$$$$$$$$$$$$$$$$$$$!#!$$$",
  "$$$$$$$$$$$$$$$$$$$$!##!##!$$$$$$$$$!#!$$$$$$$$$$$$$$$$$$$$$$$$$$$$$$$$$$$$$$$$$$$$$$$$$$$$!$$$$",
  "$$$$$$$$$$$$$$$$$$$$!##!##!$$$$$$$$$$!$$$$$$$$$$$$$$$$$$$$$$$$$$$$$$$$$$$$$$$$$$$$$$$$$$$$$$$$$$",
  "$$$$$$$$$$$$$$$$$$$$!####!$$$$$$$$$$$$$$$$$$$$$$$$$$$$$$$$$$$$$$$$$$$$$$$$$$$$$$$$$$$$$$$$$$$$$$",
  "$$$$$$$$$$!!!!!$$$$$!####!$$$$$$$$$$$$$$$$$$$$$$$$$$$$$$$$$$$$$$$$$$$$$$$$$$$$$$$$$$$$$$$$$$$$$$",
  "$$$$$$$$!!####!!$$$$!####!$$$$$$$$$$$$$$$$$$$$$$$$$$$$$$$$$$$$$$$$$$$$$$$$$$$$$$$$$$$$$$$$$$$$$$",
  "$$$$$$$!########!!!!!###!$$$!!$$$$$$$$$$$$$$$$$$$$$$$$$$$$$$$$$$$$$$$$$$$$$$$$$$$$$$$$$$$$$$$$$$",
  "$$$$$$!#####!##########!$$$!##!$$$$$$$$$$$$$$$$$$$$$$$$$$$$$$$$$$$$$$$$$$$$$$$$$$$$$$$$$$$$$$$$$",
  "$$$$$!####!!!##########!!!!###!$$$$$$$$$$$$$$$$$$$$$$$$$$$$$$$$$$$$$$$$$$$$$$$$$$$$$$$$$$$$$$$$$",
  "$$$$$!###!$$$!###!!!!#########!$$$$$$$$$$$$$$$$$$$$$$$$$$$$$$$$$$$$$$$$$$$$$$$!!!!!$$$$$$$$$$$$$",
  "$$$$$!##!!$$$$!##!$$!########!$$$$$$$$$$$$$$$$$$$$$$$$$$$$$$$$$$$$$$$$$$$$$$$!#####!$$$$$$$$$$$$",
  "$$$$$!##!!$$$!!##!$$!####!!!!$$$$$$$$$$$$$$$$$$$$$$$$$$$$$$$$$$$$$$$$$$$$$$$$!#####!$$$$$$$$$$$$",
  "$$$$$!####!!!!###!$$!####!$$$$$$$$$$$$$$$$$$$$$$$$$$$$$$$$$$$$$$$$$$$$$$$$$$$!##!###!$$$$$$$$$$$",
  "$$$$$!##########!$$$!####!$$$$$$$$$$$$$$$$$$$$$$$$$$$$$$$$$$$$$$$$$$$$$$$$$$$!##!###!$$$$$$$$$$$",
  "$$$$$$!!########!$$$!#####!$$$$$$$$$$$$$$$$$$$$$$$$$$$$$$$$$$$$$$$$$$$$$$$$$$!##!!##!$$$$$$$$$$$",
  "$$$$$$$$!!!!!!!!$$$$!#####!$$$$$$$$$$$$$$$$$$$$$$$$$$$$$$$$$$$$$$$$$$$$$$$$$$!##!!##!$$$$$$$$$$$",
  "$$$$$$$$$$$$$$$$$$$$!##!###!$$$$$$$$$$$$$$$$$$$$$$$$$$$$$$$$$$$$$$$$$$$$$$$$$!##!!##!$$$$$$$$$$$",
  "$$$$$$$$$$$$$$$$$$$!###!###!$$$$$$$$$$$$$$$$$$$$$$$$$$$$$$$$$$$$$$$$$$$$$$$$$!##!!##!$$$$$$$$$$$",
  "$$$$$$$$$$$$$$$$$$$!##!!###!$$$$$$$$!!!$$$$$$$$$$$$$$$$$$$$$$$$$$$$$$$$$$$$$$!###!##!$$$$$$$$$$$",
  "$$$$$$$$$$$$$$$$$$$!##!!###!$$$$$$$!###!$$$$$$$$$$$$$$$$$$$$$$$$$$$$$$$$$$$$$!###!##!$$$$$$$$$$$",
  "$$$$$$$$$$$$$$$$$$$!##!!##!$$$$$$$$!####!$$$$$$$$$$$$$$$$$$$$$$$$$$$$$$$$$$$$$!#####!$$$$$$$$$$$",
  "$$$$$$$$$$$$$$$$$$$!##!###!$$$$$$$$!####!$$$$$$$$$$$$$$$$$$$$$$$$$$$$$$$$$$$$$!#####!$$$$$$$$$$$",
  "$$$$$$$$$$$$$$$$$$$!######!$$$$$$$$!####!$$$$$$$$$$$$$$$$$$$$$$$$$$$$$$$$$$$$$$!####!$$$$$$$$$$$",
  "$$$$$$$$$$$$$$$$$$$!#####!$$$$$$$$$!####!$$$$$$$$$$$$$$$$$$$$$$$$$$$$$$$$$$$$$$$!###!$$$$$$$$$$$",
  "$$$$$$$$$$$$$$$$$$$$!!!!!$$$$$$$$$$!####!$$$$$$$$$$$$$$$$$$$$$$$$$$$$$$$$$$$$$$!!###!$$$$$$$$$$$",
  "$$$$$$$$$$$$$$$$$$$$$$$$$$$$$$$$$$$!####!$$$$$$$$$$$$$$$$$$$$$$$$$$$$$$$$$$$$$!#####!$$$$$$$$$$$",
  "$$$$$$$$$$$$$$$$$$$$$$$$$$$$$$$$$$$!####!$$$$$$$$$$$$$$$$$$$$$$$$$$$$$$$$$$$$$#######!$$$$$$$$$$",
  "$$$$$$$$$$$$$$$$$$$$$$$$$$$$$$$$$$$!####!$$$$$$$$$$$$$$$$$$$$$$$$$$$$$$$$$$$$!###!###!$$$$$$$$$$",
  "$$$$$$$$$$$$$$$$$$$$$$$$$$$$$$$$$$$$!###!$$$$$$$$$$$$$$$$$$$$$$$$$$$$$$$$$$$!###!!!##!$$$$$$$$$$",
  "$$$$$$$$$$$$$$$$$$$$$$$$$$$$$$$$$$$$!###!$$$$$$$$$$$$$$$$$$$$$$$$$!!!!!!!!!!####!$!###!$$$$$$$$$",
  "$$$$$$$$$$$$$$$$$$$$$$$$$$$$$$$$$$$$!###!$$$$$$$$$$$$$$$$$$$$$$$$!#############!$$!###!$$$$$$$$$",
  "$$$$$$$$$$$$$$$$$$$$$$$$$$$!!$$$$$$$!###!$$$$$$$$$$$$$$$$$$$$!!!!!############!$$$!!###!$$$$$$$$",
  "$$$$$$$$$$$$$$$$$$$$$$$$$$!##!$$$$$$$!##!!!!!!!!$$$$$$$$!!!!!###########!!!!!!!$$$$!###!$$$$$$$$",
  "$$$$$$$$$$$$$$$$$$$$$$$$$!####!$$$$$$!##!######!$$$$$$$!#############!####!$$$$$$$$$!###!$$$$$$$",
  "$$$$$$$$$$$$$$$$$$$$$$$$$!####!$$$$$$!##########!$$$$$!########!!!!##!####!$$$$$$$$$!###!$$$$$$$",
  "$$$$$$$$$$$$$$$$$$$$$$$$!#####!$$$$$!######!!!##!$$$$$!######!!$$$!##!!!###!$$$$$$$$$!###!$$$$$$",
  "$$$$$$$$$$$$$$$$$$$$$$$$!######!$$$!#####!!!!!##!$$$$!########!$$$!##!$!###!$$$$$$$$$!#!!$$$$$$$",
  "$$$$$$$$$$$$$$$$$$$$$$$!###!###!$$!########!!!##!$$!!####!!###!$$$!##!$$!##!$$$$$$$$$$!!$$$$$$$$",
  "$$$$$$$$$$$$$$$$$$$$$$$!###!!##!$$!#############!$!######!$!##!$$$!##!$$!##!$$$$$$$$$$!#!$$$$$$$",
  "$$$$$$$$$$$$$$$$$$$$$$!###!$!##!$!###!##########!!#######!$!##!$$$!##!!$!##!$$$$$$$$$$!##!$$$$$$",
  "$$$$$$$$$$$$$$$$$$$$$$!###!$!##!!###!!##!####!!!$!###!###!$!##!$$$!####!###!$$$$$$$$$$$!#!$$$$$$",
  "$$$$$$$$$$$$$$$$$$$$$$!##!$$!##!!###!!##!!###!$$!###!!###!!###!$$$!########!$$$$$$$$$$$$!$!$$$$$",
  "$$$$$$$$$$$$$$$$$$$$$!###!$$!######!$!##!$!###!!!###!!########!$$$$!!#####!$$$$$$$$$$$$$!!#!$$$$",
  "$$$$$$$$$$$$$$$$$$$!!#####!!#######!$!##!$!#########!$!######!$$$$$$$!!!!!$$$$$$$$$$$$$!##!$$$$$",
  "$$$$$$$$$$$$$$$!!!!##############!!$$!##!$$!#######!$$$!!!!!!$$$$$$$$$$$$$$$$$$$$$$$$$$$!##!$$$$",
  "$$$$$$$$$$$$$$!########!#######!!$$$$!##!$$$!!!!!!!$$$$$$$$$$$$$$$$$$$$$$$$$$$$$$$$$$$$$!##!$$$$",
  "$$$$$$$$$$$$$$!######!!$!#####!$$$$$$!##!$$$$$$$$$$$$$$$$$$$$$$$$$$$$$$$$$$$$$$$$$$$$$$$!##!$$$$",
  "$$$$$$$$$$$$$$$!!!!!!$$$$!!!!!$$$$$$$$!!$$$$$$$$$$$$$$$$$$$$$$$$$$$$$$$$$$$$$$$$$$$$$$$$$!!$$$$$",
  "$$$$$$$$$$$$$$$$$$$$$$$$$$$$$$$$$$$$$$$$$$$$$$$$$$$$$$$$$$$$$$$$$$$$$$$$$$$$$$$$$$$$$$$$$!#!$$$$",
  "$$$$$$$$$$$$$$$$$$$$$$$$$$$$$$$$$$$$$$$$$$$$$$$$$$$$$$$$$$$$$$$$$$$$$$$$$$$$$$$$$$$$$$$$$$!$$$$$",
  "$$$$$$$$$$$$$$$$$$$$$$$$$$$$$$$$$$$$$$$$$$$$$$$$$$$$$$$$$$$$$$$$$$$$$$$$$$$$$$$$$$$$$$$$$$$$$$$$",
  "$$$$$$$$$$$$$$$$$$$$$$$$$$$$$$$$$$$$$$$$$$$$$$$$$$$$$$$$$$$$$$$$$$$$$$$$$$$$$$$$$$$$$$$$$$$$$$$$",
  "$$$$$$$$$$$$$$$$$$$$$$$$$$$$$$$$$$$$$$$$$$$$$$$$$$$$$$$$$$$$$$$$$$$$$$$$$$$$$$$$$$$$$$$$$$$$$$$$",
  "$$$$$$$$$$$$$$$$$$$$$$$$$$$$$$$$$$$$$$$$$$$$$$$$$$$$$$$$$$$$$$$$$$$$$$$$$$$$$$$$$$$$$$$$$$$$$$$$",
  "$$$$$$$$$$$$$$$$$$$$$$$$$$$$$$$$$$$$$$$$$$$$$$$$$$$$$$$$$$$$$$$$$$$$$$$$$$$$$$$$$$$$$$$$$$$$$$$$",
  "$$$$$$$$$$$$$$$$$$$$$$$$$$$$$$$$$$$$$$$$$$$$$$$$$$$$$$$$$$$$$$$$$$$$$$$$$$$$$$$$$$$$$$$$$$$$$$$$",
  "$$$$$$$$$$$$$$$$$$$$$$$$$$$$$$$$$$$$$$$$$$$$$$$$$$$$$$$$$$$$$$$$$$$$$$$$$$$$$$$$$$$$$$$$$$$$$$$$",
  "$$$$$$$$$$$$$$$$$$$$$$$$$$$$$$$$$$$$$$$$$$$$$$$$$$$$$$$$$$$$$$$$$$$$$$$$$$$$$$$$$$$$$$$$$$$$$$$$",
  "$$$$$$$$$$$$$$$$$$$$$$$$$$$$$$$$$$$$$$$$$$$$$$$$$$$$$$$$$$$$$$$$$$$$$$$$$$$$$$$$$$$$$$$$$$$$$$$$",
  "$$$$$$$$$$$$$$$$$$$$$$$$$$$$$$$$$$$$$$$$$$$$$$$$$$$$$$$$$$$$$$$$$$$$$$$$$$$$$$$$$$$$$$$$$$$$$$$$",
  "$$$$$$$$$$$$$$$$$$$$$$$$$$$$$$$$$$$$$$$$$$$$$$$$$$$$$$$$$$$$$$$$$$$$$$$$$$$$$$$$$$$$$$$$$$$$$$$$",
};
