/* XPM */
static char *poster_0[] = {
  /* width height ncolors chars_per_pixel */
  "160 96 8 1 0 0",
  /* colors */
  "! c #000000",
  "# c #800000",
  "$ c #008000",
  "% c #000080",
  "& c #ff0000",
  "' c #ffff00",
  "( c #0000ff",
  ") c None",
  /* pixels */
  ")))!!!!!!!!!!!!!!!!!!!!!!!!!!!!!!!!!!!!!!!!!!!!!!!!!!!!!!!!!!!!!!!!!!!!!!!!!!!!!!!!!!!!!!!!!!!!!!!!!!!!!!!!!!!!!!!!!!!!!!!!!!!!!!!!!!!!!!!!!!!!!!!!!!!!!!!!!!)))",
  ")!!!!!!!!!!!!!!!!!!!!!!!!!!!!!!!!!!!!!!!!!!!!!!!!!!!!!!!!!!!!!!!!!!!!!!!!!!!!!!!!!!!!!!!!!!!!!!!!!!!!!!!!!!!!!!!!!!!!!!!!!!!!!!!!!!!!!!!!!!!!!!!!!!!!!!!!!!!!!!)",
  "!!!!!!!!!!!!!!!!!!!!!!!!!!!!!!!!!!!!!!!!!!!!!!!!!!!!!!!!!!!!!!!!!!!!!!!!!!!!!!!!!!!!!!!!!!!!!!!!!!!!!!!!!!!!!!!!!!!!!!!!!!!!!!!!!!!!!!!!!!!!!!!!!!!!!!!!!!!!!!!!",
  "!!!!((((((((((((((((((((((((((((((((((((((((((((((((((((((((((((((((((((((((((((((((((((((((((((((((((((((((((((((((((((((((((((((((((((((((((((((((((((((((!!!!",
  "!!!((((((((((((((((((((((((((((((((((((((((((((((((((((((((((((((((((((((((((((((((((((((((((((((((((((((((((((((((((((((((((((((((((((((((((((((((((((((((((!!!",
  "!!!((((((((((((((((((((((((((((((((((((((((((((((((((((((((((((((((((((((((((((((((((((((((((((((((((((((((((((((((((((((((((((((((((((((((((((((((((((((((((!!!",
  "!!!((((((((((((((((((((((((((((((((((((((((((((((((((((((((((((((((((((((((((((((((((((((((((((((((((((((((((((((((((((((((((((((((((((((((((((((((((((((((((!!!",
  "!!!(((((((((((((((((((((((((((((((((((((((((((((((((((((((((((((((((((((((((((((((((((((((((((((((((((('''(((((((((((((((((((((((((((((((((((((((((((((((((((!!!",
  "!!!((((((((((((((((((((((((((((((((((((((((((((((((((((((((((((((((((((((((((((((((((((((((((((((((((('((('((((((((((((((((((((((((((((((((((((((((((((((((((!!!",
  "!!!(((((((((((((((((((((((((((((((((((((((((((((((((((((((((((((((((((((((((((((((((((((((((((((((((('((((('(((((((((((((((((((((((((((((((((((((((((((((((((!!!",
  "!!!((((((((((((((((((((((((((((((((((((((((((((((((((((((((((((((((((((((((((((((((((((((((((((((((('(((((('(((((((((((((((((((((((((((((((((((((((((((((((((!!!",
  "!!!(((((((((((((((((((((((((((((((((((((((((((((((((((((((((((((((((((((((((((((((((((((((((((((((('((((((('(((((((((((((((((((((((((((((((((((((((((((((((((!!!",
  "!!!((((((((((((((((((((((((((((((((((((((((((((((((((((((((((((((((((((((((((((((((((((((((((((((('((((((((('((((((((((((((((((((((((((((((((((((((((((((((((!!!",
  "!!!(((((((((((((((((((((((((((((((((((((((((((((((((((((((((((((((((((((((((((((((((((((((((((((('(((((((((('((((((((((((((((((((((((((((((((((((((((((((((((!!!",
  "!!!((((((((((((((((((((((((((((((((((((((((((((((((((((((((((((((((((((((((((((((((((((((((((((('((((((((((('((((((((((((((((((((((((((((((((((((((((((((((((!!!",
  "!!!((((((((((((((((((((((((((((((((((((((((((((((((((((((((((((((((((((((((((((((((((((((((((((('((((((((((('((((((((((((((((((((((((((((((((((((((((((((((((!!!",
  "!!!(((((((((((((((((((((((((((((((((((((((((((((((((((((((((((((((((((((((((((((((((((((((((((('(((((((((((('((((((((((((((((((((((((((((((((((((((((((((((((!!!",
  "!!!(((((((((((((((((((((((((((((((((((((((((((((((((((((((((((((((((((((((((((((((((((((((((((('(((((((((((('((((((((((((((((((((((((((((((((((((((((((((((((!!!",
  "!!!((((((((((((((((((((((((((((((((((((((((((((((((((((((((((((((((((((((((((((((((((((((((((('((((((((((((((((((((((((((((((((((((((((((((((((((((((((((((((!!!",
  "!!!((((((((((((((((((((((((((((((((((((((((((((((((((((((((((((((((((((((((((((((((((((((((((('((((((((((((((((((((((((((((((((((((((((((((((((((((((((((((((!!!",
  "!!!(((((((((((((((((((((((((((((((((((((((((((((((((((((((((((((((((((((((((((((((((((((((((('(((((((((((((((((((((((((((((((((((((((((((((((((((((((((((((((!!!",
  "!!!(((((((((((((((((((((((((((((((((((((((((((((((((((((((((((((((((((((((((((((((((((((((((('(((((((((((((((((((((((((((((((((((((((((((((((((((((((((((((((!!!",
  "!!!((((((((((((((((((((((((((((((((((((((((((((((((((((((((((((((((((((((((((((((((((((((((('((((((((((((((((((((((((((((((((((((((((((((((((((((((((((((((((!!!",
  "!!!(((((((((((((((((((((((((((((((((((((((((((((((((((((((((((((((((((((((((((((((((((((((('(((((((((((((((((((((((((((((((((((((((((((((((((((((((((((((((((!!!",
  "!!!(((((((((((((((((((((((((((((((((((((((((((((((((((((((((((((((((((((((((((((((((((((((('(((((((((((((((((((((((((((((((((((((((((((((((((((((((((((((((((!!!",
  "!!!((((((((((((((((((((((((((((((((((((((((((((((((((((((((((((((((((((((((((((((((((((((('((((((((((((((((((((((((((((((((((((((((((((((((((((((((((((((((((!!!",
  "!!!(((((((((((((((((((((((((((((((((((((((((((((((((((((((((((((((((((((((((((((((((((((('(((((((((((((((((((((((((((((((((((((((((((((((((((((((((((((((((((!!!",
  "!!!(((((((((((((((((((((((((((((((((((((((((((((((((((((((((((((((((((((((((((((((((((((('(((((((((((((((((((((((((((((((((((((((((((((((((((((((((((((((((((!!!",
  "!!!((((((((((((((((((((((((((((((((((((((((((((((((((((((((((((((((((((((((((((((((((((('((((((((((((((((((((((((((((((((((((((((((((((((((((((((((((((((((((!!!",
  "!!!((((((((((((((((((((((((((((((((((((((((((((((((((((((((((((((((((((((((((((((((((((('((((((((((((((((((((((((((((((((((((((((((((((((((((((((((((((((((((!!!",
  "!!!(((((((((((((((((((((((((((((((((((((((((((((((((((((((((((((((((((((((((((((((((((('(((((((((((((((((((((((((''''''''''''''''''''''''''''''''''''''((((((!!!",
  "!!!(((((((((((((((((((((((((((((((((((((((((((((((((((((((((((((((((((((((((((((((((((('((((((((((((((((((((((((('%%%%%%%%%%%%%%%%%%%%%%%%%%%%%%%%%%%%'((((((!!!",
  "!!!((((((((((((((((((((((((((((((((((((((((((((((((((((((((((((((((((((((((('''((((((('(((((((((((((((((((((((((('%%%%%%%%%%%%%%%%%%%%%%%%%%%%%%%%%%%%'((((((!!!",
  "!!!(((((((((((((((((((((((((((((((((((((((((((((((((((((((((((((((((((((((('((('(((((('(((((((((((((((((((((((((('%%%%%%%%%%%%%%%%%%%%%%%%%%%%%%%%%%%%'((((((!!!",
  "!!!(((((((((((((((((((((((((((((((((((((((((((((((((((((((((((((((((((((((('(((('(((('((((((((((((((((((((((((((('%%%%%'%%'%'''%'%%%'%%%'%'''%%'%%%%%%'((((((!!!",
  "!!!((((((((((((((((((((((((((((((((((((((((((((((((((((((((((((((((((((((('(((((('((('((((((((((((((((((((((((((('%%%%%'%'%%%'%%'%%%'%%%'%%'%%'%'%%%%%'((((((!!!",
  "!!!((((((((((((((((((((((((((((((((((((((((((((((((((((((((((((((((((((((('(((((('(('(((((((((((((((((((((((((((('%%%%%''%%%%'%%'%%%'%%%'%%'%%'%'%%%%%'((((((!!!",
  "!!!((((((((((((((((((((((((((((((((((((((((((((((((((((((((((((((((((((((((''(((('('((((((((((((((((((((((((((((('%%%%%'%'%%%'%%'%%%'%%%'%%'%%'%'%%%%%'((((((!!!",
  "!!!((((((((((((((((((((((((((((((((((((((((((((((((((((((((((((((((((((((((((((((('(((((((((((((((((((((((((((((('%%%%%'%%'%'''%'''%'''%'%%'%%%'%%%%%%'((((((!!!",
  "!!!((((((((((((((((((((((((((((((((((((((((((((((((((((((((((((((((((((((((((((((('(((((((((((((((((((((((((((((('%%%%%%%%%%%%%%%%%%%%%%%%%%%%%%%%%%%%'((((((!!!",
  "!!!((((((((((((((((((((((((((((((((((((((((((((((((((((((((((((((((((((((((((((((('(((((((((((((((((((((((((((((('%%%%%%%%%%%%%%%%%%%%%%%%%%%%%%%%%%%%'((((((!!!",
  "!!!(((((((((((((((((((((((((((((((((((((((((((((((((((((((((((((((((((((((((((('''%''(((((((((((((((((((((((((((('%%%''%''%%%'%%%'%%%%%''%'%'%'%%%'%%%'((((((!!!",
  "!!!((((((((((((((((((((((((((((((((((((((((((((((((((((((((((((((((((((((((((('%%%%%%''(((((((((((((((((((((((((('%%%'%%'%'%'%%%'%'%%%'%%%'%'%''%''%%%'((((((!!!",
  "!!!(((((((((((((((((((((((((((((((((((((((((((((((((((((((((((((((((((((((((''%%%%%%%%''((((((((((((((((((((((((('%%%''%''%%'%%%'%'%%%%'%%'%'%'%'%'%%%'((((((!!!",
  "!!!(((((((((((((((((((((((((((((((((((((((((((((((((((((((((((((((((((((((('%'''%%%%%''%'(((((((((((((((((((((((('%%%'%%'%'%'%'%'%'%%%%%'%'%'%'%%%'%%%'((((((!!!",
  "!!!((((((((((((((((((((((((((((((((((((((((((((((((((((((((((((((((((((((''%%%'''%%'''%%%''(((((((((((((((((((((('%%%''%'%'%%''%%'%%%%''%%%'%%'%%%'%%%'((((((!!!",
  "!!!((((((((((((((((((((((((((((((((((((((((((((((((((((((((((((((((((((('%%%%''''%%''''%%%%'((((((((((((((((((((('%%%%%%%%%%%%%%%%%%%%%%%%%%%%%%%%%%%%'((((((!!!",
  "!!!(((((((((((((((((((((((((((((((((((((((((((((((((((((((((((((((((((''%%%%'%%%%''%%%%'%%%%'(((((((((((((((((((('%%%%%%%%%%%%%%%%%%%%%%%%%%%%%%%%%%%%'((((((!!!",
  "!!!(((((((((((((((((((((((((((((((((((((((((((((((((((((((((((((((((''%%%%%'%%%%''''%%%%'%%%%''(((((((((((((((((('%%%%%%%%%%%%%%%%%%%%%%%%%%%%%%%%%%%%'((((((!!!",
  "!!!(((((((((((((((((((((((((((((((((((((((((((((((((((((((((((((((''%%%%%%%'%%%%'''''%%%'%%%%%%'(((((((((((((((((''''''''''''''''''''''''''''''''''''''((((((!!!",
  "!!!(((((((((((((((((((((((((((((((((((((((((((((((((((((((((((((('%%%%%%%%%'%%%%''''%%%%'%%%%%%%'(((((((((((((((((((((((((((((((((('(((((((((((((((((((((((((!!!",
  "!!!((((((((((((((((((((((((((((((((((((((((((((((((((((((((((((''%%%%%%%%%%%'%%%%''%%%%'%%%%%%%%%''(((((((((((((((((((((((((((((((('(((((((((((((((((((((((((!!!",
  "!!!((((((((((((((((((((((((((((((((((((((((((((((((((((((((((('%%%%%%%%%%%%%%''''%%''''%%%%%%%%%%%%'((((((((((((((((((((((((((((((('(((((((((((((((((((((((((!!!",
  "!!!(((((((((((((((((((((((((((((((((((((((((((((((((((((((((''%%%%%%%%%%%%%%%%%%%%%%%%%%%%%%%%%%%%%%'(((((((((((((((((((((((((((((('(((((((((((((((((((((((((!!!",
  "!!!(((((((((((((((((((((((((((((((((((((((((((((((((((((((''%%%%%%%%%%%%%%%%%%%%%%%%%%%%%%%%%%%%%%%%%''(((((((((((((((((((((((((((('(((((((((((((((((((((((((!!!",
  "!!!(((((((((((((((((((((((((((((((((((((((((((((((((((((('%%%%%%%%%%%%%%%%%%%%%%%%%%%%%%%%%%%%%%%%%%%%%'((((((((((((((((((((((((((('(((((((((((((((((((((((((!!!",
  "!!!((((((((((((((((((((((((((((((((((((((((((((((((((((''%%%%%%%%%%%%%%%%%%%%%%%%%%%%%%%%%%%%%%%%%%%%%%%'(((((((((((((((((((((((((('(((((((((((((((((((((((((!!!",
  "!!!((((((((((((((((((((((((((((((((((((((((((((((((((''%%%%%%%%%%%%%%%%%%%%%%%%%%%%%%%%%%%%%%%%%%%%%%%%%%''(((((((((((((((((((((((('(((((((((((((((((((((((((!!!",
  "!!!((((((((((((((((((((((((((((((((((((((((((((((((('%%%%%%%%%%%%%%%%%%%%%%%%%%%%%%%%%%%%%%%%%%%%%%%%%%%%%%'((((((((((((((((((((((('(((((((((((((((((((((((((!!!",
  "!!!(((((((((((((((((((((((((((((((((((((((((((((((''%%%%%%%%%%%%%%%%%%%%%%%%%%%%%%%%%%%%%%%%%%%%%%%%%%%%%%%%'(((((((((((((((((((((('(((((((((((((((((((((((((!!!",
  "!!!(((((((((((((((((((((((((((((((((((((((((((((('%%%%%%%%%%%%%%%%%%%%%%%%%%%%%%%%%%%%%%%%%%%%%%%%%%%%%%%%%%%''(((((((((((((((((((('(((((((((((((((((((((((((!!!",
  "!!!((((((((((((((((((((((((((((((((((((((((((((''%%%%%%%%%%%%%%%%%%%%%%%%%%%%%%%%%%%%%%%%%%%%%%%%%%%%%%%%%%%%%%'((((((((((((((((((('(((((((((((((((((((((((((!!!",
  "!!!((((((((((((((((((((((((((((((((((((((((((''%%%%%'%%%%%%%%%%%%%%%%%%%%%%%%%%%%%%%%%%%%%%%%%%%%%%%%%%%'%%%%%%%'(((((((((((((((((('(((((((((((((((((((((((((!!!",
  "!!!((((((((((((((($$$((((((((((((((((((((((('%%%%%%'%%%%%%%%%%%%%%%%%%%%%%%%%%%%%%%%%%%%%%%%%%%%%%%%%%%%%'%%%%%%%'((((((((((((((((('(((((((((((((((((((((((((!!!",
  "!!!(((((((((((((($$$$$$(((((((((((((((((((''%%%%%%'%%%%%%%%%%%%%%%%%%%%%%%%%%%%%%%%%%%%%%%%%%%%%%%%%%%%%%%'%%%%%%%''((((((((((((((('(((((((((((((((((((((((((!!!",
  "!!!(((((((((((($$$((($$$((((((((((((((((''%%%%%%%'%%%%%%%%%%%%%%%%%%%%%%%%%%%%%%%%%%%%%%%%%%%%%%%%%%%%%%%%%'%%%%%%%%'(((((((((((((('(((((((((((((((((((((((((!!!",
  "!!!(((((((((((($$(((((($$(((((((((((((('%%%%%%%%'%%%%%%%%%%%%%%%%%%%%%%%%%%%%%%%%%%%%%%%%%%%%%%%%%%%%%%%%%%%'%%%%%%%%'((((((((((((('(((((((((((((((((((((((((!!!",
  "!!!((((((((((($$$(((((((''''''(((((((''%%%%%%%%'%%%%%%%%%%%%%%%%%%%%%%%%%%%%%%%%%%%%%%%%%%%%%%%%%%%%%%%%%%%%%'%%%%%%%%''((((((((((('(((((((((((((((((((((((((!!!",
  "!!!((((((((((($$(((((((('%%%%%''(((('%%%%%%%%%'%%%%%%%%%%%%%%%%%%%%%%%%%%%%%%%%%%%%%%%%%%%%%%%%%%%%%%%%%%%%%%%'%%%%%%%%%'((((((((''''((((((((((((((((((((((((!!!",
  "!!!(((((((((($$$((((((('%%%%%%%%'(''%%%%%%%%%'%%%%%%%%%%%%%%%%%%%%%%%%%%%%%%%%%%%%%%%%%%%%%%%%%%%%%%%%%%%%%%%%%'%%%%%%%%%'(((((''%%%%''((((((((((((((((((((((!!!",
  "!!!(((((((((($#((((((('%%%%%%%%%''%%%%%%%%%%'%%%%%%%%%%%%%%%%%%%%%%%%%%%%%%%%%%%%%%%%%%%%%%%%%%%%%%%%%%%%%%%%%%%'%%%%%%%%%''(('%%%%%%%%'(((((((((((((((((((((!!!",
  "!!!((((((((((##(((((('%%%%%%%%%%%'%%%%%%%%%'%%%%%%%%%%%%%%%%%%%%%%%%%%%%%%%%%%%%%%%%%%%%%%%%%%%%%%%%%%%%%%%%%%%%'%%%%%%%%%%%''%%%%%%%%%%'((((((((((((((((((((!!!",
  "!!!((((((((##&#(((((('%%%%%%%%%%%'%%%%%%%%%'%%%%%%%%%%%%%%%%%%%%%%%%%%%%%%%%%%%%%%%%%%%%%%%%%%%%%%%%%%%%%%%%%%%%'%%%%%%%%%%%%'%%%%%%%%%%%'(((((((((((((((((((!!!",
  "!!!(((((((#&&#&#((((('%%%%%%%%%%%'%%%%%%%%%'%%%%%%%%%%%%%%%%%%%%%%%%%%%%%%%%%%%%%%%%%%%%%%%%%%%%%%%%%%%%%%%%%%%''%%%%%%%%%%%%'%%%%%%%%%%%'(((((((((((((((((((!!!",
  "!!!((((((#&&&#&&#(((('%%%%%%%%%%%'%%%%%%%%%'%%%%%%%%%%%%%%%%%%%%%%%%%%%%%%%%%%%%%%%%%%%%''''''''''''''''''''''''%%%%%%%%%%%%%'%%%%%%%%%%%'(((((((((((((((((((!!!",
  "!!!((((((#&&&#&&#(((('%%%%%%%%%%%'%%%%%%%%%%'%%%%%%%%%%%%%%%%%%%%%%%''''''''''''''''''''%%%%%%%%%%%%%%%%%%%%%%%%%%%%%%%%%%%%%''%%%%%%%%%%'(((((((((((((((((((!!!",
  "!!!((((((#&&&#&&#(((('%%%%%%%%%%%'%%%%%%%%%%%'''''''''''''''''''''''%%%%%%%%%%%%%%%%%%%%%%%%%%%%%%%%%%%%%%%%%%%%%%%%%%%%%%%%%''%%%%%%%%%%'(((((((((((((((((((!!!",
  "!!!((((((#&&#&&##((((('%%%%%%%%%%''%%%%%%%%%%%%%%%%%%%%%%%%%%%%%%%%%%%%%%%%%%%%%%%%%%%%%%%%%%%%%%%%%%%%%%%%%%%%%%%%%%%%%%%%%%'('%%%%%%%%'((((((((((((((((((((!!!",
  "!!!(((((((######(((((((''%%%%%%''('''''''''''''''''''''''''''''''''''''''''''''''''''''''''''''''''''''''''''''''''''''''''''(('%%%%%%%'(((((((((((((((((((((!!!",
  "!!!(((((((((((((((((((((('''''''(((((((((((((((((((((((((((((((((((((((((((''%%%%%%%%''((((((((((((((((((((((((((((((((((((((((('''''''((((((((((((((((((((((!!!",
  "!!!(((((((((((((((((((((((((((((((((((((((((((((((((((((((((((((((((((((((((('%%%%%''((((((((((((((((((((((((((((((((((((((((((((((((((((((((((((((((((((((((!!!",
  "!!!(((((((((((((((((((((((((((((('''''''''''''''''''''''''''''''''''''''''''''''%%'''''''''''''''''''''''''''''''''''''''''''''''''''((((((((((((((((((((((((!!!",
  "!!!((((((((((((((((((((((((((('''%%%%%%%%%%%%%%%%%%%%%%%%%%%%%%%%%%%%%%%%%%%%%''%%'%%%%%%%%%%%%%%%%%%%%%%%%%%%%%%%%%%%%%%%%%%%%%%%%%%''((((((((((((((((((((((!!!",
  "!!!(((((((((((((((((((((((((''%%%%%%%%%%%%%%%%%%%%%%%%%%%%%%%%%%%%%%%%%%%%%%%%%'''%%%%%%%%%%%%%%%%%%%%%%%%%%%%%%%%%%%%%%%%%%%%%%%%%%%%'((((((((((((((((((((((!!!",
  "!!!(((((((((((((((((((((((''%%%%%%%%%%%%%%%%%%%%%%%%%%%%%%%%%%%%%%%%%%%%%%%%%%%'''%%%%%%%%%%%%%%%%%%%%%%%%%%%%%%%%%%%%%%%%%%%%%%%%%%%'(((((((((((((((((((((((!!!",
  "!!!((((((((((((((((((((((('%%%%%%%%%%%%%%%%%%%%%%%%%%%%%%%%%%%%%%%%%%%%%%%%%%'''(('''%%%%%%%%%%%%%%%%%%%%%%%%%%%%%%%%%%%%%%%%%%%%''''((((((((((((((((((((((((!!!",
  "!!!((((((((((((((((((((((((''''''''''''''''''''''''''''''''''''''''''''''''''(((((((''''''''''''''''''''''''''''''''''''''''''''''(((((((((((((((((((((((((((!!!",
  "!!!((((((((((((((((((((((((((((((((((((((((((((((((((((((((((((((((((((((((((((((((((((((((((((((((((((((((((((((((((((((((((((((((((((((((((((((((((((((((((!!!",
  "!!!((((((((((((((((((((((((((((((((((((((((((((((((((((((((((((((((((((((((((((((((((((((((((((((((((((((((((((((((((((((((((((((((((((((((((((((((((((((((((!!!",
  "!!!((((((((((((((((((((((((((((((((((((((((((((((((((((((((((((((((((((((((((((((((((((((((((((((((((((((((((((((((((((((((((((((((((((((((((((((((((((((((((!!!",
  "!!!((((((((((((((((((((((((((((((((((((((((((((((((((((((((((((((((((((((((((((((((((((((((((((((((((((((((((((((((((((((((((((((((((((((((((((((((((((((((((!!!",
  "!!!((((((((((((((((((((((((((((((((((((((((((((((((((((((((((((((((((((((((((((((((((((((((((((((((((((((((((((((((((((((((((((((((((((((((((((((((((((((((((!!!",
  "!!!!((((((((((((((((((((((((((((((((((((((((((((((((((((((((((((((((((((((((((((((((((((((((((((((((((((((((((((((((((((((((((((((((((((((((((((((((((((((((!!!!",
  "!!!!!!!!!!!!!!!!!!!!!!!!!!!!!!!!!!!!!!!!!!!!!!!!!!!!!!!!!!!!!!!!!!!!!!!!!!!!!!!!!!!!!!!!!!!!!!!!!!!!!!!!!!!!!!!!!!!!!!!!!!!!!!!!!!!!!!!!!!!!!!!!!!!!!!!!!!!!!!!!",
  ")!!!!!!!!!!!!!!!!!!!!!!!!!!!!!!!!!!!!!!!!!!!!!!!!!!!!!!!!!!!!!!!!!!!!!!!!!!!!!!!!!!!!!!!!!!!!!!!!!!!!!!!!!!!!!!!!!!!!!!!!!!!!!!!!!!!!!!!!!!!!!!!!!!!!!!!!!!!!!!)",
  ")))!!!!!!!!!!!!!!!!!!!!!!!!!!!!!!!!!!!!!!!!!!!!!!!!!!!!!!!!!!!!!!!!!!!!!!!!!!!!!!!!!!!!!!!!!!!!!!!!!!!!!!!!!!!!!!!!!!!!!!!!!!!!!!!!!!!!!!!!!!!!!!!!!!!!!!!!!!)))",
};
