/* XPM */
static char *poster_1[] = {
  /* width height ncolors chars_per_pixel */
  "64 64 9 1 0 0",
  /* colors */
  "! c #000000",
  "# c #c0c0c0",
  "$ c #333366",
  "% c #555555",
  "& c #808080",
  "' c #ff0000",
  "( c None",
  ") c #ffffff",
  "* c #333300",
  /* pixels */
  "((((((((((((((((((((((((((((((((((((((((((((((((((((((((((((((((",
  "((((((((((((((((((((((((((((((((((((((((((((((((((((((((((((((((",
  "((((((((((((((((((((((((((((((((((((((((((((((((((((((((((((((((",
  "((((((((((((((($$$**$$$*$**$$$*$$$**$$$*$**$$$*$$$**$$$*$**$$$((",
  "(((((((((((((((*########&%&%%$$*########&%&%%$$*########&%&%%$$*",
  "(((((((((((((((*##&&###&#&&&&%$*##&&##''#&''&%$*##&&###&#&&&&%$*",
  "(((((((((((((((*###&&#''&&&&''%*###&&#'')&'')%%*###&&#&&&&&&%%%*",
  "(((((((((((((((*#&&#&&'')&#''))*#&&#&&'')&'')%%*#&&#&&&%%&#&%%%*",
  "(((((((((((((((*#%%%%&'')&''))$*#%''%&'')&'')$$*#%%%%&%%&&&%%$$*",
  "(((((((((((((((*#%%%&%'')&'')$%*#%%))%'')&'')$%*#%%%&%%%&&%$$$%*",
  "(((((((((((((((*#$$%%%'')''))%%*#$$%%%'')%'')%%*#$$%%%$%%%$$%%%*",
  "((((((($$$**$$$*$**$$$''''))$$$*$*''$$'')$'')$$*$**$$$*$$$**$$$*",
  "(((((((*########&%&%%$$''')#####&%'')$'')#'')###&%&%%$$*((((((((",
  "(((((((*##&&###&#&&&&%'')''&###&#&'')%'')#'')##&#&&&&%$*((((((((",
  "(((((((*###&&#&&&&&&%%'')#''&#&&&&'')%'')#'')#&&&&&&%%%*((((((((",
  "(((((((*#&&#&&&%%&#&%%'')&&'''&%%&'')%'')&'')&&%%&#&%%%*((((((((",
  "(((((((*#%%%%&%%&&&%%$'')%%%)''%&&&))$$))%%))&%%&&&%%$$*((((((((",
  "(((((((*#%%%&%%%&&%$$$'')%%%&%'''&%$$$%*#%%%&%%%&&%$$$%*((((((((",
  "(((((((*#$$%%%$%%%$$%%%))$$%%%$)))$$%%%*#$$%%%$%%%$$%%%*((((((((",
  "(((((((*$**$$$*$$$**$$$*$**$$$*$$$**$$$*$**$$$*$$$**$$$*$**$$$((",
  "((((((((((((((&*########&%&%%$$*########&%&%%$$*########&%&%%$$(",
  "(((((((((((((((*##&&###&#&&&&%$*##&&###&#&&&&%$*##&&###&#&&&&%$*",
  "(((((((((((((((*###&&#&&&&&&%%%*###&&#&&&&&&%%%*###&&#&&&&&&%%%*",
  "(((((((((((((((*#&&#&&&%%&#&%%%*#&&#&&&%%&#&%%%*#&&#&&&%%&#&%%%*",
  "(((((((((((((((*#%%%%&%%&&&%%$$*#%%%%&%%&&&%%$$*#%%%%&%%&&&%%$$*",
  "(((((((((((((((*#'''&%%%&&''$$%*#%%%&%%%&&%$$$%*#%%%&%%%&&%$$$%*",
  "(((((((((((((((*#$'')%$%%%'')%%*#$$%%%$%%%$$%%%*#$$%%%$%%%$$%%%*",
  "(((((((($$**$$$*$**''$*$$''))$$*$**$$$*$$$**$$$*$**$$$*$$$**$$$*",
  "(((((((*########&%&%''$*''))####&%&%%$$*########&%&%%$$*((((((((",
  "(((((((*##&&###&#&&&'''*'')&###&#&&&&%$*##&&###&#&&&&%$*((((((((",
  "(((((((*###&&#&&&&&&%''''))&&#&'''''%%''##''&#'''''&%%%*((((((((",
  "(((((((*#&&#&&&%%&#&%%''))&#&&'')))''%'')&'')&''))))%%%*((((((((",
  "(((((((*#%%%%&%%&&&%%$'')%%%%&'')&&'')'')%'')&'')&&%%$$*((((((((",
  "(((((((*#%%%&%%%&&%$$$'')%%%&%'')&''))'')%'')%'')&%$$$%*((((((((",
  "(((((((*#$$%%%$%%%$$%%'')$$%%%'''''')%'''''')%'')%$$%%%*((((((((",
  "$$**$$$*$**$$$*$$$**$$'')**$$$*))))))$$))))))$*))$**$$$*$**$$$*$",
  "!#######&%&%%$$*######'')%&%%$$*########&%&%%$$*########&%&%%$$*",
  "!#&&###&#&&&&%$*##&&###))&&&&%$*##&&###&#&&&&%$*##&&###&#&&&&%$*",
  "!##&&#&&&&&&%%%*###&&#&&&&&&%%%*###&&#&&&&&&%%%*###&&#&&&&&&%%%*",
  "!&&#&&&%%&#&%%%*#&&#&&&%%&#&%%%*#&&#&&&%%&#&%%%*#&&#&&&%%&#&%%%*",
  "!%%%%&%%&&&%%$$*#%%%%&%%&&&%%$$*#%%%%&%%&&&%%$$*#%%%%&%%&&&%%$$*",
  "!%%%&%%%&&%'''''#%%%&%%%&&%$$$%*#%%%&%%%&&%$$$%*#%%%&%%%&&%$$$%*",
  "!$$%%%$%%%$''))''''%%%$%%%$$%%%*#$$%%%$%%%$$%%%*#$$%%%$%%%$$%%%(",
  "$**$$$*$$$*'')$*)'')$$*$$$**$$$*$**$$$*$$$**$$$*$**$$$*$$$**$$$(",
  "(((((((*###'')##''))%$$*########&%&%%$$*########&%&%%$$*((((((((",
  "(((((((*##&''''''))&&%$*##&&###&#&&&&%$*##&&###&#''&&%$*((((((((",
  "(((((((*###'')))))&&%%%*###&&#&&&&&&%%%*###&&#&&&'')%%%*###&&#((",
  "(((((((*#&&'')&%%&#&%''''&&#'''''&''''%*#'''''&%%''''%%*''''&&&(",
  "(((((((*#%%'')%%&&&%%$)'')%%'')))''))''*#''))''%&'')))$''))))&%%",
  "(((((((*#%%'')%%&&%$$'''''%%'')%&'''''')#'')&'')&'')$$%*''''&%%%",
  "(((((((*#$$'')$%%%$$''))'')%'')%%'')))))#'')%'')%'')%%%*#)'')%$%",
  "(((((((*$**'')*$$$**'''''')$'')$$$'''''*$'')$'')$''''$$''''))$*$",
  "$$$$$$$$$$$'')$*#####))))))%%))*###)))))&%))%$))##))))##))))%$$*",
  "!&%%&&&%&%%'')$*##&&###&#&&&&%$*##&&###&#&&&&%$*##&&###&#&&&&%$*",
  "!&&%%#%%%%%%))$*###&&#&&&&&&%%%*###&&#&&&&&&%%%*###&&#&&&&&&%%%*",
  "!&&#&&&%$%#%$$$*#&&#&&&%%&#&%%%*#&&#&&&%%&#&%%%*#&&#&&&%%&#&%%%*",
  "!%%%%&%%%%%$%$$*#%%%%&%%&&&%%$$*#%%%%&%%&&&%%$$*#%%%%&%%&&&%%$$*",
  "!%%%&%%%&&%$$$%*#%%%&%%%&&%$$$%*#%%%&%%%&&%$$$%*#%%%&%%%&&%$$$%*",
  "!$$%%%$%%%$$%%%*#$$%%%$%%%$$%%%*#$$%%%$%%%$$%%%*#$$%%%$%%%$$%%%*",
  "$**$$$*$$$**$$$*$**$$$*$$$**$$$*$**$$$*$$$**$$$*$**$$$*$$$**$$$*",
  "((((((((((((((((((((((((((((((((((((((((((((((((((((((((((((((((",
  "((((((((((((((((((((((((((((((((((((((((((((((((((((((((((((((((",
  "((((((((((((((((((((((((((((((((((((((((((((((((((((((((((((((((",
  "((((((((((((((((((((((((((((((((((((((((((((((((((((((((((((((((",
};
