/* XPM */
static char *zombie_20c[] = {
  /* width height ncolors chars_per_pixel */
  "30 66 15 1 0 0",
  /* colors */
  "! c #000000",
  "# c #008080",
  "$ c #666666",
  "% c #666600",
  "& c #333366",
  "' c #00cc99",
  "( c #aa9f55",
  ") c #555555",
  "* c #333399",
  "+ c #a28d68",
  ", c #a0a0a4",
  "- c #0000ff",
  ". c None",
  "/ c #00ffff",
  "0 c #699900",
  /* pixels */
  "..............................",
  "..............................",
  "..#.#.#.......................",
  ".#'###........................",
  ".#'''#........................",
  ".#''##...................#....",
  ".#''#................####'#...",
  ".#''#................#'''##...",
  "#'###................#''#'#...",
  "#''#......!!#!!##.....#''##...",
  "#''#.......!''!!!.....#'''#...",
  "#'''#....!#'!'!''#.....#'##...",
  "#'''#.....!'!'!!'#.....#''##..",
  "#'''#.....#'!''!''.....#'''#..",
  "#'''#.....#'!'!!'#.....#''##..",
  "##''#.....''!''!'#.....#//'#..",
  ".#'''##...#'!''!'#.....#''##..",
  ".##''##...#'''''!#.....#'''#..",
  "..#''))...##'!''#%....##'''#..",
  "..#))$))%%%%#$)#,%))##'''''#..",
  "...)$$$0$$$$$$$$$$$$)#''''##..",
  "...)$$$$$$$$$$$$$$)$$)'''##...",
  "....)$$$$(($$$$$$$$$$)''#.....",
  ".....))$$(((((($$$$$$)'#......",
  "......%$$$((((($$$$$$)#.......",
  ".......%$$$$((($$$%)).........",
  "........%$$$$$$$$$%...........",
  "........%)$$$$$0$$%...........",
  "........%)$$$$00$$%...........",
  "........)$$$%$$$$%............",
  "...&&&&.)+$$$$$$$%............",
  "...&*-*&&&&&$$$++%............",
  "..&---------&&&&&&&...........",
  "..&------------*--&...........",
  "..&-----------*---&...........",
  "..&---------------&...........",
  "..&*--------*&*----&..........",
  "..&&&------*&*------&.........",
  "..#''&&-&-*&&*------&.........",
  "..#''/&!.&&&.&*------&........",
  "..#''''#......&-------&.......",
  "..#''''#.......&------&.......",
  "..#''''#........&------&......",
  "..#''''#........&*-----&......",
  "..#'''#..........&-----&......",
  "..#'''#...........&&*-&#......",
  "..#'''#...........#'&&'#......",
  "..#''/'#.........#'//''#......",
  "..#''''#.........#'//''#......",
  "...''''#.........#'/'''#......",
  "..###''#.........''''''#......",
  "..#'''/#........#/'//'#.......",
  "..#''''#........#/'//'#.......",
  "..######........#'''/#........",
  "................#/''/#........",
  "................#/''#.........",
  "................#'###.........",
  "...............#''''#.........",
  "...............#''//..........",
  "..............#'''''#.........",
  "..............#''''''#........",
  "..............########........",
  "..............................",
  "..............................",
  "..............................",
  "..............................",
};
