/* XPM */
static char *zombie_28[] = {
  /* width height ncolors chars_per_pixel */
  "62 14 12 1 0 0",
  /* colors */
  "! c #000000",
  "# c #008080",
  "$ c #666666",
  "% c #666600",
  "& c #333366",
  "' c #00cc99",
  "( c #aa9f55",
  ") c #555555",
  "* c #333399",
  "+ c #a28d68",
  ", c #0000ff",
  "- c None",
  /* pixels */
  "--------------------------------------------------------------",
  "-----------------------------------------------!--------------",
  "---------------------------%%%%%%%%%%%%%%#--!-!##!!-----------",
  "-###########&&&&&&&&-&&&&&&&$+)$$$$$))%)%%%%#####'###########-",
  "#'''''''''''#&,,,,,,,,,,,,,&$$$$$(($$$(%$$(%'''''##''''''''''#",
  "''##'''''''''#&***,,,,,,,,,&$$$$((($$$%$$$(%'''''''''''''''''#",
  "#'''''''''''#&****,,,,,,,,,&$+%)$$(($)%+$$$$%'''''''''''#''''#",
  "#'''#########&*****,,,,,,,&&+$$$$$$(()%+$$$%$''''''''#####''#-",
  "#'''#---------&&&&&*,,,,,,,&$$$$$$$$($(%+$%'''''''#####--###--",
  "#''#-------------&&&&&&&&&&+$+%$$$$$(%(%%%%########-----------",
  "#''#----------------------%%%%($$$$$%$$$$$%'''##''#-----------",
  "#'#--------------------------#%%%%($$$$$$(%%%####-------------",
  "##-------------------------------#%%%%%%%%-#------------------",
  "--------------------------------------------------------------",
};
