/* XPM */
static char *zombie_25[] = {
  /* width height ncolors chars_per_pixel */
  "56 12 13 1 0 0",
  /* colors */
  "! c #000000",
  "# c #008080",
  "$ c #666666",
  "% c #666600",
  "& c #333366",
  "' c #00cc99",
  "( c #333399",
  ") c #a28d68",
  "* c #808080",
  "+ c #ff0000",
  ", c #0000ff",
  "- c None",
  ". c #699900",
  /* pixels */
  "--------------------------------------------------------",
  "--------------------------------------------------------",
  "##----------------------------------------------#-##----",
  "#'#------------------------++++%#%%+%%%%-----#####''#!-!",
  "#''#-------------------&&+++%))$$+++$$$%%%%%+++'+++''+!-",
  "#''#----------------&&&+++,&%))$+$$$$$$%+++++'''+'#''+#-",
  "#'''#---------&&&&&&&,,,,,,+++++$$$$###++%%$+'''''''''#-",
  "#'''#########&(,,,,,,,,,##++&######++''+$$%++#''#'#'+'!!",
  "#'#''+'''''''&(,+,,,,,,##++##''''''''''%$$$+$''''##'+'#!",
  "###'''''''''&(,+,,,,,,,#++''''''''''++'%$$+%$++''''''##-",
  "#'''''''''''&,,,((,,(,,#+'''''''''#''+'%$$.%*#+###!###!-",
  "-###########&&&&&&&+++++++#############%%%$%##+++--!-!--",
};
