/* XPM */
static char *zombie_18[] = {
  /* width height ncolors chars_per_pixel */
  "30 66 16 1 0 0",
  /* colors */
  "! c #000000",
  "# c #008080",
  "$ c #666666",
  "% c #666600",
  "& c #333366",
  "' c #00cc99",
  "( c #aa9faa",
  ") c #aa9f55",
  "* c #555555",
  "+ c #333399",
  ", c #a28d68",
  "- c #a0a0a4",
  ". c #0000ff",
  "/ c None",
  "0 c #00ffff",
  "1 c #699900",
  /* pixels */
  "////////////////////////##////",
  "///////////////////////#''##//",
  "///////////////////////#''##//",
  "///////////////////////#'#'#//",
  "///////////////////////##'##//",
  "///////////////////////#'''#//",
  "///////////////////////##'##//",
  "///////////////////////#'''#//",
  "///////////////////////##''#//",
  "///////////!!#!!##/////#'''#//",
  "////////////!''!!!//////##''#/",
  "//////////!#'!'!''#/////##''#/",
  "///////////!'!'!!'#/////#'''#/",
  "///////////#'!''!''////##'''#/",
  "//#/#/#////#'!'!!'#////#''''#/",
  "/#'###/////''!''!'#////#'''#//",
  "/#'''#/////#'!''!'#////#'''#//",
  "/#'''#/////#'''''!#///#''''#//",
  "//#''#/////##'!''#%//#''''#///",
  "/#'''#//%%%%%#$*#-%%**''''#///",
  "/#'''#/%$$1$$$$$$$$$$$*''#////",
  "/##''#**1$$$$$$*-$$$$$$'#/////",
  "/#''#'*$$$))))$$$$$$$$$*//////",
  "/#'#''*$$$))))*$$$$$$$*///////",
  "/#''''*$$$))))$$$$$$%*////////",
  "/#'''0*$$$$$))))$$$%/*////////",
  "/#''''#*%%$$$$$$$$$%//////////",
  "//#''#////*$$$$11$$%//////////",
  "///##////%*$$$$1$$$%//////////",
  "/////////*$$%$$$$$%///////////",
  "////&/&&&&$$$$%$$%%///////////",
  "//&+.&.+..%%%$$$$,%///////////",
  "//&..........&&&$$,%//////////",
  "//&+............&&&%//////////",
  "//!.!..........+..+(//////////",
  "//!!!+..........+.+&//////////",
  "//#'!!.......+&+....&/////////",
  "//#''!......+&+.....&/////////",
  "//#''0'#&&&+&&.+.....&////////",
  "//#''0'#///&*/&......&////////",
  "//#''00#///////&.....&////////",
  "//#''00#////////&.....&///////",
  "//#''00#////////&......&//////",
  "///#''0#/////////&......&/////",
  "///#''0#/////////&......&/////",
  "///#''0#//////////&.....&/////",
  "///####'//////////&....+&/////",
  "///#''''#/////////&...+!&/////",
  "///##'''#/////////&..+&#//////",
  "////####//////////!.+''#//////",
  "//////////////////!&''0#//////",
  "//////////////////#0''0#//////",
  "//////////////////#0''0#//////",
  "//////////////////#0''0#//////",
  "//////////////////#0'''#//////",
  "//////////////////#0'''#//////",
  "//////////////////#00''#//////",
  "//////////////////#00''#//////",
  "//////////////////##0''#//////",
  "//////////////////#'0''///////",
  "//////////////////#''###//////",
  "//////////////////#'#'''#/////",
  "//////////////////##'''''#////",
  "///////////////////#'''###////",
  "////////////////////#####/////",
  "//////////////////////////////",
};
